<?xml version="1.0" encoding="UTF-8"?>
<!DOCTYPE svg PUBLIC "-//W3C//DTD SVG 1.1//EN" "http://www.w3.org/Graphics/SVG/1.1/DTD/svg11.dtd">
<svg xmlns="http://www.w3.org/2000/svg" version="1.1" width="353px" height="268px" style="shape-rendering:geometricPrecision; text-rendering:geometricPrecision; image-rendering:optimizeQuality; fill-rule:evenodd; clip-rule:evenodd" xmlns:xlink="http://www.w3.org/1999/xlink">
<g><path style="opacity:1" fill="#ffdd69" d="M 172.5,0.5 C 170.485,1.92381 168.152,2.59047 165.5,2.5C 167.515,1.07619 169.848,0.409526 172.5,0.5 Z"/></g>
<g><path style="opacity:1" fill="#ffc805" d="M 175.5,-0.5 C 176.5,-0.5 177.5,-0.5 178.5,-0.5C 184.972,0.560335 190.972,3.06033 196.5,7C 221.528,32.3617 246.861,57.3617 272.5,82C 274.5,82.6667 276.5,82.6667 278.5,82C 292.5,70.6667 306.5,59.3333 320.5,48C 334.478,40.1603 345.145,43.327 352.5,57.5C 352.5,61.5 352.5,65.5 352.5,69.5C 335.61,131.026 318.776,192.693 302,254.5C 299.339,259.908 295.173,263.575 289.5,265.5C 215.846,266.645 142.18,266.811 68.5,266C 65.8832,265.178 63.2165,264.678 60.5,264.5C 52.8974,261.015 48.3974,255.015 47,246.5C 31.4513,187.629 15.6179,128.962 -0.5,70.5C -0.5,67.1667 -0.5,63.8333 -0.5,60.5C 6.64364,43.9577 18.3103,39.7911 34.5,48C 48.7101,59.0497 63.0434,69.883 77.5,80.5C 78.4251,82.8837 80.2585,83.8837 83,83.5C 85.0081,83.6932 86.5081,83.0265 87.5,81.5C 99.8615,68.1406 112.195,54.8073 124.5,41.5C 126.5,41.5 127.5,40.5 127.5,38.5C 137.264,27.2329 147.598,16.3995 158.5,6C 160.577,4.29501 162.91,3.12835 165.5,2.5C 168.152,2.59047 170.485,1.92381 172.5,0.5C 173.791,0.737305 174.791,0.403972 175.5,-0.5 Z"/></g>
<g><path style="opacity:1" fill="#ffe384" d="M 127.5,38.5 C 127.5,40.5 126.5,41.5 124.5,41.5C 125.167,40.1667 126.167,39.1667 127.5,38.5 Z"/></g>
<g><path style="opacity:1" fill="#ffdd00" d="M 133.5,58.5 C 144.436,56.6341 151.27,60.9675 154,71.5C 157.447,119.518 161.113,167.518 165,215.5C 165.667,221.833 165.667,228.167 165,234.5C 163.098,239.4 159.598,242.567 154.5,244C 132.833,244.667 111.167,244.667 89.5,244C 84.4268,242.594 80.9268,239.428 79,234.5C 68.2053,191.782 57.2053,149.116 46,106.5C 44.5527,95.9472 49.0527,91.4472 59.5,93C 65.1667,98 70.8333,103 76.5,108C 80.0721,109.405 83.7387,109.738 87.5,109C 90.6301,106.872 93.4634,104.372 96,101.5C 106.428,88.3161 117.094,75.3161 128,62.5C 129.812,61.0229 131.645,59.6896 133.5,58.5 Z"/></g>
<g><path style="opacity:1" fill="#ffe074" d="M 77.5,80.5 C 80.6415,82.6609 83.9749,82.9942 87.5,81.5C 86.5081,83.0265 85.0081,83.6932 83,83.5C 80.2585,83.8837 78.4251,82.8837 77.5,80.5 Z"/></g>
<g><path style="opacity:1" fill="#ffd541" d="M 60.5,264.5 C 63.2165,264.678 65.8832,265.178 68.5,266C 142.18,266.811 215.846,266.645 289.5,265.5C 288.167,266.167 286.833,266.833 285.5,267.5C 212.167,267.5 138.833,267.5 65.5,267.5C 63.7392,266.687 62.0725,265.687 60.5,264.5 Z"/></g>
</svg>
