<?xml version="1.0" encoding="UTF-8" standalone="no"?>
<svg
        viewBox="0 0 22201 34225"
        fill="none"
        version="1.1"
        id="svg26"
        width="22201"
        height="34225" xmlns="http://www.w3.org/2000/svg">
    <g
            clip-path="url(#clip0)"
            id="g26">
        <path
                fill-rule="evenodd"
                clip-rule="evenodd"
                d="m 90.9582,168.134 c 0,-3.893 -3.1969,-7.196 -7.2227,-7.196 H 72.2504 c -3.9074,0 -7.2227,3.185 -7.2227,7.196 0,3.892 3.1969,7.195 7.2227,7.195 h 11.4851 c 4.0258,0 7.2227,-3.185 7.2227,-7.195 z"
                fill="#f49000"
                id="path2"/>
        <path
                fill-rule="evenodd"
                clip-rule="evenodd"
                d="m 129.795,171.319 c 1.776,-3.539 0.355,-7.786 -3.079,-9.555 l -6.986,-3.539 c -3.552,-1.77 -7.814,-0.354 -9.59,3.067 -1.777,3.539 -0.356,7.785 3.078,9.555 l 6.986,3.539 c 3.552,1.887 7.815,0.472 9.591,-3.067 z"
                fill="#f49000"
                id="path3"/>
        <path
                fill-rule="evenodd"
                clip-rule="evenodd"
                d="m 134.412,168.252 c 0,-3.893 -3.197,-7.078 -7.104,-7.078 h -2.25 c -3.907,0 -7.104,3.185 -7.104,7.078 0,3.892 3.197,7.077 7.104,7.077 h 2.25 c 3.907,0 7.104,-3.185 7.104,-7.077 z"
                fill="#f49000"
                id="path4"/>
        <path
                d="M 75.8023,90.3967 119.493,4.99218 c 2.369,-4.600514 8.526,-5.54421 12.196,-1.88739 17.524,17.45841 21.905,44.58961 10.42,67.12041 -11.486,22.5307 -36.232,34.9168 -60.7417,31.0238 -5.0913,-0.826 -7.933,-6.2518 -5.565,-10.8523 z"
                fill="#58cc02"
                id="path5"/>
        <path
                d="M 7.60174,153.27 26.5464,64.563 c 1.0656,-4.7185 6.3938,-7.0778 10.6563,-4.7185 20.3655,11.6782 31.0219,35.3886 26.0489,58.7455 -4.973,23.356 -24.628,40.932 -47.9536,43.292 -4.8546,0.471 -8.7619,-3.775 -7.69626,-8.612 z"
                fill="#58cc02"
                id="path6"/>
        <path
                fill-rule="evenodd"
                clip-rule="evenodd"
                d="M 71.0663,19.1479 C 60.7651,30.9441 53.1873,38.0218 48.3327,40.381 43.5965,42.7403 33.4138,44.2738 18.0213,44.9816 7.83854,45.4534 0.0238728,54.1826 0.497489,64.4453 0.615893,66.9225 1.20791,69.3997 2.39195,71.641 l 25.10165,51.195 c 13.3797,27.368 46.5328,38.692 74.1214,25.362 27.469,-13.329 38.836,-46.241 25.456,-73.49 V 74.59 L 101.733,23.1586 C 97.2336,13.9575 86.1036,10.1828 76.8681,14.6653 c -2.1313,1.0617 -4.1442,2.5952 -5.8018,4.4826 z"
                fill="#58cc02"
                id="path7"/>
        <path
                d="m 102.799,106.204 c -0.119,-0.708 -0.829,-1.062 -1.54,-0.826 l -12.4322,6.016 c -0.7104,0.354 -0.8288,1.18 -0.3552,1.651 2.4865,2.478 6.2754,3.068 9.5908,1.534 3.3156,-1.534 5.2096,-4.954 4.7366,-8.375 z m -23.2077,10.026 -12.4324,6.017 c -0.7104,0.353 -0.8288,1.179 -0.3552,1.651 2.4865,2.477 6.2754,3.067 9.5907,1.534 3.3153,-1.652 5.2098,-5.073 4.7362,-8.494 -0.1184,-0.59 -0.9472,-0.943 -1.5393,-0.708 z m 16.103,5.191 -12.4324,6.016 c -0.7105,0.354 -0.8289,1.179 -0.3553,1.651 2.4865,2.478 6.2754,3.067 9.5908,1.534 3.3153,-1.652 5.2097,-5.073 4.7361,-8.493 -0.1184,-0.59 -0.9472,-1.062 -1.5392,-0.708 z"
                fill="#89e219"
                id="path8"/>
        <path
                d="m 69.5269,30.7079 -6.9858,23.4745 c -0.3552,1.2975 0.592,2.4772 1.8944,2.4772 6.2755,-0.236 11.722,-4.4826 13.4981,-10.6166 1.7761,-6.134 -0.592,-12.7399 -5.8018,-16.1608 -1.0656,-0.7078 -2.2497,-0.3539 -2.6049,0.8257 z"
                fill="#89e219"
                id="path9"/>
        <path
                fill-rule="evenodd"
                clip-rule="evenodd"
                d="m 63.9621,49.3462 c -2.2497,7.9034 -11.3668,12.386 -18.9446,9.201 6.2754,12.8579 15.6293,31.8498 15.6293,31.8498 0,-0.118 6.2754,-3.185 19.063,-9.2011 C 75.0921,71.759 69.7639,61.1424 63.9621,49.3462 Z"
                fill="#89e219"
                id="path10"/>
        <path
                d="m 78.7625,30.944 -6.749,23.2385 c -0.3552,1.2976 0.592,2.4772 1.8945,2.4772 6.2754,-0.2359 11.722,-4.4826 13.498,-10.6166 1.7761,-6.134 -0.592,-12.6219 -5.8018,-16.1608 -1.0656,-0.8257 -2.4865,-0.2359 -2.8417,1.0617 z"
                fill="#89e219"
                id="path11"/>
        <path
                d="m 27.4936,51.4695 22.7335,9.319 c 1.1841,0.4719 1.5393,2.0054 0.7105,3.0671 -4.1442,4.7184 -10.8932,6.2519 -16.8134,3.7747 -5.9202,-2.4772 -9.4723,-8.4932 -8.8803,-14.6273 0,-1.4155 1.0656,-2.0053 2.2497,-1.5335 z"
                fill="#89e219"
                id="path12"/>
        <path
                d="m 22.047,58.3111 22.3784,9.437 c 1.184,0.4718 1.5392,2.0053 0.7104,3.067 -4.1441,4.7185 -10.8932,6.252 -16.8134,3.7748 -5.9202,-2.4772 -9.4723,-8.4933 -8.8803,-14.6273 0,-1.4156 1.4209,-2.1233 2.6049,-1.6515 z"
                fill="#89e219"
                id="path13"/>
        <path
                fill-rule="evenodd"
                clip-rule="evenodd"
                d="M 75.9207,36.7243 74.3815,37.432 C 64.0803,42.3864 59.8178,54.6545 64.9092,64.9172 l 6.6306,13.4476 c 4.973,10.1448 17.287,14.3914 27.5881,9.437 l 1.5391,-0.7078 c 10.301,-4.9544 14.564,-17.2224 9.473,-27.4851 L 103.509,46.1612 C 98.5359,36.0165 86.2219,31.7699 75.9207,36.7243 Z"
                fill="#89e219"
                id="path14"/>
        <path
                fill-rule="evenodd"
                clip-rule="evenodd"
                d="m 27.7303,59.6085 -1.5392,0.7078 C 15.8899,65.2707 11.6274,77.5388 16.7187,87.8015 l 6.6307,13.4475 c 4.9729,10.145 17.2869,14.392 27.5881,9.437 l 1.4208,-0.708 C 62.5411,105.024 66.8036,92.7559 61.9491,82.6111 L 55.4368,69.0455 C 50.4639,58.9008 38.1499,54.6541 27.7303,59.6085 c 0.1184,0 0,0 0,0 z"
                fill="#89e219"
                id="path15"/>
        <path
                fill-rule="evenodd"
                clip-rule="evenodd"
                d="m 31.4009,67.1583 c -7.5778,3.6568 -10.6563,12.7399 -6.9858,20.1715 l 4.0257,8.1394 c 3.6705,7.5498 12.7876,10.6168 20.3655,6.9598 7.5779,-3.6569 10.6564,-12.74 6.9858,-20.1716 L 51.7664,74.118 C 47.9775,66.6864 38.8604,63.5015 31.4009,67.1583 Z"
                fill="#ffffff"
                id="path16"/>
        <path
                fill-rule="evenodd"
                clip-rule="evenodd"
                d="m 37.4395,73.6463 c -3.5521,1.7694 -4.9729,6.0161 -3.3153,9.5549 l 3.4338,6.9598 c 1.776,3.5388 6.0386,4.9544 9.5907,3.3029 3.5521,-1.7694 4.9729,-6.016 3.3153,-9.5549 l -3.4337,-6.9598 c -1.6577,-3.6568 -5.9202,-5.0723 -9.5908,-3.3029 z"
                fill="#122431"
                id="path17"/>
        <path
                d="m 34.2425,82.9654 c 2.4849,0 4.4994,-2.007 4.4994,-4.4826 0,-2.4756 -2.0145,-4.4826 -4.4994,-4.4826 -2.4849,0 -4.4993,2.007 -4.4993,4.4826 0,2.4756 2.0144,4.4826 4.4993,4.4826 z"
                fill="#ffffff"
                id="path18"/>
        <path
                fill-rule="evenodd"
                clip-rule="evenodd"
                d="m 79.9464,43.4478 c -7.5778,3.6568 -10.6563,12.7399 -6.9858,20.1715 l 4.0257,8.1393 c 3.6706,7.5496 12.7877,10.6166 20.3655,6.9598 7.5782,-3.6568 10.6562,-12.7399 6.9862,-20.1715 l -4.026,-8.1394 C 96.6414,42.8579 87.5243,39.7909 79.9464,43.4478 Z"
                fill="#ffffff"
                id="path19"/>
        <path
                fill-rule="evenodd"
                clip-rule="evenodd"
                d="m 81.7225,52.4129 c -3.5521,1.7695 -4.973,6.0161 -3.3153,9.5549 l 3.4337,6.9598 c 1.7761,3.5389 6.0386,4.9544 9.5907,3.3029 3.5522,-1.7694 4.973,-6.016 3.3153,-9.5549 L 91.3132,55.7159 C 89.6556,52.177 85.393,50.7615 81.7225,52.4129 Z"
                fill="#122431"
                id="path20"/>
        <path
                d="m 78.2888,62.2039 c 2.4849,0 4.4993,-2.0069 4.4993,-4.4826 0,-2.4756 -2.0144,-4.4825 -4.4993,-4.4825 -2.4849,0 -4.4994,2.0069 -4.4994,4.4825 0,2.4757 2.0145,4.4826 4.4994,4.4826 z"
                fill="#ffffff"
                id="path21"/>
        <path
                d="M 29.9801,103.727 23.4679,90.5149 C 37.558,87.8017 49.28,88.7454 62.5412,92.9921 l -3.6705,8.8469 c -1.184,2.949 -4.381,4.483 -7.4595,3.657 -6.157,-1.769 -12.1956,-1.887 -18.471,-0.354 -1.0656,0.354 -2.3681,-0.354 -2.9601,-1.415 z"
                fill="#89e219"
                id="path22"/>
        <path
                d="M 109.784,67.8662 104.93,53.5928 C 92.9709,61.6142 85.2747,70.4613 78.9993,82.8474 l 12.0772,5.0723 c 1.3024,0.5898 2.8417,0 3.4337,-1.2976 3.1969,-6.8418 7.9328,-12.1501 14.3268,-16.0428 0.829,-0.4718 1.303,-1.6515 0.947,-2.7131 z"
                fill="#89e219"
                id="path23"/>
        <path
                fill-rule="evenodd"
                clip-rule="evenodd"
                d="m 66.567,78.2467 c -3.9073,1.8874 -5.4466,6.488 -3.5521,10.3807 l 0.9472,1.8874 c 1.8945,3.8927 6.6307,5.4262 10.4196,3.5388 3.9073,-1.8873 5.4466,-6.4879 3.5521,-10.3806 L 76.9866,81.7856 C 75.2105,77.8929 70.4743,76.3593 66.567,78.2467 Z"
                fill="#f49000"
                id="path24"/>
        <path
                d="m 79.9466,81.3138 c -2.9601,-4.0107 -8.7619,-5.5442 -13.8533,-2.9491 -4.6178,2.2413 -6.9858,7.6676 -5.565,12.504 l 0.2368,0.5898 10.538,-3.067 8.9987,-6.3699 z"
                fill="#ffc200"
                id="path25"/>
        <path
                d="m 66.3302,84.3806 c -0.3552,0 -0.8288,-0.118 -1.0656,-0.4719 -0.592,-0.5898 -0.592,-1.5335 0,-2.1233 1.4208,-1.4155 3.1969,-2.3592 5.2097,-2.5952 0.8289,-0.1179 1.6577,0.4719 1.6577,1.4156 0.1184,0.8257 -0.4736,1.6515 -1.4208,1.6515 -1.3025,0.1179 -2.3681,0.7077 -3.3154,1.6514 -0.3552,0.3539 -0.7104,0.4719 -1.0656,0.4719 z"
                fill="#ffde00"
                id="path26"/>
    </g>
    <defs
            id="defs26">
        <clipPath
                id="clip0">
            <rect
                    width="148.005"
                    height="183.19501"
                    fill="#ffffff"
                    transform="translate(0.497559,0.863525)"
                    id="rect26"
                    x="0"
                    y="0"/>
        </clipPath>
    </defs>
</svg>
