<?xml version="1.0" encoding="UTF-8" standalone="no"?>
<svg
   version="1.1"
   width="225"
   height="183"
   style="clip-rule:evenodd;fill-rule:evenodd;image-rendering:optimizeQuality;shape-rendering:geometricPrecision;text-rendering:geometricPrecision"
   id="svg22"
   xmlns="http://www.w3.org/2000/svg">
  <defs
     id="defs22" />
  <g
     id="g1"
     transform="translate(-37.477005,-66.995949)">
    <path
       style="opacity:0.948"
       fill="#57cc01"
       d="m 72.5,67.5 c 10.7261,-1.0893 16.5594,3.5774 17.5,14 -0.7247,0.5585 -1.5581,0.8918 -2.5,1 -7.2944,-2.2103 -14.6277,-4.2103 -22,-6 0.4705,-4.4683 2.8039,-7.4683 7,-9 z"
       id="path1" />
  </g>
  <g
     id="g2"
     transform="translate(-37.477005,-66.995949)">
    <path
       style="opacity:0.991"
       fill="#59cc02"
       d="m 186.5,67.5 c 8.705,-1.7163 15.539,0.9504 20.5,8 2.05,10.8993 3.717,21.8993 5,33 1.041,5.79 2.874,11.29 5.5,16.5 13.385,2.41 26.718,5.077 40,8 2.75,1.085 4.417,3.085 5,6 -6.123,13.447 -16.456,21.781 -31,25 -6.667,0.333 -13.333,0.667 -20,1 -16.874,23.585 -38.874,29.918 -66,19 -14.483,-8.435 -23.483,-20.935 -27,-37.5 -24.5669,-5.722 -37.7336,-21.055 -39.5,-46 0.5752,-3.2973 2.5752,-4.964 6,-5 8.282,1.9453 16.449,4.2787 24.5,7 -0.483,-6.9606 0.017,-13.9606 1.5,-21 4.631,-7.0647 11.131,-9.898 19.5,-8.5 7.982,2.8705 16.149,5.0372 24.5,6.5 11.364,-1.9513 21.864,-5.9513 31.5,-12 z"
       id="path2" />
  </g>
  <g
     id="g3"
     transform="translate(-37.477005,-66.995949)">
    <path
       style="opacity:0.954"
       fill="#57cc01"
       d="m 38.5,70.5 c 4.8856,2.7058 9.3856,6.0391 13.5,10 0.1235,3.1451 -1.5432,4.4784 -5,4 -8.4295,-1.2637 -11.2628,-5.9304 -8.5,-14 z"
       id="path3" />
  </g>
  <g
     id="g4"
     transform="translate(-37.477005,-66.995949)">
    <path
       style="opacity:1"
       fill="#8ae119"
       d="m 166.5,133.5 c 0.874,-2.731 -0.126,-4.898 -3,-6.5 -8.014,-3.326 -13.014,-0.826 -15,7.5 1.459,-0.067 2.792,0.266 4,1 0,1.333 0,2.667 0,4 -8.087,8.647 -17.42,10.147 -28,4.5 -5.909,-5.106 -8.742,-11.606 -8.5,-19.5 -1.757,-7.506 -0.257,-14.172 4.5,-20 0.821,-2.947 1.321,-5.9465 1.5,-9 2.848,-0.7567 5.181,0.2433 7,3 0.333,-2.6667 0.667,-5.3333 1,-8 0.414,-0.4574 0.914,-0.7907 1.5,-1 5.855,5.023 11.855,9.8564 18,14.5 4.951,2.174 9.618,1.674 14,-1.5 4.788,-6.077 9.455,-12.2436 14,-18.5 0.949,-0.6172 1.782,-0.4506 2.5,0.5 1,2 2,4 3,6 1.34,-1.3678 2.674,-2.7011 4,-4 2.645,1.935 4.311,4.6016 5,8 8.02,6.552 11.52,15.052 10.5,25.5 -0.299,13.301 -7.132,20.467 -20.5,21.5 -6.21,-0.688 -11.377,-3.355 -15.5,-8 z"
       id="path4" />
  </g>
  <g
     id="g5"
     transform="translate(-37.477005,-66.995949)">
    <path
       style="opacity:1"
       fill="#fafcf8"
       d="m 189.5,126.5 c 0.367,-4.467 -0.133,-8.8 -1.5,-13 -2.555,-2.15 -5.388,-2.483 -8.5,-1 0.985,1.598 1.151,3.265 0.5,5 -4.191,3.674 -4.358,7.674 -0.5,12 -3.224,2.981 -6.058,2.647 -8.5,-1 -4.255,-8.489 -4.255,-16.822 0,-25 7.241,-5.4719 14.241,-5.1386 21,1 3.066,6.644 4.232,13.644 3.5,21 -2.121,-0.175 -4.121,0.159 -6,1 z"
       id="path5" />
  </g>
  <g
     id="g6"
     transform="translate(-37.477005,-66.995949)">
    <path
       style="opacity:1"
       fill="#fcfdfa"
       d="m 145.5,134.5 c 1.04,-4.28 1.206,-8.613 0.5,-13 -1.994,-4.25 -5.161,-5.583 -9.5,-4 1.853,3.6 1.02,6.266 -2.5,8 -0.334,2.347 -0.167,4.681 0.5,7 -4.055,0.324 -8.055,-0.009 -12,-1 -1.792,-5.546 -2.292,-11.212 -1.5,-17 4.537,-9.177 11.371,-11.344 20.5,-6.5 5.183,5.007 7.516,11.173 7,18.5 0.152,3.226 -0.848,5.893 -3,8 z"
       id="path6" />
  </g>
  <g
     id="g7"
     transform="translate(-37.477005,-66.995949)">
    <path
       style="opacity:0.898"
       fill="#57cc01"
       d="m 56.5,111.5 c 2.8903,-0.222 5.557,0.445 8,2 1.0827,0.865 1.2494,1.865 0.5,3 -4.3838,3.124 -9.0504,4.791 -14,5 -0.523,-4.62 1.3103,-7.953 5.5,-10 z"
       id="path7" />
  </g>
  <g
     id="g8"
     transform="translate(-37.477005,-66.995949)">
    <path
       style="opacity:1"
       fill="#50504f"
       d="m 189.5,126.5 c -3.468,0.601 -6.801,1.601 -10,3 -3.858,-4.326 -3.691,-8.326 0.5,-12 0.651,-1.735 0.485,-3.402 -0.5,-5 3.112,-1.483 5.945,-1.15 8.5,1 1.367,4.2 1.867,8.533 1.5,13 z"
       id="path8" />
  </g>
  <g
     id="g9"
     transform="translate(-37.477005,-66.995949)">
    <path
       style="opacity:1"
       fill="#515150"
       d="m 145.5,134.5 c -3.601,-0.849 -7.268,-1.516 -11,-2 -0.667,-2.319 -0.834,-4.653 -0.5,-7 3.52,-1.734 4.353,-4.4 2.5,-8 4.339,-1.583 7.506,-0.25 9.5,4 0.706,4.387 0.54,8.72 -0.5,13 z"
       id="path9" />
  </g>
  <g
     id="g10"
     transform="translate(-37.477005,-66.995949)">
    <path
       style="opacity:1"
       fill="#fac200"
       d="m 166.5,133.5 c 0,1.333 0,2.667 0,4 -0.667,-1.333 -1.333,-2.667 -2,-4 -3.943,0.986 -7.943,1.652 -12,2 -1.208,-0.734 -2.541,-1.067 -4,-1 1.986,-8.326 6.986,-10.826 15,-7.5 2.874,1.602 3.874,3.769 3,6.5 z"
       id="path10" />
  </g>
  <g
     id="g11"
     transform="translate(-37.477005,-66.995949)">
    <path
       style="opacity:1"
       fill="#dc7004"
       d="m 164.5,133.5 c 0,2 0,4 0,6 -3.333,1.333 -5.667,3.667 -7,7 -1.694,-1.027 -3.027,-2.361 -4,-4 -0.904,-0.709 -1.237,-1.709 -1,-3 0,-1.333 0,-2.667 0,-4 4.057,-0.348 8.057,-1.014 12,-2 z"
       id="path11" />
  </g>
  <g
     id="g12"
     transform="translate(-37.477005,-66.995949)">
    <path
       style="opacity:1"
       fill="#e99507"
       d="m 164.5,133.5 c 0.667,1.333 1.333,2.667 2,4 0.968,2.945 1.134,5.945 0.5,9 -3.829,6.203 -8.162,6.536 -13,1 -0.494,-1.634 -0.66,-3.301 -0.5,-5 0.973,1.639 2.306,2.973 4,4 5.333,0.667 7.667,-1.667 7,-7 0,-2 0,-4 0,-6 z"
       id="path12" />
  </g>
  <g
     id="g13"
     transform="translate(-37.477005,-66.995949)">
    <path
       style="opacity:1"
       fill="#fdc3ec"
       d="m 164.5,139.5 c 0.667,5.333 -1.667,7.667 -7,7 1.333,-3.333 3.667,-5.667 7,-7 z"
       id="path13" />
  </g>
  <g
     id="g14"
     transform="translate(-37.477005,-66.995949)">
    <path
       style="opacity:0.792"
       fill="#606060"
       d="m 45.5,143.5 c 10.9257,-0.96 18.759,3.374 23.5,13 0.7371,16.703 8.5705,28.536 23.5,35.5 1.5,2.167 1,3.667 -1.5,4.5 -10.4962,-3.162 -17.8295,-9.828 -22,-20 -2.1373,-6.216 -3.8039,-12.549 -5,-19 -3.0045,-5.92 -7.8379,-8.92 -14.5,-9 -3.3167,0.553 -6.65,0.886 -10,1 -0.262,-1.478 0.0713,-2.811 1,-4 1.8361,-0.528 3.5028,-1.194 5,-2 z"
       id="path14" />
  </g>
  <g
     id="g15"
     transform="translate(-37.477005,-66.995949)">
    <path
       style="opacity:0.99"
       fill="#f48f00"
       d="m 108.5,163.5 c 2.489,-0.202 4.823,0.298 7,1.5 2.167,2.833 4.333,5.667 6.5,8.5 3.224,6.33 1.391,10.33 -5.5,12 -1.295,-0.598 -2.628,-1.098 -4,-1.5 -2.167,-2.833 -4.333,-5.667 -6.5,-8.5 -2.617,-4.922 -1.783,-8.922 2.5,-12 z"
       id="path15" />
  </g>
  <g
     id="g16"
     transform="translate(-37.477005,-66.995949)">
    <path
       style="opacity:0.97"
       fill="#fed202"
       d="m 118.5,194.5 c 1.788,-1.122 3.788,-1.289 6,-0.5 15.246,5.471 30.58,10.638 46,15.5 0,0.667 0.333,1 1,1 5.944,3.203 12.277,5.203 19,6 1.714,1.238 3.714,1.905 6,2 -2.864,7.926 -5.531,15.926 -8,24 -25.337,-8.442 -50.337,-17.442 -75,-27 0.997,0.03 1.664,-0.47 2,-1.5 2.316,-6.445 4.316,-12.945 6,-19.5 -1,0 -2,0 -3,0 z"
       id="path16" />
  </g>
  <g
     id="g17"
     transform="translate(-37.477005,-66.995949)">
    <path
       style="opacity:1"
       fill="#fbd4a8"
       d="m 118.5,194.5 c 1,0 2,0 3,0 -1.684,6.555 -3.684,13.055 -6,19.5 -0.336,1.03 -1.003,1.53 -2,1.5 -4.689,-3.722 -8.689,-8.055 -12,-13 4.338,-3.946 3.672,-5.612 -2,-5 6.074,-1.822 12.407,-2.822 19,-3 z"
       id="path17" />
  </g>
  <g
     id="g18"
     transform="translate(-37.477005,-66.995949)">
    <path
       style="opacity:1"
       fill="#6b675a"
       d="m 99.5,197.5 c 5.672,-0.612 6.338,1.054 2,5 -2.6917,-1.091 -3.3584,-2.757 -2,-5 z"
       id="path18" />
  </g>
  <g
     id="g19"
     transform="translate(-37.477005,-66.995949)">
    <path
       style="opacity:0.975"
       fill="#f49000"
       d="m 190.5,216.5 c -6.723,-0.797 -13.056,-2.797 -19,-6 -0.667,0 -1,-0.333 -1,-1 0.185,-6.693 3.519,-9.526 10,-8.5 4.701,1.227 8.868,3.394 12.5,6.5 1.07,3.642 0.236,6.642 -2.5,9 z"
       id="path19" />
  </g>
  <g
     id="g20"
     transform="translate(-37.477005,-66.995949)">
    <path
       style="opacity:1"
       fill="#ffc100"
       d="m 129.5,208.5 c 1.699,-0.16 3.366,0.006 5,0.5 16.257,5.808 32.591,11.308 49,16.5 0,1 0,2 0,3 -17.787,-5.318 -35.454,-11.151 -53,-17.5 -0.752,-0.671 -1.086,-1.504 -1,-2.5 z"
       id="path20" />
  </g>
  <g
     id="g21"
     transform="translate(-37.477005,-66.995949)">
    <path
       style="opacity:1"
       fill="#f4a29c"
       d="m 210.5,224.5 c 4.62,0.594 8.787,2.261 12.5,5 0.402,1.372 0.902,2.705 1.5,4 -1.664,5.837 -3.997,11.337 -7,16.5 -5.301,0.88 -10.301,0.046 -15,-2.5 2.665,-7.662 5.332,-15.328 8,-23 z"
       id="path21" />
  </g>
  <g
     id="g22"
     transform="translate(-37.477005,-66.995949)">
    <path
       style="opacity:0.973"
       fill="#c7c6c4"
       d="m 196.5,218.5 c 3.918,1.149 7.918,2.316 12,3.5 1.256,0.417 1.923,1.25 2,2.5 -2.668,7.672 -5.335,15.338 -8,23 -5.379,-0.162 -10.046,-1.829 -14,-5 2.469,-8.074 5.136,-16.074 8,-24 z"
       id="path22" />
  </g>
</svg>
