<?xml version="1.0" encoding="UTF-8" standalone="no"?>
<svg
   viewBox="0 0 191 204"
   fill="none"
   version="1.1"
   id="svg25"
   width="100%"
   height="100%"
   xmlns="http://www.w3.org/2000/svg">
  <defs
     id="defs25" />
  <rect
     x="54.915455"
     y="0.24558103"
     width="122.119"
     height="114.037"
     rx="57.0186"
     transform="rotate(18.359)"
     fill="#58cc02"
     id="rect2" />
  <path
     d="M 130.768,18.803 C 126.878,5.35256 110.082,0.650636 99.1888,9.44812 89.0314,17.6517 75.7747,28.3325 69.2148,30.2298 62.655,32.1271 59.3455,27.0848 46.3772,25.5697 21.2403,22.6331 21.1377,63.6507 27.4001,88.1715 c 2.3028,9.0169 5.9966,19.2625 11.8201,30.3055 14.1977,26.922 56.0425,30.91 77.0068,24.847 28.021,-8.105 41.649,-33.694 32.521,-65.2545 z"
     fill="#58cc02"
     id="path2" />
  <path
     d="M 93.462,71.7555 151.813,5.70876 c 3.128,-3.54012 8.776,-2.99682 11.155,1.07296 11.431,19.55388 9.029,44.70968 -6.387,62.15908 C 141.164,86.3902 116.568,91.7931 95.8579,82.7427 91.5475,80.859 90.3343,75.2956 93.462,71.7555 Z"
     fill="#58cc02"
     id="path3" />
  <path
     d="M 74.9479,92.7268 45.1133,9.79964 C 43.5141,5.35473 38.0644,3.77362 34.3506,6.67711 16.5069,20.6273 9.44863,44.8918 17.3309,66.801 c 7.8822,21.9092 28.7445,36.014 51.3328,35.251 4.7013,-0.158 7.8834,-4.8803 6.2842,-9.3252 z"
     fill="#58cc02"
     id="path4" />
  <path
     d="m 98.8976,115.813 -14.6617,3.033 c -0.7859,0.163 -1.192,1.006 -0.802,1.665 1.8736,3.167 5.7543,4.819 9.6279,4.018 3.8736,-0.802 6.7767,-3.857 7.2342,-7.507 0.096,-0.759 -0.6125,-1.371 -1.3984,-1.209 z"
     fill="#8ee000"
     id="path5" />
  <path
     d="m 73.3117,121.116 -14.6618,3.033 c -0.7858,0.163 -1.1919,1.006 -0.802,1.665 1.8737,3.167 5.7544,4.819 9.628,4.017 3.8736,-0.801 6.7766,-3.856 7.2346,-7.506 0.0954,-0.759 -0.613,-1.372 -1.3988,-1.209 z"
     fill="#8ee000"
     id="path6" />
  <path
     d="m 88.6711,130.839 -14.6618,3.033 c -0.7859,0.163 -1.192,1.006 -0.802,1.665 1.8737,3.167 5.7543,4.819 9.6279,4.018 3.8736,-0.802 6.7767,-3.857 7.2347,-7.506 0.0953,-0.76 -0.613,-1.372 -1.3988,-1.21 z"
     fill="#8ee000"
     id="path7" />
  <path
     fill-rule="evenodd"
     clip-rule="evenodd"
     d="m 73.6128,51.3562 c -4.8754,7.937 -11.8709,8.5765 -20.4512,3.7378 -8.5802,-4.8387 9.7437,37.4419 9.7176,37.3284 C 62.8667,92.3681 66.6528,91.48 74.2374,89.7578 76.2706,89.2962 79.9347,88.4689 85.2295,87.276 83.555,56.7413 76.8631,46.0648 73.6128,51.3562 Z"
     fill="#89e219"
     id="path8" />
  <path
     d="m 34.2426,41.896 21.58,15.1677 c 1.1567,0.813 1.1881,2.5174 0.062,3.366 -5.4106,4.0774 -12.9543,4.217 -18.6556,0.2098 -5.7014,-4.0073 -8.1425,-11.1647 -6.1638,-17.6542 0.4118,-1.3507 2.0207,-1.9022 3.1774,-1.0893 z"
     fill="#8ee000"
     id="path9" />
  <path
     d="m 25.2895,48.7608 21.58,15.1676 c 1.1567,0.813 1.188,2.5174 0.0619,3.366 -5.4105,4.0774 -12.9542,4.217 -18.6556,0.2098 -5.7014,-4.0073 -8.1424,-11.1647 -6.1637,-17.6542 0.4118,-1.3507 2.0207,-1.9022 3.1774,-1.0892 z"
     fill="#8ee000"
     id="path10" />
  <path
     d="M 85.0692,30.4834 72.7316,53.033 c -0.6613,1.2087 0.0472,2.7043 1.3993,2.9538 6.4964,1.1986 13.1592,-1.9523 16.4188,-7.9098 3.2596,-5.9576 2.3052,-13.2401 -2.2291,-18.0247 -0.9438,-0.9959 -2.5901,-0.7776 -3.2514,0.4311 z"
     fill="#89e219"
     id="path11" />
  <path
     d="m 96.322,32.7675 -11.6064,21.213 c -0.6221,1.1371 0.0445,2.5441 1.3165,2.7787 6.1113,1.1275 12.3792,-1.8365 15.4459,-7.441 3.066,-5.6044 2.168,-12.4553 -2.0974,-16.9563 -0.8877,-0.9368 -2.4365,-0.7314 -3.0586,0.4056 z"
     fill="#89e219"
     id="path12" />
  <path
     d="M 118.088,59.7846 C 115.028,46.4943 101.773,38.2012 88.4826,41.2615 75.1923,44.3217 66.8992,57.5765 69.9594,70.8668 l 1.9571,8.4995 c 3.0603,13.2903 16.3151,21.5837 29.6055,18.5231 13.29,-3.0602 21.583,-16.315 18.523,-29.6054 z"
     fill="#89e219"
     id="path13" />
  <rect
     width="33.202393"
     height="42.540592"
     rx="16.601196"
     transform="matrix(-0.97449918,0.22439104,0.22439104,0.97449918,0,0)"
     fill="#ffffff"
     id="rect13"
     x="-93.706375"
     y="66.986687" />
  <path
     fill-rule="evenodd"
     clip-rule="evenodd"
     d="m 32.1248,52.2791 c 13.0311,-2.925 25.9941,5.163 29.0952,18.1533 l 2.7779,11.6367 C 66.389,92.0854 60.1392,102.126 50.0963,104.402 40.0548,106.679 30.0876,100.317 27.9241,90.2502 L 25.692,79.8642 23.7928,64.0703 c -0.6597,-5.4861 2.9405,-10.5811 8.332,-11.7912 z"
     fill="#89e219"
     id="path14" />
  <rect
     width="25.5963"
     height="42.5406"
     rx="12.7981"
     transform="matrix(-0.99679703,0.079973,0.079973,0.99679703,0,0)"
     fill="#ffffff"
     id="rect14"
     x="-50.542942"
     y="58.977974" />
  <rect
     width="15.285697"
     height="18.996197"
     rx="7.6428585"
     transform="matrix(-0.97449918,0.22439104,0.22439104,0.97449918,0,0)"
     fill="#4b4b4b"
     id="rect15"
     x="-75.581474"
     y="79.304024" />
  <circle
     r="6.2254491"
     transform="matrix(-0.97449918,0.22439104,0.22439104,0.97449918,0,0)"
     fill="#ffffff"
     id="circle15"
     cx="-83.239983"
     cy="80.435066" />
  <rect
     width="16.255297"
     height="19.022196"
     rx="8.1276684"
     transform="matrix(-0.97449918,0.22439104,0.22439104,0.97449918,0,0)"
     fill="#f49000"
     id="rect16"
     x="-54.977383"
     y="94.556297" />
  <path
     d="m 57.4853,93.3676 c 0.0017,0.2266 0.1221,0.4349 0.313,0.557 l 4.9516,3.1679 16.9911,-8.3306 c 0.3331,-0.1633 0.4798,-0.5617 0.3116,-0.8923 -2.4259,-4.7674 -7.8619,-7.4616 -13.3103,-6.207 -5.5507,1.2781 -9.2975,6.2364 -9.257,11.705 z"
     fill="#ffc200"
     id="path16" />
  <path
     d="m 69.4995,84.5758 c -0.8288,-0.1521 -2.9553,0.0926 -4.3815,1.0089"
     stroke="#ffde00"
     stroke-width="3.45858"
     stroke-linecap="round"
     stroke-linejoin="round"
     id="path17" />
  <path
     fill-rule="evenodd"
     clip-rule="evenodd"
     d="m 57.1435,75.7349 c -5.3146,1.2237 -10.2483,-0.5004 -11.0198,-3.851 -0.4811,-2.0894 0.7701,-4.3179 3.0689,-5.9963 -0.216,0.0164 -0.4331,0.042 -0.6509,0.0772 -4.1772,0.6744 -7.0167,4.6075 -6.3422,8.7847 l 0.8638,5.3497 c 0.6744,4.1772 4.6075,7.0167 8.7847,6.3422 4.1772,-0.6744 7.0167,-4.6075 6.3422,-8.7847 l -0.3393,-2.1019 c -0.2324,0.0649 -0.4682,0.125 -0.7074,0.1801 z"
     fill="#4b4b4b"
     id="path18" />
  <path
     d="M 113.744,53.0379 C 107.415,43.4828 94.5392,40.867 84.9841,47.1953 L 64.5111,60.7545 77.0124,79.6302 114.786,54.6125 Z"
     fill="#89e219"
     id="path19" />
  <path
     d="m 29.6551,62.1687 c 1.4482,-5.9384 7.4362,-9.5783 13.3746,-8.1301 l 24.6667,6.0156 -5.3642,21.9954 -35.419,-8.6379 z"
     fill="#89e219"
     id="path20" />
  <path
     d="m 163.857,114.269 c 3.948,3.603 6.375,5.27 11.68,6.825"
     stroke="#f49000"
     stroke-width="14.8719"
     stroke-linecap="round"
     id="path21" />
  <path
     d="m 49.6332,155.254 c -2.5902,-0.933 -8.2534,-4.02 -10.1841,-8.905"
     stroke="#f49000"
     stroke-width="14.8719"
     stroke-linecap="round"
     id="path22" />
  <path
     d="m 70.3599,74.6836 c 0.5287,1.441 3.3582,6.08 6.787,4.2064"
     stroke="#58cc02"
     stroke-width="3.11272"
     stroke-linecap="round"
     id="path23" />
  <path
     d="m 60.7272,76.7005 c 0,0 0.372,3.3991 -1.3847,3.5688 -0.803,0.0776 -7.2754,-0.3067 -13.9924,-1.8711 -7.9787,-1.8583 -16.3306,-4.9561 -16.3306,-4.9561"
     stroke="#58cc02"
     stroke-width="3.11272"
     stroke-linecap="round"
     id="path24" />
  <path
     d="M 76.9479,78.9191 C 77.2181,78.7683 99.2488,63.689 109.895,56.6858"
     stroke="#58cc02"
     stroke-width="3.11272"
     stroke-linecap="round"
     id="path25" />
</svg>
