<?xml version="1.0" encoding="UTF-8"?>
<!DOCTYPE svg PUBLIC "-//W3C//DTD SVG 1.1//EN" "http://www.w3.org/Graphics/SVG/1.1/DTD/svg11.dtd">
<svg xmlns="http://www.w3.org/2000/svg" version="1.1" width="281px" height="349px" style="shape-rendering:geometricPrecision; text-rendering:geometricPrecision; image-rendering:optimizeQuality; fill-rule:evenodd; clip-rule:evenodd" xmlns:xlink="http://www.w3.org/1999/xlink">
<g><path style="opacity:0.992" fill="#5bc909" d="M 280.5,74.5 C 280.5,79.5 280.5,84.5 280.5,89.5C 277.866,117.099 266.866,140.766 247.5,160.5C 246.814,159.708 246.481,160.208 246.5,162C 246.802,164.4 247.468,166.566 248.5,168.5C 251.92,185.847 250.586,202.847 244.5,219.5C 242.203,222.571 240.536,226.571 239.5,231.5C 221.424,266.896 192.424,286.396 152.5,290C 130.68,291.295 110.346,286.461 91.5,275.5C 90.1482,276.524 88.8149,277.524 87.5,278.5C 87.5654,278.062 87.3988,277.728 87,277.5C 85.1978,278.789 84.0312,280.456 83.5,282.5C 79.0161,286.578 74.0161,289.911 68.5,292.5C 66.6203,292.229 65.287,292.896 64.5,294.5C 51.5727,301.97 37.5727,305.47 22.5,305C 16.0663,302.742 13.0663,298.242 13.5,291.5C 15.1981,279.676 17.5315,268.009 20.5,256.5C 22.3117,254.287 22.6451,251.953 21.5,249.5C 25.8492,231.087 29.5159,212.754 32.5,194.5C 33.0431,194.44 33.3764,194.107 33.5,193.5C 31.7258,189.611 29.7258,185.945 27.5,182.5C 19.4411,167.384 11.6077,152.051 4,136.5C 1.7466,131.586 0.246595,126.586 -0.5,121.5C -0.5,119.833 -0.5,118.167 -0.5,116.5C 0.183984,113.408 1.18398,110.408 2.5,107.5C 4.13758,106.295 4.47091,104.962 3.5,103.5C 4.02561,101.77 5.02561,100.436 6.5,99.5C 8.58689,98.4154 9.92022,96.7488 10.5,94.5C 13.6783,90.6644 17.6783,87.9977 22.5,86.5C 22.4346,86.9382 22.6012,87.2716 23,87.5C 24.3024,86.9152 25.469,86.2485 26.5,85.5C 45.1446,83.9352 63.8113,81.4352 82.5,78C 91.6594,74.9911 99.6594,70.1578 106.5,63.5C 106.435,63.9382 106.601,64.2716 107,64.5C 107.833,63.6667 108.667,62.8333 109.5,62C 109.272,61.6012 108.938,61.4346 108.5,61.5C 109.167,60.1667 110.167,59.1667 111.5,58.5C 111.435,58.9382 111.601,59.2716 112,59.5C 115.167,56.3333 118.333,53.1667 121.5,50C 121.272,49.6012 120.938,49.4346 120.5,49.5C 125.713,43.076 131.38,37.076 137.5,31.5C 140.198,31.1551 142.198,29.8218 143.5,27.5C 161.071,19.4735 176.238,22.8069 189,37.5C 190.705,39.5766 191.872,41.91 192.5,44.5C 193.539,48.9344 195.539,53.2677 198.5,57.5C 198.833,57.5 199.167,57.5 199.5,57.5C 198.206,59.3553 198.539,59.6887 200.5,58.5C 201.167,57.1667 201.833,55.8333 202.5,54.5C 202.376,53.8933 202.043,53.56 201.5,53.5C 208.183,40.7988 214.85,28.1321 221.5,15.5C 223.179,14.0003 224.512,12.167 225.5,10C 225.272,9.60123 224.938,9.43456 224.5,9.5C 229.701,0.603027 237.034,-1.56364 246.5,3C 266.6,22.6981 277.933,46.5314 280.5,74.5 Z"/></g>
<g><path style="opacity:0.937" fill="#84444e" d="M 224.5,9.5 C 224.938,9.43456 225.272,9.60123 225.5,10C 224.512,12.167 223.179,14.0003 221.5,15.5C 221.992,13.1815 222.992,11.1815 224.5,9.5 Z"/></g>
<g><path style="opacity:0.796" fill="#9d6551" d="M 143.5,27.5 C 142.198,29.8218 140.198,31.1551 137.5,31.5C 139.147,29.6736 141.147,28.3403 143.5,27.5 Z"/></g>
<g><path style="opacity:0.71" fill="#967a5b" d="M 120.5,49.5 C 120.938,49.4346 121.272,49.6012 121.5,50C 118.333,53.1667 115.167,56.3333 112,59.5C 111.601,59.2716 111.435,58.9382 111.5,58.5C 114.167,55.1667 117.167,52.1667 120.5,49.5 Z"/></g>
<g><path style="opacity:0.835" fill="#839768" d="M 192.5,44.5 C 195.29,48.4156 197.29,52.749 198.5,57.5C 195.539,53.2677 193.539,48.9344 192.5,44.5 Z"/></g>
<g><path style="opacity:0.992" fill="#87e019" d="M 147.5,166.5 C 147.736,163.391 147.403,160.391 146.5,157.5C 149.072,156.677 150.239,155.011 150,152.5C 142.694,145.507 134.194,143.674 124.5,147C 115.152,152.523 111.485,160.689 113.5,171.5C 115.861,171.326 118.194,170.993 120.5,170.5C 120.833,171.167 121.167,171.833 121.5,172.5C 118.528,193.649 106.528,206.815 85.5,212C 69.8144,213.883 56.981,208.717 47,196.5C 39.3099,183.454 32.9766,169.787 28,155.5C 25.3524,143.453 28.0191,132.787 36,123.5C 36.3333,119.167 36.6667,114.833 37,110.5C 40.7789,109.155 44.2789,109.821 47.5,112.5C 47.8333,111.833 48.1667,111.167 48.5,110.5C 47.2484,105.949 47.2484,101.449 48.5,97C 49.8333,96.3333 51.1667,96.3333 52.5,97C 64.0639,101.95 75.7306,106.616 87.5,111C 100.404,113.26 110.57,109.093 118,98.5C 122.535,84.5607 126.869,70.5607 131,56.5C 133.21,55.2512 135.376,55.4178 137.5,57C 140.762,59.592 143.262,62.7587 145,66.5C 146.28,62.8408 147.78,59.3408 149.5,56C 150.833,55.3333 152.167,55.3333 153.5,56C 157.167,58.3333 160.167,61.3333 162.5,65C 176.121,66.5558 186.621,73.0558 194,84.5C 200.221,96.9404 205.888,109.607 211,122.5C 212.322,145.845 201.822,161.012 179.5,168C 168.924,169.812 158.924,168.312 149.5,163.5C 148.824,164.602 148.158,165.602 147.5,166.5 Z"/></g>
<g><path style="opacity:0.953" fill="#877454" d="M 201.5,53.5 C 202.043,53.56 202.376,53.8933 202.5,54.5C 201.833,55.8333 201.167,57.1667 200.5,58.5C 198.539,59.6887 198.206,59.3553 199.5,57.5C 200.167,56.1667 200.833,54.8333 201.5,53.5 Z"/></g>
<g><path style="opacity:0.843" fill="#783546" d="M 108.5,61.5 C 108.938,61.4346 109.272,61.6012 109.5,62C 108.667,62.8333 107.833,63.6667 107,64.5C 106.601,64.2716 106.435,63.9382 106.5,63.5C 106.833,62.5 107.5,61.8333 108.5,61.5 Z"/></g>
<g><path style="opacity:0.992" fill="#fafbf9" d="M 177.5,115.5 C 174.916,110.948 172.416,106.282 170,101.5C 164.42,97.0753 158.42,96.4086 152,99.5C 152.017,101.568 153.017,103.234 155,104.5C 156.693,110.792 154.526,114.792 148.5,116.5C 150.098,121.701 152.265,126.701 155,131.5C 156.451,133.464 158.284,134.797 160.5,135.5C 158.593,138.975 156.426,142.309 154,145.5C 150.083,143.004 147.083,139.67 145,135.5C 141.727,129.288 138.727,122.954 136,116.5C 132.029,100.615 137.195,88.7813 151.5,81C 172.015,75.4256 185.681,82.7589 192.5,103C 187.905,107.634 182.905,111.8 177.5,115.5 Z"/></g>
<g><path style="opacity:0.882" fill="#ba4e57" d="M 26.5,85.5 C 25.469,86.2485 24.3024,86.9152 23,87.5C 22.6012,87.2716 22.4346,86.9382 22.5,86.5C 23.5676,85.5655 24.901,85.2322 26.5,85.5 Z"/></g>
<g><path style="opacity:0.796" fill="#ba815a" d="M 10.5,94.5 C 9.92022,96.7488 8.58689,98.4154 6.5,99.5C 7.07978,97.2512 8.41311,95.5846 10.5,94.5 Z"/></g>
<g><path style="opacity:0.992" fill="#152632" d="M 177.5,115.5 C 171.804,122.192 166.137,128.858 160.5,135.5C 158.284,134.797 156.451,133.464 155,131.5C 152.265,126.701 150.098,121.701 148.5,116.5C 154.526,114.792 156.693,110.792 155,104.5C 153.017,103.234 152.017,101.568 152,99.5C 158.42,96.4086 164.42,97.0753 170,101.5C 172.416,106.282 174.916,110.948 177.5,115.5 Z"/></g>
<g><path style="opacity:0.416" fill="#5f3954" d="M 3.5,103.5 C 4.47091,104.962 4.13758,106.295 2.5,107.5C 2.43255,106.041 2.76589,104.708 3.5,103.5 Z"/></g>
<g><path style="opacity:0.992" fill="#f9faf9" d="M 94.5,169.5 C 95.5887,165.922 95.7554,162.255 95,158.5C 92.0487,151.423 88.2154,144.923 83.5,139C 78.2455,136.698 73.2455,137.031 68.5,140C 74.6259,147.384 73.2925,153.217 64.5,157.5C 66.1799,160.86 67.8466,164.193 69.5,167.5C 62.5672,167.225 55.7339,167.892 49,169.5C 38.7267,153.742 40.8934,139.909 55.5,128C 70.5833,120.228 83.7499,122.728 95,135.5C 98.6667,142.833 102.333,150.167 106,157.5C 107.309,162.066 107.809,166.733 107.5,171.5C 103.167,170.833 98.8333,170.167 94.5,169.5 Z"/></g>
<g><path style="opacity:0.992" fill="#142531" d="M 94.5,169.5 C 86.2691,167.819 77.9358,167.153 69.5,167.5C 67.8466,164.193 66.1799,160.86 64.5,157.5C 73.2925,153.217 74.6259,147.384 68.5,140C 73.2455,137.031 78.2455,136.698 83.5,139C 88.2154,144.923 92.0487,151.423 95,158.5C 95.7554,162.255 95.5887,165.922 94.5,169.5 Z"/></g>
<g><path style="opacity:0.992" fill="#fcc400" d="M 146.5,157.5 C 143.044,159.783 139.71,162.283 136.5,165C 131.058,166.851 125.725,168.684 120.5,170.5C 118.194,170.993 115.861,171.326 113.5,171.5C 111.485,160.689 115.152,152.523 124.5,147C 134.194,143.674 142.694,145.507 150,152.5C 150.239,155.011 149.072,156.677 146.5,157.5 Z"/></g>
<g><path style="opacity:0.992" fill="#f09000" d="M 146.5,157.5 C 147.403,160.391 147.736,163.391 147.5,166.5C 144.669,175.922 138.336,179.755 128.5,178C 125.734,176.629 123.401,174.796 121.5,172.5C 121.167,171.833 120.833,171.167 120.5,170.5C 125.725,168.684 131.058,166.851 136.5,165C 139.71,162.283 143.044,159.783 146.5,157.5 Z"/></g>
<g><path style="opacity:0.384" fill="#956376" d="M 247.5,160.5 C 248.092,163.127 248.425,165.794 248.5,168.5C 247.468,166.566 246.802,164.4 246.5,162C 246.481,160.208 246.814,159.708 247.5,160.5 Z"/></g>
<g><path style="opacity:0.329" fill="#7d785a" d="M 27.5,182.5 C 29.7258,185.945 31.7258,189.611 33.5,193.5C 33.3764,194.107 33.0431,194.44 32.5,194.5C 30.2776,190.723 28.6109,186.723 27.5,182.5 Z"/></g>
<g><path style="opacity:0.631" fill="#b86a63" d="M 244.5,219.5 C 243.597,223.889 241.931,227.889 239.5,231.5C 240.536,226.571 242.203,222.571 244.5,219.5 Z"/></g>
<g><path style="opacity:0.22" fill="#a4665a" d="M 21.5,249.5 C 22.6451,251.953 22.3117,254.287 20.5,256.5C 20.6741,254.139 21.0074,251.806 21.5,249.5 Z"/></g>
<g><path style="opacity:0.157" fill="#8a431d" d="M 87.5,278.5 C 86.5,280.167 85.1667,281.5 83.5,282.5C 84.0312,280.456 85.1978,278.789 87,277.5C 87.3988,277.728 87.5654,278.062 87.5,278.5 Z"/></g>
<g><path style="opacity:0.071" fill="#5c1730" d="M 68.5,292.5 C 67.4863,293.674 66.153,294.34 64.5,294.5C 65.287,292.896 66.6203,292.229 68.5,292.5 Z"/></g>
<g><path style="opacity:0.992" fill="#e88e0c" d="M 232.5,330.5 C 230.264,329.018 227.931,328.685 225.5,329.5C 220.563,326.694 215.563,323.861 210.5,321C 203.833,313.667 203.833,306.333 210.5,299C 214.894,296.626 219.56,295.959 224.5,297C 230.605,301.058 237.271,303.391 244.5,304C 251.999,307.499 254.833,313.333 253,321.5C 251.939,324.562 250.106,327.062 247.5,329C 254.5,329.333 261.5,329.667 268.5,330C 256.505,330.5 244.505,330.667 232.5,330.5 Z"/></g>
<g><path style="opacity:0.976" fill="#ea8e01" d="M 164.5,329.5 C 163.209,329.263 162.209,329.596 161.5,330.5C 151.167,330.5 140.833,330.5 130.5,330.5C 130.167,329.5 129.5,328.833 128.5,328.5C 120.834,322.661 119.667,315.661 125,307.5C 127.379,305.116 130.213,303.616 133.5,303C 143.561,302.105 153.561,302.438 163.5,304C 170.236,307.976 172.736,313.809 171,321.5C 169.695,324.961 167.529,327.628 164.5,329.5 Z"/></g>
<g><path style="opacity:0.016" fill="#c9c6c5" d="M 128.5,328.5 C 129.5,328.833 130.167,329.5 130.5,330.5C 115.163,330.667 99.8297,330.5 84.5,330C 99.3391,329.831 114.006,329.331 128.5,328.5 Z"/></g>
<g><path style="opacity:0.016" fill="#c0c4c1" d="M 232.5,330.5 C 208.833,330.5 185.167,330.5 161.5,330.5C 162.209,329.596 163.209,329.263 164.5,329.5C 184.833,329.5 205.167,329.5 225.5,329.5C 227.931,328.685 230.264,329.018 232.5,330.5 Z"/></g>
</svg>
