<?xml version="1.0" encoding="UTF-8" standalone="no"?>
<svg
   viewBox="0 0 189 200"
   fill="none"
   version="1.1"
   id="svg25"
   width="100%"
   height="100%"
   xmlns="http://www.w3.org/2000/svg">
  <defs
     id="defs25" />
  <path
     fill-rule="evenodd"
     clip-rule="evenodd"
     d="m 46.9849,55.4729 c -4.4743,-13.2676 6.6425,-26.7082 20.6074,-25.6928 13.0221,0.9469 26.7116,1.2181 33.1817,-0.964 6.471,-2.1821 17.201,-10.6881 26.99,-19.32772 10.498,-9.265064 27.484,-5.30159 31.958,7.96602 l 12.231,36.2675 c 0.795,2.3598 1.435,4.7347 1.923,7.1133 0.065,0.177 0.129,0.3543 0.191,0.5319 2.605,14.3273 2.22,29.2249 -2.01,44.2949 l -3.259,9.118 C 158.001,144.986 124.762,160.72 94.557,149.923 67.4237,140.224 51.968,112.417 56.9308,84.9658 Z"
     fill="#58cc02"
     id="path1" />
  <path
     d="M 6.8528,97.6978 93.2461,120.9 c 4.6307,1.244 9.1069,-2.381 8.8399,-7.158 C 100.803,90.7878 84.6752,70.843 61.8502,64.7129 39.0253,58.5828 15.1808,67.7921 2.72417,87.0563 0.13156,91.0658 2.2221,96.4542 6.8528,97.6978 Z"
     fill="#58cc02"
     id="path2" />
  <path
     fill-rule="evenodd"
     clip-rule="evenodd"
     d="m 46.9861,55.4727 c -4.4743,-13.2676 6.6425,-26.7082 20.6074,-25.6928 13.0221,0.9469 26.7116,1.2181 33.1825,-0.964 6.47,-2.1821 17.2,-10.6881 26.989,-19.32773 10.498,-9.265057 27.484,-5.30158 31.958,7.96603 l 12.231,36.2675 c 0.796,2.3598 1.435,4.7347 1.924,7.1133 0.022,0.0612 0.044,0.1225 0.066,0.1838 4.234,20.3449 -0.939,41.3422 -5.194,53.8992 -10.849,30.115 -44.032,45.785 -74.1918,35.005 C 67.4249,140.224 51.9692,112.416 56.932,84.9656 Z"
     fill="#58cc02"
     id="path3" />
  <path
     d="m 103.055,116.234 14.729,-2.69 c 0.789,-0.144 1.482,0.485 1.368,1.242 -0.548,3.639 -3.526,6.626 -7.417,7.337 -3.891,0.711 -7.729,-1.032 -9.523,-4.243 -0.373,-0.668 0.054,-1.502 0.843,-1.646 z"
     fill="#8ee000"
     id="path4" />
  <path
     d="m 128.762,111.549 14.729,-2.691 c 0.789,-0.144 1.482,0.485 1.368,1.242 -0.548,3.639 -3.526,6.626 -7.417,7.337 -3.891,0.711 -7.729,-1.032 -9.523,-4.243 -0.373,-0.668 0.054,-1.501 0.843,-1.645 z"
     fill="#8ee000"
     id="path5" />
  <path
     d="m 118.176,126.324 14.729,-2.69 c 0.789,-0.145 1.482,0.484 1.368,1.242 -0.548,3.638 -3.526,6.626 -7.417,7.337 -3.891,0.71 -7.728,-1.032 -9.523,-4.243 -0.373,-0.669 0.054,-1.502 0.843,-1.646 z"
     fill="#8ee000"
     id="path6" />
  <path
     fill-rule="evenodd"
     clip-rule="evenodd"
     d="m 92.3565,44.0238 c 8.3115,4.2051 19.2265,0.5243 23.9985,-8.0931 4.772,-8.6174 11.322,36.9953 11.285,36.8849 -0.018,-0.0528 -3.708,1.1748 -11.07,3.6826 -1.974,0.6723 -5.528,1.8877 -10.663,3.6464 C 91.3323,53.2606 86.8155,41.2203 92.3565,44.0238 Z"
     fill="#89e219"
     id="path7" />
  <path
     d="m 125.554,14.7765 -10.432,24.2268 c -0.559,1.2985 0.308,2.7666 1.711,2.8993 6.745,0.6374 13.243,-3.1967 15.999,-9.5974 2.756,-6.4007 1.085,-13.7758 -4.001,-18.2661 -1.059,-0.9346 -2.718,-0.5612 -3.277,0.7374 z"
     fill="#8ee000"
     id="path8" />
  <path
     d="m 136.776,15.9316 -10.431,24.2268 c -0.559,1.2985 0.307,2.7666 1.711,2.8993 6.745,0.6375 13.243,-3.1967 15.999,-9.5974 2.756,-6.4007 1.084,-13.7758 -4.002,-18.2661 -1.058,-0.9345 -2.717,-0.5612 -3.277,0.7374 z"
     fill="#8ee000"
     id="path9" />
  <path
     d="m 72.4559,32.627 22.3246,12.7403 c 1.1966,0.6828 1.3768,2.328 0.356,3.249 -4.9049,4.4251 -12.2308,5.233 -18.1289,1.8671 -5.8981,-3.366 -8.9015,-10.0687 -7.5469,-16.5198 0.282,-1.3427 1.7986,-2.0195 2.9952,-1.3366 z"
     fill="#89e219"
     id="path10" />
  <path
     d="m 64.0661,40.4705 21.0014,11.9851 c 1.1257,0.6424 1.2953,2.1901 0.3349,3.0565 -4.6141,4.1628 -11.5058,4.9228 -17.0543,1.7564 -5.5485,-3.1665 -8.3739,-9.4719 -7.0996,-15.5407 0.2652,-1.2631 1.6919,-1.8997 2.8176,-1.2573 z"
     fill="#89e219"
     id="path11" />
  <path
     d="M 59.1493,73.0964 C 54.9376,60.6075 61.6476,47.0691 74.1364,42.8575 86.6252,38.6459 100.164,45.3559 104.375,57.8447 l 3.758,11.1426 C 112.344,81.4761 105.635,95.0145 93.1457,99.2262 80.6569,103.438 67.1185,96.7278 62.9069,84.239 Z"
     fill="#89e219"
     id="path12" />
  <path
     d="m 115.188,54.1975 c -4.211,-12.4888 2.499,-26.0272 14.987,-30.2388 12.489,-4.2116 26.028,2.4984 30.239,14.9872 l 3.758,11.1426 c 4.212,12.4888 -2.498,26.0272 -14.987,30.2388 -12.489,4.2116 -26.027,-2.4984 -30.239,-14.9872 z"
     fill="#89e219"
     id="path13" />
  <rect
     x="40.646011"
     y="72.601776"
     width="33.2024"
     height="42.5406"
     rx="16.6012"
     transform="rotate(-18.6357)"
     fill="#ffffff"
     id="rect13" />
  <rect
     x="98.400757"
     y="72.600418"
     width="33.2024"
     height="42.5406"
     rx="16.6012"
     transform="rotate(-18.6357)"
     fill="#ffffff"
     id="rect14" />
  <rect
     x="54.477345"
     y="81.939133"
     width="15.5636"
     height="23.864201"
     rx="7.7818098"
     transform="rotate(-18.6357)"
     fill="#4b4b4b"
     id="rect15" />
  <path
     fill-rule="evenodd"
     clip-rule="evenodd"
     d="m 126.128,54.1592 c 3.258,-1.0986 5.008,-4.6304 3.909,-7.8883 -0.359,-1.0658 -0.979,-1.9701 -1.764,-2.6663 0.633,-0.4662 1.347,-0.8437 2.132,-1.1083 4.072,-1.3734 8.487,0.8147 9.861,4.8871 l 2.652,7.8654 c 1.373,4.0724 -0.815,8.4871 -4.887,9.8605 -4.073,1.3733 -8.487,-0.8147 -9.861,-4.8871 l -2.044,-6.0624 c 10e-4,-2e-4 10e-4,-4e-4 0.002,-6e-4 z"
     fill="#4b4b4b"
     id="path15" />
  <circle
     cx="54.479294"
     cy="85.397903"
     r="6.22545"
     transform="rotate(-18.6357)"
     fill="#ffffff"
     id="circle15" />
  <rect
     x="77.997238"
     y="100.2698"
     width="16.255301"
     height="32.676899"
     rx="8.1276703"
     transform="rotate(-18.6357)"
     fill="#f49000"
     id="rect16" />
  <rect
     x="79.450325"
     y="102.20721"
     width="13.4601"
     height="26.4604"
     rx="6.7300501"
     transform="rotate(-18.6357)"
     fill="#b06800"
     id="rect17" />
  <path
     d="m 112.626,71.4871 c 0.626,-0.5639 2.566,-1.4698 4.261,-1.4368"
     stroke="#ffde00"
     stroke-width="3.45858"
     stroke-linecap="round"
     stroke-linejoin="round"
     id="path17" />
  <path
     d="m 127.616,72.2791 c 0.209,0.3241 0.086,0.7516 -0.252,0.9366 l -9.828,5.3754 -11.077,1.6742 c -0.381,0.0576 -0.738,-0.208 -0.768,-0.5924 -0.414,-5.3184 2.801,-10.442 8.087,-12.2245 5.286,-1.7824 10.947,0.3476 13.838,4.8307 z"
     fill="#ffc200"
     id="path18" />
  <path
     d="m 112.536,71.3026 c 0.626,-0.5639 2.566,-1.4698 4.261,-1.4368"
     stroke="#ffde00"
     stroke-width="3.45858"
     stroke-linecap="round"
     stroke-linejoin="round"
     id="path19" />
  <path
     fill-rule="evenodd"
     clip-rule="evenodd"
     d="m 81.7302,115.701 c 3.4797,-2.438 8.2766,-1.593 10.7142,1.887 l 6.8521,9.781 c 2.4375,3.48 1.5925,8.277 -1.887,10.714 -3.4797,2.438 -8.2766,1.593 -10.7141,-1.887 l -6.8521,-9.781 c -2.4376,-3.48 -1.5928,-8.277 1.8869,-10.714 z"
     fill="#f49000"
     id="path20" />
  <rect
     x="107.734"
     y="177.38699"
     width="18.3305"
     height="13.1426"
     rx="6.5713"
     fill="#f49000"
     id="rect20" />
  <rect
     x="116.56743"
     y="-176.24516"
     width="24.368601"
     height="15.8133"
     rx="7.9066401"
     transform="rotate(109.924)"
     fill="#f49000"
     id="rect21" />
  <path
     fill-rule="evenodd"
     clip-rule="evenodd"
     d="m 126.888,85.5088 0.116,0.346 c 1.188,3.5221 -0.704,7.3401 -4.226,8.5278 -3.522,1.1877 -7.34,-0.7046 -8.528,-4.2266 l -0.201,-0.5951 c 1.062,-2.6587 3.46,-4.7398 6.527,-5.2989 2.285,-0.4166 4.521,0.0883 6.312,1.2468 z"
     fill="#ffb8d1"
     id="path21" />
  <path
     d="m 69.9609,84.8817 30.0991,2.2795 c -0.496,6.5513 -6.2091,11.46 -12.7605,10.9639 L 80.9249,97.6423 C 74.3735,97.1462 69.4648,91.4331 69.9609,84.8817 Z"
     fill="#89e219"
     id="path22" />
  <path
     d="m 159.129,56.2654 -24.12,18.1495 c 3.359,4.4634 9.7,5.359 14.164,2.0004 l 7.955,-5.9867 c 4.464,-3.3587 5.36,-9.6998 2.001,-14.1632 z"
     fill="#89e219"
     id="path23" />
  <path
     d="m 127.506,104.919 11.598,-5.8052 17.523,-3.1942 3.221,8.0264 -5.898,23.574 -4.807,7.38 -23.539,3.94 -5.105,-1.003 -2.677,-4.082 0.6,-7.317 8.501,-13.151 z"
     fill="#58cc02"
     id="path24" />
  <path
     fill-rule="evenodd"
     clip-rule="evenodd"
     d="m 162.841,126.852 c -10.475,7.999 -24.556,11.537 -36.593,12.25 l -0.038,0.002 -0.038,0.003 c -2.121,0.205 -3.604,-0.121 -4.627,-0.627 -1.013,-0.501 -1.692,-1.238 -2.127,-2.069 -0.446,-0.85 -0.643,-1.815 -0.631,-2.71 0.012,-0.924 0.241,-1.605 0.456,-1.941 l 0.053,-0.082 0.045,-0.086 8.881,-17.172 c 0.527,-1.018 0.128,-2.27 -0.89,-2.796 -1.018,-0.527 -2.27,-0.129 -2.796,0.889 l -8.842,17.096 c -0.704,1.143 -1.039,2.601 -1.057,4.039 -0.019,1.505 0.304,3.163 1.105,4.69 0.81,1.546 2.104,2.942 3.962,3.862 1.842,0.911 4.118,1.297 6.827,1.042 9.015,-0.537 19.381,-2.607 28.735,-7.013 2.816,-2.822 5.36,-5.957 7.575,-9.377 z"
     fill="#43c000"
     id="path25" />
</svg>
