<svg viewBox="0 0 158 171" fill="none" xmlns="http://www.w3.org/2000/svg"><path d="M9.48169 57.7393C8.92662 54.1429 8.41343 50.5173 8.67879 46.888C9.61365 34.1019 18.0894 26.11 30.3409 27.4945C43.3148 28.9606 56.9826 29.7782 63.5352 27.8562C70.0878 25.9342 81.1484 17.8635 91.2748 9.6217C101.338 1.43159 116.514 4.81385 121.822 16.0447C122.679 17.8583 123.185 19.8039 123.779 21.7199C126.164 29.4136 133.025 51.6845 140.476 77.0866C149.723 108.613 131.662 143.395 100.136 152.642C68.6105 161.889 34.8804 142.967 23.5437 112.648C15.1085 90.0891 11.0213 67.7146 9.48169 57.7393Z" fill="#58CC02"/><path d="M83.2263 114.191L97.5918 109.972C98.3617 109.746 99.1166 110.299 99.0825 111.064C98.9186 114.74 96.271 118.023 92.4756 119.138C88.6803 120.252 84.6814 118.921 82.5607 115.916C82.1193 115.291 82.4563 114.417 83.2263 114.191Z" fill="#8EE000"/><path d="M108.301 106.837L122.666 102.618C123.436 102.392 124.191 102.944 124.157 103.71C123.993 107.386 121.345 110.669 117.55 111.783C113.755 112.898 109.756 111.567 107.635 108.562C107.193 107.937 107.531 107.063 108.301 106.837Z" fill="#8EE000"/><path fill-rule="evenodd" clip-rule="evenodd" d="M71.4926 42.9359C79.6297 47.4696 90.6827 44.2276 95.7952 35.8077C100.908 27.3877 105.631 73.2255 105.598 73.1138C105.582 73.0603 101.846 74.1396 94.3897 76.3514C92.3908 76.9443 88.7909 78.0168 83.5899 79.569C70.1003 52.1245 66.0679 39.9135 71.4926 42.9359Z" fill="#89E219"/><circle cx="72.1973" cy="80.7123" r="15.9095" transform="rotate(-16.3471 72.1973 80.7123)" fill="#89E219"/><path d="M105.83 15.0376L94.4392 38.8285C93.8287 40.1037 94.6358 41.6052 96.0332 41.7939C102.747 42.7002 109.393 39.1285 112.403 32.843C115.412 26.5575 114.036 19.1215 109.134 14.4317C108.113 13.4556 106.44 13.7624 105.83 15.0376Z" fill="#8EE000"/><path d="M116.994 16.64L105.603 40.4309C104.993 41.7061 105.8 43.2076 107.197 43.3962C113.911 44.3025 120.557 40.7309 123.567 34.4454C126.576 28.1599 125.2 20.7238 120.298 16.0341C119.277 15.058 117.604 15.3648 116.994 16.64Z" fill="#8EE000"/><path d="M52.0584 30.7532L73.8564 44.3748C75.0248 45.1049 75.1392 46.756 74.0824 47.6355C69.0047 51.8611 61.6525 52.3759 55.8935 48.7771C50.1345 45.1783 47.4011 38.361 49.0123 31.9691C49.3476 30.6388 50.89 30.0231 52.0584 30.7532Z" fill="#89E219"/><path d="M43.3625 38.2555L63.8685 51.0697C64.9677 51.7566 65.0753 53.3098 64.0811 54.1371C59.3044 58.1123 52.3879 58.5966 46.9703 55.2111C41.5527 51.8256 38.9813 45.4124 40.497 39.3994C40.8124 38.1479 42.2634 37.5687 43.3625 38.2555Z" fill="#89E219"/><path d="M37.1503 70.6591C33.4408 58.0121 40.686 44.7525 53.3331 41.0429C65.9801 37.3334 79.2397 44.5786 82.9493 57.2257L86.259 68.5094C89.9685 81.1565 82.7233 94.4161 70.0762 98.1257C57.4292 101.835 44.1696 94.59 40.46 81.9429L37.1503 70.6591Z" fill="#89E219"/><rect x="40.4023" y="53.4857" width="33.2024" height="42.5406" rx="16.6012" transform="rotate(-16.3471 40.4023 53.4857)" fill="white"/><path fill-rule="evenodd" clip-rule="evenodd" d="M126.656 30.5272C122.093 25.3706 114.802 23.0122 107.757 25.0784C98.043 27.9278 92.4778 38.1127 95.3272 47.8271L101.752 69.7309C104.601 79.4453 114.786 85.0105 124.501 82.1612C131.545 80.095 136.407 74.1716 137.462 67.3675L126.656 30.5272Z" fill="#89E219"/><rect x="94.8281" y="37.5215" width="28.0145" height="42.5406" rx="14.0073" transform="rotate(-16.3471 94.8281 37.5215)" fill="white"/><rect x="62.9023" y="60.9383" width="13.7292" height="20.8991" rx="6.86459" transform="rotate(-16.3471 62.9023 60.9383)" fill="#4B4B4B"/><rect x="83.8203" y="66.3412" width="16.2553" height="19.0222" rx="8.12767" transform="rotate(-16.3471 83.8203 66.3412)" fill="#F49000"/><path d="M100.15 55.3394C99.1324 51.8986 101.102 48.2852 104.545 47.2753C107.977 46.2686 111.576 48.23 112.59 51.6598L115.139 60.275C116.156 63.7159 114.187 67.3292 110.744 68.3392C107.312 69.3458 103.713 67.3844 102.698 63.9546L100.15 55.3394Z" fill="#4B4B4B"/><path d="M128.809 45.3066C128.809 45.3066 121.17 45.3066 110.795 49.5848C100.773 53.7168 99.0355 63.2462 99.0355 63.2462L105.082 69.4766C107.792 74.7954 113.904 77.4314 119.632 75.7513L121.793 75.1177C129.808 72.7668 134.399 64.3637 132.048 56.3487L128.809 45.3066Z" fill="#89E219"/><path d="M105.456 69.522C105.617 69.8031 105.543 70.1567 105.294 70.3637L101.695 73.3527L83.9291 75.4852C83.5437 75.5315 83.1934 75.2506 83.179 74.8627C82.9834 69.6178 86.3996 65.5845 91.7479 64.0157C97.1494 62.4314 102.774 64.8437 105.456 69.522Z" fill="#FFC200"/><path d="M90.7653 67.908C91.4135 67.3696 93.3875 66.5418 95.0797 66.6425" stroke="#FFDE00" stroke-width="3.45858" stroke-linecap="round" stroke-linejoin="round"/><rect x="122.633" y="25.4018" width="2.42101" height="5.87959" transform="rotate(-16.3471 122.633 25.4018)" fill="#89E219"/><path d="M45.0712 71.4844C45.0712 71.4844 52.9366 65.7364 64.1453 64.6282C75.354 63.5201 81.3872 67.5003 81.3872 67.5003L82.02 69.6575C84.8156 79.1886 79.3554 89.1814 69.8243 91.977C60.2932 94.7726 50.3004 89.3124 47.5048 79.7813L45.0712 71.4844Z" fill="#89E219"/><path fill-rule="evenodd" clip-rule="evenodd" d="M45.6523 82.6449C48.214 92.095 56.8513 99.0461 67.1121 99.0461C79.3907 99.0461 89.3445 89.0924 89.3445 76.8138C89.3445 71.6122 87.5582 66.8279 84.5655 63.0407L45.6523 82.6449Z" fill="#89E219"/><path d="M92.6396 105.614L82.4368 103.02L77.4219 112.704L84.8578 118.411L94.0231 126.193L99.038 124.29L103.188 121.005L104.226 116.682L101.286 111.321L92.6396 105.614Z" fill="#58CC02"/><path d="M115.81 100.426L126.012 97.8321L131.027 107.516L123.591 113.223L114.426 121.005L109.411 119.102L105.261 115.817L104.223 111.493L107.163 106.133L115.81 100.426Z" fill="#58CC02"/><path d="M87.968 98.6966L103.864 109.7C106.956 111.436 109.966 119.444 100.965 123.165C87.7763 129.196 69.8461 133.194 54.3919 127.815" stroke="#43C000" stroke-width="4.1503" stroke-linecap="round"/><path d="M117.413 87.9752L107.701 110.226C106.036 113.357 107.829 121.722 117.414 119.992C122.597 119.253 128.157 117.956 133.621 115.996" stroke="#43C000" stroke-width="4.1503" stroke-linecap="round"/><path d="M134.142 56.5022L117.887 92.2985L128.435 95.7571L138.119 70.1636L134.142 56.5022Z" fill="#58CC02"/><path fill-rule="evenodd" clip-rule="evenodd" d="M119.654 128.971C115.525 127.968 112.991 123.808 113.994 119.68L116.813 108.074C117.816 103.946 121.976 101.412 126.104 102.415C130.233 103.418 132.766 107.577 131.764 111.706L128.945 123.311C127.942 127.44 123.782 129.974 119.654 128.971Z" fill="#F49000"/><path fill-rule="evenodd" clip-rule="evenodd" d="M86.6623 114.855C89.5694 111.757 94.4377 111.602 97.5358 114.509L106.245 122.682C109.343 125.589 109.498 130.457 106.591 133.555C103.684 136.653 98.8154 136.808 95.7172 133.901L87.0081 125.729C83.91 122.822 83.7551 117.953 86.6623 114.855Z" fill="#F49000"/><circle cx="122.088" cy="65.0213" r="18.3305" fill="#89E219"/><path d="M68.7736 69.2989C67.1019 69.0107 62.9631 68.8493 59.7812 70.5094" stroke="#93F21A" stroke-width="5.53373" stroke-linecap="round"/><path d="M119.184 52.2604C117.512 52.5482 113.558 53.781 111.115 56.4102" stroke="#93F21A" stroke-width="5.53373" stroke-linecap="round"/></svg>