<?xml version="1.0" encoding="UTF-8" standalone="no"?>
<svg
   viewBox="0 0 194 123"
   fill="none"
   version="1.1"
   id="svg27"
   width="100%"
   height="100%"
   xmlns="http://www.w3.org/2000/svg">
  <defs
     id="defs27" />
  <path
     d="m 141.629,69.8635 c 4.265,-5.8219 16.255,-16.9816 30.09,-15.0448"
     stroke="#43c000"
     stroke-width="14.1802"
     id="path1" />
  <path
     fill-rule="evenodd"
     clip-rule="evenodd"
     d="m 34.7577,6.36697 c 3.7925,-1.95185 8.4492,-0.45968 10.4011,3.33284 l 4.0233,7.38469 C 51.134,20.877 49.6418,25.5338 45.8493,27.4856 42.0568,29.4375 37.4,27.9453 35.4482,24.1527 L 31.4248,16.7681 C 29.473,12.9755 30.9651,8.31881 34.7577,6.36697 Z"
     fill="#f49000"
     id="path2" />
  <path
     fill-rule="evenodd"
     clip-rule="evenodd"
     d="M 0.797696,42.6136 C 1.23734,38.371 4.69066,35.2526 8.51088,35.6485 l 10.82132,1.1214 c 3.8202,0.3959 6.5607,4.1561 6.121,8.3987 -0.4396,4.2426 -3.8929,7.361 -7.7132,6.9651 L 6.91878,51.0123 C 3.09855,50.6164 0.358048,46.8562 0.797696,42.6136 Z"
     fill="#f49000"
     id="path3" />
  <rect
     x="29.746099"
     y="23.864"
     width="129.69701"
     height="89.577301"
     rx="44.788601"
     fill="#58cc02"
     id="rect3" />
  <path
     d="M 54.625,19.3408 C 54.625,5.33906 69.4539,-3.84449 82.3621,1.58018 94.3989,6.63867 107.284,11.27 114.113,11.27 c 6.828,0 19.713,-4.63133 31.75,-9.68981 12.908,-5.42468 27.737,3.75887 27.737,17.76061 v 34.8156 c 0,32.8541 -26.633,59.4876 -59.487,59.4876 -32.8545,0 -59.488,-26.6335 -59.488,-59.4876 z"
     fill="#58cc02"
     id="path4" />
  <path
     fill-rule="evenodd"
     clip-rule="evenodd"
     d="m 117.174,27.8819 c 6.532,6.6406 18.051,6.6406 25.327,0 7.275,-6.6407 -1.094,38.6735 -1.094,38.557 0,-0.0557 -3.889,-0.0716 -11.666,-0.048 -2.085,0.0064 -5.842,0.0224 -11.269,0.048 -5.22,-30.1318 -5.653,-42.9841 -1.298,-38.557 z"
     fill="#89e219"
     id="path5" />
  <path
     d="m 157.971,10.7756 -17.626,19.6232 c -0.945,1.0518 -0.593,2.7198 0.695,3.2941 6.187,2.7593 13.57,1.2027 18.227,-3.9817 4.657,-5.1845 5.429,-12.7071 2.045,-18.5872 -0.704,-1.22377 -2.396,-1.40021 -3.341,-0.3484 z"
     fill="#8ee000"
     id="path6" />
  <path
     d="m 168.237,15.456 -17.626,19.6232 c -0.945,1.0518 -0.593,2.7198 0.695,3.2941 6.187,2.7594 13.57,1.2027 18.226,-3.9817 4.657,-5.1844 5.43,-12.7071 2.046,-18.5871 -0.705,-1.2239 -2.396,-1.4003 -3.341,-0.3485 z"
     fill="#8ee000"
     id="path7" />
  <path
     d="m 101.952,10.7225 17.083,19.2061 c 0.916,1.0295 0.561,2.646 -0.7,3.1925 -6.062,2.6257 -13.262,1.0503 -17.775,-4.0239 C 96.0463,24.023 95.3422,16.712 98.6872,11.0319 99.3834,9.84973 101.037,9.69305 101.952,10.7225 Z"
     fill="#89e219"
     id="path8" />
  <path
     d="m 91.4976,15.474 16.0704,18.0677 c 0.861,0.9685 0.528,2.4892 -0.659,3.0033 -5.703,2.47 -12.476,0.988 -16.7217,-3.7854 -4.2458,-4.7735 -4.9081,-11.6511 -1.7614,-16.9945 0.655,-1.1121 2.2103,-1.2595 3.0717,-0.2911 z"
     fill="#89e219"
     id="path9" />
  <path
     d="m 76.4141,44.8183 c 0,-13.1798 10.6843,-23.8642 23.8639,-23.8642 13.18,0 23.864,10.6844 23.864,23.8642 v 11.7592 c 0,13.1798 -10.684,23.8642 -23.864,23.8642 -13.1796,0 -23.8639,-10.6844 -23.8639,-23.8642 z"
     fill="#89e219"
     id="path10" />
  <rect
     x="84.371101"
     y="29.2549"
     width="33.2024"
     height="42.5406"
     rx="16.6012"
     fill="#ffffff"
     id="rect10" />
  <path
     fill-rule="evenodd"
     clip-rule="evenodd"
     d="m 173.598,31.4979 c -2.928,-6.2302 -9.26,-10.5438 -16.6,-10.5438 -10.123,0 -18.33,8.2069 -18.33,18.3305 v 22.8266 c 0,10.1237 8.207,18.3305 18.33,18.3305 7.34,0 13.672,-4.3136 16.6,-10.5438 z"
     fill="#89e219"
     id="path11" />
  <path
     d="m 75.7439,58.1041 c -5.2567,3.2455 -9.9601,7.761 -12.4509,17.6387"
     stroke="#43c000"
     stroke-width="2.76687"
     stroke-linecap="round"
     stroke-linejoin="round"
     id="path12" />
  <rect
     x="141.09"
     y="29.2549"
     width="28.0145"
     height="42.5406"
     rx="14.0073"
     fill="#ffffff"
     id="rect12" />
  <rect
     x="95.109398"
     y="37.3526"
     width="15.5636"
     height="18.6763"
     rx="7.7818098"
     fill="#4b4b4b"
     id="rect13" />
  <path
     d="m 141.09,43.9239 c 0,-3.6292 2.942,-6.5713 6.571,-6.5713 3.629,0 6.571,2.9421 6.571,6.5713 v 10.9132 c 0,3.6293 -2.942,6.5713 -6.571,6.5713 -3.629,0 -6.571,-2.942 -6.571,-6.5713 z"
     fill="#4b4b4b"
     id="path13" />
  <path
     d="M 119.855,62.1495 C 116.411,56.8457 104.863,44.0346 82.6153,52.3468"
     stroke="#89e219"
     stroke-width="10.7216"
     id="path14" />
  <circle
     cx="80.066704"
     cy="52.051601"
     r="7.0900898"
     fill="#89e219"
     id="circle14" />
  <path
     d="m 141.075,60.5817 c 4.879,-5.7631 16.812,-13.7178 29.991,-7.8946"
     stroke="#89e219"
     stroke-width="12.7968"
     stroke-linecap="round"
     id="path15" />
  <path
     d="m 173.253,56.7437 c -17.518,-1.1618 -33.075,5.8731 -36.256,9.1158 v 10.6951 c 6.298,3.4443 21.283,10.695 21.573,9.9699 0.29,-0.7251 10.742,-8.2783 14.683,-11.9643 z"
     fill="#58cc02"
     id="path16" />
  <path
     d="m 87.5726,53.6312 c 17.5184,-1.1618 34.1124,7.2565 37.2924,10.4992 l -1.037,10.6951 c -6.297,3.4443 -21.282,10.695 -21.572,9.9699 -0.29,-0.7251 -10.7428,-8.2783 -14.6834,-11.9643 z"
     fill="#58cc02"
     id="path17" />
  <rect
     x="122.414"
     y="53.810699"
     width="16.255301"
     height="19.0222"
     rx="8.1276703"
     fill="#f49000"
     id="rect17" />
  <path
     d="m 142.293,62.3216 c 0.068,0.2867 -0.069,0.58 -0.324,0.727 l -4.377,2.5213 c 0,0 -4.171,0 -9.319,-1.0376 -3.958,-0.7978 -7.122,-1.7153 -8.373,-2.0969 -0.334,-0.1015 -0.533,-0.4386 -0.45,-0.7769 1.252,-5.1299 5.617,-7.8478 11.225,-7.8478 5.65,0 10.383,3.2756 11.618,8.5109 z"
     fill="#ffc200"
     id="path18" />
  <path
     d="m 128.641,57.2693 c 0.773,-0.3342 2.9,-0.5729 4.496,0"
     stroke="#ffde00"
     stroke-width="3.45858"
     stroke-linecap="round"
     stroke-linejoin="round"
     id="path19" />
  <rect
     x="171.17999"
     y="25.4503"
     width="2.42101"
     height="5.87959"
     fill="#89e219"
     id="rect19" />
  <path
     d="m 168.065,53.6373 1.849,0.2488 c 10.223,1.3754 17.299,10.912 15.651,21.0948 l -3.459,21.3797 c -1.89,11.6824 -13.363,19.2534 -24.847,16.3974 -14.058,-3.496 -19.816,-20.3404 -10.839,-31.7094 z"
     fill="#58cc02"
     id="path20" />
  <path
     d="m 95.4242,56.7208 h -1.0021 c -14.708,0 -26.6311,11.9232 -26.6311,26.6311 v 19.7141 c 0,5.73 4.6454,10.376 10.3757,10.376 h 10.684 c 16.2953,0 26.8243,-17.2327 19.3883,-31.7322 z"
     fill="#58cc02"
     id="path21" />
  <circle
     cx="167.57001"
     cy="70.382004"
     r="18.503401"
     fill="#58cc02"
     id="circle21" />
  <path
     d="m 147.336,104.449 c 3.151,-2.944 8.124,-9.1072 11.759,-17.2929"
     stroke="#43c000"
     stroke-width="2.76687"
     stroke-linecap="round"
     stroke-linejoin="round"
     id="path22" />
  <circle
     r="19.195101"
     transform="scale(-1,1)"
     fill="#58cc02"
     id="circle22"
     cx="-91.480698"
     cy="67.615196" />
  <path
     d="m 173.078,82.514 c -9.042,7.4843 -16.011,4.0348 -19.868,0.836 -5.694,-4.7217 -5.621,-13.8056 -4.328,-17.1689"
     stroke="#43c000"
     stroke-width="2.76687"
     stroke-linecap="round"
     stroke-linejoin="round"
     id="path23" />
  <path
     d="M 109.292,61.5629 C 113.097,72.1115 104.623,85.6 90.616,81.9685"
     stroke="#43c000"
     stroke-width="2.76687"
     stroke-linecap="round"
     stroke-linejoin="round"
     id="path24" />
  <path
     d="M 95.9424,110.798 C 93.5948,105.468 90.7059,95.1988 90.5725,83.1856"
     stroke="#43c000"
     stroke-width="2.76687"
     stroke-linecap="round"
     stroke-linejoin="round"
     id="path25" />
  <path
     d="m 100.003,98.5747 13.74,-0.0051 c 0.736,-2e-4 1.258,0.6985 1.031,1.3799 -1.094,3.2745 -4.274,5.5355 -7.904,5.5375 -3.63,0.001 -6.807,-2.258 -7.8984,-5.5316 -0.2271,-0.6813 0.2953,-1.3804 1.0314,-1.3807 z"
     fill="#8ee000"
     id="path26" />
  <path
     d="m 120.062,98.5747 13.739,-0.0051 c 0.737,-2e-4 1.259,0.6985 1.031,1.3799 -1.094,3.2745 -4.273,5.5355 -7.903,5.5375 -3.63,0.001 -6.808,-2.258 -7.899,-5.5316 -0.227,-0.6813 0.296,-1.3804 1.032,-1.3807 z"
     fill="#8ee000"
     id="path27" />
</svg>
