<?xml version="1.0" encoding="UTF-8"?>
<!DOCTYPE svg PUBLIC "-//W3C//DTD SVG 1.1//EN" "http://www.w3.org/Graphics/SVG/1.1/DTD/svg11.dtd">
<svg xmlns="http://www.w3.org/2000/svg" version="1.1" width="78px" height="62px" style="shape-rendering:geometricPrecision; text-rendering:geometricPrecision; image-rendering:optimizeQuality; fill-rule:evenodd; clip-rule:evenodd" xmlns:xlink="http://www.w3.org/1999/xlink">
<g><path style="opacity:0.95" fill="#fffefe" d="M 7.5,-0.5 C 28.1667,-0.5 48.8333,-0.5 69.5,-0.5C 72.5,1.83333 75.1667,4.5 77.5,7.5C 77.5,22.8333 77.5,38.1667 77.5,53.5C 75.0967,56.907 72.0967,59.5737 68.5,61.5C 48.5,61.5 28.5,61.5 8.5,61.5C 4.90326,59.5737 1.90326,56.907 -0.5,53.5C -0.5,38.1667 -0.5,22.8333 -0.5,7.5C 1.83333,4.5 4.5,1.83333 7.5,-0.5 Z"/></g>
<g><path style="opacity:1" fill="#ff4c4b" d="M 9.5,3.5 C 28.5029,3.33338 47.5029,3.50005 66.5,4C 69.5827,4.78597 71.7494,6.61931 73,9.5C 73.6667,22.8333 73.6667,36.1667 73,49.5C 72.573,53.5271 70.4064,56.0271 66.5,57C 47.5,57.6667 28.5,57.6667 9.5,57C 6.61931,55.7494 4.78597,53.5827 4,50.5C 3.33333,36.8333 3.33333,23.1667 4,9.5C 5.35968,6.97739 7.19301,4.97739 9.5,3.5 Z"/></g>
<g><path style="opacity:1" fill="#ffb90a" d="M 27.5,9.5 C 33.0865,9.98002 34.0865,11.98 30.5,15.5C 28.0769,14.2882 27.0769,12.2882 27.5,9.5 Z"/></g>
<g><path style="opacity:1" fill="#ffbb08" d="M 18.5,15.5 C 20.9792,18.2154 23.9792,20.2154 27.5,21.5C 25.2328,24.0289 23.8994,27.0289 23.5,30.5C 22.1667,29.8333 20.8333,29.1667 19.5,28.5C 18.1502,29.9501 16.4835,30.6168 14.5,30.5C 15.0772,26.9202 14.0772,23.9202 11.5,21.5C 12.714,19.9309 14.3807,19.0976 16.5,19C 17.305,17.8873 17.9717,16.7206 18.5,15.5 Z"/></g>
<g><path style="opacity:1" fill="#ffb60b" d="M 35.5,15.5 C 37.1172,16.038 38.7839,16.3713 40.5,16.5C 40.5,18.1667 40.5,19.8333 40.5,21.5C 39.1779,21.33 38.0113,21.6634 37,22.5C 36.3645,21.0337 35.5312,19.7003 34.5,18.5C 35.1272,17.5832 35.4606,16.5832 35.5,15.5 Z"/></g>
<g><path style="opacity:1" fill="#ffb909" d="M 36.5,25.5 C 40.6189,25.9504 41.6189,27.9504 39.5,31.5C 38.1667,31.5 36.8333,31.5 35.5,31.5C 35.5792,30.0695 35.2458,28.7362 34.5,27.5C 35.2427,26.8182 35.9094,26.1515 36.5,25.5 Z"/></g>
<g><path style="opacity:1" fill="#ffbb05" d="M 30.5,31.5 C 31.3636,32.6883 32.3636,33.8549 33.5,35C 32.2986,35.9025 31.4652,37.0692 31,38.5C 29.9887,37.6634 28.8221,37.33 27.5,37.5C 27.5,35.8333 27.5,34.1667 27.5,32.5C 28.791,32.7373 29.791,32.404 30.5,31.5 Z"/></g>
</svg>
