<svg xmlns="http://www.w3.org/2000/svg" x="0" y="924" width="82px"
     height="66px" viewBox="0 0 82 66" version="1.1">
    <title>el</title>
    <g id="el" stroke="none" stroke-width="1" fill="none" fill-rule="evenodd">
        <g id="Group" transform="translate(6.000000, 6.000000)" fill-rule="nonzero">
            <path d="M57.4369625,-2 L12.5630375,-2 C7.62820121,-2 5.86681924,-1.41548743 4.07025833,-0.454676148 C2.11952905,0.58858529 0.58858529,2.11952905 -0.454676148,4.07025833 C-1.41548743,5.86681924 -2,7.62820121 -2,12.5630375 L-2,41.4369625 C-2,46.3717988 -1.41548743,48.1331808 -0.454676148,49.9297417 C0.58858529,51.880471 2.11952905,53.4114147 4.07025833,54.4546761 C5.86681924,55.4154874 7.62820121,56 12.5630375,56 L57.4369625,56 C62.3717988,56 64.1331808,55.4154874 65.9297417,54.4546761 C67.880471,53.4114147 69.4114147,51.880471 70.4546761,49.9297417 C71.4154874,48.1331808 72,46.3717988 72,41.4369625 L72,12.5630375 C72,7.62820121 71.4154874,5.86681924 70.4546761,4.07025833 C69.4114147,2.11952905 67.880471,0.58858529 65.9297417,-0.454676148 C64.1331808,-1.41548743 62.3717988,-2 57.4369625,-2 Z"
                  id="Rectangle-3" stroke="#FFFFFF" stroke-width="4" fill="#EEEEEE"/>
            <path d="M12.5630375,0 L35,0 L35,30 L0,30 L0,12.5630375 C0,8.19459565 0.454845495,6.61049309 1.30895025,5.01345605 C2.163055,3.41641902 3.41641902,2.163055 5.01345605,1.30895025 C6.61049309,0.454845495 8.19459565,0 12.5630375,0 Z"
                  id="Path" fill="#1CB0F6"/>
            <path d="M57.4369625,-4.4408921e-16 C61.8054043,-4.4408921e-16 63.3895069,0.454845495 64.9865439,1.30895025 C66.583581,2.163055 67.836945,3.41641902 68.6910498,5.01345605 C68.8631227,5.33520441 69.0189902,5.65642778 69.158198,6 L27,6 L27,-4.4408921e-16 L57.4369625,-4.4408921e-16 Z"
                  id="Path" fill="#1CB0F6"/>
            <path d="M69.9973404,12 C69.9991119,12.1824033 70,12.370002 70,12.5630375 L70,18 L25,18 L25,12 L69.9973404,12 L69.9973404,12 Z"
                  id="Path" fill="#1CB0F6"/>
            <polygon id="Path" fill="#1CB0F6" points="70 24 70 30 0 30 7.03142022e-17 24"/>
            <path d="M70,36 L70,41.4369625 C70,41.629998 69.9991119,41.8175967 69.9973404,42 L0.00265964682,42 C0.000888147682,41.8175967 0,41.629998 0,41.4369625 L0,36 L70,36 Z"
                  id="Path" fill="#1CB0F6"/>
            <path d="M69.158198,48 C69.0189902,48.3435722 68.8631227,48.6647956 68.6910498,48.9865439 C67.836945,50.583581 66.583581,51.836945 64.9865439,52.6910498 C63.3895069,53.5451545 61.8054043,54 57.4369625,54 L12.5630375,54 C8.19459565,54 6.61049309,53.5451545 5.01345605,52.6910498 C3.41641902,51.836945 2.163055,50.583581 1.30895025,48.9865439 C1.13687734,48.6647956 0.98100976,48.3435722 0.84180204,48 L69.158198,48 L69.158198,48 Z"
                  id="Path" fill="#1CB0F6"/>
            <polygon id="Rectangle-Copy-4" fill="#EEEEEE" points="0 12 35 12 35 18 0 18"/>
            <polygon id="Rectangle-5" fill="#EEEEEE" points="14 0 20 0 20 32 14 32"/>
        </g>
    </g>
</svg>