<?xml version="1.0" encoding="UTF-8"?>
<!DOCTYPE svg PUBLIC "-//W3C//DTD SVG 1.1//EN" "http://www.w3.org/Graphics/SVG/1.1/DTD/svg11.dtd">
<svg xmlns="http://www.w3.org/2000/svg" version="1.1" width="78px" height="62px" style="shape-rendering:geometricPrecision; text-rendering:geometricPrecision; image-rendering:optimizeQuality; fill-rule:evenodd; clip-rule:evenodd" xmlns:xlink="http://www.w3.org/1999/xlink">
<g><path style="opacity:0.965" fill="#fefffe" d="M 7.5,-0.5 C 28.1667,-0.5 48.8333,-0.5 69.5,-0.5C 72.5,1.83333 75.1667,4.5 77.5,7.5C 77.5,22.8333 77.5,38.1667 77.5,53.5C 75.0967,56.907 72.0967,59.5737 68.5,61.5C 48.5,61.5 28.5,61.5 8.5,61.5C 4.90326,59.5737 1.90326,56.907 -0.5,53.5C -0.5,38.1667 -0.5,22.8333 -0.5,7.5C 1.83333,4.5 4.5,1.83333 7.5,-0.5 Z"/></g>
<g><path style="opacity:1" fill="#eaedee" d="M 10.5,3.5 C 19.5541,10.7075 29.0541,17.3742 39,23.5C 48.0784,17.7085 56.9118,11.5419 65.5,5C 64.944,4.61742 64.6107,4.11742 64.5,3.5C 70.3001,4.30064 73.3001,7.63397 73.5,13.5C 65.1696,18.6683 57.1696,24.335 49.5,30.5C 57.1696,36.665 65.1696,42.3317 73.5,47.5C 73.3001,53.366 70.3001,56.6994 64.5,57.5C 65.7065,56.1196 65.3731,54.9529 63.5,54C 55.3229,48.4849 47.1562,42.9849 39,37.5C 29.0541,43.6258 19.5541,50.2925 10.5,57.5C 6.28655,55.9542 3.95321,52.9542 3.5,48.5C 12.3714,43.2325 20.7048,37.2325 28.5,30.5C 20.7048,23.7675 12.3714,17.7675 3.5,12.5C 3.95321,8.04584 6.28655,5.04584 10.5,3.5 Z"/></g>
<g><path style="opacity:1" fill="#24b1f5" d="M 10.5,3.5 C 28.5,3.5 46.5,3.5 64.5,3.5C 64.6107,4.11742 64.944,4.61742 65.5,5C 56.9118,11.5419 48.0784,17.7085 39,23.5C 29.0541,17.3742 19.5541,10.7075 10.5,3.5 Z"/></g>
<g><path style="opacity:1" fill="#26b1f5" d="M 3.5,12.5 C 12.3714,17.7675 20.7048,23.7675 28.5,30.5C 20.7048,37.2325 12.3714,43.2325 3.5,48.5C 3.5,36.5 3.5,24.5 3.5,12.5 Z"/></g>
<g><path style="opacity:1" fill="#24b1f5" d="M 73.5,13.5 C 73.5,24.8333 73.5,36.1667 73.5,47.5C 65.1696,42.3317 57.1696,36.665 49.5,30.5C 57.1696,24.335 65.1696,18.6683 73.5,13.5 Z"/></g>
<g><path style="opacity:1" fill="#24b1f5" d="M 64.5,57.5 C 46.5,57.5 28.5,57.5 10.5,57.5C 19.5541,50.2925 29.0541,43.6258 39,37.5C 47.1562,42.9849 55.3229,48.4849 63.5,54C 65.3731,54.9529 65.7065,56.1196 64.5,57.5 Z"/></g>
</svg>
