<svg xmlns="http://www.w3.org/2000/svg" x="0" y="660" width="82px"
     height="66px" viewBox="0 0 82 66" version="1.1">
    <title>tr</title>
    <g id="tr" stroke="none" stroke-width="1" fill="none" fill-rule="evenodd">
        <g id="Group" transform="translate(6.000000, 6.000000)">
            <path d="M57.4369627,-2 L12.5630373,-2 C7.62820107,-2 5.86681913,-1.41548744 4.07025825,-0.45467617 C2.11952899,0.588585254 0.588585254,2.11952899 -0.45467617,4.07025825 C-1.41548744,5.86681913 -2,7.62820107 -2,12.5630373 L-2,41.2453251 C-2,46.1801613 -1.41548744,47.9415432 -0.45467617,49.7381041 C0.588585254,51.6888334 2.11952899,53.2197771 4.07025825,54.2630385 C5.86681913,55.2238498 7.62820107,55.8083624 12.5630373,55.8083624 L57.4369627,55.8083624 C62.3717989,55.8083624 64.1331809,55.2238498 65.9297418,54.2630385 C67.880471,53.2197771 69.4114147,51.6888334 70.4546762,49.7381041 C71.4154874,47.9415432 72,46.1801613 72,41.2453251 L72,12.5630373 C72,7.62820107 71.4154874,5.86681913 70.4546762,4.07025825 C69.4114147,2.11952899 67.880471,0.588585254 65.9297418,-0.45467617 C64.1331809,-1.41548744 62.3717989,-2 57.4369627,-2 Z"
                  id="Rectangle-3" stroke="#FFFFFF" stroke-width="4" fill="#FF4B4B"/>
            <path d="M42.3119207,15.3341313 C41.4373535,15.1113771 40.6667133,15 40,15 C33.372583,15 28,20.372583 28,27 C28,33.627417 33.372583,39 40,39 C40.6666906,39 41.437301,38.8886305 42.3118313,38.6658914 L42.3118194,38.6658446 C42.8470436,38.5295253 43.3914372,38.8529017 43.5277565,39.3881259 C43.6301927,39.7903167 43.4735659,40.2139798 43.1341438,40.4528171 C40.7208682,42.150939 37.6761536,43 34,43 C25.163444,43 18,35.836556 18,27 C18,18.163444 25.163444,11 34,11 C37.6761928,11 40.7209332,11.8490791 43.1342211,13.5472373 L43.1342293,13.5472257 C43.5859049,13.8650562 43.6944078,14.4888642 43.3765772,14.9405399 C43.1377458,15.2799482 42.7140967,15.4365665 42.3119207,15.3341313 Z"
                  id="Path" fill="#FFFFFF" fill-rule="nonzero"/>
            <path d="M46.3596633,31.9583801 L44.3270861,33.0365045 C43.647231,33.3971148 42.8037671,33.1383158 42.4431568,32.4584607 C42.2990692,32.1868139 42.2488824,31.8751351 42.3004161,31.5719891 L42.6938061,29.2578826 C42.7486154,28.9354682 42.6423073,28.6066262 42.4091345,28.3773109 L40.7493945,26.7450278 C40.1961903,26.2009751 40.1887715,25.3114726 40.7328241,24.7582684 C40.9475431,24.5399376 41.2277175,24.3977408 41.5307018,24.3533217 L43.8054959,24.0198252 C44.1319319,23.971968 44.4137554,23.7661791 44.558728,23.4698115 L45.5776671,21.3867923 C45.9155218,20.6961155 46.7493113,20.4100965 47.4399881,20.7479512 C47.7180313,20.8839601 47.9428204,21.1087491 48.0788293,21.3867923 L49.0977685,23.4698115 C49.242741,23.7661791 49.5245645,23.971968 49.8510005,24.0198252 L52.1257946,24.3533217 C52.8934931,24.4658702 53.4245971,25.1794515 53.3120486,25.94715 C53.2676295,26.2501344 53.1254326,26.5303088 52.9071019,26.7450278 L51.2473619,28.3773109 C51.0141891,28.6066262 50.907881,28.9354682 50.9626903,29.2578826 L51.3560803,31.5719891 C51.4850547,32.3306777 50.9745705,33.0502707 50.2158819,33.1792451 C49.9127359,33.2307789 49.6010572,33.180592 49.3294103,33.0365045 L47.2968331,31.9583801 C47.0037798,31.8029381 46.6527166,31.8029381 46.3596633,31.9583801 Z"
                  id="Star-2" fill="#FFFFFF" fill-rule="nonzero"
                  transform="translate(46.828248, 26.596702) rotate(-15.000000) translate(-46.828248, -26.596702)"/>
        </g>
    </g>
</svg>