<?xml version="1.0" encoding="UTF-8"?>
<!DOCTYPE svg PUBLIC "-//W3C//DTD SVG 1.1//EN" "http://www.w3.org/Graphics/SVG/1.1/DTD/svg11.dtd">
<svg xmlns="http://www.w3.org/2000/svg" version="1.1" width="78px" height="62px" style="shape-rendering:geometricPrecision; text-rendering:geometricPrecision; image-rendering:optimizeQuality; fill-rule:evenodd; clip-rule:evenodd" xmlns:xlink="http://www.w3.org/1999/xlink">
<g><path style="opacity:0.949" fill="#fefefd" d="M 7.5,-0.5 C 28.1667,-0.5 48.8333,-0.5 69.5,-0.5C 72.5,1.83333 75.1667,4.5 77.5,7.5C 77.5,22.8333 77.5,38.1667 77.5,53.5C 75.0967,56.907 72.0967,59.5737 68.5,61.5C 48.5,61.5 28.5,61.5 8.5,61.5C 4.90326,59.5737 1.90326,56.907 -0.5,53.5C -0.5,38.1667 -0.5,22.8333 -0.5,7.5C 1.83333,4.5 4.5,1.83333 7.5,-0.5 Z"/></g>
<g><path style="opacity:1" fill="#fe9602" d="M 73.5,19.5 C 50.1667,19.5 26.8333,19.5 3.5,19.5C 1.98428,12.7955 3.98428,7.62879 9.5,4C 28.5,3.33333 47.5,3.33333 66.5,4C 72.9719,7.08919 75.3053,12.2559 73.5,19.5 Z"/></g>
<g><path style="opacity:1" fill="#ededee" d="M 3.5,19.5 C 26.8333,19.5 50.1667,19.5 73.5,19.5C 73.5,26.8333 73.5,34.1667 73.5,41.5C 50.1667,41.5 26.8333,41.5 3.5,41.5C 3.5,34.1667 3.5,26.8333 3.5,19.5 Z"/></g>
<g><path style="opacity:1" fill="#30b3f5" d="M 35.5,22.5 C 43.6577,21.8229 47.1577,25.4895 46,33.5C 43.7742,37.8608 40.2742,39.3608 35.5,38C 31.1392,35.7742 29.6392,32.2742 31,27.5C 32.025,25.313 33.525,23.6464 35.5,22.5 Z"/></g>
<g><path style="opacity:1" fill="#e3eaee" d="M 36.5,26.5 C 42.4877,26.664 43.821,29.164 40.5,34C 34.4034,34.1475 33.0701,31.6475 36.5,26.5 Z"/></g>
<g><path style="opacity:1" fill="#7ac70e" d="M 3.5,41.5 C 26.8333,41.5 50.1667,41.5 73.5,41.5C 75.033,48.5908 72.6996,53.7575 66.5,57C 47.5,57.6667 28.5,57.6667 9.5,57C 4.1155,53.275 2.1155,48.1084 3.5,41.5 Z"/></g>
</svg>
