<svg xmlns="http://www.w3.org/2000/svg" x="0" y="1518" width="82px"
     height="66px" viewBox="0 0 82 66" version="1.1">
    <title>eo</title>
    <g id="eo" stroke="none" stroke-width="1" fill="none" fill-rule="evenodd">
        <g id="Group" transform="translate(6.000000, 6.000000)" fill-rule="nonzero">
            <path d="M57.4369625,-2 L12.5630375,-2 C7.62820119,-2 5.86681923,-1.41548743 4.07025832,-0.45467615 C2.11952904,0.588585286 0.588585286,2.11952904 -0.45467615,4.07025832 C-1.41548743,5.86681923 -2,7.62820119 -2,12.5630375 L-2,41.4369625 C-2,46.3717988 -1.41548743,48.1331808 -0.45467615,49.9297417 C0.588585286,51.880471 2.11952904,53.4114147 4.07025832,54.4546762 C5.86681923,55.4154874 7.62820119,56 12.5630375,56 L57.4369625,56 C62.3717988,56 64.1331808,55.4154874 65.9297417,54.4546762 C67.880471,53.4114147 69.4114147,51.880471 70.4546762,49.9297417 C71.4154874,48.1331808 72,46.3717988 72,41.4369625 L72,12.5630375 C72,7.62820119 71.4154874,5.86681923 70.4546762,4.07025832 C69.4114147,2.11952904 67.880471,0.588585286 65.9297417,-0.45467615 C64.1331808,-1.41548743 62.3717988,-2 57.4369625,-2 Z"
                  id="Rectangle-3" stroke="#FFFFFF" stroke-width="4" fill="#7AC70C"/>
            <path d="M12.5630375,0 L35,0 L35,27 C35,29.209139 33.209139,31 31,31 L0,31 L0,12.5630375 C0,8.19459564 0.454845494,6.61049308 1.30895025,5.01345604 C2.163055,3.41641901 3.41641901,2.163055 5.01345604,1.30895025 C6.61049308,0.454845494 8.19459564,0 12.5630375,0 Z"
                  id="Path" fill="#EEEEEE"/>
            <path d="M16.5967044,22.7120251 L13.1793959,24.5086105 C12.1380183,25.056095 10.849991,24.6557157 10.3025065,23.6143381 C10.0844952,23.1996561 10.009265,22.7246709 10.0884622,22.2629157 L10.74111,18.4576868 C10.7893296,18.1765452 10.6961209,17.8896784 10.4918596,17.6905729 L7.72719897,14.9956948 C6.88470682,14.1744679 6.86746792,12.8257572 7.68869479,11.983265 C8.01571164,11.6477802 8.444202,11.4294535 8.90783057,11.3620843 L12.7284976,10.8069089 C13.0107798,10.7658909 13.2548033,10.5885974 13.3810437,10.3328064 L15.0896979,6.87069477 C15.6103867,5.81566407 16.8877597,5.38249435 17.9427904,5.90318313 C18.3629092,6.11052413 18.7029611,6.45057601 18.9103021,6.87069477 L20.6189563,10.3328064 C20.7451967,10.5885974 20.9892202,10.7658909 21.2715024,10.8069089 L25.0921694,11.3620843 C26.2564649,11.5312663 27.0631638,12.6122635 26.8939817,13.776559 C26.8266126,14.2401876 26.6082858,14.6686779 26.272801,14.9956948 L23.5081404,17.6905729 C23.3038791,17.8896784 23.2106704,18.1765452 23.25889,18.4576868 L23.9115378,22.2629157 C24.1104232,23.4225066 23.3316175,24.5237693 22.1720266,24.7226547 C21.7102714,24.801852 21.2352861,24.7266217 20.8206041,24.5086105 L17.4032956,22.7120251 C17.1508148,22.579288 16.8491852,22.579288 16.5967044,22.7120251 Z"
                  id="Star" fill="#7AC70C"/>
        </g>
    </g>
</svg>