<svg xmlns="http://www.w3.org/2000/svg" x="0" y="2442" width="82px"
     height="66px" viewBox="0 0 82 66" version="1.1">
    <title>ambassador</title>
    <g id="ambassador" stroke="none" stroke-width="1" fill="none" fill-rule="evenodd">
        <g id="Group-5-Copy" transform="translate(6.000000, 6.000000)">
            <path d="M57.4369625,-2 L12.5630375,-2 C7.62820119,-2 5.86681923,-1.41548743 4.07025832,-0.45467615 C2.11952904,0.588585286 0.588585286,2.11952904 -0.45467615,4.07025832 C-1.41548743,5.86681923 -2,7.62820119 -2,12.5630375 L-2,41.4369625 C-2,46.3717988 -1.41548743,48.1331808 -0.45467615,49.9297417 C0.588585286,51.880471 2.11952904,53.4114147 4.07025832,54.4546762 C5.86681923,55.4154874 7.62820119,56 12.5630375,56 L57.4369625,56 C62.3717988,56 64.1331808,55.4154874 65.9297417,54.4546762 C67.880471,53.4114147 69.4114147,51.880471 70.4546762,49.9297417 C71.4154874,48.1331808 72,46.3717988 72,41.4369625 L72,12.5630375 C72,7.62820119 71.4154874,5.86681923 70.4546762,4.07025832 C69.4114147,2.11952904 67.880471,0.588585286 65.9297417,-0.45467615 C64.1331808,-1.41548743 62.3717988,-2 57.4369625,-2 Z"
                  id="Rectangle-3" stroke="#FFFFFF" stroke-width="4" fill="#FFC800" fill-rule="nonzero"/>
            <path d="M31.5437377,-3.05533376e-13 L37.8032859,3.4429154 L31.5437377,11.5983788 L29.0405088,21.0947 L22.076372,16.2801604 L22.076372,23.2687817 L44.8380081,32.851759 L29.436,54 L25.599,54 L27.0517263,41.3593787 L20.7571893,35.7250479 L20.7571893,27.4332431 L12.4480899,19.1391378 L4,5.5 L6.35168303,0.708230406 C7.66228877,0.243326751 9.36790007,-3.05533376e-13 12.5630375,-3.05533376e-13 L31.5437377,-3.05533376e-13 Z"
                  id="Path" fill="#FF9600" fill-rule="nonzero"/>
            <path d="M57.4369625,0 C61.8054044,0 63.3895069,0.454845494 64.986544,1.30895025 C66.583581,2.163055 67.836945,3.41641901 68.6910498,5.01345604 C69.5451545,6.61049308 70,8.19459564 70,12.5630375 L70,41.4369625 C70,44.8460898 69.7229889,46.5594919 69.1953857,47.9066585 L63.4003906,46 L62.0561856,33 L53.3588414,27.4332431 L53.3588414,14.4628706 L61.6546051,14.4628706 L57.5067233,8.03996548 L51.5941033,8.03996548 L54.6816406,0 L57.4369625,0 Z"
                  id="Combined-Shape" fill="#FF9600"/>
            <g id="Group-7" transform="translate(4.000000, 0.000000)"/>
        </g>
    </g>
</svg>