<svg xmlns="http://www.w3.org/2000/svg" x="0" y="990" width="82px"
     height="66px" viewBox="0 0 82 66" version="1.1">
    <title>he</title>
    <g id="he" stroke="none" stroke-width="1" fill="none" fill-rule="evenodd">
        <g id="Group" transform="translate(6.000000, 6.000000)" fill-rule="nonzero">
            <path d="M57.4369625,-2 L12.5630375,-2 C7.62820119,-2 5.86681923,-1.41548743 4.07025832,-0.45467615 C2.11952904,0.588585286 0.588585286,2.11952904 -0.45467615,4.07025832 C-1.41548743,5.86681923 -2,7.62820119 -2,12.5630375 L-2,41.4369625 C-2,46.3717988 -1.41548743,48.1331808 -0.45467615,49.9297417 C0.588585286,51.880471 2.11952904,53.4114147 4.07025832,54.4546762 C5.86681923,55.4154874 7.62820119,56 12.5630375,56 L57.4369625,56 C62.3717988,56 64.1331808,55.4154874 65.9297417,54.4546762 C67.880471,53.4114147 69.4114147,51.880471 70.4546762,49.9297417 C71.4154874,48.1331808 72,46.3717988 72,41.4369625 L72,12.5630375 C72,7.62820119 71.4154874,5.86681923 70.4546762,4.07025832 C69.4114147,2.11952904 67.880471,0.588585286 65.9297417,-0.45467615 C64.1331808,-1.41548743 62.3717988,-2 57.4369625,-2 Z"
                  id="Rectangle-3" stroke="#FFFFFF" stroke-width="4" fill="#EEEEEE"/>
            <path d="M69.9973404,42 C69.9590224,45.9454283 69.5074128,47.4600778 68.6910498,48.986544 C68.5011916,49.3415479 68.291605,49.6795701 68.0629007,50 L1.93709935,50 C1.70839497,49.6795701 1.49880842,49.3415479 1.30895025,48.986544 C0.49258722,47.4600778 0.0409776145,45.9454283 0.00265964657,42 L69.9973404,42 L69.9973404,42 Z"
                  id="Path" fill="#1CB0F6"/>
            <path d="M68.0629007,4 C68.291605,4.32042992 68.5011916,4.65845212 68.6910498,5.01345604 C69.5074128,6.53992218 69.9590224,8.05457171 69.9973404,12 L0.00265964657,12 C0.0409776145,8.05457171 0.49258722,6.53992218 1.30895025,5.01345604 C1.49880842,4.65845212 1.70839497,4.32042992 1.93709935,4 L68.0629007,4 L68.0629007,4 Z"
                  id="Path" fill="#1CB0F6"/>
            <path d="M35.5282773,17.0150944 C35.5255747,17.0107449 35.5219064,17.0070766 35.5175569,17.004374 C35.5019201,16.9946579 35.4813676,16.9993489 35.4716516,17.0150944 L26.2830993,31.8029204 C26.2798178,31.8082015 26.2780788,31.8142952 26.2780788,31.8205128 C26.2780788,31.8389223 26.2930027,31.8538462 26.3114122,31.8538462 L44.6885167,31.8538462 C44.6947343,31.8538462 44.700828,31.8521072 44.7061092,31.8488257 C44.7218546,31.8391096 44.7265456,31.8185571 44.7168296,31.8029204 L35.5282773,17.0150944 Z M37.7366789,15.6428836 L46.9252312,30.4307096 C47.6927983,31.6660129 47.3136232,33.2896602 46.0783199,34.0572273 C45.6611091,34.316465 45.1797082,34.4538462 44.6885167,34.4538462 L26.3114122,34.4538462 C24.8570623,34.4538462 23.6780788,33.2748627 23.6780788,31.8205128 C23.6780788,31.3293214 23.8154599,30.8479204 24.0746977,30.4307096 L33.26325,15.6428836 C34.0308171,14.4075803 35.6544643,14.0284053 36.8897676,14.7959724 C37.2333759,15.0094765 37.5231747,15.2992753 37.7366789,15.6428836 Z"
                  id="Triangle" fill="#1CB0F6"/>
            <path d="M35.4720106,36.6839001 C35.4747132,36.6882495 35.4783816,36.6919179 35.482731,36.6946205 C35.4983678,36.7043365 35.5189203,36.6996455 35.5286363,36.6839001 L44.7171886,21.8960741 C44.7204701,21.8907929 44.7222091,21.8846992 44.7222091,21.8784816 C44.7222091,21.8600721 44.7072852,21.8451483 44.6888758,21.8451483 L26.3117712,21.8451483 C26.3055536,21.8451483 26.2994599,21.8468873 26.2941788,21.8501688 C26.2784333,21.8598848 26.2737423,21.8804373 26.2834584,21.8960741 L35.4720106,36.6839001 Z M33.263609,38.0561108 L24.0750568,23.2682848 C23.3074897,22.0329815 23.6866648,20.4093343 24.921968,19.6417672 C25.3391788,19.3825294 25.8205797,19.2451483 26.3117712,19.2451483 L44.6888758,19.2451483 C46.1432256,19.2451483 47.3222091,20.4241318 47.3222091,21.8784816 C47.3222091,22.3696731 47.184828,22.851074 46.9255902,23.2682848 L37.7370379,38.0561108 C36.9694708,39.2914141 35.3458236,39.6705892 34.1105203,38.9030221 C33.766912,38.6895179 33.4771132,38.3997191 33.263609,38.0561108 Z"
                  id="Shape" fill="#1CB0F6"/>
        </g>
    </g>
</svg>