<?xml version="1.0" encoding="UTF-8"?>
<svg version="1.1" xmlns="http://www.w3.org/2000/svg" width="78" height="62">
<path d="M0 0 C1.82781258 -0.02893593 1.82781258 -0.02893593 3.69255066 -0.05845642 C5.02980486 -0.07326617 6.36707089 -0.08703919 7.7043457 -0.09985352 C8.7145172 -0.10971126 8.7145172 -0.10971126 9.74509621 -0.11976814 C13.31279016 -0.1523671 16.88045428 -0.17681151 20.44824219 -0.19628906 C23.39432567 -0.21407128 26.3394463 -0.24883705 29.28515625 -0.29882812 C32.84726452 -0.35920585 36.40848329 -0.38978857 39.97107887 -0.39946175 C41.98026428 -0.41212299 43.98919595 -0.45413538 45.99797058 -0.49668884 C56.20468862 -0.47374585 56.20468862 -0.47374585 60.51611328 3.12255859 C63.48897943 6.19970701 64.31597179 8.28942908 64.40136719 12.54736328 C64.42065781 13.44557297 64.43994843 14.34378265 64.45982361 15.26921082 C64.51761048 19.38890582 64.56686594 23.50842544 64.59765625 27.62841797 C64.61921605 29.79817643 64.65329468 31.96784839 64.70019531 34.13720703 C64.76729751 37.26951854 64.79467473 40.40002942 64.8137207 43.53295898 C64.84155136 44.49674973 64.86938202 45.46054047 64.89805603 46.45353699 C64.88000836 52.39875518 63.91086917 55.61810229 59.77626038 59.95515442 C56.55780092 62.50284953 53.35587621 62.34415865 49.42358398 62.36987305 C48.23870392 62.37948059 47.05382385 62.38908813 45.83303833 62.39898682 C44.5517807 62.40323669 43.27052307 62.40748657 41.95043945 62.41186523 C40.63477997 62.41756531 39.31912048 62.42326538 37.96359253 62.42913818 C35.17779149 62.43963742 32.39201921 62.44548715 29.60620117 62.44897461 C26.04294437 62.45445779 22.48006999 62.47848606 18.91693306 62.50694656 C15.51144254 62.53009067 12.10600455 62.53202361 8.70043945 62.53686523 C6.7846257 62.55538544 6.7846257 62.55538544 4.83010864 62.57427979 C3.63892426 62.57127869 2.44773987 62.56827759 1.22045898 62.56518555 C0.1747171 62.56883118 -0.87102478 62.57247681 -1.94845581 62.57623291 C-6.2813328 62.0192736 -8.88884137 60.03382181 -12.08227539 57.1652832 C-14.62434415 52.80858173 -14.41837472 48.86712923 -14.40893555 43.90405273 C-14.4175058 42.90671112 -14.42607605 41.90936951 -14.43490601 40.88180542 C-14.44637322 38.77548249 -14.44740729 36.66908037 -14.4387207 34.56274414 C-14.4324068 31.35090976 -14.47930518 28.14277449 -14.5300293 24.93139648 C-14.53457647 22.88061986 -14.53598172 20.82983338 -14.53393555 18.77905273 C-14.55235504 17.82467316 -14.57077454 16.87029358 -14.5897522 15.88699341 C-14.50784989 9.94176019 -13.46321483 6.76304102 -9.28964233 2.46603394 C-6.26384888 -0.10051121 -3.88175782 0.05728318 0 0 Z " fill="#FE4C4C" transform="translate(13.807373046875,-0.208740234375)"/>
<path d="M0 0 C1.82781258 -0.02893593 1.82781258 -0.02893593 3.69255066 -0.05845642 C5.02980486 -0.07326617 6.36707089 -0.08703919 7.7043457 -0.09985352 C8.7145172 -0.10971126 8.7145172 -0.10971126 9.74509621 -0.11976814 C13.31279016 -0.1523671 16.88045428 -0.17681151 20.44824219 -0.19628906 C23.39432567 -0.21407128 26.3394463 -0.24883705 29.28515625 -0.29882812 C32.84726452 -0.35920585 36.40848329 -0.38978857 39.97107887 -0.39946175 C41.98026428 -0.41212299 43.98919595 -0.45413538 45.99797058 -0.49668884 C56.20468862 -0.47374585 56.20468862 -0.47374585 60.51611328 3.12255859 C63.48897943 6.19970701 64.31597179 8.28942908 64.40136719 12.54736328 C64.42065781 13.44557297 64.43994843 14.34378265 64.45982361 15.26921082 C64.51761048 19.38890582 64.56686594 23.50842544 64.59765625 27.62841797 C64.61921605 29.79817643 64.65329468 31.96784839 64.70019531 34.13720703 C64.76729751 37.26951854 64.79467473 40.40002942 64.8137207 43.53295898 C64.84155136 44.49674973 64.86938202 45.46054047 64.89805603 46.45353699 C64.88000836 52.39875518 63.91086917 55.61810229 59.77626038 59.95515442 C56.55780092 62.50284953 53.35587621 62.34415865 49.42358398 62.36987305 C48.23870392 62.37948059 47.05382385 62.38908813 45.83303833 62.39898682 C44.5517807 62.40323669 43.27052307 62.40748657 41.95043945 62.41186523 C40.63477997 62.41756531 39.31912048 62.42326538 37.96359253 62.42913818 C35.17779149 62.43963742 32.39201921 62.44548715 29.60620117 62.44897461 C26.04294437 62.45445779 22.48006999 62.47848606 18.91693306 62.50694656 C15.51144254 62.53009067 12.10600455 62.53202361 8.70043945 62.53686523 C6.7846257 62.55538544 6.7846257 62.55538544 4.83010864 62.57427979 C3.63892426 62.57127869 2.44773987 62.56827759 1.22045898 62.56518555 C0.1747171 62.56883118 -0.87102478 62.57247681 -1.94845581 62.57623291 C-6.2813328 62.0192736 -8.88884137 60.03382181 -12.08227539 57.1652832 C-14.62434415 52.80858173 -14.41837472 48.86712923 -14.40893555 43.90405273 C-14.4175058 42.90671112 -14.42607605 41.90936951 -14.43490601 40.88180542 C-14.44637322 38.77548249 -14.44740729 36.66908037 -14.4387207 34.56274414 C-14.4324068 31.35090976 -14.47930518 28.14277449 -14.5300293 24.93139648 C-14.53457647 22.88061986 -14.53598172 20.82983338 -14.53393555 18.77905273 C-14.55235504 17.82467316 -14.57077454 16.87029358 -14.5897522 15.88699341 C-14.50784989 9.94176019 -13.46321483 6.76304102 -9.28964233 2.46603394 C-6.26384888 -0.10051121 -3.88175782 0.05728318 0 0 Z M-7.05029297 6.67895508 C-7.63012939 7.51378418 -8.20996582 8.34861328 -8.80737305 9.20874023 C-9.13737305 9.53874023 -9.46737305 9.86874023 -9.80737305 10.20874023 C-9.933438 13.1800529 -9.99607647 16.12681195 -10.01049805 19.09936523 C-10.01619812 19.99612976 -10.02189819 20.89289429 -10.027771 21.8168335 C-10.03723824 23.72008071 -10.04376179 25.62334445 -10.04760742 27.52661133 C-10.05728621 30.43266708 -10.08828193 33.33800773 -10.11987305 36.24389648 C-10.12640553 38.09154853 -10.13165504 39.93920564 -10.13549805 41.78686523 C-10.14784485 42.6547467 -10.16019165 43.52262817 -10.1729126 44.41680908 C-10.15547532 49.16525021 -9.9401322 52.38225937 -6.80737305 56.20874023 C-3.43097263 58.45967385 -2.26881838 58.46500759 1.6862793 58.48339844 C2.81109711 58.49293045 3.93591492 58.50246246 5.09481812 58.51228333 C6.91827255 58.51091621 6.91827255 58.51091621 8.77856445 58.50952148 C10.0276358 58.51380661 11.27670715 58.51809174 12.56362915 58.52250671 C15.20833356 58.52825513 17.85264838 58.52967987 20.49731445 58.52441406 C23.87901459 58.51862678 27.26016571 58.5355326 30.64177513 58.55875874 C33.87486731 58.57707639 37.10792974 58.57330986 40.34106445 58.57202148 C41.55265228 58.58123123 42.76424011 58.59044098 44.01254272 58.59992981 C45.14366486 58.59370102 46.27478699 58.58747223 47.44018555 58.58105469 C48.43263275 58.58168411 49.42507996 58.58231354 50.44760132 58.58296204 C53.73260067 58.1351271 55.56266182 57.21328489 58.19262695 55.20874023 C60.01649751 52.48869619 60.45007646 50.3107968 60.49902344 47.0703125 C60.51501083 46.26590225 60.53099823 45.461492 60.54747009 44.63270569 C60.55551414 43.34196388 60.55551414 43.34196388 60.5637207 42.02514648 C60.57274918 41.1326268 60.58177765 40.24010712 60.59107971 39.32054138 C60.60556924 37.43524524 60.61446572 35.54989897 60.61816406 33.66455078 C60.63007197 30.78453819 60.67927816 27.90666094 60.72973633 25.02709961 C60.73919976 23.19312567 60.74643518 21.3591386 60.7512207 19.52514648 C60.77075302 18.66667618 60.79028534 17.80820587 60.81040955 16.92372131 C60.77708108 12.49528786 60.63701174 10.76558305 57.78271484 7.18896484 C54.1270573 4.3940701 52.35698494 4.07472054 47.8125 4.01586914 C46.68760666 3.99980621 45.56271332 3.98374329 44.4037323 3.9671936 C39.25696605 3.92282548 34.11028895 3.88123921 28.96337891 3.85864258 C26.24623917 3.84530812 23.52985135 3.81746641 20.81298828 3.77661133 C16.90179465 3.71779855 12.99096644 3.6999806 9.0793457 3.68530273 C7.86462082 3.66263336 6.64989594 3.63996399 5.39836121 3.61660767 C-1.4255903 3.39254173 -1.4255903 3.39254173 -7.05029297 6.67895508 Z " fill="#FFFEFE" transform="translate(13.807373046875,-0.208740234375)"/>
<path d="M0 0 C-0.20496094 0.72445313 -0.40992188 1.44890625 -0.62109375 2.1953125 C-1.17528893 4.18405118 -1.71653466 6.17643495 -2.24609375 8.171875 C-2.79957326 10.2481401 -3.38955927 12.31476253 -4 14.375 C-4.2649158 17.2539227 -4.2649158 17.2539227 -1.8125 19.875 C0.94440786 22.40188873 0.94440786 22.40188873 5 22 C7.64100019 17.13139724 7.64100019 17.13139724 7.44140625 11.78125 C7.15136719 11.0284375 6.86132812 10.275625 6.5625 9.5 C5.32330992 6.25476678 5 4.61653093 5 1 C8.1793909 1.07569978 10.30889688 1.36768037 12.69921875 3.5546875 C16.11502527 7.54117356 18.14257511 10.08587769 18.125 15.4375 C18.12886719 16.61119141 18.12886719 16.61119141 18.1328125 17.80859375 C18 20 18 20 17 23 C14.53199953 21.84826645 12.95216435 20.95216435 11 19 C9.35 20.65 7.7 22.3 6 24 C7.15173355 26.46800047 8.04783565 28.04783565 10 30 C5.68278202 32.45719209 1.87425788 32.59844091 -3 32 C-6.0625 30.5 -6.0625 30.5 -8 29 C-7.67 28.34 -7.34 27.68 -7 27 C-5.02 27 -3.04 27 -1 27 C-2.52206009 24.37098712 -3.84365964 22.15634036 -6 20 C-8.61580479 20.3269756 -10.64078137 20.82039068 -13 22 C-14.24266632 18.27200105 -14.52902513 14.87217006 -14 11 C-11.12206485 5.45731008 -6.62745519 0 0 0 Z " fill="#E9E4E4" transform="translate(37,15)"/>
<path d="M0 0 C0.99 0.33 1.98 0.66 3 1 C4.07820986 3.62147178 4.95012582 6.10760002 5.75 8.8125 C5.98332031 9.53759766 6.21664062 10.26269531 6.45703125 11.00976562 C7.59180219 14.72325255 8.36168179 17.32689588 7 21 C4.4375 23.75 4.4375 23.75 2 26 C-1.41315316 24.53722007 -3.91867453 23.1219882 -6 20 C-5.85209889 16.85549389 -4.92702378 13.99428679 -4 11 C-3.7421875 10.08476562 -3.484375 9.16953125 -3.21875 8.2265625 C-1.20758032 1.20758032 -1.20758032 1.20758032 0 0 Z " fill="#515050" transform="translate(38,12)"/>
<path d="M0 0 C2.8921755 1.26069188 4.47863218 2.59577756 6.4375 5.0625 C6.4375 6.0525 6.4375 7.0425 6.4375 8.0625 C5.179375 8.330625 3.92125 8.59875 2.625 8.875 C-0.55698801 9.65782537 -2.56494311 10.31585928 -4.5625 13.0625 C-5.5525 12.7325 -6.5425 12.4025 -7.5625 12.0625 C-7.99339173 7.66740434 -8.02301828 5.69406793 -5.375 2.0625 C-2.5625 0.0625 -2.5625 0.0625 0 0 Z " fill="#504F4F" transform="translate(29.5625,33.9375)"/>
<path d="M0 0 C0.48210938 0.42152344 0.96421875 0.84304687 1.4609375 1.27734375 C2.09257813 1.82519531 2.72421875 2.37304688 3.375 2.9375 C4.00148438 3.48277344 4.62796875 4.02804688 5.2734375 4.58984375 C6.95632334 6.06958624 6.95632334 6.06958624 9 7 C9 7.99 9 8.98 9 10 C5.58442978 12.10188936 2.97827 12.4871351 -1 12 C-3.875 10 -3.875 10 -6 8 C-4.55746343 4.63408134 -2.66735273 2.48952921 0 0 Z " fill="#504E4E" transform="translate(48,33)"/>
</svg>
