<?xml version="1.0" encoding="UTF-8"?>
<!DOCTYPE svg PUBLIC "-//W3C//DTD SVG 1.1//EN" "http://www.w3.org/Graphics/SVG/1.1/DTD/svg11.dtd">
<svg xmlns="http://www.w3.org/2000/svg" version="1.1" width="78px" height="62px" style="shape-rendering:geometricPrecision; text-rendering:geometricPrecision; image-rendering:optimizeQuality; fill-rule:evenodd; clip-rule:evenodd" xmlns:xlink="http://www.w3.org/1999/xlink">
<g><path style="opacity:0.949" fill="#fefefd" d="M 7.5,-0.5 C 28.1667,-0.5 48.8333,-0.5 69.5,-0.5C 72.5,1.83333 75.1667,4.5 77.5,7.5C 77.5,22.8333 77.5,38.1667 77.5,53.5C 75.0967,56.907 72.0967,59.5737 68.5,61.5C 48.5,61.5 28.5,61.5 8.5,61.5C 4.90326,59.5737 1.90326,56.907 -0.5,53.5C -0.5,38.1667 -0.5,22.8333 -0.5,7.5C 1.83333,4.5 4.5,1.83333 7.5,-0.5 Z"/></g>
<g><path style="opacity:1" fill="#7ac80c" d="M 27.5,3.5 C 27.5,21.5 27.5,39.5 27.5,57.5C 21.4908,57.6662 15.4908,57.4995 9.5,57C 6.61931,55.7494 4.78597,53.5827 4,50.5C 3.33333,36.8333 3.33333,23.1667 4,9.5C 5.16667,7 7,5.16667 9.5,4C 15.4908,3.50051 21.4908,3.33385 27.5,3.5 Z"/></g>
<g><path style="opacity:1" fill="#edeeed" d="M 27.5,3.5 C 34.8333,3.5 42.1667,3.5 49.5,3.5C 49.5,21.5 49.5,39.5 49.5,57.5C 42.1667,57.5 34.8333,57.5 27.5,57.5C 27.5,39.5 27.5,21.5 27.5,3.5 Z"/></g>
<g><path style="opacity:1" fill="#fe970a" d="M 49.5,3.5 C 70.8298,-0.0776166 78.8298,8.75572 73.5,30C 73.3333,36.8333 73.1667,43.6667 73,50.5C 72.1667,54 70,56.1667 66.5,57C 60.8431,57.4994 55.1764,57.6661 49.5,57.5C 49.5,39.5 49.5,21.5 49.5,3.5 Z"/></g>
</svg>
