<?xml version="1.0" encoding="UTF-8"?>
<!DOCTYPE svg PUBLIC "-//W3C//DTD SVG 1.1//EN" "http://www.w3.org/Graphics/SVG/1.1/DTD/svg11.dtd">
<svg xmlns="http://www.w3.org/2000/svg" version="1.1" width="78px" height="62px" style="shape-rendering:geometricPrecision; text-rendering:geometricPrecision; image-rendering:optimizeQuality; fill-rule:evenodd; clip-rule:evenodd" xmlns:xlink="http://www.w3.org/1999/xlink">
<g><path style="opacity:0.949" fill="#f6f6f6" d="M 7.5,-0.5 C 28.1667,-0.5 48.8333,-0.5 69.5,-0.5C 72.5,1.83333 75.1667,4.5 77.5,7.5C 77.5,22.8333 77.5,38.1667 77.5,53.5C 75.0967,56.907 72.0967,59.5737 68.5,61.5C 48.5,61.5 28.5,61.5 8.5,61.5C 4.90326,59.5737 1.90326,56.907 -0.5,53.5C -0.5,38.1667 -0.5,22.8333 -0.5,7.5C 1.83333,4.5 4.5,1.83333 7.5,-0.5 Z"/></g>
<g><path style="opacity:1" fill="#31b3f5" d="M 38.5,3.5 C 38.5,5.5 38.5,7.5 38.5,9.5C 38.5,11.5 38.5,13.5 38.5,15.5C 38.5,17.5 38.5,19.5 38.5,21.5C 38.5,23.5 38.5,25.5 38.5,27.5C 26.8333,27.5 15.1667,27.5 3.5,27.5C 3.33385,21.4908 3.50051,15.4908 4,9.5C 4.78451,7.71398 5.95118,6.21398 7.5,5C 17.729,3.54876 28.0623,3.04876 38.5,3.5 Z"/></g>
<g><path style="opacity:1" fill="#fe4c4c" d="M 38.5,3.5 C 47.5062,3.33356 56.5062,3.50023 65.5,4C 68.7573,4.45464 71.0906,6.12131 72.5,9C 61.1716,9.49986 49.8382,9.66652 38.5,9.5C 38.5,7.5 38.5,5.5 38.5,3.5 Z"/></g>
<g><path style="opacity:1" fill="#edf8fe" d="M 10.5,6.5 C 12.0783,7.06563 13.4116,8.06563 14.5,9.5C 13.7542,10.7362 13.4208,12.0695 13.5,13.5C 11.8333,13.5 10.1667,13.5 8.5,13.5C 8.46791,10.9242 9.13458,8.5909 10.5,6.5 Z"/></g>
<g><path style="opacity:1" fill="#edf8fe" d="M 20.5,6.5 C 22.0783,7.06563 23.4116,8.06563 24.5,9.5C 23.7542,10.7362 23.4208,12.0695 23.5,13.5C 21.8333,13.5 20.1667,13.5 18.5,13.5C 18.4679,10.9242 19.1346,8.5909 20.5,6.5 Z"/></g>
<g><path style="opacity:1" fill="#edf8fe" d="M 30.5,6.5 C 32.0783,7.06563 33.4116,8.06563 34.5,9.5C 33.7542,10.7362 33.4208,12.0695 33.5,13.5C 31.8333,13.5 30.1667,13.5 28.5,13.5C 28.4679,10.9242 29.1346,8.5909 30.5,6.5 Z"/></g>
<g><path style="opacity:1" fill="#fe4b4a" d="M 38.5,15.5 C 50.1667,15.5 61.8333,15.5 73.5,15.5C 73.5,17.5 73.5,19.5 73.5,21.5C 61.8333,21.5 50.1667,21.5 38.5,21.5C 38.5,19.5 38.5,17.5 38.5,15.5 Z"/></g>
<g><path style="opacity:1" fill="#edf8fe" d="M 10.5,16.5 C 12.0783,17.0656 13.4116,18.0656 14.5,19.5C 13.7542,20.7362 13.4208,22.0695 13.5,23.5C 11.8333,23.5 10.1667,23.5 8.5,23.5C 8.46791,20.9242 9.13458,18.5909 10.5,16.5 Z"/></g>
<g><path style="opacity:1" fill="#edf8fe" d="M 20.5,16.5 C 22.0783,17.0656 23.4116,18.0656 24.5,19.5C 23.7542,20.7362 23.4208,22.0695 23.5,23.5C 21.8333,23.5 20.1667,23.5 18.5,23.5C 18.4679,20.9242 19.1346,18.5909 20.5,16.5 Z"/></g>
<g><path style="opacity:1" fill="#edf8fe" d="M 30.5,16.5 C 32.0783,17.0656 33.4116,18.0656 34.5,19.5C 33.7542,20.7362 33.4208,22.0695 33.5,23.5C 31.8333,23.5 30.1667,23.5 28.5,23.5C 28.4679,20.9242 29.1346,18.5909 30.5,16.5 Z"/></g>
<g><path style="opacity:1" fill="#fe4b4a" d="M 3.5,27.5 C 15.1667,27.5 26.8333,27.5 38.5,27.5C 50.1667,27.5 61.8333,27.5 73.5,27.5C 73.5,29.5 73.5,31.5 73.5,33.5C 50.1667,33.5 26.8333,33.5 3.5,33.5C 3.5,31.5 3.5,29.5 3.5,27.5 Z"/></g>
<g><path style="opacity:1" fill="#fe4b4a" d="M 3.5,39.5 C 26.8333,39.5 50.1667,39.5 73.5,39.5C 73.5,41.5 73.5,43.5 73.5,45.5C 50.1667,45.5 26.8333,45.5 3.5,45.5C 3.5,43.5 3.5,41.5 3.5,39.5 Z"/></g>
<g><path style="opacity:1" fill="#fe4d4c" d="M 4.5,52.5 C 26.9963,51.337 49.6629,51.1704 72.5,52C 71.32,54.5978 69.32,56.2645 66.5,57C 47.5,57.6667 28.5,57.6667 9.5,57C 7.34079,55.9409 5.67413,54.4409 4.5,52.5 Z"/></g>
</svg>
