<?xml version="1.0" encoding="UTF-8"?>
<!DOCTYPE svg PUBLIC "-//W3C//DTD SVG 1.1//EN" "http://www.w3.org/Graphics/SVG/1.1/DTD/svg11.dtd">
<svg xmlns="http://www.w3.org/2000/svg" version="1.1" width="78px" height="62px" style="shape-rendering:geometricPrecision; text-rendering:geometricPrecision; image-rendering:optimizeQuality; fill-rule:evenodd; clip-rule:evenodd" xmlns:xlink="http://www.w3.org/1999/xlink">
<g><path style="opacity:0.95" fill="#fffefe" d="M 7.5,-0.5 C 28.1667,-0.5 48.8333,-0.5 69.5,-0.5C 72.5,1.83333 75.1667,4.5 77.5,7.5C 77.5,22.8333 77.5,38.1667 77.5,53.5C 75.0967,56.907 72.0967,59.5737 68.5,61.5C 48.5,61.5 28.5,61.5 8.5,61.5C 4.90326,59.5737 1.90326,56.907 -0.5,53.5C -0.5,38.1667 -0.5,22.8333 -0.5,7.5C 1.83333,4.5 4.5,1.83333 7.5,-0.5 Z"/></g>
<g><path style="opacity:1" fill="#ff4d4a" d="M 9.5,3.5 C 28.5029,3.33338 47.5029,3.50005 66.5,4C 69.5827,4.78597 71.7494,6.61931 73,9.5C 73.6667,22.8333 73.6667,36.1667 73,49.5C 72.573,53.5271 70.4064,56.0271 66.5,57C 47.5,57.6667 28.5,57.6667 9.5,57C 6.61931,55.7494 4.78597,53.5827 4,50.5C 3.33333,36.8333 3.33333,23.1667 4,9.5C 5.35968,6.97739 7.19301,4.97739 9.5,3.5 Z"/></g>
<g><path style="opacity:1" fill="#ffcc05" d="M 29.5,13.5 C 30.8333,13.5 32.1667,13.5 33.5,13.5C 33.0268,17.6383 30.6935,19.6383 26.5,19.5C 26.615,17.0532 27.615,15.0532 29.5,13.5 Z"/></g>
<g><path style="opacity:1" fill="#ffcc04" d="M 43.5,13.5 C 47.6935,13.3617 50.0268,15.3617 50.5,19.5C 46.3065,19.6383 43.9732,17.6383 43.5,13.5 Z"/></g>
<g><path style="opacity:1" fill="#ffca07" d="M 21.5,16.5 C 23.9406,18.0745 25.1072,20.4079 25,23.5C 26.4443,21.8446 28.2776,21.178 30.5,21.5C 30.6653,24.5036 29.3319,26.5036 26.5,27.5C 25.5481,29.0453 25.2148,30.712 25.5,32.5C 24.5,32.5 23.5,32.5 22.5,32.5C 22.7084,28.4436 22.0417,24.6102 20.5,21C 20.6052,19.4085 20.9386,17.9085 21.5,16.5 Z"/></g>
<g><path style="opacity:1" fill="#ffc809" d="M 54.5,16.5 C 56.0265,17.4919 56.6932,18.9919 56.5,21C 55.3333,25.1667 54.1667,29.3333 53,33.5C 52.3042,30.0638 50.4709,27.3971 47.5,25.5C 46.7542,24.2638 46.4208,22.9305 46.5,21.5C 48.7224,21.178 50.5557,21.8446 52,23.5C 52.1534,20.8494 52.9867,18.5161 54.5,16.5 Z"/></g>
<g><path style="opacity:1" fill="#ffca06" d="M 27.5,30.5 C 30.8524,32.4582 32.3524,35.4582 32,39.5C 36.0225,41.9812 40.1892,42.1479 44.5,40C 44.7111,36.1956 46.2111,33.0289 49,30.5C 50.1628,32.2852 50.8295,34.2852 51,36.5C 52.8138,35.2404 54.6471,35.2404 56.5,36.5C 56.0814,37.6721 55.4147,38.6721 54.5,39.5C 50.8695,39.932 47.5362,41.0987 44.5,43C 46,44.5 47.5,46 49,47.5C 49.5908,48.4835 49.2575,49.1501 48,49.5C 46.2252,48.7297 44.7252,47.563 43.5,46C 40.634,44.5432 37.634,44.2099 34.5,45C 32.9458,46.892 31.1124,48.392 29,49.5C 27.7425,49.1501 27.4092,48.4835 28,47.5C 29.5,46 31,44.5 32.5,43C 29.4638,41.0987 26.1305,39.932 22.5,39.5C 21.5853,38.6721 20.9186,37.6721 20.5,36.5C 22.3529,35.2404 24.1862,35.2404 26,36.5C 26.3153,34.4144 26.8153,32.4144 27.5,30.5 Z"/></g>
</svg>
