<svg xmlns="http://www.w3.org/2000/svg" x="0" y="1782" width="82px"
     height="66px" viewBox="0 0 82 66" version="1.1">
    <title>kl</title>
    <g id="kl" stroke="none" stroke-width="1" fill="none" fill-rule="evenodd">
        <g id="Group" transform="translate(6.000000, 6.000000)" fill-rule="nonzero">
            <path d="M57.4369625,-2 L12.5630375,-2 C7.62820119,-2 5.86681923,-1.41548743 4.07025832,-0.45467615 C2.11952904,0.588585286 0.588585286,2.11952904 -0.45467615,4.07025832 C-1.41548743,5.86681923 -2,7.62820119 -2,12.5630375 L-2,41.4369625 C-2,46.3717988 -1.41548743,48.1331808 -0.45467615,49.9297417 C0.588585286,51.880471 2.11952904,53.4114147 4.07025832,54.4546762 C5.86681923,55.4154874 7.62820119,56 12.5630375,56 L57.4369625,56 C62.3717988,56 64.1331808,55.4154874 65.9297417,54.4546762 C67.880471,53.4114147 69.4114147,51.880471 70.4546762,49.9297417 C71.4154874,48.1331808 72,46.3717988 72,41.4369625 L72,12.5630375 C72,7.62820119 71.4154874,5.86681923 70.4546762,4.07025832 C69.4114147,2.11952904 67.880471,0.588585286 65.9297417,-0.45467615 C64.1331808,-1.41548743 62.3717988,-2 57.4369625,-2 Z"
                  id="Rectangle-3" stroke="#FFFFFF" stroke-width="4" fill="#FF4B4B"/>
            <circle id="Oval" fill="#EEEEEE" cx="35" cy="27" r="16"/>
            <path d="M36.8382694,9.3980295 L41.7736381,26.2150611 C42.050404,27.1581276 41.7928513,28.1770964 41.1012176,28.875392 L37.0295144,32.9863146 C35.9801647,34.0457718 34.2706389,34.0539655 33.2111816,33.0046158 C33.2050626,32.9985552 33.1989727,32.9924653 33.1929119,32.9863464 L29.1210447,28.8753949 C28.4293881,28.1770994 28.1718222,27.158114 28.4485926,26.215032 L33.3839528,9.3980295 C33.6638931,8.44414629 34.6641047,7.89780764 35.6179879,8.17774797 C36.2059341,8.35029514 36.6657223,8.81008328 36.8382694,9.3980295 Z"
                  id="Triangle" fill="#4B4B4B"/>
            <path d="M26.90196,30.1210627 C27.4200414,30.7250508 31.3162263,34.6416323 31.9497668,35.2081223 C32.8930368,36.0515617 32.2618421,37.6126528 30.9974336,37.5634634 C28.1527215,37.4527951 25.7090767,38.3921353 23.6485657,40.0410651 C22.9612283,40.5911088 22.3690465,41.1809998 21.8758063,41.768142 C21.5875494,42.1112766 21.4022502,42.3675479 21.3224543,42.493151 C20.8934453,43.1684351 19.97461,43.3245912 19.3466017,42.8289473 C15.3235188,39.6538035 18.3625966,31.681399 25.5167876,29.6990214 C26.0212865,29.5592282 26.5611221,29.7237081 26.90196,30.1210627 Z"
                  id="Path-3" fill="#4B4B4B"/>
            <path d="M38.1442085,36.6556964 C38.053318,36.5402162 37.9468137,36.3966871 37.8146938,36.2186375 C37.6690717,35.6699426 37.8950405,35.199785 38.2657687,34.9298221 C38.294229,34.903008 38.3329571,34.8657921 38.3804112,34.8195532 C38.5175797,34.6858976 38.7189783,34.4854642 38.9867723,34.2163338 C39.2189796,33.9829677 39.4956526,33.7034805 39.8575716,33.3369057 C40.0758105,33.1158592 40.3474148,32.8404755 40.8598052,32.3209385 L40.8763526,32.3041655 C42.5075177,30.6507785 43.2689106,29.8885679 43.5891017,29.6020735 C44.2292775,29.0292695 45.2454983,29.283582 45.5404198,30.0903972 C46.3176639,32.2166989 47.7532499,33.7252167 49.6135471,34.7364382 C50.2719224,35.0943183 50.9362928,35.3621536 51.5695359,35.5515393 C51.9395705,35.6622065 52.206704,35.7206727 52.3331725,35.7402951 C53.1200928,35.8623906 53.5787729,36.6958215 53.2608776,37.4259541 C52.4231154,39.3501022 50.0322101,40.8287765 47.3176554,41.0397204 C44.1442845,41.2863182 40.8778828,39.870125 38.0797444,36.7128274 L38.1442085,36.6556964 L38.1442085,36.6556964 Z M39.2383899,34.7094379 C39.3022918,34.7225481 39.3657374,34.7412499 39.4281213,34.7658682 C39.3692815,34.7361738 39.3082732,34.7188111 39.2383899,34.7094379 L39.2383899,34.7094379 Z"
                  id="Shape" fill="#4B4B4B"/>
        </g>
    </g>
</svg>