<?xml version="1.0" encoding="UTF-8"?>
<!DOCTYPE svg PUBLIC "-//W3C//DTD SVG 1.1//EN" "http://www.w3.org/Graphics/SVG/1.1/DTD/svg11.dtd">
<svg xmlns="http://www.w3.org/2000/svg" version="1.1" width="78px" height="62px" style="shape-rendering:geometricPrecision; text-rendering:geometricPrecision; image-rendering:optimizeQuality; fill-rule:evenodd; clip-rule:evenodd" xmlns:xlink="http://www.w3.org/1999/xlink">
<g><path style="opacity:0.949" fill="#fefefd" d="M 7.5,-0.5 C 28.1667,-0.5 48.8333,-0.5 69.5,-0.5C 72.5,1.83333 75.1667,4.5 77.5,7.5C 77.5,22.8333 77.5,38.1667 77.5,53.5C 75.0967,56.907 72.0967,59.5737 68.5,61.5C 48.5,61.5 28.5,61.5 8.5,61.5C 4.90326,59.5737 1.90326,56.907 -0.5,53.5C -0.5,38.1667 -0.5,22.8333 -0.5,7.5C 1.83333,4.5 4.5,1.83333 7.5,-0.5 Z"/></g>
<g><path style="opacity:1" fill="#7cc714" d="M 9.5,3.5 C 28.5029,3.33338 47.5029,3.50005 66.5,4C 69.5827,4.78597 71.7494,6.61931 73,9.5C 73.6667,23.1667 73.6667,36.8333 73,50.5C 72.1667,54 70,56.1667 66.5,57C 47.5,57.6667 28.5,57.6667 9.5,57C 6.61931,55.7494 4.78597,53.5827 4,50.5C 3.33333,36.8333 3.33333,23.1667 4,9.5C 5.35968,6.97739 7.19301,4.97739 9.5,3.5 Z"/></g>
<g><path style="opacity:1" fill="#f8fcf2" d="M 33.5,11.5 C 35.7224,11.178 37.5557,11.8446 39,13.5C 40.4443,11.8446 42.2776,11.178 44.5,11.5C 44.822,13.7224 44.1554,15.5557 42.5,17C 30.3593,17.4655 25.1927,23.6321 27,35.5C 31.0166,42.1375 36.8499,44.3042 44.5,42C 51.0702,38.3449 53.2368,32.8449 51,25.5C 49.6912,23.0243 47.8579,21.0243 45.5,19.5C 46.0347,17.8987 47.0347,17.3987 48.5,18C 56.3273,25.9508 56.494,34.1175 49,42.5C 48.5045,44.4727 48.3379,46.4727 48.5,48.5C 45.1349,48.0463 41.8015,47.3797 38.5,46.5C 35.4877,47.1722 32.4877,47.8389 29.5,48.5C 29.6621,46.4727 29.4955,44.4727 29,42.5C 23.8409,37.5534 22.1742,31.5534 24,24.5C 26.0261,20.9738 28.8595,18.3071 32.5,16.5C 33.4519,14.9547 33.7852,13.288 33.5,11.5 Z"/></g>
<g><path style="opacity:1" fill="#f9fcf4" d="M 30.5,25.5 C 32.2944,32.8011 36.6277,34.9677 43.5,32C 45.317,30.2002 46.4837,28.0336 47,25.5C 49.5825,33.323 46.7492,37.9897 38.5,39.5C 31.1847,37.5398 28.5181,32.8731 30.5,25.5 Z"/></g>
</svg>
