<?xml version="1.0" encoding="UTF-8"?>
<!DOCTYPE svg PUBLIC "-//W3C//DTD SVG 1.1//EN" "http://www.w3.org/Graphics/SVG/1.1/DTD/svg11.dtd">
<svg xmlns="http://www.w3.org/2000/svg" version="1.1" width="78px" height="62px" style="shape-rendering:geometricPrecision; text-rendering:geometricPrecision; image-rendering:optimizeQuality; fill-rule:evenodd; clip-rule:evenodd" xmlns:xlink="http://www.w3.org/1999/xlink">
<g><path style="opacity:0.949" fill="#fefefe" d="M 7.5,-0.5 C 28.1667,-0.5 48.8333,-0.5 69.5,-0.5C 72.5,1.83333 75.1667,4.5 77.5,7.5C 77.5,22.8333 77.5,38.1667 77.5,53.5C 75.0967,56.907 72.0967,59.5737 68.5,61.5C 48.5,61.5 28.5,61.5 8.5,61.5C 4.90326,59.5737 1.90326,56.907 -0.5,53.5C -0.5,38.1667 -0.5,22.8333 -0.5,7.5C 1.83333,4.5 4.5,1.83333 7.5,-0.5 Z"/></g>
<g><path style="opacity:1" fill="#e8e9e3" d="M 12.5,3.5 C 14.8333,3.5 17.1667,3.5 19.5,3.5C 26.0677,9.46264 33.0677,14.9626 40.5,20C 51.495,20.4998 62.495,20.6665 73.5,20.5C 73.5,21.8333 73.5,23.1667 73.5,24.5C 62.1618,24.6665 50.8284,24.4999 39.5,24C 30.4316,17.1463 21.4316,10.3129 12.5,3.5 Z"/></g>
<g><path style="opacity:0.999" fill="#fe4d4d" d="M 19.5,3.5 C 35.1702,3.33341 50.8369,3.50008 66.5,4C 69.5735,4.73859 71.7402,6.57192 73,9.5C 73.4986,13.1516 73.6653,16.8183 73.5,20.5C 62.495,20.6665 51.495,20.4998 40.5,20C 33.0677,14.9626 26.0677,9.46264 19.5,3.5 Z"/></g>
<g><path style="opacity:1" fill="#4aa607" d="M 12.5,3.5 C 21.4316,10.3129 30.4316,17.1463 39.5,24C 50.8284,24.4999 62.1618,24.6665 73.5,24.5C 73.5,28.5 73.5,32.5 73.5,36.5C 62.1618,36.3335 50.8284,36.5001 39.5,37C 30.0724,43.3682 21.0724,50.2016 12.5,57.5C 6.69987,56.6994 3.69987,53.366 3.5,47.5C 11.4351,42.2365 19.1018,36.5699 26.5,30.5C 19.3464,24.0949 11.6797,18.4282 3.5,13.5C 3.69987,7.63397 6.69987,4.30064 12.5,3.5 Z"/></g>
<g><path style="opacity:1" fill="#f3d209" d="M 3.5,13.5 C 11.6797,18.4282 19.3464,24.0949 26.5,30.5C 19.1018,36.5699 11.4351,42.2365 3.5,47.5C 3.5,46.1667 3.5,44.8333 3.5,43.5C 9.31671,39.418 14.9834,35.0846 20.5,30.5C 14.9834,25.9154 9.31671,21.582 3.5,17.5C 3.5,16.1667 3.5,14.8333 3.5,13.5 Z"/></g>
<g><path style="opacity:1" fill="#4e4d49" d="M 3.5,17.5 C 9.31671,21.582 14.9834,25.9154 20.5,30.5C 14.9834,35.0846 9.31671,39.418 3.5,43.5C 3.5,34.8333 3.5,26.1667 3.5,17.5 Z"/></g>
<g><path style="opacity:1" fill="#e7ebe8" d="M 73.5,36.5 C 73.5,37.8333 73.5,39.1667 73.5,40.5C 62.495,40.3335 51.495,40.5002 40.5,41C 32.9829,46.3634 25.6496,51.8634 18.5,57.5C 16.5,57.5 14.5,57.5 12.5,57.5C 21.0724,50.2016 30.0724,43.3682 39.5,37C 50.8284,36.5001 62.1618,36.3335 73.5,36.5 Z"/></g>
<g><path style="opacity:1" fill="#24b0f5" d="M 73.5,40.5 C 73.6653,44.1817 73.4986,47.8484 73,51.5C 71.8333,54 70,55.8333 67.5,57C 51.1701,57.4999 34.8367,57.6666 18.5,57.5C 25.6496,51.8634 32.9829,46.3634 40.5,41C 51.495,40.5002 62.495,40.3335 73.5,40.5 Z"/></g>
</svg>
