<?xml version="1.0" encoding="UTF-8"?>
<!DOCTYPE svg PUBLIC "-//W3C//DTD SVG 1.1//EN" "http://www.w3.org/Graphics/SVG/1.1/DTD/svg11.dtd">
<svg xmlns="http://www.w3.org/2000/svg" version="1.1" width="78px" height="62px" style="shape-rendering:geometricPrecision; text-rendering:geometricPrecision; image-rendering:optimizeQuality; fill-rule:evenodd; clip-rule:evenodd" xmlns:xlink="http://www.w3.org/1999/xlink">
<g><path style="opacity:0.949" fill="#fffefe" d="M 7.5,-0.5 C 28.1667,-0.5 48.8333,-0.5 69.5,-0.5C 72.5,1.83333 75.1667,4.5 77.5,7.5C 77.5,22.8333 77.5,38.1667 77.5,53.5C 75.0967,56.907 72.0967,59.5737 68.5,61.5C 48.5,61.5 28.5,61.5 8.5,61.5C 4.90326,59.5737 1.90326,56.907 -0.5,53.5C -0.5,38.1667 -0.5,22.8333 -0.5,7.5C 1.83333,4.5 4.5,1.83333 7.5,-0.5 Z"/></g>
<g><path style="opacity:1" fill="#ff9600" d="M 35.5,3.5 C 37.3186,4.5845 38.9853,5.91783 40.5,7.5C 36.0566,12.3868 33.2233,18.0535 32,24.5C 30.2552,23.0443 28.4219,21.711 26.5,20.5C 25.359,22.4213 25.1923,24.4213 26,26.5C 33.3019,29.9018 40.4685,33.4018 47.5,37C 42.6273,43.7036 37.9607,50.537 33.5,57.5C 32.1667,57.5 30.8333,57.5 29.5,57.5C 32.3583,50.257 30.8583,44.257 25,39.5C 24.6667,36.5 24.3333,33.5 24,30.5C 16.7967,24.4188 11.2967,17.0854 7.5,8.5C 8.63023,7.37765 9.29689,6.04432 9.5,4.5C 17.9839,3.50698 26.6506,3.17364 35.5,3.5 Z"/></g>
<g><path style="opacity:1" fill="#ffc700" d="M 35.5,3.5 C 42.8333,3.5 50.1667,3.5 57.5,3.5C 56.8333,6.16667 56.1667,8.83333 55.5,11.5C 60.0497,10.8455 63.0497,12.6788 64.5,17C 61.854,17.4974 59.1873,17.6641 56.5,17.5C 56.1734,22.2137 56.5067,26.8804 57.5,31.5C 60.136,32.9705 62.636,34.6372 65,36.5C 65.7599,40.819 66.4265,45.1523 67,49.5C 68.7255,50.464 70.5588,51.1307 72.5,51.5C 71.6072,54.4608 69.6072,56.2941 66.5,57C 55.505,57.4998 44.505,57.6665 33.5,57.5C 37.9607,50.537 42.6273,43.7036 47.5,37C 40.4685,33.4018 33.3019,29.9018 26,26.5C 25.1923,24.4213 25.359,22.4213 26.5,20.5C 28.4219,21.711 30.2552,23.0443 32,24.5C 33.2233,18.0535 36.0566,12.3868 40.5,7.5C 38.9853,5.91783 37.3186,4.5845 35.5,3.5 Z"/></g>
<g><path style="opacity:1" fill="#ff9802" d="M 57.5,3.5 C 60.8499,3.33499 64.1832,3.50166 67.5,4C 70,5.16667 71.8333,7 73,9.5C 73.8273,23.6728 73.6607,37.6728 72.5,51.5C 70.5588,51.1307 68.7255,50.464 67,49.5C 66.4265,45.1523 65.7599,40.819 65,36.5C 62.636,34.6372 60.136,32.9705 57.5,31.5C 56.5067,26.8804 56.1734,22.2137 56.5,17.5C 59.1873,17.6641 61.854,17.4974 64.5,17C 63.0497,12.6788 60.0497,10.8455 55.5,11.5C 56.1667,8.83333 56.8333,6.16667 57.5,3.5 Z"/></g>
<g><path style="opacity:1" fill="#ffc703" d="M 9.5,4.5 C 9.29689,6.04432 8.63023,7.37765 7.5,8.5C 11.2967,17.0854 16.7967,24.4188 24,30.5C 24.3333,33.5 24.6667,36.5 25,39.5C 30.8583,44.257 32.3583,50.257 29.5,57.5C 22.825,57.6663 16.1583,57.4996 9.5,57C 6.61931,55.7494 4.78597,53.5827 4,50.5C 3.33333,36.8333 3.33333,23.1667 4,9.5C 5.05451,6.94415 6.88784,5.27748 9.5,4.5 Z"/></g>
</svg>
