<svg xmlns="http://www.w3.org/2000/svg" x="0" y="594" width="82px"
     height="66px" viewBox="0 0 82 66" version="1.1">
    <title>pt copy</title>
    <g id="pt-copy" stroke="none" stroke-width="1" fill="none" fill-rule="evenodd">
        <g id="Group" transform="translate(6.000000, 2.000000)">
            <path d="M57.4369625,2 L12.5630375,2 C7.62820119,2 5.86681923,2.58451257 4.07025832,3.54532385 C2.11952904,4.58858529 0.588585286,6.11952904 -0.45467615,8.07025832 C-1.41548743,9.86681923 -2,11.6282012 -2,16.5630375 L-2,45.4369625 C-2,50.3717988 -1.41548743,52.1331808 -0.45467615,53.9297417 C0.588585286,55.880471 2.11952904,57.4114147 4.07025832,58.4546762 C5.86681923,59.4154874 7.62820119,60 12.5630375,60 L57.4369625,60 C62.3717988,60 64.1331808,59.4154874 65.9297417,58.4546762 C67.880471,57.4114147 69.4114147,55.880471 70.4546762,53.9297417 C71.4154874,52.1331808 72,50.3717988 72,45.4369625 L72,16.5630375 C72,11.6282012 71.4154874,9.86681923 70.4546762,8.07025832 C69.4114147,6.11952904 67.880471,4.58858529 65.9297417,3.54532385 C64.1331808,2.58451257 62.3717988,2 57.4369625,2 Z"
                  id="Rectangle-3" stroke="#FFFFFF" stroke-width="4" fill="#78C800" fill-rule="nonzero"/>
            <path d="M15.7194975,10.4265441 L49.5943584,15.7397022 C50.4525316,15.8743037 51.1256963,16.5474684 51.2602978,17.4056416 L56.5734559,51.2805025 C56.7446115,52.3717309 55.998745,53.3950953 54.9075165,53.5662509 C54.7001844,53.5987702 54.4890258,53.598454 54.281792,53.5653139 L20.4965823,48.1625046 C19.6431751,48.0260308 18.9739692,47.3568249 18.8374954,46.5034177 L13.4346861,12.718208 C13.2602635,11.627497 14.003062,10.6019036 15.093773,10.427481 C15.3010069,10.3943409 15.5121654,10.3940247 15.7194975,10.4265441 Z"
                  id="Rectangle" fill="#FFC800"
                  transform="translate(35.000000, 32.000000) rotate(-45.000000) translate(-35.000000, -32.000000)"/>
            <circle id="Mask" fill="#1CB0F6" cx="35" cy="32" r="12"/>
            <path d="M23.0256061,31.2097455 C23.1258817,29.6672908 23.5175866,28.2042917 24.1462077,26.8752614 L46.9866994,32.5700356 C46.9143992,34.1160447 46.549547,35.5855695 45.9462488,36.9245036 L23.0256061,31.2097455 Z"
                  id="Path" fill="#FFFFFF"/>
        </g>
    </g>
</svg>