<?xml version="1.0" encoding="UTF-8"?>
<!DOCTYPE svg PUBLIC "-//W3C//DTD SVG 1.1//EN" "http://www.w3.org/Graphics/SVG/1.1/DTD/svg11.dtd">
<svg xmlns="http://www.w3.org/2000/svg" version="1.1" width="78px" height="62px" style="shape-rendering:geometricPrecision; text-rendering:geometricPrecision; image-rendering:optimizeQuality; fill-rule:evenodd; clip-rule:evenodd" xmlns:xlink="http://www.w3.org/1999/xlink">
<g><path style="opacity:0.95" fill="#fffefe" d="M 7.5,-0.5 C 28.1667,-0.5 48.8333,-0.5 69.5,-0.5C 72.5,1.83333 75.1667,4.5 77.5,7.5C 77.5,22.8333 77.5,38.1667 77.5,53.5C 75.0967,56.907 72.0967,59.5737 68.5,61.5C 48.5,61.5 28.5,61.5 8.5,61.5C 4.90326,59.5737 1.90326,56.907 -0.5,53.5C -0.5,38.1667 -0.5,22.8333 -0.5,7.5C 1.83333,4.5 4.5,1.83333 7.5,-0.5 Z"/></g>
<g><path style="opacity:1" fill="#ff4b4b" d="M 9.5,3.5 C 28.5029,3.33338 47.5029,3.50005 66.5,4C 69.5827,4.78597 71.7494,6.61931 73,9.5C 73.6667,22.8333 73.6667,36.1667 73,49.5C 72.573,53.5271 70.4064,56.0271 66.5,57C 47.5,57.6667 28.5,57.6667 9.5,57C 6.61931,55.7494 4.78597,53.5827 4,50.5C 3.33333,36.8333 3.33333,23.1667 4,9.5C 5.35968,6.97739 7.19301,4.97739 9.5,3.5 Z"/></g>
<g><path style="opacity:1" fill="#ffbe04" d="M 37.5,18.5 C 40.1213,19.1211 41.788,20.7877 42.5,23.5C 44.4648,24.2922 46.4648,24.9588 48.5,25.5C 49.8954,27.919 49.3954,29.919 47,31.5C 48.5552,39.7998 45.7219,42.1331 38.5,38.5C 36.6175,39.0243 34.7842,39.6909 33,40.5C 32.228,40.3552 31.5613,40.0219 31,39.5C 30.8032,34.4414 29.8032,29.7747 28,25.5C 30.1474,24.8875 32.314,24.2208 34.5,23.5C 35.2599,21.6396 36.2599,19.973 37.5,18.5 Z"/></g>
</svg>
