<?xml version="1.0" encoding="UTF-8"?>
<!DOCTYPE svg PUBLIC "-//W3C//DTD SVG 1.1//EN" "http://www.w3.org/Graphics/SVG/1.1/DTD/svg11.dtd">
<svg xmlns="http://www.w3.org/2000/svg" version="1.1" width="78px" height="62px" style="shape-rendering:geometricPrecision; text-rendering:geometricPrecision; image-rendering:optimizeQuality; fill-rule:evenodd; clip-rule:evenodd" xmlns:xlink="http://www.w3.org/1999/xlink">
<g><path style="opacity:0.949" fill="#fefefe" d="M 7.5,-0.5 C 28.1667,-0.5 48.8333,-0.5 69.5,-0.5C 72.5,1.83333 75.1667,4.5 77.5,7.5C 77.5,22.8333 77.5,38.1667 77.5,53.5C 75.0967,56.907 72.0967,59.5737 68.5,61.5C 48.5,61.5 28.5,61.5 8.5,61.5C 4.90326,59.5737 1.90326,56.907 -0.5,53.5C -0.5,38.1667 -0.5,22.8333 -0.5,7.5C 1.83333,4.5 4.5,1.83333 7.5,-0.5 Z"/></g>
<g><path style="opacity:1" fill="#4d4c4c" d="M 73.5,21.5 C 50.1667,21.5 26.8333,21.5 3.5,21.5C 3.33449,17.4862 3.50115,13.4862 4,9.5C 4.78451,7.71398 5.95118,6.21398 7.5,5C 17.739,3.85598 28.0724,3.35598 38.5,3.5C 48.9276,3.35598 59.261,3.85598 69.5,5C 71.0488,6.21398 72.2155,7.71398 73,9.5C 73.4988,13.4862 73.6655,17.4862 73.5,21.5 Z"/></g>
<g><path style="opacity:1" fill="#fe4b4a" d="M 3.5,21.5 C 26.8333,21.5 50.1667,21.5 73.5,21.5C 73.5,27.5 73.5,33.5 73.5,39.5C 50.1667,39.5 26.8333,39.5 3.5,39.5C 3.5,33.5 3.5,27.5 3.5,21.5 Z"/></g>
<g><path style="opacity:1" fill="#ffc703" d="M 3.5,39.5 C 26.8333,39.5 50.1667,39.5 73.5,39.5C 73.6655,43.5138 73.4988,47.5138 73,51.5C 72.2155,53.286 71.0488,54.786 69.5,56C 59.261,57.144 48.9276,57.644 38.5,57.5C 28.0724,57.644 17.739,57.144 7.5,56C 5.95118,54.786 4.78451,53.286 4,51.5C 3.50115,47.5138 3.33449,43.5138 3.5,39.5 Z"/></g>
</svg>
