<?xml version="1.0" encoding="UTF-8"?>
<!DOCTYPE svg PUBLIC "-//W3C//DTD SVG 1.1//EN" "http://www.w3.org/Graphics/SVG/1.1/DTD/svg11.dtd">
<svg xmlns="http://www.w3.org/2000/svg" version="1.1" width="78px" height="62px" style="shape-rendering:geometricPrecision; text-rendering:geometricPrecision; image-rendering:optimizeQuality; fill-rule:evenodd; clip-rule:evenodd" xmlns:xlink="http://www.w3.org/1999/xlink">
<g><path style="opacity:0.949" fill="#fefefe" d="M 7.5,-0.5 C 28.1667,-0.5 48.8333,-0.5 69.5,-0.5C 72.5,1.83333 75.1667,4.5 77.5,7.5C 77.5,22.8333 77.5,38.1667 77.5,53.5C 75.0967,56.907 72.0967,59.5737 68.5,61.5C 48.5,61.5 28.5,61.5 8.5,61.5C 4.90326,59.5737 1.90326,56.907 -0.5,53.5C -0.5,38.1667 -0.5,22.8333 -0.5,7.5C 1.83333,4.5 4.5,1.83333 7.5,-0.5 Z"/></g>
<g><path style="opacity:1" fill="#ededec" d="M 38.5,3.5 C 38.6665,13.1724 38.4998,22.8391 38,32.5C 37.5,33 37,33.5 36.5,34C 25.505,34.4998 14.505,34.6665 3.5,34.5C 3.3336,26.16 3.50027,17.8267 4,9.5C 4.78451,7.71398 5.95118,6.21398 7.5,5C 17.729,3.54876 28.0623,3.04876 38.5,3.5 Z"/></g>
<g><path style="opacity:1" fill="#7ac70d" d="M 38.5,3.5 C 47.8393,3.33355 57.1726,3.50021 66.5,4C 69.5827,4.78597 71.7494,6.61931 73,9.5C 73.6667,23.1667 73.6667,36.8333 73,50.5C 72.1667,54 70,56.1667 66.5,57C 47.5,57.6667 28.5,57.6667 9.5,57C 6.61931,55.7494 4.78597,53.5827 4,50.5C 3.50065,45.1771 3.33398,39.8437 3.5,34.5C 14.505,34.6665 25.505,34.4998 36.5,34C 37,33.5 37.5,33 38,32.5C 38.4998,22.8391 38.6665,13.1724 38.5,3.5 Z"/></g>
<g><path style="opacity:1" fill="#81c921" d="M 18.5,9.5 C 21.7454,9.2934 23.7454,10.7934 24.5,14C 26.433,14.2511 28.2663,14.7511 30,15.5C 28.1811,19.0787 27.1811,23.0787 27,27.5C 26.586,27.9574 26.086,28.2907 25.5,28.5C 22.2753,25.8912 19.1087,25.8912 16,28.5C 15.228,28.3552 14.5613,28.0219 14,27.5C 14.1076,23.4927 12.9409,19.9927 10.5,17C 10.6448,16.228 10.9781,15.5613 11.5,15C 15.775,15.5316 18.1083,13.6982 18.5,9.5 Z"/></g>
</svg>
