<svg xmlns="http://www.w3.org/2000/svg" x="0" y="2310" width="82px"
     height="66px" viewBox="0 0 82 66" version="1.1">
    <title>th</title>
    <g id="th" stroke="none" stroke-width="1" fill="none" fill-rule="evenodd">
        <g id="Group" transform="translate(6.000000, 6.000000)">
            <path d="M12.5630375,-1.41439589e-15 L57.4369625,-1.03967437e-15 C61.8054044,6.04080748e-16 63.3895069,0.454845494 64.986544,1.30895025 C66.583581,2.163055 67.836945,3.41641901 68.6910498,5.01345604 C69.5451545,6.61049308 70,8.19459564 70,12.5630375 L70,41.4369625 C70,45.8054044 69.5451545,47.3895069 68.6910498,48.986544 C67.836945,50.583581 66.583581,51.836945 64.986544,52.6910498 C63.3895069,53.5451545 61.8054044,54 57.4369625,54 L12.5630375,54 C8.19459564,54 6.61049308,53.5451545 5.01345604,52.6910498 C3.41641901,51.836945 2.163055,50.583581 1.30895025,48.986544 C0.454845494,47.3895069 -8.57188171e-16,45.8054044 1.47529378e-15,41.4369625 L1.24520864e-15,12.5630375 C-7.23502079e-16,8.19459564 0.454845494,6.61049308 1.30895025,5.01345604 C2.163055,3.41641901 3.41641901,2.163055 5.01345604,1.30895025 C6.61049308,0.454845494 8.19459564,8.21804743e-16 12.5630375,-1.41439589e-15 Z"
                  id="Rectangle-3" fill="#EEEEEE" fill-rule="nonzero"/>
            <path d="M57.4369625,-2 L12.5630375,-2 C7.62820119,-2 5.86681923,-1.41548743 4.07025832,-0.45467615 C2.11952904,0.588585286 0.588585286,2.11952904 -0.45467615,4.07025832 C-1.41548743,5.86681923 -2,7.62820119 -2,12.5630375 L-2,41.4369625 C-2,46.3717988 -1.41548743,48.1331808 -0.45467615,49.9297417 C0.588585286,51.880471 2.11952904,53.4114147 4.07025832,54.4546762 C5.86681923,55.4154874 7.62820119,56 12.5630375,56 L57.4369625,56 C62.3717988,56 64.1331808,55.4154874 65.9297417,54.4546762 C67.880471,53.4114147 69.4114147,51.880471 70.4546762,49.9297417 C71.4154874,48.1331808 72,46.3717988 72,41.4369625 L72,12.5630375 C72,7.62820119 71.4154874,5.86681923 70.4546762,4.07025832 C69.4114147,2.11952904 67.880471,0.588585286 65.9297417,-0.45467615 C64.1331808,-1.41548743 62.3717988,-2 57.4369625,-2 Z"
                  id="Rectangle-3" stroke="#FFFFFF" stroke-width="4" fill="#EEEEEE" fill-rule="nonzero"/>
            <path d="M69.711585,46 C69.4917482,47.2787238 69.148719,48.1307769 68.6910498,48.986544 C67.836945,50.583581 66.583581,51.836945 64.986544,52.6910498 C63.3895069,53.5451545 61.8054044,54 57.4369625,54 L12.5630375,54 C8.19459564,54 6.61049308,53.5451545 5.01345604,52.6910498 C3.41641901,51.836945 2.163055,50.583581 1.30895025,48.986544 C0.851281027,48.1307769 0.508251795,47.2787238 0.288414969,46 L69.711585,46 L69.711585,46 Z"
                  id="Path" fill="#FF4B4B" fill-rule="nonzero"/>
            <polygon id="Rectangle-4" fill="#1CB0F6" points="70 16 70 38 -1.70530257e-13 38 -1.70530257e-13 16"/>
            <path d="M12.5630375,0 L57.4369625,0 C61.8054044,0 63.3895069,0.454845494 64.986544,1.30895025 C66.583581,2.163055 67.836945,3.41641901 68.6910498,5.01345604 C69.148719,5.86922308 69.4917482,6.72127622 69.711585,8 L0.288414969,8 C0.508251795,6.72127622 0.851281027,5.86922308 1.30895025,5.01345604 C2.163055,3.41641901 3.41641901,2.163055 5.01345604,1.30895025 C6.61049308,0.454845494 8.19459564,0 12.5630375,0 Z"
                  id="Path" fill="#FF4B4B" fill-rule="nonzero"/>
        </g>
    </g>
</svg>