<?xml version="1.0" encoding="UTF-8"?>
<svg version="1.1" xmlns="http://www.w3.org/2000/svg" width="78" height="62">
<path d="M0 0 C1.82781258 -0.02893593 1.82781258 -0.02893593 3.69255066 -0.05845642 C5.02980486 -0.07326617 6.36707089 -0.08703919 7.7043457 -0.09985352 C8.7145172 -0.10971126 8.7145172 -0.10971126 9.74509621 -0.11976814 C13.31279016 -0.1523671 16.88045428 -0.17681151 20.44824219 -0.19628906 C23.39432567 -0.21407128 26.3394463 -0.24883705 29.28515625 -0.29882812 C32.84726452 -0.35920585 36.40848329 -0.38978857 39.97107887 -0.39946175 C41.98026428 -0.41212299 43.98919595 -0.45413538 45.99797058 -0.49668884 C56.20468862 -0.47374585 56.20468862 -0.47374585 60.51611328 3.12255859 C63.48897943 6.19970701 64.31597179 8.28942908 64.40136719 12.54736328 C64.42065781 13.44557297 64.43994843 14.34378265 64.45982361 15.26921082 C64.51761048 19.38890582 64.56686594 23.50842544 64.59765625 27.62841797 C64.61921605 29.79817643 64.65329468 31.96784839 64.70019531 34.13720703 C64.76729751 37.26951854 64.79467473 40.40002942 64.8137207 43.53295898 C64.84155136 44.49674973 64.86938202 45.46054047 64.89805603 46.45353699 C64.88000836 52.39875518 63.91086917 55.61810229 59.77626038 59.95515442 C56.55780092 62.50284953 53.35587621 62.34415865 49.42358398 62.36987305 C48.23870392 62.37948059 47.05382385 62.38908813 45.83303833 62.39898682 C44.5517807 62.40323669 43.27052307 62.40748657 41.95043945 62.41186523 C40.63477997 62.41756531 39.31912048 62.42326538 37.96359253 62.42913818 C35.17779149 62.43963742 32.39201921 62.44548715 29.60620117 62.44897461 C26.04294437 62.45445779 22.48006999 62.47848606 18.91693306 62.50694656 C15.51144254 62.53009067 12.10600455 62.53202361 8.70043945 62.53686523 C6.7846257 62.55538544 6.7846257 62.55538544 4.83010864 62.57427979 C3.63892426 62.57127869 2.44773987 62.56827759 1.22045898 62.56518555 C0.1747171 62.56883118 -0.87102478 62.57247681 -1.94845581 62.57623291 C-6.2813328 62.0192736 -8.88884137 60.03382181 -12.08227539 57.1652832 C-14.62434415 52.80858173 -14.41837472 48.86712923 -14.40893555 43.90405273 C-14.4175058 42.90671112 -14.42607605 41.90936951 -14.43490601 40.88180542 C-14.44637322 38.77548249 -14.44740729 36.66908037 -14.4387207 34.56274414 C-14.4324068 31.35090976 -14.47930518 28.14277449 -14.5300293 24.93139648 C-14.53457647 22.88061986 -14.53598172 20.82983338 -14.53393555 18.77905273 C-14.55235504 17.82467316 -14.57077454 16.87029358 -14.5897522 15.88699341 C-14.50784989 9.94176019 -13.46321483 6.76304102 -9.28964233 2.46603394 C-6.26384888 -0.10051121 -3.88175782 0.05728318 0 0 Z " fill="#FE4B4B" transform="translate(13.807373046875,-0.208740234375)"/>
<path d="M0 0 C1.14491409 -0.01283524 2.28982819 -0.02567047 3.46943665 -0.03889465 C4.712108 -0.04628159 5.95477936 -0.05366852 7.23510742 -0.0612793 C8.50778976 -0.06935104 9.78047211 -0.07742279 11.09172058 -0.08573914 C13.78937429 -0.09959031 16.48690536 -0.11060365 19.18457031 -0.11816406 C22.63475867 -0.12922073 26.08430066 -0.16361141 29.53426075 -0.20333576 C32.83031217 -0.23581778 36.12642034 -0.24028239 39.42260742 -0.2487793 C40.65920609 -0.26628738 41.89580475 -0.28379547 43.1698761 -0.30183411 C44.32424667 -0.29890854 45.47861725 -0.29598297 46.66796875 -0.29296875 C47.68119705 -0.29883499 48.69442535 -0.30470123 49.73835754 -0.31074524 C53.27969492 0.30841303 54.9538247 1.72068462 57.52807617 4.17700195 C58.75445188 6.62975336 58.64222932 8.22758006 58.62573242 10.96606445 C58.62323486 11.81378418 58.6207373 12.66150391 58.61816406 13.53491211 C58.60906006 14.61305176 58.59995605 15.69119141 58.59057617 16.80200195 C58.56995117 20.22575195 58.54932617 23.64950195 58.52807617 27.17700195 C50.27807617 27.17700195 42.02807617 27.17700195 33.52807617 27.17700195 C32.86807617 24.86700195 32.20807617 22.55700195 31.52807617 20.17700195 C26.24807617 20.17700195 20.96807617 20.17700195 15.52807617 20.17700195 C14.86807617 22.48700195 14.20807617 24.79700195 13.52807617 27.17700195 C5.27807617 27.17700195 -2.97192383 27.17700195 -11.47192383 27.17700195 C-11.55442383 23.81512695 -11.63692383 20.45325195 -11.72192383 16.98950195 C-11.75833984 15.93867432 -11.79475586 14.88784668 -11.83227539 13.80517578 C-11.88431478 9.42841116 -11.89720759 6.87731427 -9.58129883 3.0637207 C-6.27317492 0.10478765 -4.36085861 0.04246877 0 0 Z " fill="#1354A8" transform="translate(15.471923828125,3.822998046875)"/>
<path d="M0 0 C1.82781258 -0.02893593 1.82781258 -0.02893593 3.69255066 -0.05845642 C5.02980486 -0.07326617 6.36707089 -0.08703919 7.7043457 -0.09985352 C8.7145172 -0.10971126 8.7145172 -0.10971126 9.74509621 -0.11976814 C13.31279016 -0.1523671 16.88045428 -0.17681151 20.44824219 -0.19628906 C23.39432567 -0.21407128 26.3394463 -0.24883705 29.28515625 -0.29882812 C32.84726452 -0.35920585 36.40848329 -0.38978857 39.97107887 -0.39946175 C41.98026428 -0.41212299 43.98919595 -0.45413538 45.99797058 -0.49668884 C56.20468862 -0.47374585 56.20468862 -0.47374585 60.51611328 3.12255859 C63.48897943 6.19970701 64.31597179 8.28942908 64.40136719 12.54736328 C64.42065781 13.44557297 64.43994843 14.34378265 64.45982361 15.26921082 C64.51761048 19.38890582 64.56686594 23.50842544 64.59765625 27.62841797 C64.61921605 29.79817643 64.65329468 31.96784839 64.70019531 34.13720703 C64.76729751 37.26951854 64.79467473 40.40002942 64.8137207 43.53295898 C64.84155136 44.49674973 64.86938202 45.46054047 64.89805603 46.45353699 C64.88000836 52.39875518 63.91086917 55.61810229 59.77626038 59.95515442 C56.55780092 62.50284953 53.35587621 62.34415865 49.42358398 62.36987305 C48.23870392 62.37948059 47.05382385 62.38908813 45.83303833 62.39898682 C44.5517807 62.40323669 43.27052307 62.40748657 41.95043945 62.41186523 C40.63477997 62.41756531 39.31912048 62.42326538 37.96359253 62.42913818 C35.17779149 62.43963742 32.39201921 62.44548715 29.60620117 62.44897461 C26.04294437 62.45445779 22.48006999 62.47848606 18.91693306 62.50694656 C15.51144254 62.53009067 12.10600455 62.53202361 8.70043945 62.53686523 C6.7846257 62.55538544 6.7846257 62.55538544 4.83010864 62.57427979 C3.63892426 62.57127869 2.44773987 62.56827759 1.22045898 62.56518555 C0.1747171 62.56883118 -0.87102478 62.57247681 -1.94845581 62.57623291 C-6.2813328 62.0192736 -8.88884137 60.03382181 -12.08227539 57.1652832 C-14.62434415 52.80858173 -14.41837472 48.86712923 -14.40893555 43.90405273 C-14.4175058 42.90671112 -14.42607605 41.90936951 -14.43490601 40.88180542 C-14.44637322 38.77548249 -14.44740729 36.66908037 -14.4387207 34.56274414 C-14.4324068 31.35090976 -14.47930518 28.14277449 -14.5300293 24.93139648 C-14.53457647 22.88061986 -14.53598172 20.82983338 -14.53393555 18.77905273 C-14.55235504 17.82467316 -14.57077454 16.87029358 -14.5897522 15.88699341 C-14.50784989 9.94176019 -13.46321483 6.76304102 -9.28964233 2.46603394 C-6.26384888 -0.10051121 -3.88175782 0.05728318 0 0 Z M-8.80737305 8.20874023 C-9.93203355 10.45806125 -9.95055595 11.71572238 -9.984375 14.21191406 C-9.99721024 15.03649612 -10.01004547 15.86107819 -10.02326965 16.71064758 C-10.03065659 17.60333847 -10.03804352 18.49602936 -10.0456543 19.41577148 C-10.05372604 20.33331711 -10.06179779 21.25086273 -10.07011414 22.19621277 C-10.08395798 24.14055489 -10.09467879 26.08492135 -10.10253906 28.02929688 C-10.1197447 30.99908675 -10.16362687 33.96776136 -10.20776367 36.93725586 C-10.21789123 38.82591954 -10.22640713 40.7145927 -10.2331543 42.60327148 C-10.25066238 43.48988968 -10.26817047 44.37650787 -10.28620911 45.28999329 C-10.27157583 49.46173577 -10.16655072 51.63495055 -7.90576172 55.24658203 C-4.63100149 58.30874003 -2.72995223 58.34294577 1.66455078 58.38574219 C2.80946487 58.39857742 3.95437897 58.41141266 5.13398743 58.42463684 C6.99799446 58.43571724 6.99799446 58.43571724 8.8996582 58.44702148 C10.17234055 58.45509323 11.44502289 58.46316498 12.75627136 58.47148132 C15.45392507 58.4853325 18.15145614 58.49634584 20.84912109 58.50390625 C24.29930945 58.51496292 27.74885144 58.5493536 31.19881153 58.58907795 C34.49486295 58.62155997 37.79097112 58.62602458 41.0871582 58.63452148 C42.9420562 58.66078362 42.9420562 58.66078362 44.83442688 58.68757629 C45.98879745 58.68465073 47.14316803 58.68172516 48.33251953 58.67871094 C49.34574783 58.68457718 50.35897614 58.69044342 51.40290833 58.69648743 C54.94424571 58.07732915 56.61837549 56.66505756 59.19262695 54.20874023 C60.31728746 51.95941922 60.33580986 50.70175809 60.36962891 48.20556641 C60.38246414 47.38098434 60.39529938 46.55640228 60.40852356 45.70683289 C60.41591049 44.814142 60.42329742 43.92145111 60.4309082 43.00170898 C60.44301582 41.62539055 60.44301582 41.62539055 60.45536804 40.2212677 C60.46921188 38.27692557 60.47993269 36.33255912 60.48779297 34.38818359 C60.50499861 31.41839371 60.54888078 28.4497191 60.59301758 25.48022461 C60.60314513 23.59156092 60.61166104 21.70288777 60.6184082 19.81420898 C60.64467033 18.48428169 60.64467033 18.48428169 60.67146301 17.12748718 C60.65682974 12.95574469 60.55180463 10.78252992 58.29101562 7.17089844 C55.0162554 4.10874044 53.11520614 4.0745347 48.72070312 4.03173828 C47.57578903 4.01890305 46.43087494 4.00606781 45.25126648 3.99284363 C44.00859512 3.9854567 42.76592377 3.97806976 41.4855957 3.97045898 C40.21291336 3.96238724 38.94023102 3.95431549 37.62898254 3.94599915 C34.93132883 3.93214797 32.23379777 3.92113463 29.53613281 3.91357422 C26.08594446 3.90251755 22.63640247 3.86812687 19.18644238 3.82840252 C15.89039096 3.7959205 12.59428278 3.79145589 9.2980957 3.78295898 C8.06149704 3.7654509 6.82489838 3.74794281 5.55082703 3.72990417 C4.39645645 3.73282974 3.24208588 3.73575531 2.05273438 3.73876953 C1.03950607 3.73290329 0.02627777 3.72703705 -1.01765442 3.72099304 C-4.5589918 4.34015131 -6.23312158 5.7524229 -8.80737305 8.20874023 Z " fill="#FEFEFE" transform="translate(13.807373046875,-0.208740234375)"/>
<path d="M0 0 C0.73734375 0.00773437 1.4746875 0.01546875 2.234375 0.0234375 C3.34039062 0.01183594 3.34039062 0.01183594 4.46875 0 C9.9810554 0.0201179 9.9810554 0.0201179 12.234375 2.2734375 C12.5 5.0234375 12.5 5.0234375 12.484375 8.2734375 C12.48953125 9.3459375 12.4946875 10.4184375 12.5 11.5234375 C12.234375 14.2734375 12.234375 14.2734375 10.234375 16.2734375 C7.52514699 16.47195852 4.94134321 16.55183227 2.234375 16.5234375 C1.49703125 16.53117187 0.7596875 16.53890625 0 16.546875 C-5.5123054 16.5267571 -5.5123054 16.5267571 -7.765625 14.2734375 C-8.03125 11.5234375 -8.03125 11.5234375 -8.015625 8.2734375 C-8.02078125 7.2009375 -8.0259375 6.1284375 -8.03125 5.0234375 C-7.51923949 -0.27737715 -4.68010251 0.01708067 0 0 Z " fill="#E2DBE2" transform="translate(36.765625,22.7265625)"/>
<path d="M0 0 C2.64 0.33 5.28 0.66 8 1 C7.67 2.32 7.34 3.64 7 5 C4.625 5.625 4.625 5.625 2 6 C1.34 5.34 0.68 4.68 0 4 C0 2.68 0 1.36 0 0 Z " fill="#5AAF1B" transform="translate(35,26)"/>
<path d="M0 0 C0.66 0 1.32 0 2 0 C2.125 2.375 2.125 2.375 2 5 C1.34 5.66 0.68 6.32 0 7 C-2.125 6.625 -2.125 6.625 -4 6 C-2.84826645 3.53199953 -1.95216435 1.95216435 0 0 Z " fill="#785D8E" transform="translate(44,30)"/>
<path d="M0 0 C2.62187494 1.04874998 3.79371361 1.64931313 5.25 4.125 C5.4975 4.74375 5.745 5.3625 6 6 C4.125 6.625 4.125 6.625 2 7 C0 5 0 5 -0.125 2.375 C-0.08375 1.59125 -0.0425 0.8075 0 0 Z " fill="#785D8E" transform="translate(32,30)"/>
<path d="M0 0 C0.598125 0.78375 1.19625 1.5675 1.8125 2.375 C3.91085249 5.14574323 3.91085249 5.14574323 7 7 C4.69 7 2.38 7 0 7 C0 4.69 0 2.38 0 0 Z " fill="#FDFAFB" transform="translate(30,31)"/>
<path d="M0 0 C0.33 0 0.66 0 1 0 C1 1.98 1 3.96 1 6 C-1.31 6 -3.62 6 -6 6 C-5.195625 5.38125 -4.39125 4.7625 -3.5625 4.125 C-0.96125481 2.25835959 -0.96125481 2.25835959 0 0 Z " fill="#FDFAFA" transform="translate(47,32)"/>
</svg>
