<?xml version="1.0" encoding="UTF-8"?>
<!DOCTYPE svg PUBLIC "-//W3C//DTD SVG 1.1//EN" "http://www.w3.org/Graphics/SVG/1.1/DTD/svg11.dtd">
<svg xmlns="http://www.w3.org/2000/svg" version="1.1" width="78px" height="62px" style="shape-rendering:geometricPrecision; text-rendering:geometricPrecision; image-rendering:optimizeQuality; fill-rule:evenodd; clip-rule:evenodd" xmlns:xlink="http://www.w3.org/1999/xlink">
<g><path style="opacity:0.94" fill="#fffdfd" d="M 7.5,-0.5 C 28.1667,-0.5 48.8333,-0.5 69.5,-0.5C 72.5,1.83333 75.1667,4.5 77.5,7.5C 77.5,22.5 77.5,37.5 77.5,52.5C 75.5,56.5 72.5,59.5 68.5,61.5C 48.5,61.5 28.5,61.5 8.5,61.5C 4.5,59.5 1.5,56.5 -0.5,52.5C -0.5,37.5 -0.5,22.5 -0.5,7.5C 1.83333,4.5 4.5,1.83333 7.5,-0.5 Z"/></g>
<g><path style="opacity:1" fill="#ff4d4c" d="M 9.5,3.5 C 28.5029,3.33338 47.5029,3.50005 66.5,4C 69.5827,4.78597 71.7494,6.61931 73,9.5C 73.9651,23.927 73.6318,38.2604 72,52.5C 70.3626,54.8102 68.196,56.3102 65.5,57C 46.4099,57.9741 27.4099,57.6407 8.5,56C 6.18979,54.3626 4.68979,52.196 4,49.5C 3.33333,36.1667 3.33333,22.8333 4,9.5C 5.35968,6.97739 7.19301,4.97739 9.5,3.5 Z"/></g>
<g><path style="opacity:1" fill="#fff8f8" d="M 32.5,14.5 C 37.984,13.8256 42.984,14.9923 47.5,18C 35.0442,18.4363 30.2109,24.603 33,36.5C 36.3248,41.0792 40.8248,43.4125 46.5,43.5C 36.7724,48.9553 28.939,46.9553 23,37.5C 19.5581,27.0556 22.7248,19.3889 32.5,14.5 Z"/></g>
<g><path style="opacity:1" fill="#fff4f3" d="M 47.5,24.5 C 50.2613,25.9205 53.2613,26.5871 56.5,26.5C 55.8413,29.4552 55.5079,32.4552 55.5,35.5C 52.8431,35.162 50.5098,35.8287 48.5,37.5C 48.1238,34.6108 46.6238,32.6108 44,31.5C 45.9442,29.8058 47.1109,27.4724 47.5,24.5 Z"/></g>
</svg>
