<svg xmlns="http://www.w3.org/2000/svg" x="0" y="2706" width="82px"
     height="66px" viewBox="0 0 82 66" version="1.1">
    <title>la</title>
    <g id="la" stroke="none" stroke-width="1" fill="none" fill-rule="evenodd">
        <g id="Group" transform="translate(6.000000, 6.000000)" fill="#FF4B4B" fill-rule="nonzero" stroke="#FFFFFF"
           stroke-width="4">
            <path d="M57.4369625,-2 L12.5630375,-2 C7.62820119,-2 5.86681923,-1.41548743 4.07025832,-0.45467615 C2.11952904,0.588585286 0.588585286,2.11952904 -0.45467615,4.07025832 C-1.41548743,5.86681923 -2,7.62820119 -2,12.5630375 L-2,41.4369625 C-2,46.3717988 -1.41548743,48.1331808 -0.45467615,49.9297417 C0.588585286,51.880471 2.11952904,53.4114147 4.07025832,54.4546762 C5.86681923,55.4154874 7.62820119,56 12.5630375,56 L57.4369625,56 C62.3717988,56 64.1331808,55.4154874 65.9297417,54.4546762 C67.880471,53.4114147 69.4114147,51.880471 70.4546762,49.9297417 C71.4154874,48.1331808 72,46.3717988 72,41.4369625 L72,12.5630375 C72,7.62820119 71.4154874,5.86681923 70.4546762,4.07025832 C69.4114147,2.11952904 67.880471,0.588585286 65.9297417,-0.45467615 C64.1331808,-1.41548743 62.3717988,-2 57.4369625,-2 Z"
                  id="Rectangle-3"/>
        </g>
        <g id="Group-7" transform="translate(19.000000, 15.000000)">
            <g id="Group" transform="translate(0.806452, 0.096774)">
                <g id="Group-5">
                    <g id="Group-4">
                        <g id="Group-3">
                            <g id="Group-2">
                                <path d="M6.69492241,12.136858 C6.47056745,13.1557054 6.35230331,14.2143481 6.35230331,15.300613 C6.35230331,16.6432441 6.53297705,17.9436765 6.87133811,19.178924 M12.0403417,26.8881585 C14.516481,28.8050053 17.6237524,29.9457742 20.9974646,29.9457742 C24.878513,30.4635834 28.1313692,32.4240169 30.7560332,35.8270747"
                                      id="Shape" stroke="#FFD300" stroke-width="2.64516129" stroke-linecap="round"
                                      stroke-linejoin="round"/>
                                <path d="M9.31426018,0.301284419 L9.89490534,0.301284419 C13.4580328,0.301284419 16.3465182,3.1897699 16.3465182,6.75289732 L16.3465182,7.33354248 L16.3465182,7.33354248 L15.7658731,7.33354248 C12.2027457,7.33354248 9.31426018,4.445057 9.31426018,0.881929581 L9.31426018,0.301284419 L9.31426018,0.301284419 Z"
                                      id="Rectangle" fill="#FFD300"
                                      transform="translate(12.830389, 3.817413) rotate(-85.000000) translate(-12.830389, -3.817413)"/>
                                <path d="M1.51359364,5.49416135 L2.28778718,5.49416135 C5.8509146,5.49416135 8.73940009,8.38264683 8.73940009,11.9457742 L8.73940009,12.7199678 L8.73940009,12.7199678 L7.96520654,12.7199678 C4.40207912,12.7199678 1.51359364,9.83148231 1.51359364,6.26835489 L1.51359364,5.49416135 L1.51359364,5.49416135 Z"
                                      id="Rectangle-Copy" fill="#FFD300"
                                      transform="translate(5.126497, 9.107065) rotate(-141.000000) translate(-5.126497, -9.107065)"/>
                                <path d="M3.90069041,21.9457742 L4.67488396,21.9457742 C8.23801138,21.9457742 11.1264969,24.8342597 11.1264969,28.3973872 L11.1264969,29.1715807 L11.1264969,29.1715807 L10.3523033,29.1715807 C6.78917589,29.1715807 3.90069041,26.2830952 3.90069041,22.7199678 L3.90069041,21.9457742 L3.90069041,21.9457742 Z"
                                      id="Rectangle-Copy" fill="#FFD300"
                                      transform="translate(7.513594, 25.558677) rotate(-198.000000) translate(-7.513594, -25.558677)"/>
                                <path d="M8.06451613,19.2903226 L8.83870968,19.2903226 C12.4018371,19.2903226 15.2903226,22.1788081 15.2903226,25.7419355 L15.2903226,26.516129 L15.2903226,26.516129 L14.516129,26.516129 C10.9530016,26.516129 8.06451613,23.6276435 8.06451613,20.0645161 L8.06451613,19.2903226 L8.06451613,19.2903226 Z"
                                      id="Rectangle-Copy" fill="#FFD300"
                                      transform="translate(11.677419, 22.903226) scale(-1, 1) rotate(-118.000000) translate(-11.677419, -22.903226)"/>
                                <path d="M5.70714202,8.78448393 L6.48133557,8.78448393 C10.044463,8.78448393 12.9329485,11.6729694 12.9329485,15.2360968 L12.9329485,16.0102904 L12.9329485,16.0102904 L12.1587549,16.0102904 C8.59562751,16.0102904 5.70714202,13.1218049 5.70714202,9.55867747 L5.70714202,8.78448393 L5.70714202,8.78448393 Z"
                                      id="Rectangle-Copy" fill="#FFD300"
                                      transform="translate(9.320045, 12.397387) rotate(-82.000000) translate(-9.320045, -12.397387)"/>
                            </g>
                        </g>
                    </g>
                    <g id="Group"
                       transform="translate(27.000000, 17.935484) scale(-1, 1) translate(-27.000000, -17.935484) translate(11.612903, 0.000000)">
                        <g id="Group-4">
                            <g id="Group-3">
                                <g id="Group-2">
                                    <path d="M6.69492241,12.136858 C6.47056745,13.1557054 6.35230331,14.2143481 6.35230331,15.300613 C6.35230331,16.6432441 6.53297705,17.9436765 6.87133811,19.178924 M12.0403417,26.8881585 C14.516481,28.8050053 17.6237524,29.9457742 20.9974646,29.9457742 C24.878513,30.4635834 28.1313692,32.4240169 30.7560332,35.8270747"
                                          id="Shape" stroke="#FFD300" stroke-width="2.64516129" stroke-linecap="round"
                                          stroke-linejoin="round"/>
                                    <path d="M9.31426018,0.301284419 L9.89490534,0.301284419 C13.4580328,0.301284419 16.3465182,3.1897699 16.3465182,6.75289732 L16.3465182,7.33354248 L16.3465182,7.33354248 L15.7658731,7.33354248 C12.2027457,7.33354248 9.31426018,4.445057 9.31426018,0.881929581 L9.31426018,0.301284419 L9.31426018,0.301284419 Z"
                                          id="Rectangle" fill="#FFD300"
                                          transform="translate(12.830389, 3.817413) rotate(-85.000000) translate(-12.830389, -3.817413)"/>
                                    <path d="M1.51359364,5.49416135 L2.28778718,5.49416135 C5.8509146,5.49416135 8.73940009,8.38264683 8.73940009,11.9457742 L8.73940009,12.7199678 L8.73940009,12.7199678 L7.96520654,12.7199678 C4.40207912,12.7199678 1.51359364,9.83148231 1.51359364,6.26835489 L1.51359364,5.49416135 L1.51359364,5.49416135 Z"
                                          id="Rectangle-Copy" fill="#FFD300"
                                          transform="translate(5.126497, 9.107065) rotate(-141.000000) translate(-5.126497, -9.107065)"/>
                                    <path d="M3.90069041,21.9457742 L4.67488396,21.9457742 C8.23801138,21.9457742 11.1264969,24.8342597 11.1264969,28.3973872 L11.1264969,29.1715807 L11.1264969,29.1715807 L10.3523033,29.1715807 C6.78917589,29.1715807 3.90069041,26.2830952 3.90069041,22.7199678 L3.90069041,21.9457742 L3.90069041,21.9457742 Z"
                                          id="Rectangle-Copy" fill="#FFD300"
                                          transform="translate(7.513594, 25.558677) rotate(-198.000000) translate(-7.513594, -25.558677)"/>
                                    <path d="M8.06451613,19.2903226 L8.83870968,19.2903226 C12.4018371,19.2903226 15.2903226,22.1788081 15.2903226,25.7419355 L15.2903226,26.516129 L15.2903226,26.516129 L14.516129,26.516129 C10.9530016,26.516129 8.06451613,23.6276435 8.06451613,20.0645161 L8.06451613,19.2903226 L8.06451613,19.2903226 Z"
                                          id="Rectangle-Copy" fill="#FFD300"
                                          transform="translate(11.677419, 22.903226) scale(-1, 1) rotate(-118.000000) translate(-11.677419, -22.903226)"/>
                                    <path d="M5.70714202,8.78448393 L6.48133557,8.78448393 C10.044463,8.78448393 12.9329485,11.6729694 12.9329485,15.2360968 L12.9329485,16.0102904 L12.9329485,16.0102904 L12.1587549,16.0102904 C8.59562751,16.0102904 5.70714202,13.1218049 5.70714202,9.55867747 L5.70714202,8.78448393 L5.70714202,8.78448393 Z"
                                          id="Rectangle-Copy" fill="#FFD300"
                                          transform="translate(9.320045, 12.397387) rotate(-82.000000) translate(-9.320045, -12.397387)"/>
                                </g>
                            </g>
                        </g>
                    </g>
                </g>
            </g>
        </g>
    </g>
</svg>