<svg xmlns="http://www.w3.org/2000/svg" x="0" y="2904" width="86px"
     height="66px" viewBox="0 0 86 66" version="1.1">
    <title>Yiddish</title>
    <g id="Yiddish" stroke="none" stroke-width="1" fill="none" fill-rule="evenodd">
        <path d="M65.1401307,4 C65.4156863,4 65.68049,4.00176343 65.9352033,4.00526294 L65.9352033,4.00526294 L66.6670552,4.0207473 L67.658074,4.06298797 C67.883101,4.0758146 68.0987103,4.09056197 68.3056638,4.10717575 L68.3056638,4.10717575 L68.8617552,4.15837088 C70.1668206,4.29486276 71.1313052,4.51838534 71.9605927,4.80996296 C75.6814681,6.63380405 77.0960769,8.16776746 78.0996836,10.044349 C78.9220523,11.8349923 79.1272425,12.5535617 79.2924108,13.4512128 C79.4751098,14.701631 79.4898896,14.8669215 79.5078266,15.0617911 L79.5078266,15.0617911 L79.5546848,15.6493061 L79.5917734,16.294679 L79.6267302,17.3359107 L79.6382429,18.4881206 L79.6382429,47.2293603 L79.6331046,48.0147504 L79.6060809,49.0896262 L79.574978,49.7456135 C79.5436368,50.2939505 79.5008046,50.7869716 79.4473396,51.2354836 C79.1123914,53.2733961 78.8754936,53.9783268 78.603975,54.6252902 C77.0138502,57.7240579 75.4862885,59.1703073 73.5938939,60.182371 C70.8907196,61.2280293 70.0001323,61.4276767 69.1472315,61.5307411 L68.9575969,61.552359 L68.9575969,61.552359 L68.8618923,61.5625467 L68.293978,61.6148303 L67.6690189,61.6574758 L66.6670552,61.7001829 L65.9216216,61.7159547 L20.0970838,61.7196863 L19.3323196,61.709297 L18.2894345,61.6742847 L17.3497224,61.6153327 L16.7764883,61.5625594 C15.7835466,61.4587127 14.98978,61.3045534 14.3026693,61.1092563 C9.91899818,59.084443 8.53539589,57.5405037 7.53855925,55.6765812 C6.47929618,53.1464893 6.29090722,52.2100539 6.15837722,50.9445115 L6.15837722,50.9445115 L6.10559749,50.3712079 L6.04752628,49.4455352 C6.03666749,49.2187696 6.02763307,48.9826155 6.02046388,48.7363467 L6.02046388,48.7363467 L6.00511226,48.0107688 L6,47.2293603 L6,18.4981122 C6,18.2225566 6.00176343,17.9577529 6.00526294,17.7030396 L6.00526294,17.7030396 L6.0207473,16.9711877 L6.06298797,15.9801689 C6.0758146,15.7551419 6.09056197,15.5395326 6.10717575,15.3325791 L6.10717575,15.3325791 L6.15837088,14.7764877 C6.29486276,13.4714223 6.51838534,12.5069377 6.80996296,11.6776502 C8.63380405,7.95677481 10.1677675,6.54216604 12.044349,5.53855925 C14.574441,4.47929618 15.5108764,4.29090722 16.7764188,4.15837722 L16.7764188,4.15837722 L17.3497224,4.10559749 L18.2753951,4.04752628 C18.5021606,4.03666749 18.7383147,4.02763307 18.9845835,4.02046388 L18.9845835,4.02046388 L19.7165932,4.00497618 Z"
              id="Rectangle-3" stroke="#FFFFFF" stroke-width="4" fill="#1254A9" fill-rule="nonzero"/>
        <path d="M30.3138298,13 C30.4847809,13 30.6513913,13.0538548 30.7900229,13.1539237 L54.5139017,30.2786169 C55.761098,31.1788851 56.5,32.6237867 56.5,34.1623751 L56.5,40.4300399 C56.5,40.8796895 56.135636,41.2442025 55.6861702,41.2442025 C55.5152191,41.2442025 55.3486087,41.1903477 55.2099771,41.0902788 L38.3448158,28.9158392 C38.4758306,29.2447198 38.5478723,29.6035076 38.5478723,29.9791286 L38.5478723,41.1858374 C38.5478723,41.635487 38.1835083,42 37.7340426,42 L34.0239362,42 C31.5254352,42 29.5,39.9737365 29.5,37.4742138 L29.5,31.6313998 C29.5,29.131877 31.5254352,27.1056135 34.0239362,27.1056135 L35.6755319,27.1056135 C35.7318217,27.1056135 35.7877334,27.1072334 35.8432228,27.110429 L31.4860983,23.9655857 C30.238902,23.0653174 29.5,21.6204158 29.5,20.0818274 L29.5,13.8141626 C29.5,13.364513 29.864364,13 30.3138298,13 Z"
              id="Path" fill="#EEEEEE"/>
        <path d="M49.0951037,11.24028 L46.4214874,15.0419771 C44.8086988,17.3352507 45.3676961,20.4955087 47.6700427,22.100611 L53.117232,25.8981694 C53.3730482,26.0765141 53.7256976,26.0145282 53.9048963,25.75972 L56.5785126,21.9580229 C58.1913012,19.6647493 57.6323039,16.5044913 55.3299573,14.899389 L49.882768,11.1018306 C49.6269518,10.9234859 49.2743024,10.9854718 49.0951037,11.24028 Z"
              id="Path" fill="#EEEEEE" fill-rule="nonzero"/>
        <path d="M48.5833333,47 C49.6418791,47 50.5,47.8966814 50.5,49.0027939 C50.5,50.1089065 49.6418791,51.0055879 48.5833333,51.0055879 L45.5806485,51.0054152 L45.971203,53.5479979 C46.1483685,54.7023238 45.3964649,55.7881647 44.2917791,55.9732914 C44.1856971,55.991069 44.0784299,56 43.9709924,56 C42.8521902,56 41.9452218,55.0522761 41.9452218,53.8831995 C41.9452218,53.7709341 41.9537688,53.6588467 41.9707818,53.5479979 L42.3603824,51.0054152 L39.4166667,51.0055879 C38.3581209,51.0055879 37.5,50.1089065 37.5,49.0027939 C37.5,47.8966814 38.3581209,47 39.4166667,47 L48.5833333,47 Z"
              id="Path" fill="#EEEEEE"/>
    </g>
</svg>