<svg xmlns="http://www.w3.org/2000/svg" x="0" y="1188" width="82px"
     height="66px" viewBox="0 0 82 66" version="1.1">
    <title>vi</title>
    <g id="vi" stroke="none" stroke-width="1" fill="none" fill-rule="evenodd">
        <g id="Group" transform="translate(6.000000, 6.000000)" fill-rule="nonzero">
            <path d="M57.4369625,-2 L12.5630375,-2 C7.62820119,-2 5.86681923,-1.41548743 4.07025832,-0.45467615 C2.11952904,0.588585286 0.588585286,2.11952904 -0.45467615,4.07025832 C-1.41548743,5.86681923 -2,7.62820119 -2,12.5630375 L-2,41.4369625 C-2,46.3717988 -1.41548743,48.1331808 -0.45467615,49.9297417 C0.588585286,51.880471 2.11952904,53.4114147 4.07025832,54.4546762 C5.86681923,55.4154874 7.62820119,56 12.5630375,56 L57.4369625,56 C62.3717988,56 64.1331808,55.4154874 65.9297417,54.4546762 C67.880471,53.4114147 69.4114147,51.880471 70.4546762,49.9297417 C71.4154874,48.1331808 72,46.3717988 72,41.4369625 L72,12.5630375 C72,7.62820119 71.4154874,5.86681923 70.4546762,4.07025832 C69.4114147,2.11952904 67.880471,0.588585286 65.9297417,-0.45467615 C64.1331808,-1.41548743 62.3717988,-2 57.4369625,-2 Z"
                  id="Rectangle-3" stroke="#FFFFFF" stroke-width="4" fill="#FF4B4B"/>
            <path d="M34.5346589,34.7446443 L30.5916106,36.8176275 C29.3900211,37.4493404 27.9038358,36.9873642 27.2721228,35.7857748 C27.0205714,35.3072955 26.9337673,34.7592356 27.0251487,34.2264412 L27.7782039,29.8357924 C27.8338418,29.5113983 27.7262933,29.1803982 27.4906072,28.950661 L24.3006142,25.8411863 C23.3285079,24.8936168 23.3086168,23.3374121 24.2561863,22.3653058 C24.6335134,21.978208 25.1279254,21.7262925 25.6628814,21.6485588 L30.0713434,21.0079718 C30.3970536,20.9606433 30.6786192,20.756074 30.8242812,20.4609305 L32.7958053,16.4661863 C33.3966,15.2488432 34.870492,14.7490319 36.0878351,15.3498267 C36.5725875,15.5890663 36.9649551,15.9814339 37.2041947,16.4661863 L39.1757188,20.4609305 C39.3213808,20.756074 39.6029464,20.9606433 39.9286566,21.0079718 L44.3371186,21.6485588 C45.6805365,21.8437689 46.6113428,23.0910732 46.4161328,24.4344911 C46.3383991,24.9694472 46.0864836,25.4638591 45.6993858,25.8411863 L42.5093928,28.950661 C42.2737067,29.1803982 42.1661582,29.5113983 42.2217961,29.8357924 L42.9748513,34.2264412 C43.2043345,35.5644307 42.3057125,36.8351185 40.967723,37.0646016 C40.4349285,37.155983 39.8868686,37.0691789 39.4083894,36.8176275 L35.4653411,34.7446443 C35.1740171,34.5914862 34.8259829,34.5914862 34.5346589,34.7446443 Z"
                  id="Star" fill="#FFC300"/>
        </g>
    </g>
</svg>