<?xml version="1.0" encoding="UTF-8"?>
<!DOCTYPE svg PUBLIC "-//W3C//DTD SVG 1.1//EN" "http://www.w3.org/Graphics/SVG/1.1/DTD/svg11.dtd">
<svg xmlns="http://www.w3.org/2000/svg" version="1.1" width="78px" height="62px" style="shape-rendering:geometricPrecision; text-rendering:geometricPrecision; image-rendering:optimizeQuality; fill-rule:evenodd; clip-rule:evenodd" xmlns:xlink="http://www.w3.org/1999/xlink">
<g><path style="opacity:0.95" fill="#fffefe" d="M 7.5,-0.5 C 28.1667,-0.5 48.8333,-0.5 69.5,-0.5C 72.5,1.83333 75.1667,4.5 77.5,7.5C 77.5,22.8333 77.5,38.1667 77.5,53.5C 75.0967,56.907 72.0967,59.5737 68.5,61.5C 48.5,61.5 28.5,61.5 8.5,61.5C 4.90326,59.5737 1.90326,56.907 -0.5,53.5C -0.5,38.1667 -0.5,22.8333 -0.5,7.5C 1.83333,4.5 4.5,1.83333 7.5,-0.5 Z"/></g>
<g><path style="opacity:1" fill="#ff4c4c" d="M 73.5,18.5 C 50.1667,18.5 26.8333,18.5 3.5,18.5C 2.05265,12.1023 4.05265,7.269 9.5,4C 28.5,3.33333 47.5,3.33333 66.5,4C 72.892,6.72171 75.2253,11.555 73.5,18.5 Z"/></g>
<g><path style="opacity:1" fill="#ffc207" d="M 3.5,18.5 C 26.8333,18.5 50.1667,18.5 73.5,18.5C 73.5,26.5 73.5,34.5 73.5,42.5C 50.1667,42.5 26.8333,42.5 3.5,42.5C 3.5,34.5 3.5,26.5 3.5,18.5 Z"/></g>
<g><path style="opacity:1" fill="#ff5048" d="M 15.5,22.5 C 19.1667,22.5 22.8333,22.5 26.5,22.5C 26.6657,26.8461 26.499,31.1794 26,35.5C 22.5821,39.3673 19.2488,39.3673 16,35.5C 15.501,31.1794 15.3343,26.8461 15.5,22.5 Z"/></g>
<g><path style="opacity:1" fill="#fff9e7" d="M 10.5,24.5 C 11.4959,24.4142 12.3292,24.7476 13,25.5C 13.6667,28.8333 13.6667,32.1667 13,35.5C 12,36.8333 11,36.8333 10,35.5C 9.24465,31.7446 9.41131,28.0779 10.5,24.5 Z"/></g>
<g><path style="opacity:1" fill="#fffae8" d="M 29.5,24.5 C 30.4959,24.4142 31.3292,24.7476 32,25.5C 32.6667,28.8333 32.6667,32.1667 32,35.5C 31,36.8333 30,36.8333 29,35.5C 28.2446,31.7446 28.4113,28.0779 29.5,24.5 Z"/></g>
<g><path style="opacity:1" fill="#ff4c4b" d="M 3.5,42.5 C 26.8333,42.5 50.1667,42.5 73.5,42.5C 73.6989,45.941 73.1989,49.2744 72,52.5C 70.8906,54.8147 69.0573,56.3147 66.5,57C 47.5,57.6667 28.5,57.6667 9.5,57C 4.37336,53.5675 2.37336,48.7342 3.5,42.5 Z"/></g>
</svg>
