<?xml version="1.0" encoding="UTF-8"?>
<!DOCTYPE svg PUBLIC "-//W3C//DTD SVG 1.1//EN" "http://www.w3.org/Graphics/SVG/1.1/DTD/svg11.dtd">
<svg xmlns="http://www.w3.org/2000/svg" version="1.1" width="78px" height="62px" style="shape-rendering:geometricPrecision; text-rendering:geometricPrecision; image-rendering:optimizeQuality; fill-rule:evenodd; clip-rule:evenodd" xmlns:xlink="http://www.w3.org/1999/xlink">
<g><path style="opacity:0.949" fill="#fefefe" d="M 7.5,-0.5 C 28.1667,-0.5 48.8333,-0.5 69.5,-0.5C 72.5,1.83333 75.1667,4.5 77.5,7.5C 77.5,22.8333 77.5,38.1667 77.5,53.5C 75.0967,56.907 72.0967,59.5737 68.5,61.5C 48.5,61.5 28.5,61.5 8.5,61.5C 4.90326,59.5737 1.90326,56.907 -0.5,53.5C -0.5,38.1667 -0.5,22.8333 -0.5,7.5C 1.83333,4.5 4.5,1.83333 7.5,-0.5 Z"/></g>
<g><path style="opacity:1" fill="#7bc60d" d="M 59.5,3.5 C 40.8707,16.4874 22.204,29.4874 3.5,42.5C 3.33349,31.495 3.50015,20.495 4,9.5C 5.16667,7 7,5.16667 9.5,4C 26.1633,3.50007 42.83,3.3334 59.5,3.5 Z"/></g>
<g><path style="opacity:1" fill="#f3bd06" d="M 59.5,3.5 C 61.5,3.5 63.5,3.5 65.5,3.5C 45.2223,18.6457 24.5557,33.3123 3.5,47.5C 3.5,45.8333 3.5,44.1667 3.5,42.5C 22.204,29.4874 40.8707,16.4874 59.5,3.5 Z"/></g>
<g><path style="opacity:1" fill="#4e4d4a" d="M 65.5,3.5 C 70.7532,4.75416 73.4199,8.08749 73.5,13.5C 52.5322,27.8105 31.8655,42.4772 11.5,57.5C 6.24677,56.2458 3.5801,52.9125 3.5,47.5C 24.5557,33.3123 45.2223,18.6457 65.5,3.5 Z"/></g>
<g><path style="opacity:1" fill="#f1bd15" d="M 73.5,13.5 C 73.6747,15.6208 73.3414,17.6208 72.5,19.5C 54.1997,31.8101 36.1997,44.4768 18.5,57.5C 16.1667,57.5 13.8333,57.5 11.5,57.5C 31.8655,42.4772 52.5322,27.8105 73.5,13.5 Z"/></g>
<g><path style="opacity:1" fill="#22b0f4" d="M 72.5,19.5 C 73.6585,29.6584 73.8252,39.9917 73,50.5C 72.214,53.5827 70.3807,55.7494 67.5,57C 51.1701,57.4999 34.8367,57.6666 18.5,57.5C 36.1997,44.4768 54.1997,31.8101 72.5,19.5 Z"/></g>
</svg>
