<?xml version="1.0" encoding="UTF-8"?>
<!DOCTYPE svg PUBLIC "-//W3C//DTD SVG 1.1//EN" "http://www.w3.org/Graphics/SVG/1.1/DTD/svg11.dtd">
<svg xmlns="http://www.w3.org/2000/svg" version="1.1" style="shape-rendering:geometricPrecision; text-rendering:geometricPrecision; image-rendering:optimizeQuality; fill-rule:evenodd; clip-rule:evenodd" xmlns:xlink="http://www.w3.org/1999/xlink">
<g><path style="opacity:0.949" fill="#fefefd" d="M 7.5,-0.5 C 28.1667,-0.5 48.8333,-0.5 69.5,-0.5C 72.5,1.83333 75.1667,4.5 77.5,7.5C 77.5,22.8333 77.5,38.1667 77.5,53.5C 75.0967,56.907 72.0967,59.5737 68.5,61.5C 48.5,61.5 28.5,61.5 8.5,61.5C 4.90326,59.5737 1.90326,56.907 -0.5,53.5C -0.5,38.1667 -0.5,22.8333 -0.5,7.5C 1.83333,4.5 4.5,1.83333 7.5,-0.5 Z"/></g>
<g><path style="opacity:1" fill="#79c803" d="M 9.5,3.5 C 28.5029,3.33338 47.5029,3.50005 66.5,4C 69.5827,4.78597 71.7494,6.61931 73,9.5C 73.6667,23.1667 73.6667,36.8333 73,50.5C 72.1667,54 70,56.1667 66.5,57C 47.5,57.6667 28.5,57.6667 9.5,57C 6.61931,55.7494 4.78597,53.5827 4,50.5C 3.33333,36.8333 3.33333,23.1667 4,9.5C 5.35968,6.97739 7.19301,4.97739 9.5,3.5 Z"/></g>
<g><path style="opacity:1" fill="#8fdf09" d="M 43.5,43.5 C 43.5,43.1667 43.5,42.8333 43.5,42.5C 45.0281,42.4827 45.5281,41.816 45,40.5C 40.6667,35.1667 36.3333,35.1667 32,40.5C 31.4719,41.816 31.9719,42.4827 33.5,42.5C 33.5,42.8333 33.5,43.1667 33.5,43.5C 25.3247,51.8313 17.4913,51.498 10,42.5C 8.47254,36.5851 8.13921,30.5851 9,24.5C 9.61524,22.8839 10.6152,21.5505 12,20.5C 11.8931,17.4426 13.0598,15.1093 15.5,13.5C 16.4776,13.9767 17.3109,14.6433 18,15.5C 18.1129,13.0261 19.1129,11.0261 21,9.5C 24.8333,13.3333 28.6667,17.1667 32.5,21C 36.9971,23.1209 41.3305,22.7875 45.5,20C 48.713,16.4506 52.213,13.2839 56,10.5C 56.772,10.6448 57.4387,10.9781 58,11.5C 58.3333,12.8333 58.6667,14.1667 59,15.5C 60.2408,13.5794 61.7408,13.246 63.5,14.5C 63.9527,18.6072 65.4527,22.2739 68,25.5C 69.1268,31.7547 68.4601,37.7547 66,43.5C 61.5092,48.2591 56.0092,49.7591 49.5,48C 47.34,46.668 45.34,45.168 43.5,43.5 Z"/></g>
<g><path style="opacity:1" fill="#f9fbf6" d="M 19.5,20.5 C 24.5501,20.2742 28.3834,22.2742 31,26.5C 31.8098,31.2574 31.4764,35.9241 30,40.5C 23.8263,46.3307 18.493,45.6641 14,38.5C 13.3333,34.5 13.3333,30.5 14,26.5C 15.3597,23.9774 17.193,21.9774 19.5,20.5 Z"/></g>
<g><path style="opacity:1" fill="#f9fbf6" d="M 52.5,20.5 C 60.3587,20.691 64.0253,24.691 63.5,32.5C 64.2141,39.6155 61.0474,43.6155 54,44.5C 47.5067,43.1637 44.6733,39.1637 45.5,32.5C 44.7789,26.5966 47.1122,22.5966 52.5,20.5 Z"/></g>
<g><path style="opacity:1" fill="#565656" d="M 22.5,26.5 C 26.8243,26.1577 28.8243,28.1577 28.5,32.5C 28.3801,37.8063 25.8801,39.8063 21,38.5C 18.6933,35.4059 19.0266,32.7392 22,30.5C 22.49,29.2068 22.6567,27.8734 22.5,26.5 Z"/></g>
<g><path style="opacity:1" fill="#525252" d="M 51.5,26.5 C 55.8243,26.1577 57.8243,28.1577 57.5,32.5C 57.0109,39.499 54.1775,40.8323 49,36.5C 48.1477,33.967 48.8144,31.967 51,30.5C 51.49,29.2068 51.6567,27.8734 51.5,26.5 Z"/></g>
<g><path style="opacity:1" fill="#fcc711" d="M 43.5,42.5 C 40.1475,43.7074 36.8142,43.7074 33.5,42.5C 31.9719,42.4827 31.4719,41.816 32,40.5C 36.3333,35.1667 40.6667,35.1667 45,40.5C 45.5281,41.816 45.0281,42.4827 43.5,42.5 Z"/></g>
<g><path style="opacity:1" fill="#ec8800" d="M 33.5,42.5 C 36.8142,43.7074 40.1475,43.7074 43.5,42.5C 43.5,42.8333 43.5,43.1667 43.5,43.5C 42.5769,47.2644 40.2435,48.7644 36.5,48C 34.8588,46.871 33.8588,45.371 33.5,43.5C 33.5,43.1667 33.5,42.8333 33.5,42.5 Z"/></g>
</svg>
