<?xml version="1.0" encoding="UTF-8"?>
<!DOCTYPE svg PUBLIC "-//W3C//DTD SVG 1.1//EN" "http://www.w3.org/Graphics/SVG/1.1/DTD/svg11.dtd">
<svg xmlns="http://www.w3.org/2000/svg" version="1.1" width="78px" height="62px" style="shape-rendering:geometricPrecision; text-rendering:geometricPrecision; image-rendering:optimizeQuality; fill-rule:evenodd; clip-rule:evenodd" xmlns:xlink="http://www.w3.org/1999/xlink">
<g><path style="opacity:0.95" fill="#fefefe" d="M 7.5,-0.5 C 28.1667,-0.5 48.8333,-0.5 69.5,-0.5C 72.5,1.83333 75.1667,4.5 77.5,7.5C 77.5,22.8333 77.5,38.1667 77.5,53.5C 75.0967,56.907 72.0967,59.5737 68.5,61.5C 48.5,61.5 28.5,61.5 8.5,61.5C 4.90326,59.5737 1.90326,56.907 -0.5,53.5C -0.5,38.1667 -0.5,22.8333 -0.5,7.5C 1.83333,4.5 4.5,1.83333 7.5,-0.5 Z"/></g>
<g><path style="opacity:1" fill="#ececec" d="M 11.5,3.5 C 29.5031,3.33339 47.5031,3.50006 65.5,4C 69.5271,4.42696 72.0271,6.59363 73,10.5C 73.6667,23.8333 73.6667,37.1667 73,50.5C 72.1667,54 70,56.1667 66.5,57C 47.8333,57.6667 29.1667,57.6667 10.5,57C 6.59363,56.0271 4.42696,53.5271 4,49.5C 3.33333,36.8333 3.33333,24.1667 4,11.5C 4.68042,6.98947 7.18042,4.3228 11.5,3.5 Z"/></g>
<g><path style="opacity:1" fill="#5c5c5c" d="M 19.5,9.5 C 21.2252,9.84254 21.7252,10.8425 21,12.5C 18.5,15 16,17.5 13.5,20C 12.365,20.7494 11.365,20.5827 10.5,19.5C 13.5222,16.1467 16.5222,12.8134 19.5,9.5 Z"/></g>
<g><path style="opacity:1" fill="#4f4f4f" d="M 54.5,9.5 C 56.7288,10.0553 58.3954,11.3886 59.5,13.5C 56.8534,13.8951 55.1867,12.5618 54.5,9.5 Z"/></g>
<g><path style="opacity:1" fill="#5d5d5d" d="M 22.5,13.5 C 24.3547,13.272 25.1881,13.9387 25,15.5C 21.9845,18.6828 18.8178,21.6828 15.5,24.5C 14.4173,23.635 14.2506,22.635 15,21.5C 17.705,18.9638 20.205,16.2971 22.5,13.5 Z"/></g>
<g><path style="opacity:1" fill="#535353" d="M 56.5,18.5 C 54.2712,17.9447 52.6046,16.6114 51.5,14.5C 54.1466,14.1049 55.8133,15.4382 56.5,18.5 Z"/></g>
<g><path style="opacity:1" fill="#4d4d4d" d="M 60.5,15.5 C 62.7288,16.0553 64.3954,17.3886 65.5,19.5C 62.8534,19.8951 61.1867,18.5618 60.5,15.5 Z"/></g>
<g><path style="opacity:1" fill="#fd5050" d="M 51.5,30.5 C 49.678,28.8402 47.5113,27.8402 45,27.5C 40.6388,30.01 36.1388,32.3433 31.5,34.5C 29.5061,33.5108 27.5061,32.5108 25.5,31.5C 25.6183,23.2152 29.785,18.5485 38,17.5C 46.2898,17.9572 50.7898,22.2905 51.5,30.5 Z"/></g>
<g><path style="opacity:1" fill="#555555" d="M 56.5,18.5 C 58.8863,19.3733 60.8863,20.8733 62.5,23C 62,23.5 61.5,24 61,24.5C 58.8733,22.8863 57.3733,20.8863 56.5,18.5 Z"/></g>
<g><path style="opacity:1" fill="#31adf0" d="M 51.5,30.5 C 50.7898,38.7095 46.2898,43.0428 38,43.5C 30.7218,42.7215 26.5551,38.7215 25.5,31.5C 27.5061,32.5108 29.5061,33.5108 31.5,34.5C 36.1388,32.3433 40.6388,30.01 45,27.5C 47.5113,27.8402 49.678,28.8402 51.5,30.5 Z"/></g>
<g><path style="opacity:1" fill="#616161" d="M 15.5,36.5 C 17.2292,37.1175 18.7292,38.1175 20,39.5C 20.5628,40.7248 20.2295,41.7248 19,42.5C 17.5,41 16,39.5 14.5,38C 15.056,37.6174 15.3893,37.1174 15.5,36.5 Z"/></g>
<g><path style="opacity:1" fill="#616161" d="M 59.5,36.5 C 60.7562,36.4614 61.7562,36.9614 62.5,38C 59.5,41 56.5,44 53.5,47C 52.365,47.7494 51.365,47.5827 50.5,46.5C 53.5222,43.1467 56.5222,39.8134 59.5,36.5 Z"/></g>
<g><path style="opacity:1" fill="#5d5d5d" d="M 11.5,40.5 C 15.6424,42.1195 19.1424,44.7862 22,48.5C 22.7494,49.635 22.5827,50.635 21.5,51.5C 17.4119,48.417 14.0786,44.7504 11.5,40.5 Z"/></g>
<g><path style="opacity:1" fill="#5e5e5e" d="M 62.5,40.5 C 64.3547,40.272 65.1881,40.9387 65,42.5C 61.9845,45.6828 58.8178,48.6828 55.5,51.5C 54.4173,50.635 54.2506,49.635 55,48.5C 57.705,45.9638 60.205,43.2971 62.5,40.5 Z"/></g>
<g><path style="opacity:1" fill="#5f5f5f" d="M 20.5,42.5 C 23.2723,42.5952 25.2723,43.9285 26.5,46.5C 23.3089,47.352 21.3089,46.0187 20.5,42.5 Z"/></g>
</svg>
