<?xml version="1.0" encoding="UTF-8"?>
<!DOCTYPE svg PUBLIC "-//W3C//DTD SVG 1.1//EN" "http://www.w3.org/Graphics/SVG/1.1/DTD/svg11.dtd">
<svg xmlns="http://www.w3.org/2000/svg" version="1.1" width="78px" height="62px" style="shape-rendering:geometricPrecision; text-rendering:geometricPrecision; image-rendering:optimizeQuality; fill-rule:evenodd; clip-rule:evenodd" xmlns:xlink="http://www.w3.org/1999/xlink">
<g><path style="opacity:0.949" fill="#f9f9f9" d="M 7.5,-0.5 C 28.1667,-0.5 48.8333,-0.5 69.5,-0.5C 72.5,1.83333 75.1667,4.5 77.5,7.5C 77.5,22.8333 77.5,38.1667 77.5,53.5C 75.0967,56.907 72.0967,59.5737 68.5,61.5C 48.5,61.5 28.5,61.5 8.5,61.5C 4.90326,59.5737 1.90326,56.907 -0.5,53.5C -0.5,38.1667 -0.5,22.8333 -0.5,7.5C 1.83333,4.5 4.5,1.83333 7.5,-0.5 Z"/></g>
<g><path style="opacity:1" fill="#269cd7" d="M 10.5,3.5 C 12.8333,3.5 15.1667,3.5 17.5,3.5C 17.7989,5.60395 17.4656,7.60395 16.5,9.5C 13.9164,7.91585 11.9164,5.91585 10.5,3.5 Z"/></g>
<g><path style="opacity:1" fill="#fe4b4a" d="M 73.5,21.5 C 63.1667,21.5 52.8333,21.5 42.5,21.5C 37.2649,19.55 31.5982,18.8833 25.5,19.5C 25.5,23.1667 25.5,26.8333 25.5,30.5C 23.8333,30.5 22.1667,30.5 20.5,30.5C 20.5,26.8333 20.5,23.1667 20.5,19.5C 14.8333,19.5 9.16667,19.5 3.5,19.5C 3.5,17.8333 3.5,16.1667 3.5,14.5C 9.16667,14.5 14.8333,14.5 20.5,14.5C 20.5,10.8333 20.5,7.16667 20.5,3.5C 22.1667,3.5 23.8333,3.5 25.5,3.5C 25.5,7.16667 25.5,10.8333 25.5,14.5C 41.469,13.2333 57.469,12.5667 73.5,12.5C 73.5,15.5 73.5,18.5 73.5,21.5 Z"/></g>
<g><path style="opacity:1" fill="#2b9dd7" d="M 28.5,3.5 C 31.5184,3.33537 34.5184,3.50204 37.5,4C 34.9708,6.02855 32.3041,7.86188 29.5,9.5C 28.5344,7.60395 28.2011,5.60395 28.5,3.5 Z"/></g>
<g><path style="opacity:1" fill="#2e9ed7" d="M 41.5,6.5 C 42.4511,7.91866 42.7845,9.58533 42.5,11.5C 40.1432,11.6633 37.8098,11.4966 35.5,11C 37.6838,9.63658 39.6838,8.13658 41.5,6.5 Z"/></g>
<g><path style="opacity:1" fill="#2f9ed7" d="M 4.5,8.5 C 12.091,10.592 12.091,11.592 4.5,11.5C 4.5,10.5 4.5,9.5 4.5,8.5 Z"/></g>
<g><path style="opacity:1" fill="#ededed" d="M 3.5,19.5 C 9.16667,19.5 14.8333,19.5 20.5,19.5C 20.5,23.1667 20.5,26.8333 20.5,30.5C 22.1667,30.5 23.8333,30.5 25.5,30.5C 25.5,26.8333 25.5,23.1667 25.5,19.5C 31.5982,18.8833 37.2649,19.55 42.5,21.5C 40.369,22.3138 38.0356,22.8138 35.5,23C 38.2554,24.7112 40.5887,26.8779 42.5,29.5C 52.8119,30.4986 63.1452,30.8319 73.5,30.5C 73.5,33.5 73.5,36.5 73.5,39.5C 50.1667,39.5 26.8333,39.5 3.5,39.5C 3.5,35.8333 3.5,32.1667 3.5,28.5C 5.96388,26.4297 8.63055,24.5963 11.5,23C 8.85397,22.5026 6.1873,22.3359 3.5,22.5C 3.5,21.5 3.5,20.5 3.5,19.5 Z"/></g>
<g><path style="opacity:1" fill="#1999d6" d="M 42.5,21.5 C 52.8333,21.5 63.1667,21.5 73.5,21.5C 73.5,24.5 73.5,27.5 73.5,30.5C 63.1452,30.8319 52.8119,30.4986 42.5,29.5C 40.5887,26.8779 38.2554,24.7112 35.5,23C 38.0356,22.8138 40.369,22.3138 42.5,21.5 Z"/></g>
<g><path style="opacity:1" fill="#2f9ed7" d="M 3.5,22.5 C 6.1873,22.3359 8.85397,22.5026 11.5,23C 8.63055,24.5963 5.96388,26.4297 3.5,28.5C 3.5,26.5 3.5,24.5 3.5,22.5 Z"/></g>
<g><path style="opacity:1" fill="#2b9dd7" d="M 16.5,24.5 C 17.4614,26.2646 17.7947,28.2646 17.5,30.5C 14.8127,30.6641 12.146,30.4974 9.5,30C 12.02,28.3029 14.3533,26.4695 16.5,24.5 Z"/></g>
<g><path style="opacity:1" fill="#2a9dd7" d="M 28.5,24.5 C 31.2861,26.1126 33.9528,27.946 36.5,30C 33.854,30.4974 31.1873,30.6641 28.5,30.5C 28.5,28.5 28.5,26.5 28.5,24.5 Z"/></g>
<g><path style="opacity:1" fill="#fe4b4b" d="M 3.5,39.5 C 26.8333,39.5 50.1667,39.5 73.5,39.5C 73.5,42.5 73.5,45.5 73.5,48.5C 50.1667,48.5 26.8333,48.5 3.5,48.5C 3.5,45.5 3.5,42.5 3.5,39.5 Z"/></g>
<g><path style="opacity:1" fill="#1d99d6" d="M 3.5,48.5 C 26.8333,48.5 50.1667,48.5 73.5,48.5C 72.9468,52.7605 70.6135,55.5939 66.5,57C 47.5,57.6667 28.5,57.6667 9.5,57C 6.13722,55.101 4.13722,52.2676 3.5,48.5 Z"/></g>
</svg>
