<?xml version="1.0" encoding="UTF-8"?>
<!DOCTYPE svg PUBLIC "-//W3C//DTD SVG 1.1//EN" "http://www.w3.org/Graphics/SVG/1.1/DTD/svg11.dtd">
<svg xmlns="http://www.w3.org/2000/svg" version="1.1" width="78px" height="62px" style="shape-rendering:geometricPrecision; text-rendering:geometricPrecision; image-rendering:optimizeQuality; fill-rule:evenodd; clip-rule:evenodd" xmlns:xlink="http://www.w3.org/1999/xlink">
<g><path style="opacity:0.949" fill="#fefefd" d="M 7.5,-0.5 C 28.1667,-0.5 48.8333,-0.5 69.5,-0.5C 72.5,1.83333 75.1667,4.5 77.5,7.5C 77.5,22.8333 77.5,38.1667 77.5,53.5C 75.0967,56.907 72.0967,59.5737 68.5,61.5C 48.5,61.5 28.5,61.5 8.5,61.5C 4.90326,59.5737 1.90326,56.907 -0.5,53.5C -0.5,38.1667 -0.5,22.8333 -0.5,7.5C 1.83333,4.5 4.5,1.83333 7.5,-0.5 Z"/></g>
<g><path style="opacity:1" fill="#1db0f6" d="M 73.5,30.5 C 50.1667,30.5 26.8333,30.5 3.5,30.5C 3.33371,23.4921 3.50038,16.4921 4,9.5C 5.16667,7 7,5.16667 9.5,4C 28.8333,3.33333 48.1667,3.33333 67.5,4C 70,5.16667 71.8333,7 73,9.5C 73.4996,16.4921 73.6663,23.4921 73.5,30.5 Z"/></g>
<g><path style="opacity:1" fill="#fec301" d="M 3.5,30.5 C 26.8333,30.5 50.1667,30.5 73.5,30.5C 73.6662,36.8421 73.4995,43.1754 73,49.5C 72.5,54 70,56.5 65.5,57C 46.8333,57.6667 28.1667,57.6667 9.5,57C 6.33738,55.5202 4.50405,53.0202 4,49.5C 3.50046,43.1754 3.33379,36.8421 3.5,30.5 Z"/></g>
</svg>
