<svg xmlns="http://www.w3.org/2000/svg" x="0" y="2046" width="82px"
     height="66px" viewBox="0 0 82 66" version="1.1">
    <title>ha</title>
    <g id="ha" stroke="none" stroke-width="1" fill="none" fill-rule="evenodd">
        <g id="Group" transform="translate(6.000000, 6.000000)">
            <path d="M57.4369625,-2 L12.5630375,-2 C7.62820119,-2 5.86681923,-1.41548743 4.07025832,-0.45467615 C2.11952904,0.588585286 0.588585286,2.11952904 -0.45467615,4.07025832 C-1.41548743,5.86681923 -2,7.62820119 -2,12.5630375 L-2,41.4369625 C-2,46.3717988 -1.41548743,48.1331808 -0.45467615,49.9297417 C0.588585286,51.880471 2.11952904,53.4114147 4.07025832,54.4546762 C5.86681923,55.4154874 7.62820119,56 12.5630375,56 L57.4369625,56 C62.3717988,56 64.1331808,55.4154874 65.9297417,54.4546762 C67.880471,53.4114147 69.4114147,51.880471 70.4546762,49.9297417 C71.4154874,48.1331808 72,46.3717988 72,41.4369625 L72,12.5630375 C72,7.62820119 71.4154874,5.86681923 70.4546762,4.07025832 C69.4114147,2.11952904 67.880471,0.588585286 65.9297417,-0.45467615 C64.1331808,-1.41548743 62.3717988,-2 57.4369625,-2 Z"
                  id="Rectangle-3" stroke="#FFFFFF" stroke-width="4" fill="#EEEEEE" fill-rule="nonzero"/>
            <rect id="Rectangle-4-Copy-5" fill="#FF4B4B" x="0" y="9" width="70" height="9"/>
            <rect id="Rectangle-4-Copy" fill="#1899D6" x="0" y="18" width="70" height="9"/>
            <path d="M39,-6.74346641e-15 L39,27 L0,27 L0,12.5630375 C0,8.19459564 0.454845494,6.61049308 1.30895025,5.01345604 C2.163055,3.41641901 3.41641901,2.163055 5.01345604,1.30895025 L5.45079254,1.08595334 C6.92152279,0.375905367 8.59172671,-6.74346641e-15 12.5630375,-6.74346641e-15 L39,-6.74346641e-15 Z"
                  id="Path" fill="#1899D6" fill-rule="nonzero"/>
            <path d="M17,-3.55271368e-15 L17,8.94251059 L19.4813625,10.745326 L22,8.91542871 L22,-3.55271368e-15 L25,-3.55271368e-15 L25,6.73580113 L34.2710349,-3.55271368e-15 L39,-3.55271368e-15 L39,2.74454563 L31.7664876,8 L39,8 L39,11 L27.6373419,11 L23.7346165,13.8354959 L26.7138008,16 L39,16 L39,19 L30.8429466,19 L39,24.9264462 L39,27 L33.3474939,27 L25,20.9351907 L25,27 L22,27 L22,18.7555631 L19.4813625,16.9256659 L17,18.7284812 L17,27 L14,27 L14,20.9081088 L5.61523113,27 L-1.11910481e-12,27 L-1.11910481e-12,24.8993643 L8.11977841,19 L-1.11910481e-12,19 L-1.11910481e-12,16 L12.2489242,16 L15.2281085,13.8354959 L11.3253831,11 L0.0227924055,10.9989727 C0.0619280911,9.76287361 0.151192969,8.79798594 0.288503957,7.99948245 L7.19623738,8 L1.85392148,4.11853551 C2.66509814,2.94264375 3.72793981,1.99645185 5.01345604,1.30895025 C5.30508343,1.15298621 5.59627951,1.01033536 5.90407667,0.881336134 L14,6.762883 L14,-3.55271368e-15 L17,-3.55271368e-15 Z"
                  id="Path" fill="#EEEEEE" fill-rule="nonzero"/>
            <path d="M69.8484235,45 C69.6497488,46.8700874 69.2585232,47.9254608 68.6910498,48.986544 C67.836945,50.583581 66.583581,51.836945 64.986544,52.6910498 C63.3895069,53.5451545 61.8054044,54 57.4369625,54 L12.5630375,54 C8.19459564,54 6.61049308,53.5451545 5.01345604,52.6910498 C3.41641901,51.836945 2.163055,50.583581 1.30895025,48.986544 C0.741476771,47.9254608 0.350251156,46.8700874 0.151576514,45 L69.8484235,45 Z"
                  id="Path" fill="#1899D6" fill-rule="nonzero"/>
            <path d="M70,41.4369625 C70,42.9029795 69.9487742,44.0554174 69.8484235,45 L0.151576514,45 C0.0512258034,44.0554174 0,42.9029795 0,41.4369625 L0,36 L70,36 L70,41.4369625 Z"
                  id="Path" fill="#FF4B4B" fill-rule="nonzero"/>
            <polygon id="Path" fill="#FF4B4B" fill-rule="nonzero"
                     points="22 11 39 11 39 16 22 16 22 27 17 27 17 16 0 16 0 11 17 11 17 0 22 0"/>
        </g>
    </g>
</svg>