<?xml version="1.0" encoding="UTF-8"?>
<!DOCTYPE svg PUBLIC "-//W3C//DTD SVG 1.1//EN" "http://www.w3.org/Graphics/SVG/1.1/DTD/svg11.dtd">
<svg xmlns="http://www.w3.org/2000/svg" version="1.1" width="78px" height="62px" style="shape-rendering:geometricPrecision; text-rendering:geometricPrecision; image-rendering:optimizeQuality; fill-rule:evenodd; clip-rule:evenodd" xmlns:xlink="http://www.w3.org/1999/xlink">
<g><path style="opacity:0.949" fill="#fefefe" d="M 7.5,-0.5 C 28.1667,-0.5 48.8333,-0.5 69.5,-0.5C 72.5,1.83333 75.1667,4.5 77.5,7.5C 77.5,22.8333 77.5,38.1667 77.5,53.5C 75.0967,56.907 72.0967,59.5737 68.5,61.5C 48.5,61.5 28.5,61.5 8.5,61.5C 4.90326,59.5737 1.90326,56.907 -0.5,53.5C -0.5,38.1667 -0.5,22.8333 -0.5,7.5C 1.83333,4.5 4.5,1.83333 7.5,-0.5 Z"/></g>
<g><path style="opacity:1" fill="#ededed" d="M 73.5,30.5 C 61.4197,30.1881 49.4197,30.5214 37.5,31.5C 37.1412,29.629 36.1412,28.129 34.5,27C 25.2852,19.9038 15.9519,13.0704 6.5,6.5C 7.84203,5.20695 9.50869,4.37362 11.5,4C 30.5653,3.03829 49.5653,3.37162 68.5,5C 70.8147,6.1094 72.3147,7.94273 73,10.5C 73.4996,17.1583 73.6663,23.825 73.5,30.5 Z"/></g>
<g><path style="opacity:1" fill="#25aff4" d="M 6.5,6.5 C 15.9519,13.0704 25.2852,19.9038 34.5,27C 36.1412,28.129 37.1412,29.629 37.5,31.5C 27.5,39.1667 17.5,46.8333 7.5,54.5C 5.92558,54.0629 4.75891,53.0629 4,51.5C 3.33333,37.5 3.33333,23.5 4,9.5C 4.85175,8.42925 5.68509,7.42925 6.5,6.5 Z"/></g>
<g><path style="opacity:1" fill="#fe4b4b" d="M 73.5,30.5 C 73.6663,37.175 73.4996,43.8417 73,50.5C 72.1667,54 70,56.1667 66.5,57C 47.5,57.6667 28.5,57.6667 9.5,57C 8.61947,56.2917 7.9528,55.4584 7.5,54.5C 17.5,46.8333 27.5,39.1667 37.5,31.5C 49.4197,30.5214 61.4197,30.1881 73.5,30.5 Z"/></g>
</svg>
