<?xml version="1.0" encoding="UTF-8"?>
<!DOCTYPE svg PUBLIC "-//W3C//DTD SVG 1.1//EN" "http://www.w3.org/Graphics/SVG/1.1/DTD/svg11.dtd">
<svg xmlns="http://www.w3.org/2000/svg" version="1.1" width="78px" height="62px" style="shape-rendering:geometricPrecision; text-rendering:geometricPrecision; image-rendering:optimizeQuality; fill-rule:evenodd; clip-rule:evenodd" xmlns:xlink="http://www.w3.org/1999/xlink">
<g><path style="opacity:0.95" fill="#fefefe" d="M 7.5,-0.5 C 28.1667,-0.5 48.8333,-0.5 69.5,-0.5C 72.5,1.83333 75.1667,4.5 77.5,7.5C 77.5,22.8333 77.5,38.1667 77.5,53.5C 75.0967,56.907 72.0967,59.5737 68.5,61.5C 48.5,61.5 28.5,61.5 8.5,61.5C 4.90326,59.5737 1.90326,56.907 -0.5,53.5C -0.5,38.1667 -0.5,22.8333 -0.5,7.5C 1.83333,4.5 4.5,1.83333 7.5,-0.5 Z"/></g>
<g><path style="opacity:1" fill="#eeeeee" d="M 22.5,3.5 C 22.5,10.5 22.5,17.5 22.5,24.5C 16.1667,24.5 9.83333,24.5 3.5,24.5C 2.93864,18.2684 3.77197,12.2684 6,6.5C 11.148,3.86075 16.648,2.86075 22.5,3.5 Z"/></g>
<g><path style="opacity:1" fill="#1899d6" d="M 22.5,3.5 C 26.5,3.5 30.5,3.5 34.5,3.5C 34.5,10.5 34.5,17.5 34.5,24.5C 47.5,24.5 60.5,24.5 73.5,24.5C 73.5,28.5 73.5,32.5 73.5,36.5C 60.5,36.5 47.5,36.5 34.5,36.5C 34.5,43.5 34.5,50.5 34.5,57.5C 30.5,57.5 26.5,57.5 22.5,57.5C 22.5,50.5 22.5,43.5 22.5,36.5C 16.1667,36.5 9.83333,36.5 3.5,36.5C 3.5,32.5 3.5,28.5 3.5,24.5C 9.83333,24.5 16.1667,24.5 22.5,24.5C 22.5,17.5 22.5,10.5 22.5,3.5 Z"/></g>
<g><path style="opacity:1" fill="#eeeeee" d="M 34.5,3.5 C 44.8387,3.33351 55.172,3.50017 65.5,4C 69.5271,4.42696 72.0271,6.59363 73,10.5C 73.4992,15.1548 73.6658,19.8215 73.5,24.5C 60.5,24.5 47.5,24.5 34.5,24.5C 34.5,17.5 34.5,10.5 34.5,3.5 Z"/></g>
<g><path style="opacity:1" fill="#eeeeee" d="M 3.5,36.5 C 9.83333,36.5 16.1667,36.5 22.5,36.5C 22.5,43.5 22.5,50.5 22.5,57.5C 18.4862,57.6655 14.4862,57.4988 10.5,57C 6.59363,56.0271 4.42696,53.5271 4,49.5C 3.50098,45.1794 3.33432,40.8461 3.5,36.5 Z"/></g>
<g><path style="opacity:1" fill="#eeeeee" d="M 73.5,36.5 C 73.6658,41.1785 73.4992,45.8452 73,50.5C 72.1667,54 70,56.1667 66.5,57C 55.8385,57.4998 45.1719,57.6665 34.5,57.5C 34.5,50.5 34.5,43.5 34.5,36.5C 47.5,36.5 60.5,36.5 73.5,36.5 Z"/></g>
</svg>
