<?xml version="1.0" encoding="UTF-8"?>
<!DOCTYPE svg PUBLIC "-//W3C//DTD SVG 1.1//EN" "http://www.w3.org/Graphics/SVG/1.1/DTD/svg11.dtd">
<svg xmlns="http://www.w3.org/2000/svg" version="1.1" width="78px" height="62px" style="shape-rendering:geometricPrecision; text-rendering:geometricPrecision; image-rendering:optimizeQuality; fill-rule:evenodd; clip-rule:evenodd" xmlns:xlink="http://www.w3.org/1999/xlink">
<g><path style="opacity:0.949" fill="#f7faf8" d="M 7.5,-0.5 C 28.1667,-0.5 48.8333,-0.5 69.5,-0.5C 72.5,1.83333 75.1667,4.5 77.5,7.5C 77.5,22.8333 77.5,38.1667 77.5,53.5C 75.0967,56.907 72.0967,59.5737 68.5,61.5C 48.5,61.5 28.5,61.5 8.5,61.5C 4.90326,59.5737 1.90326,56.907 -0.5,53.5C -0.5,38.1667 -0.5,22.8333 -0.5,7.5C 1.83333,4.5 4.5,1.83333 7.5,-0.5 Z"/></g>
<g><path style="opacity:1" fill="#1eb0f5" d="M 9.5,3.5 C 15.1667,3.5 20.8333,3.5 26.5,3.5C 26.5,21.5 26.5,39.5 26.5,57.5C 20.8236,57.6661 15.1569,57.4994 9.5,57C 8,55.5 6.5,54 5,52.5C 3.40319,38.222 3.06986,23.8887 4,9.5C 6.03961,7.62976 7.87294,5.62976 9.5,3.5 Z"/></g>
<g><path style="opacity:1" fill="#fec300" d="M 49.5,3.5 C 49.5,21.5 49.5,39.5 49.5,57.5C 42.1667,57.5 34.8333,57.5 27.5,57.5C 27.5,39.5 27.5,21.5 27.5,3.5C 34.8333,3.5 42.1667,3.5 49.5,3.5 Z"/></g>
<g><path style="opacity:1" fill="#ff4e4a" d="M 49.5,3.5 C 71.1241,-0.368077 79.1241,8.46526 73.5,30C 73.3333,36.8333 73.1667,43.6667 73,50.5C 72.1667,54 70,56.1667 66.5,57C 60.8431,57.4994 55.1764,57.6661 49.5,57.5C 49.5,39.5 49.5,21.5 49.5,3.5 Z"/></g>
</svg>
