<svg xmlns="http://www.w3.org/2000/svg" x="0" y="66" width="82px"
     height="66px" viewBox="0 0 82 66" version="1.1">
    <title>es</title>
    <g id="es" stroke="none" stroke-width="1" fill="none" fill-rule="evenodd">
        <g id="Group" transform="translate(6.000000, 6.000000)">
            <path d="M57.4369625,-2 L12.5630375,-2 C7.62820119,-2 5.86681923,-1.41548743 4.07025832,-0.45467615 C2.11952904,0.588585286 0.588585286,2.11952904 -0.45467615,4.07025832 C-1.41548743,5.86681923 -2,7.62820119 -2,12.5630375 L-2,41.4369625 C-2,46.3717988 -1.41548743,48.1331808 -0.45467615,49.9297417 C0.588585286,51.880471 2.11952904,53.4114147 4.07025832,54.4546762 C5.86681923,55.4154874 7.62820119,56 12.5630375,56 L57.4369625,56 C62.3717988,56 64.1331808,55.4154874 65.9297417,54.4546762 C67.880471,53.4114147 69.4114147,51.880471 70.4546762,49.9297417 C71.4154874,48.1331808 72,46.3717988 72,41.4369625 L72,12.5630375 C72,7.62820119 71.4154874,5.86681923 70.4546762,4.07025832 C69.4114147,2.11952904 67.880471,0.588585286 65.9297417,-0.45467615 C64.1331808,-1.41548743 62.3717988,-2 57.4369625,-2 Z"
                  id="Rectangle-3" stroke="#FFFFFF" stroke-width="4" fill="#FF4B4B"/>
            <polygon id="Rectangle-4" fill="#FFC800" points="0 15.4285714 70 15.4285714 70 38.5714286 0 38.5714286"/>
            <path d="M27.2222222,21.2142857 C28.2961092,21.2142857 29.1666667,22.0848431 29.1666667,23.1587302 L29.1666667,30.8412698 C29.1666667,31.9151569 28.2961092,32.7857143 27.2222222,32.7857143 C26.1483352,32.7857143 25.2777778,31.9151569 25.2777778,30.8412698 L25.2777778,23.1587302 C25.2777778,22.0848431 26.1483352,21.2142857 27.2222222,21.2142857 Z"
                  id="Rectangle-14" fill="#FFFFFF"/>
            <path d="M7.77777778,21.2142857 C8.85166479,21.2142857 9.72222222,22.0848431 9.72222222,23.1587302 L9.72222222,30.8412698 C9.72222222,31.9151569 8.85166479,32.7857143 7.77777778,32.7857143 C6.70389076,32.7857143 5.83333333,31.9151569 5.83333333,30.8412698 L5.83333333,23.1587302 C5.83333333,22.0848431 6.70389076,21.2142857 7.77777778,21.2142857 Z"
                  id="Rectangle-14-Copy" fill="#FFFFFF"/>
            <path d="M13.4166667,19.2857143 L21.5833333,19.2857143 C22.5498316,19.2857143 23.3333333,20.069216 23.3333333,21.0357143 L23.3333333,28.8809524 C23.3333333,32.1026134 20.721661,34.7142857 17.5,34.7142857 C14.278339,34.7142857 11.6666667,32.1026134 11.6666667,28.8809524 L11.6666667,21.0357143 C11.6666667,20.069216 12.4501684,19.2857143 13.4166667,19.2857143 Z"
                  id="Rectangle-15" fill="#FF4B4B"/>
        </g>
    </g>
</svg>