<svg xmlns="http://www.w3.org/2000/svg" x="0" y="2838" width="82px"
     height="66px" viewBox="0 0 82 66" version="1.1">
    <title>fi</title>
    <g id="fi" stroke="none" stroke-width="1" fill="none" fill-rule="evenodd">
        <g id="Group" transform="translate(6.000000, 6.000000)">
            <path d="M57.4369625,-2 L12.5630375,-2 C7.62820119,-2 5.86681923,-1.41548743 4.07025832,-0.45467615 C2.11952904,0.588585286 0.588585286,2.11952904 -0.45467615,4.07025832 C-1.41548743,5.86681923 -2,7.62820119 -2,12.5630375 L-2,41.4369625 C-2,46.3717988 -1.41548743,48.1331808 -0.45467615,49.9297417 C0.588585286,51.880471 2.11952904,53.4114147 4.07025832,54.4546762 C5.86681923,55.4154874 7.62820119,56 12.5630375,56 L57.4369625,56 C62.3717988,56 64.1331808,55.4154874 65.9297417,54.4546762 C67.880471,53.4114147 69.4114147,51.880471 70.4546762,49.9297417 C71.4154874,48.1331808 72,46.3717988 72,41.4369625 L72,12.5630375 C72,7.62820119 71.4154874,5.86681923 70.4546762,4.07025832 C69.4114147,2.11952904 67.880471,0.588585286 65.9297417,-0.45467615 C64.1331808,-1.41548743 62.3717988,-2 57.4369625,-2 Z"
                  id="Rectangle-3" stroke="#FFFFFF" stroke-width="4" fill="#EEEEEE" fill-rule="nonzero"/>
            <polygon id="Path" fill="#1899D6"
                     points="31 21 70 21 70 33 31 33 31 54 19 54 19 33 0 33 0 21 19 21 19 0 31 0"/>
        </g>
    </g>
</svg>