<?xml version="1.0" encoding="UTF-8"?>
<svg version="1.1" xmlns="http://www.w3.org/2000/svg" width="78" height="60">
<path d="M0 0 C25.74 0 51.48 0 78 0 C78 19.8 78 39.6 78 60 C52.26 60 26.52 60 0 60 C0 40.2 0 20.4 0 0 Z " fill="#1657AA" transform="translate(0,0)"/>
<path d="M0 0 C25.74 0 51.48 0 78 0 C78 19.8 78 39.6 78 60 C52.26 60 26.52 60 0 60 C0 40.2 0 20.4 0 0 Z M6 6 C3.98400975 9.02398538 3.74608245 9.63160502 3.70947266 13.02490234 C3.69671295 13.82938812 3.68395325 14.6338739 3.67080688 15.46273804 C3.66858124 16.32839386 3.66635559 17.19404968 3.6640625 18.0859375 C3.6574057 18.97987213 3.6507489 19.87380676 3.64389038 20.79483032 C3.63376531 22.68611595 3.62907332 24.5774373 3.62939453 26.46875 C3.62502665 29.35737266 3.58872105 32.24446076 3.55078125 35.1328125 C3.54491194 36.97134895 3.54094331 38.80989265 3.5390625 40.6484375 C3.52469147 41.51004486 3.51032043 42.37165222 3.49551392 43.2593689 C3.52623589 47.30747967 3.6590428 49.45199109 5.84130859 52.95947266 C9.38115659 56.30555381 11.42027052 57.25108191 16.20239258 57.2746582 C17.26392044 57.28419022 18.3254483 57.29372223 19.41914368 57.30354309 C20.56602158 57.30263168 21.71289948 57.30172028 22.89453125 57.30078125 C24.07464279 57.30506638 25.25475433 57.3093515 26.47062683 57.31376648 C28.96975055 57.3195143 31.468891 57.32000674 33.96801758 57.31567383 C37.78691313 57.31252112 41.60502881 57.3359434 45.42382812 57.36132812 C47.85156152 57.36360182 50.279297 57.36430429 52.70703125 57.36328125 C54.41823906 57.37709587 54.41823906 57.37709587 56.16401672 57.39118958 C64.06533168 57.43653923 64.06533168 57.43653923 71 54 C74.31339871 49.2525483 74.46731097 44.89537974 74.46875 39.3125 C74.47636353 38.49177002 74.48397705 37.67104004 74.49182129 36.82543945 C74.50258276 35.09752431 74.50549153 33.36954432 74.50097656 31.64160156 C74.50000272 29.00735682 74.5416963 26.37601347 74.5859375 23.7421875 C74.59114421 22.0572977 74.5938327 20.37239784 74.59375 18.6875 C74.61014526 17.90608643 74.62654053 17.12467285 74.64343262 16.31958008 C74.5922608 12.24488561 74.19280397 9.73919457 71.58789062 6.51953125 C68.04911412 3.07423186 66.51857656 2.87251958 61.71166992 2.83886719 C60.60679733 2.82925964 59.50192474 2.8196521 58.36357117 2.80975342 C57.16464737 2.80550354 55.96572357 2.80125366 54.73046875 2.796875 C52.88803337 2.78832489 52.88803337 2.78832489 51.00837708 2.77960205 C48.40492619 2.7701413 45.80146328 2.76361382 43.19799805 2.75976562 C39.21451852 2.75321205 35.23140564 2.71905331 31.24804688 2.6875 C28.72135724 2.68096961 26.1946639 2.67571928 23.66796875 2.671875 C22.47511765 2.6595282 21.28226654 2.6471814 20.05326843 2.63446045 C18.38177483 2.6389621 18.38177483 2.6389621 16.67651367 2.64355469 C15.69881516 2.63990906 14.72111664 2.63626343 13.71379089 2.63250732 C10.4712304 3.07160425 8.6268522 4.07318385 6 6 Z " fill="#FDFDFE" transform="translate(0,0)"/>
<path d="M0 0 C5.86891318 3.23307836 11.43603199 6.80116596 16.9375 10.625 C17.81212891 11.19089844 18.68675781 11.75679687 19.58789062 12.33984375 C25.71896087 16.65695956 25.71896087 16.65695956 26.56298828 20.69042969 C26.56607724 23.19425231 26.40779243 25.53199644 26 28 C22.1538378 26.15003985 18.73341411 23.82487366 15.25 21.375 C14.64800781 20.95476563 14.04601562 20.53453125 13.42578125 20.1015625 C11.94886957 19.07006863 10.47420806 18.03535421 9 17 C9 20.96 9 24.92 9 29 C2.50601008 29.36758434 2.50601008 29.36758434 0.30078125 27.765625 C-1.75908791 24.96964643 -1.52541566 22.53782578 -1.4375 19.1640625 C-1 17 -1 17 1.5 14.4375 C2.325 13.963125 3.15 13.48875 4 13 C3.34515625 12.61199219 2.6903125 12.22398438 2.015625 11.82421875 C0 10 0 10 -0.390625 7.51953125 C-0.34421875 6.62621094 -0.2978125 5.73289062 -0.25 4.8125 C-0.21390625 3.91144531 -0.1778125 3.01039062 -0.140625 2.08203125 C-0.09421875 1.39496094 -0.0478125 0.70789062 0 0 Z " fill="#E2E6EA" transform="translate(26,10)"/>
<path d="M0 0 C6.875 3.875 6.875 3.875 8 5 C8.30867281 8.47256915 8.38701339 10.3872288 6.5 13.375 C6.005 13.91125 5.51 14.4475 5 15 C2.03415333 13.62299976 -0.67664502 12.32335498 -3 10 C-3.52979878 6.4427796 -3.43204232 4.68406701 -1.5 1.625 C-1.005 1.08875 -0.51 0.5525 0 0 Z " fill="#E5E7EB" transform="translate(45,8)"/>
<path d="M0 0 C3.96 0 7.92 0 12 0 C12 1.32 12 2.64 12 4 C10.68 4 9.36 4 8 4 C7.67 5.65 7.34 7.3 7 9 C6.01 8.67 5.02 8.34 4 8 C4 6.68 4 5.36 4 4 C2.68 4 1.36 4 0 4 C0 2.68 0 1.36 0 0 Z " fill="#E4E7EB" transform="translate(34,44)"/>
<path d="M0 0 C0.33 0 0.66 0 1 0 C1 2.97 1 5.94 1 9 C-1.31 9 -3.62 9 -6 9 C-4.73046875 7.53515625 -3.4609375 6.0703125 -2.19140625 4.60546875 C-0.79128769 2.89287029 -0.79128769 2.89287029 0 0 Z " fill="#000000" transform="translate(77,51)"/>
<path d="M0 0 C0.598125 0.763125 1.19625 1.52625 1.8125 2.3125 C3.46959332 4.3483575 5.10297674 6.1978279 7 8 C4.69 8 2.38 8 0 8 C0 5.36 0 2.72 0 0 Z " fill="#000000" transform="translate(0,52)"/>
<path d="M0 0 C2.31 0 4.62 0 7 0 C7 2.97 7 5.94 7 9 C6.34 8.01 5.68 7.02 5 6 C4.13824802 4.92672708 3.2630396 3.86412584 2.375 2.8125 C1.59125 1.884375 0.8075 0.95625 0 0 Z " fill="#000000" transform="translate(71,0)"/>
<path d="M0 0 C1.98 0 3.96 0 6 0 C5.19152271 1.16945792 4.37810888 2.33550461 3.5625 3.5 C3.11003906 4.1496875 2.65757812 4.799375 2.19140625 5.46875 C1.79824219 5.9740625 1.40507812 6.479375 1 7 C0.67 7 0.34 7 0 7 C0 4.69 0 2.38 0 0 Z " fill="#000000" transform="translate(0,0)"/>
</svg>
