<svg xmlns="http://www.w3.org/2000/svg" x="0" y="3102" width="82" height="66" viewBox="0 0 82 66" fill="none">
    <path d="M63.437 4H18.563C13.6282 4 11.8668 4.58451 10.0703 5.54532C8.11953 6.58859 6.58859 8.11953 5.54532 10.0703C4.58451 11.8668 4 13.6282 4 18.563V47.437C4 52.3718 4.58451 54.1332 5.54532 55.9297C6.58859 57.8805 8.11953 59.4114 10.0703 60.4547C11.8668 61.4155 13.6282 62 18.563 62H63.437C68.3718 62 70.1332 61.4155 71.9297 60.4547C73.8805 59.4114 75.4114 57.8805 76.4547 55.9297C77.4155 54.1332 78 52.3718 78 47.437V18.563C78 13.6282 77.4155 11.8668 76.4547 10.0703C75.4114 8.11953 73.8805 6.58859 71.9297 5.54532C70.1332 4.58451 68.3718 4 63.437 4Z"
          stroke="white" stroke-width="4"/>
    <path d="M6 21.68C6 16.1915 6 13.4472 7.06814 11.3509C8.00769 9.5069 9.5069 8.00769 11.3509 7.06814C13.4472 6 16.1915 6 21.68 6H60.32C65.8085 6 68.5528 6 70.6491 7.06814C72.4931 8.00769 73.9923 9.5069 74.9319 11.3509C76 13.4472 76 16.1915 76 21.68V44.32C76 49.8085 76 52.5528 74.9319 54.6491C73.9923 56.4931 72.4931 57.9923 70.6491 58.9319C68.5528 60 65.8085 60 60.32 60H21.68C16.1915 60 13.4472 60 11.3509 58.9319C9.5069 57.9923 8.00769 56.4931 7.06814 54.6491C6 52.5528 6 49.8085 6 44.32V21.68Z"
          fill="#FF4B4B"/>
    <path d="M76 33V44.32C76 49.8085 76 52.5528 74.9318 54.6491C73.9923 56.4931 72.4931 57.9923 70.6491 58.9319C68.5527 60 65.8085 60 60.32 60H21.68C16.1915 60 13.4472 60 11.3509 58.9319C9.50687 57.9923 8.00766 56.4931 7.06811 54.6491C5.99997 52.5528 5.99997 49.8085 5.99997 44.32V33H76Z"
          fill="#1CB0F6"/>
    <path fill-rule="evenodd" clip-rule="evenodd"
          d="M6.17578 14.7839C5.99997 16.4884 5.99997 18.6721 5.99997 21.68V44.32C5.99997 47.3279 5.99997 49.5116 6.17578 51.2161C6.38114 52.9528 6.76368 53.967 7.30892 54.9865C7.82175 55.9455 8.47853 56.7805 9.26721 57.4796L41 33L9.26721 8.52045C8.47853 9.21953 7.82175 10.0545 7.30892 11.0135C6.76368 12.033 6.38115 13.0472 6.17578 14.7839Z"
          fill="#4B4B4B"/>
    <path d="M76 22.8823V43.1177H32.4463V22.8823H76Z" fill="#EEEEEE"/>
    <path d="M10.0013 7.89971C10.426 7.58801 10.877 7.30962 11.3509 7.06819C13.3614 6.04378 15.9679 6.00184 21.0195 6.00012C21.023 6.00039 21.0265 6.00065 21.03 6.00092L44.579 23.6435L34.2919 37.3745L7.85447 17.568C7.59953 13.9987 7.60088 11.9254 8.31808 10.3187C8.72913 9.39782 9.29951 8.58215 10.0013 7.89971Z"
          fill="#EEEEEE"/>
    <path d="M6.13954 50.8292C6.03003 49.5379 6.00645 47.9801 6.00137 46.0235L26.4329 30.7062L28.7891 33.8491L6.13954 50.8292Z"
          fill="#FFD900"/>
    <path fill-rule="evenodd" clip-rule="evenodd"
          d="M6.00177 19.8528C6.00771 17.8955 6.03395 16.3413 6.14976 15.0544L30.3351 33.186L27.9789 36.3289L6.00177 19.8528Z"
          fill="#FFD900"/>
    <path d="M14.6499 59.8099C16.2239 59.9835 18.2106 59.9986 20.8943 59.9999L43.8228 42.8106L41.4666 39.6677L14.6058 59.805C14.6205 59.8067 14.6352 59.8083 14.6499 59.8099Z"
          fill="#EEEEEE"/>
    <path d="M76 26.7871V39.0922H32.4463V26.7871H76Z" fill="#47A600"/>
    <path fill-rule="evenodd" clip-rule="evenodd"
          d="M7.06819 11.3509C6.55225 12.3635 6.28553 13.5272 6.14764 15.0784L34.8731 36.5991L42.2241 26.7871L14.7213 6.18237C13.3461 6.32874 12.2843 6.59257 11.3509 7.06813C9.50696 8.00769 8.00775 9.5069 7.06819 11.3509Z"
          fill="#47A600"/>
    <path fill-rule="evenodd" clip-rule="evenodd"
          d="M14.5832 59.8024C13.2745 59.6532 12.2527 59.3914 11.3509 58.9318C9.50689 57.9923 8.00768 56.4931 7.06812 54.6491C6.5399 53.6124 6.2729 52.4173 6.13794 50.8101L34.8731 29.2822L42.2241 39.0942L14.5832 59.8024Z"
          fill="#47A600"/>
</svg>