<?xml version="1.0" encoding="UTF-8"?>
<!DOCTYPE svg PUBLIC "-//W3C//DTD SVG 1.1//EN" "http://www.w3.org/Graphics/SVG/1.1/DTD/svg11.dtd">
<svg xmlns="http://www.w3.org/2000/svg" version="1.1" width="78px" height="62px" style="shape-rendering:geometricPrecision; text-rendering:geometricPrecision; image-rendering:optimizeQuality; fill-rule:evenodd; clip-rule:evenodd" xmlns:xlink="http://www.w3.org/1999/xlink">
<g><path style="opacity:0.949" fill="#fefefe" d="M 7.5,-0.5 C 28.1667,-0.5 48.8333,-0.5 69.5,-0.5C 72.5,1.83333 75.1667,4.5 77.5,7.5C 77.5,22.8333 77.5,38.1667 77.5,53.5C 75.0967,56.907 72.0967,59.5737 68.5,61.5C 48.5,61.5 28.5,61.5 8.5,61.5C 4.90326,59.5737 1.90326,56.907 -0.5,53.5C -0.5,38.1667 -0.5,22.8333 -0.5,7.5C 1.83333,4.5 4.5,1.83333 7.5,-0.5 Z"/></g>
<g><path style="opacity:1" fill="#25b1f5" d="M 17.5,3.5 C 17.5,7.5 17.5,11.5 17.5,15.5C 12.8333,15.5 8.16667,15.5 3.5,15.5C 3.65111,6.40524 8.31778,2.40524 17.5,3.5 Z"/></g>
<g><path style="opacity:1" fill="#edeeed" d="M 17.5,3.5 C 19.5,3.5 21.5,3.5 23.5,3.5C 23.5,7.5 23.5,11.5 23.5,15.5C 28.5,15.5 33.5,15.5 38.5,15.5C 38.5,17.5 38.5,19.5 38.5,21.5C 33.5,21.5 28.5,21.5 23.5,21.5C 23.5,25.5 23.5,29.5 23.5,33.5C 40.1667,33.5 56.8333,33.5 73.5,33.5C 73.5,35.5 73.5,37.5 73.5,39.5C 50.1667,39.5 26.8333,39.5 3.5,39.5C 3.5,37.5 3.5,35.5 3.5,33.5C 8.16667,33.5 12.8333,33.5 17.5,33.5C 17.5,29.5 17.5,25.5 17.5,21.5C 12.8333,21.5 8.16667,21.5 3.5,21.5C 3.5,19.5 3.5,17.5 3.5,15.5C 8.16667,15.5 12.8333,15.5 17.5,15.5C 17.5,11.5 17.5,7.5 17.5,3.5 Z"/></g>
<g><path style="opacity:1" fill="#1db0f5" d="M 23.5,3.5 C 37.8372,3.33342 52.1705,3.50009 66.5,4C 69.6072,4.70588 71.6072,6.53922 72.5,9.5C 61.1667,9.5 49.8333,9.5 38.5,9.5C 38.5,11.5 38.5,13.5 38.5,15.5C 33.5,15.5 28.5,15.5 23.5,15.5C 23.5,11.5 23.5,7.5 23.5,3.5 Z"/></g>
<g><path style="opacity:1" fill="#eeeeee" d="M 72.5,9.5 C 73.3414,11.3792 73.6747,13.3792 73.5,15.5C 61.8333,15.5 50.1667,15.5 38.5,15.5C 38.5,13.5 38.5,11.5 38.5,9.5C 49.8333,9.5 61.1667,9.5 72.5,9.5 Z"/></g>
<g><path style="opacity:1" fill="#1cb0f6" d="M 38.5,15.5 C 50.1667,15.5 61.8333,15.5 73.5,15.5C 73.5,17.5 73.5,19.5 73.5,21.5C 61.8333,21.5 50.1667,21.5 38.5,21.5C 38.5,19.5 38.5,17.5 38.5,15.5 Z"/></g>
<g><path style="opacity:1" fill="#1cb0f6" d="M 3.5,21.5 C 8.16667,21.5 12.8333,21.5 17.5,21.5C 17.5,25.5 17.5,29.5 17.5,33.5C 12.8333,33.5 8.16667,33.5 3.5,33.5C 3.5,29.5 3.5,25.5 3.5,21.5 Z"/></g>
<g><path style="opacity:1" fill="#1cb0f6" d="M 38.5,21.5 C 38.5,23.5 38.5,25.5 38.5,27.5C 50.1667,27.5 61.8333,27.5 73.5,27.5C 73.5,29.5 73.5,31.5 73.5,33.5C 56.8333,33.5 40.1667,33.5 23.5,33.5C 23.5,29.5 23.5,25.5 23.5,21.5C 28.5,21.5 33.5,21.5 38.5,21.5 Z"/></g>
<g><path style="opacity:1" fill="#edeeed" d="M 38.5,21.5 C 50.1667,21.5 61.8333,21.5 73.5,21.5C 73.5,23.5 73.5,25.5 73.5,27.5C 61.8333,27.5 50.1667,27.5 38.5,27.5C 38.5,25.5 38.5,23.5 38.5,21.5 Z"/></g>
<g><path style="opacity:1" fill="#1cb0f6" d="M 3.5,39.5 C 26.8333,39.5 50.1667,39.5 73.5,39.5C 73.5,41.5 73.5,43.5 73.5,45.5C 50.1667,45.5 26.8333,45.5 3.5,45.5C 3.5,43.5 3.5,41.5 3.5,39.5 Z"/></g>
<g><path style="opacity:1" fill="#eeeeee" d="M 3.5,45.5 C 26.8333,45.5 50.1667,45.5 73.5,45.5C 73.6747,47.6208 73.3414,49.6208 72.5,51.5C 49.8333,51.5 27.1667,51.5 4.5,51.5C 3.85048,49.5648 3.51715,47.5648 3.5,45.5 Z"/></g>
<g><path style="opacity:1" fill="#20b0f5" d="M 4.5,51.5 C 27.1667,51.5 49.8333,51.5 72.5,51.5C 71.6072,54.4608 69.6072,56.2941 66.5,57C 47.5,57.6667 28.5,57.6667 9.5,57C 6.94415,55.9455 5.27748,54.1122 4.5,51.5 Z"/></g>
</svg>
