<?xml version="1.0" encoding="UTF-8"?>
<!DOCTYPE svg PUBLIC "-//W3C//DTD SVG 1.1//EN" "http://www.w3.org/Graphics/SVG/1.1/DTD/svg11.dtd">
<svg xmlns="http://www.w3.org/2000/svg" version="1.1" width="78px" height="62px" style="shape-rendering:geometricPrecision; text-rendering:geometricPrecision; image-rendering:optimizeQuality; fill-rule:evenodd; clip-rule:evenodd" xmlns:xlink="http://www.w3.org/1999/xlink">
<g><path style="opacity:0.95" fill="#fefefe" d="M 7.5,-0.5 C 28.1667,-0.5 48.8333,-0.5 69.5,-0.5C 72.5,1.83333 75.1667,4.5 77.5,7.5C 77.5,22.8333 77.5,38.1667 77.5,53.5C 75.0967,56.907 72.0967,59.5737 68.5,61.5C 48.5,61.5 28.5,61.5 8.5,61.5C 4.90326,59.5737 1.90326,56.907 -0.5,53.5C -0.5,38.1667 -0.5,22.8333 -0.5,7.5C 1.83333,4.5 4.5,1.83333 7.5,-0.5 Z"/></g>
<g><path style="opacity:1" fill="#eeeeee" d="M 73.5,30.5 C 50.1667,30.5 26.8333,30.5 3.5,30.5C 3.33379,24.1579 3.50046,17.8246 4,11.5C 4.5,7 7,4.5 11.5,4C 29.5,3.33333 47.5,3.33333 65.5,4C 69.5271,4.42696 72.0271,6.59363 73,10.5C 73.4996,17.1583 73.6663,23.825 73.5,30.5 Z"/></g>
<g><path style="opacity:1" fill="#fe4b4b" d="M 3.5,30.5 C 26.8333,30.5 50.1667,30.5 73.5,30.5C 73.6663,37.175 73.4996,43.8417 73,50.5C 72.1667,54 70,56.1667 66.5,57C 47.5,57.6667 28.5,57.6667 9.5,57C 6.33738,55.5202 4.50405,53.0202 4,49.5C 3.50046,43.1754 3.33379,36.8421 3.5,30.5 Z"/></g>
</svg>
