<?xml version="1.0" encoding="UTF-8"?>
<svg version="1.1" xmlns="http://www.w3.org/2000/svg" width="78" height="62">
<path d="M0 0 C1.82781258 -0.02893593 1.82781258 -0.02893593 3.69255066 -0.05845642 C5.02980486 -0.07326617 6.36707089 -0.08703919 7.7043457 -0.09985352 C8.7145172 -0.10971126 8.7145172 -0.10971126 9.74509621 -0.11976814 C13.31279016 -0.1523671 16.88045428 -0.17681151 20.44824219 -0.19628906 C23.39432567 -0.21407128 26.3394463 -0.24883705 29.28515625 -0.29882812 C32.84726452 -0.35920585 36.40848329 -0.38978857 39.97107887 -0.39946175 C41.98026428 -0.41212299 43.98919595 -0.45413538 45.99797058 -0.49668884 C56.20468862 -0.47374585 56.20468862 -0.47374585 60.51611328 3.12255859 C63.48897943 6.19970701 64.31597179 8.28942908 64.40136719 12.54736328 C64.42065781 13.44557297 64.43994843 14.34378265 64.45982361 15.26921082 C64.51761048 19.38890582 64.56686594 23.50842544 64.59765625 27.62841797 C64.61921605 29.79817643 64.65329468 31.96784839 64.70019531 34.13720703 C64.76729751 37.26951854 64.79467473 40.40002942 64.8137207 43.53295898 C64.84155136 44.49674973 64.86938202 45.46054047 64.89805603 46.45353699 C64.88000836 52.39875518 63.91086917 55.61810229 59.77626038 59.95515442 C56.55780092 62.50284953 53.35587621 62.34415865 49.42358398 62.36987305 C48.23870392 62.37948059 47.05382385 62.38908813 45.83303833 62.39898682 C44.5517807 62.40323669 43.27052307 62.40748657 41.95043945 62.41186523 C40.63477997 62.41756531 39.31912048 62.42326538 37.96359253 62.42913818 C35.17779149 62.43963742 32.39201921 62.44548715 29.60620117 62.44897461 C26.04294437 62.45445779 22.48006999 62.47848606 18.91693306 62.50694656 C15.51144254 62.53009067 12.10600455 62.53202361 8.70043945 62.53686523 C6.7846257 62.55538544 6.7846257 62.55538544 4.83010864 62.57427979 C3.63892426 62.57127869 2.44773987 62.56827759 1.22045898 62.56518555 C0.1747171 62.56883118 -0.87102478 62.57247681 -1.94845581 62.57623291 C-6.2813328 62.0192736 -8.88884137 60.03382181 -12.08227539 57.1652832 C-14.62434415 52.80858173 -14.41837472 48.86712923 -14.40893555 43.90405273 C-14.4175058 42.90671112 -14.42607605 41.90936951 -14.43490601 40.88180542 C-14.44637322 38.77548249 -14.44740729 36.66908037 -14.4387207 34.56274414 C-14.4324068 31.35090976 -14.47930518 28.14277449 -14.5300293 24.93139648 C-14.53457647 22.88061986 -14.53598172 20.82983338 -14.53393555 18.77905273 C-14.55235504 17.82467316 -14.57077454 16.87029358 -14.5897522 15.88699341 C-14.50784989 9.94176019 -13.46321483 6.76304102 -9.28964233 2.46603394 C-6.26384888 -0.10051121 -3.88175782 0.05728318 0 0 Z " fill="#FECD8E" transform="translate(13.807373046875,-0.208740234375)"/>
<path d="M0 0 C1.82781258 -0.02893593 1.82781258 -0.02893593 3.69255066 -0.05845642 C5.02980486 -0.07326617 6.36707089 -0.08703919 7.7043457 -0.09985352 C8.7145172 -0.10971126 8.7145172 -0.10971126 9.74509621 -0.11976814 C13.31279016 -0.1523671 16.88045428 -0.17681151 20.44824219 -0.19628906 C23.39432567 -0.21407128 26.3394463 -0.24883705 29.28515625 -0.29882812 C32.84726452 -0.35920585 36.40848329 -0.38978857 39.97107887 -0.39946175 C41.98026428 -0.41212299 43.98919595 -0.45413538 45.99797058 -0.49668884 C56.20468862 -0.47374585 56.20468862 -0.47374585 60.51611328 3.12255859 C63.48897943 6.19970701 64.31597179 8.28942908 64.40136719 12.54736328 C64.42065781 13.44557297 64.43994843 14.34378265 64.45982361 15.26921082 C64.51761048 19.38890582 64.56686594 23.50842544 64.59765625 27.62841797 C64.61921605 29.79817643 64.65329468 31.96784839 64.70019531 34.13720703 C64.76729751 37.26951854 64.79467473 40.40002942 64.8137207 43.53295898 C64.84155136 44.49674973 64.86938202 45.46054047 64.89805603 46.45353699 C64.88000836 52.39875518 63.91086917 55.61810229 59.77626038 59.95515442 C56.55780092 62.50284953 53.35587621 62.34415865 49.42358398 62.36987305 C48.23870392 62.37948059 47.05382385 62.38908813 45.83303833 62.39898682 C44.5517807 62.40323669 43.27052307 62.40748657 41.95043945 62.41186523 C40.63477997 62.41756531 39.31912048 62.42326538 37.96359253 62.42913818 C35.17779149 62.43963742 32.39201921 62.44548715 29.60620117 62.44897461 C26.04294437 62.45445779 22.48006999 62.47848606 18.91693306 62.50694656 C15.51144254 62.53009067 12.10600455 62.53202361 8.70043945 62.53686523 C6.7846257 62.55538544 6.7846257 62.55538544 4.83010864 62.57427979 C3.63892426 62.57127869 2.44773987 62.56827759 1.22045898 62.56518555 C0.1747171 62.56883118 -0.87102478 62.57247681 -1.94845581 62.57623291 C-6.2813328 62.0192736 -8.88884137 60.03382181 -12.08227539 57.1652832 C-14.62434415 52.80858173 -14.41837472 48.86712923 -14.40893555 43.90405273 C-14.4175058 42.90671112 -14.42607605 41.90936951 -14.43490601 40.88180542 C-14.44637322 38.77548249 -14.44740729 36.66908037 -14.4387207 34.56274414 C-14.4324068 31.35090976 -14.47930518 28.14277449 -14.5300293 24.93139648 C-14.53457647 22.88061986 -14.53598172 20.82983338 -14.53393555 18.77905273 C-14.55235504 17.82467316 -14.57077454 16.87029358 -14.5897522 15.88699341 C-14.50784989 9.94176019 -13.46321483 6.76304102 -9.28964233 2.46603394 C-6.26384888 -0.10051121 -3.88175782 0.05728318 0 0 Z M-7.05029297 6.67895508 C-7.63012939 7.51378418 -8.20996582 8.34861328 -8.80737305 9.20874023 C-9.13737305 9.53874023 -9.46737305 9.86874023 -9.80737305 10.20874023 C-9.933438 13.1800529 -9.99607647 16.12681195 -10.01049805 19.09936523 C-10.01619812 19.99612976 -10.02189819 20.89289429 -10.027771 21.8168335 C-10.03723824 23.72008071 -10.04376179 25.62334445 -10.04760742 27.52661133 C-10.05728621 30.43266708 -10.08828193 33.33800773 -10.11987305 36.24389648 C-10.12640553 38.09154853 -10.13165504 39.93920564 -10.13549805 41.78686523 C-10.14784485 42.6547467 -10.16019165 43.52262817 -10.1729126 44.41680908 C-10.15547532 49.16525021 -9.9401322 52.38225937 -6.80737305 56.20874023 C-3.43097263 58.45967385 -2.26881838 58.46500759 1.6862793 58.48339844 C2.81109711 58.49293045 3.93591492 58.50246246 5.09481812 58.51228333 C6.91827255 58.51091621 6.91827255 58.51091621 8.77856445 58.50952148 C10.0276358 58.51380661 11.27670715 58.51809174 12.56362915 58.52250671 C15.20833356 58.52825513 17.85264838 58.52967987 20.49731445 58.52441406 C23.87901459 58.51862678 27.26016571 58.5355326 30.64177513 58.55875874 C33.87486731 58.57707639 37.10792974 58.57330986 40.34106445 58.57202148 C41.55265228 58.58123123 42.76424011 58.59044098 44.01254272 58.59992981 C45.14366486 58.59370102 46.27478699 58.58747223 47.44018555 58.58105469 C48.43263275 58.58168411 49.42507996 58.58231354 50.44760132 58.58296204 C53.73260067 58.1351271 55.56266182 57.21328489 58.19262695 55.20874023 C60.01649751 52.48869619 60.45007646 50.3107968 60.49902344 47.0703125 C60.51501083 46.26590225 60.53099823 45.461492 60.54747009 44.63270569 C60.55551414 43.34196388 60.55551414 43.34196388 60.5637207 42.02514648 C60.57274918 41.1326268 60.58177765 40.24010712 60.59107971 39.32054138 C60.60556924 37.43524524 60.61446572 35.54989897 60.61816406 33.66455078 C60.63007197 30.78453819 60.67927816 27.90666094 60.72973633 25.02709961 C60.73919976 23.19312567 60.74643518 21.3591386 60.7512207 19.52514648 C60.77075302 18.66667618 60.79028534 17.80820587 60.81040955 16.92372131 C60.77708108 12.49528786 60.63701174 10.76558305 57.78271484 7.18896484 C54.1270573 4.3940701 52.35698494 4.07472054 47.8125 4.01586914 C46.68760666 3.99980621 45.56271332 3.98374329 44.4037323 3.9671936 C39.25696605 3.92282548 34.11028895 3.88123921 28.96337891 3.85864258 C26.24623917 3.84530812 23.52985135 3.81746641 20.81298828 3.77661133 C16.90179465 3.71779855 12.99096644 3.6999806 9.0793457 3.68530273 C7.86462082 3.66263336 6.64989594 3.63996399 5.39836121 3.61660767 C-1.4255903 3.39254173 -1.4255903 3.39254173 -7.05029297 6.67895508 Z " fill="#FFFEFE" transform="translate(13.807373046875,-0.208740234375)"/>
<path d="M0 0 C2.86724686 0.57344937 3.8614515 0.8614515 6 3 C6.1953125 5.3828125 6.1953125 5.3828125 6.125 8.125 C6.10695313 9.03507812 6.08890625 9.94515625 6.0703125 10.8828125 C6.04710938 11.58148438 6.02390625 12.28015625 6 13 C4.35 13.33 2.7 13.66 1 14 C1.37125 14.5775 1.7425 15.155 2.125 15.75 C3 18 3 18 2.125 20.25 C1.75375 20.8275 1.3825 21.405 1 22 C2.32 22 3.64 22 5 22 C5.33 22.66 5.66 23.32 6 24 C6.66 24 7.32 24 8 24 C8.33 23.34 8.66 22.68 9 22 C10.32 22 11.64 22 13 22 C12.649375 21.236875 12.29875 20.47375 11.9375 19.6875 C11 17 11 17 12 14 C10.68 13.67 9.36 13.34 8 13 C7.91878076 11.39667209 7.86070866 9.79215974 7.8125 8.1875 C7.76029297 6.84751953 7.76029297 6.84751953 7.70703125 5.48046875 C8 3 8 3 9.32421875 1.17578125 C11 0 11 0 14 0 C14.185625 0.61875 14.37125 1.2375 14.5625 1.875 C16.71437233 5.05602866 19.37533763 5.19451947 23 6 C22.90234375 8.01822917 22.8046875 10.03645833 22.70703125 12.0546875 C22.80371094 12.69664063 22.90039062 13.33859375 23 14 C23.99 14.66 24.98 15.32 26 16 C26 16.99 26 17.98 26 19 C25.01 19.66 24.02 20.32 23 21 C22.42006301 23.19454681 22.42006301 23.19454681 22.3125 25.625 C22.24675781 26.44226563 22.18101563 27.25953125 22.11328125 28.1015625 C22.07589844 28.72804688 22.03851563 29.35453125 22 30 C21.071875 30.061875 20.14375 30.12375 19.1875 30.1875 C15.8109337 30.68827104 15.8109337 30.68827104 14.125 33.5625 C13.75375 34.366875 13.3825 35.17125 13 36 C11.948125 35.62875 10.89625 35.2575 9.8125 34.875 C5.81367786 33.95723754 4.50871784 34.08615391 1 36 C0.443125 34.7934375 0.443125 34.7934375 -0.125 33.5625 C-1.8109337 30.68827104 -1.8109337 30.68827104 -5.1875 30.1875 C-6.5796875 30.0946875 -6.5796875 30.0946875 -8 30 C-8.03738281 29.37351562 -8.07476563 28.74703125 -8.11328125 28.1015625 C-8.17902344 27.28429687 -8.24476562 26.46703125 -8.3125 25.625 C-8.37050781 24.81289063 -8.42851562 24.00078125 -8.48828125 23.1640625 C-8.82990528 20.62078662 -8.82990528 20.62078662 -12 19 C-12 18.01 -12 17.02 -12 16 C-11.01 15.34 -10.02 14.68 -9 14 C-8.63702064 12.02252878 -8.63702064 12.02252878 -8.8125 9.875 C-8.874375 8.59625 -8.93625 7.3175 -9 6 C-7.88625 5.7525 -6.7725 5.505 -5.625 5.25 C-1.95384802 4.38994661 -1.95384802 4.38994661 -0.5625 1.875 C-0.376875 1.25625 -0.19125 0.6375 0 0 Z " fill="#635450" transform="translate(32,13)"/>
<path d="M0 0 C0.3125 2.1875 0.3125 2.1875 0 5 C-0.845625 5.78375 -1.69125 6.5675 -2.5625 7.375 C-5.3936074 9.83822454 -5.3936074 9.83822454 -5.0625 13.5625 C-3.91479011 17.27567907 -3.20907572 18.8317056 0 21 C3.61360931 21.60226822 5.26222457 21.49849691 8.3125 19.4375 C10.58571574 16.15396616 11.07003547 13.99202191 11 10 C8.60414714 7.35412766 8.60414714 7.35412766 6 5 C5.6875 2.1875 5.6875 2.1875 6 0 C9.7552497 0.85346584 11.69674341 1.68078254 14.375 4.5 C16.5341765 9.15053399 16.80392519 12.95495926 16 18 C14.22128603 21.76266417 12.66862969 23.51796464 9.3125 25.9375 C4.92156804 27.34591214 1.4347481 27.21096443 -3 26 C-6.57669992 23.79310005 -8.42095628 21.85065047 -10 18 C-10.56811094 13.46249055 -10.53359148 9.31993681 -8.8125 5.0625 C-6.37899623 2.29334054 -3.82312952 0 0 0 Z " fill="#F54B4B" transform="translate(36,18)"/>
<path d="M0 0 C0.33 0 0.66 0 1 0 C1.33 3.3 1.66 6.6 2 10 C2.99 10.33 3.98 10.66 5 11 C5.33 13.64 5.66 16.28 6 19 C4.68 19 3.36 19 2 19 C1.67 19.99 1.34 20.98 1 22 C0.01 21.67 -0.98 21.34 -2 21 C-2 20.34 -2 19.68 -2 19 C-3.32 19 -4.64 19 -6 19 C-5.814375 18.236875 -5.62875 17.47375 -5.4375 16.6875 C-4.77180827 13.91032625 -4.77180827 13.91032625 -6 11 C-4.68 10.67 -3.36 10.34 -2 10 C-1.34 6.7 -0.68 3.4 0 0 Z " fill="#F5C78A" transform="translate(39,16)"/>
<path d="M0 0 C7.76470588 -0.25882353 7.76470588 -0.25882353 12 2 C16.09451832 2.34937408 16.09451832 2.34937408 19.875 1 C23.21295502 -0.57080236 26.34001139 -0.12199962 30 0 C30 0.33 30 0.66 30 1 C28.6078125 1.0928125 28.6078125 1.0928125 27.1875 1.1875 C23.8109337 1.68827104 23.8109337 1.68827104 22.125 4.5625 C21.75375 5.366875 21.3825 6.17125 21 7 C19.948125 6.62875 18.89625 6.2575 17.8125 5.875 C13.81367786 4.95723754 12.50871784 5.08615391 9 7 C8.443125 5.7934375 8.443125 5.7934375 7.875 4.5625 C6.1890663 1.68827104 6.1890663 1.68827104 2.8125 1.1875 C1.4203125 1.0946875 1.4203125 1.0946875 0 1 C0 0.67 0 0.34 0 0 Z " fill="#675D54" transform="translate(24,42)"/>
<path d="M0 0 C0.03738281 0.72445313 0.07476563 1.44890625 0.11328125 2.1953125 C0.49860998 7.86191152 0.984536 12.14903618 4 17 C2.02 17 0.04 17 -2 17 C-2.16276042 14.98177083 -2.32552083 12.96354167 -2.48828125 10.9453125 C-2.87393036 8.60480784 -2.87393036 8.60480784 -6 7 C-6 6.01 -6 5.02 -6 4 C-1.54285714 0 -1.54285714 0 0 0 Z " fill="#5E514E" transform="translate(26,25)"/>
<path d="M0 0 C2 1 4 2 6 3 C6 3.99 6 4.98 6 6 C5.01 6.66 4.02 7.32 3 8 C2.42251197 9.96361864 2.42251197 9.96361864 2.3125 12.125 C2.1578125 14.043125 2.1578125 14.043125 2 16 C0.02 16 -1.96 16 -4 16 C-3.2884375 14.824375 -3.2884375 14.824375 -2.5625 13.625 C-0.60263251 9.07810742 -0.28089128 4.90106856 0 0 Z " fill="#5E514E" transform="translate(52,26)"/>
<path d="M0 0 C0.33 0.99 0.66 1.98 1 3 C3.50447516 4.21869929 3.50447516 4.21869929 6 5 C5.34 6.32 4.68 7.64 4 9 C4 8.34 4 7.68 4 7 C2.68 6.67 1.36 6.34 0 6 C0 4.02 0 2.04 0 0 Z " fill="#746658" transform="translate(40,20)"/>
<path d="M0 0 C1.875 0.25 1.875 0.25 4 1 C5.25 3.0625 5.25 3.0625 6 5 C4.02 5 2.04 5 0 5 C0 3.35 0 1.7 0 0 Z " fill="#4E4C4B" transform="translate(24,37)"/>
<path d="M0 0 C2.9375 0.75 2.9375 0.75 6 2 C6.875 4.125 6.875 4.125 7 6 C4.625 5.8125 4.625 5.8125 2 5 C0.6875 2.4375 0.6875 2.4375 0 0 Z " fill="#544C4B" transform="translate(31,33)"/>
<path d="M0 0 C0 1.65 0 3.3 0 5 C-1.98 5 -3.96 5 -6 5 C-3.74193548 0 -3.74193548 0 0 0 Z " fill="#4E4C4B" transform="translate(54,37)"/>
</svg>
