<svg xmlns="http://www.w3.org/2000/svg" x="0" y="462" width="82px"
     height="66px" viewBox="0 0 82 66" version="1.1">
    <title>zh</title>
    <g id="zh" stroke="none" stroke-width="1" fill="none" fill-rule="evenodd">
        <g id="Group-3" transform="translate(6.000000, 6.000000)">
            <path d="M57.4369627,-2 L12.5630373,-2 C7.62820107,-2 5.86681913,-1.41548744 4.07025825,-0.45467617 C2.11952899,0.588585254 0.588585254,2.11952899 -0.45467617,4.07025825 C-1.41548744,5.86681913 -2,7.62820107 -2,12.5630373 L-2,41.4369627 C-2,46.3717989 -1.41548744,48.1331809 -0.45467617,49.9297418 C0.588585254,51.880471 2.11952899,53.4114147 4.07025825,54.4546762 C5.86681913,55.4154874 7.62820107,56 12.5630373,56 L57.4369627,56 C62.3717989,56 64.1331809,55.4154874 65.9297418,54.4546762 C67.880471,53.4114147 69.4114147,51.880471 70.4546762,49.9297418 C71.4154874,48.1331809 72,46.3717989 72,41.4369627 L72,12.5630373 C72,7.62820107 71.4154874,5.86681913 70.4546762,4.07025825 C69.4114147,2.11952899 67.880471,0.588585254 65.9297418,-0.45467617 C64.1331809,-1.41548744 62.3717989,-2 57.4369627,-2 Z"
                  id="Rectangle-3" stroke="#FFFFFF" stroke-width="4" fill="#FF4B4B"/>
            <g id="Group-2" transform="translate(8.000000, 4.000000)" fill="#FFC300" fill-rule="nonzero">
                <g id="Group" transform="translate(14.000000, 0.000000)">
                    <path d="M4.42901802,7.17103596 L3.28100413,7.77458258 C2.92052728,7.96409647 2.47467169,7.82550362 2.2851578,7.46502677 C2.20969237,7.321483 2.18365113,7.15706504 2.21106555,6.9972267 L2.43031669,5.71889444 C2.45118092,5.59724667 2.41085024,5.47312159 2.32246795,5.38697016 L1.3937052,4.48165022 C1.10207331,4.19737938 1.09610599,3.73051797 1.38037683,3.43888608 C1.49357497,3.32275673 1.64189856,3.24718209 1.80238537,3.22386199 L3.08590393,3.03735582 C3.20804524,3.01960765 3.31363233,2.94289414 3.36825559,2.83221534 L3.94226254,1.66915022 C4.12250096,1.30394729 4.56466854,1.15400393 4.92987148,1.33424235 C5.0752972,1.40601424 5.19300747,1.5237245 5.26477935,1.66915022 L5.8387863,2.83221534 C5.89340956,2.94289414 5.99899665,3.01960765 6.12113796,3.03735582 L7.40465652,3.22386199 C7.80768188,3.282425 8.08692379,3.65661632 8.02836078,4.05964168 C8.00504068,4.2201285 7.92946604,4.36845209 7.81333669,4.48165022 L6.88457394,5.38697016 C6.79619165,5.47312159 6.75586097,5.59724667 6.7767252,5.71889444 L6.99597634,6.9972267 C7.0648213,7.39862357 6.7952347,7.77982988 6.39383783,7.84867483 C6.2339995,7.87608925 6.06958153,7.85004801 5.92603776,7.77458258 L4.77802387,7.17103596 C4.66877736,7.11360167 4.53826453,7.11360167 4.42901802,7.17103596 Z"
                          id="Star-Copy"
                          transform="translate(4.603569, 4.558684) rotate(19.000000) translate(-4.603569, -4.558684)"/>
                    <path d="M11.8254492,13.7725421 L10.6774353,14.3760888 C10.3169585,14.5656027 9.87110287,14.4270098 9.68158897,14.066533 C9.60612355,13.9229892 9.5800823,13.7585712 9.60749672,13.5987329 L9.82674787,12.3204006 C9.84761209,12.1987528 9.80728141,12.0746278 9.71889913,11.9884763 L8.79013638,11.0831564 C8.49850448,10.7988856 8.49253717,10.3320242 8.77680801,10.0403923 C8.89000615,9.92426291 9.03832974,9.84868827 9.19881655,9.82536817 L10.4823351,9.638862 C10.6044764,9.62111383 10.7100635,9.54440032 10.7646868,9.43372152 L11.3386937,8.2706564 C11.5189321,7.90545347 11.9610997,7.75551011 12.3263027,7.93574853 C12.4717284,8.00752042 12.5894386,8.12523068 12.6612105,8.2706564 L13.2352175,9.43372152 C13.2898407,9.54440032 13.3954278,9.62111383 13.5175691,9.638862 L14.8010877,9.82536817 C15.2041131,9.88393118 15.483355,10.2581225 15.424792,10.6611479 C15.4014719,10.8216347 15.3258972,10.9699583 15.2097679,11.0831564 L14.2810051,11.9884763 C14.1926228,12.0746278 14.1522921,12.1987528 14.1731564,12.3204006 L14.3924075,13.5987329 C14.4612525,14.0001297 14.1916659,14.3813361 13.790269,14.450181 C13.6304307,14.4775954 13.4660127,14.4515542 13.3224689,14.3760888 L12.174455,13.7725421 C12.0652085,13.7151079 11.9346957,13.7151079 11.8254492,13.7725421 Z"
                          id="Star-Copy"
                          transform="translate(12.000000, 11.160190) rotate(-19.000000) translate(-12.000000, -11.160190)"/>
                    <path d="M4.42901802,29.8508054 L3.28100413,30.454352 C2.92052728,30.6438659 2.47467169,30.505273 2.2851578,30.1447962 C2.20969237,30.0012524 2.18365113,29.8368344 2.21106555,29.6769961 L2.43031669,28.3986638 C2.45118092,28.2770161 2.41085024,28.152891 2.32246795,28.0667396 L1.3937052,27.1614196 C1.10207331,26.8771488 1.09610599,26.4102874 1.38037683,26.1186555 C1.49357497,26.0025261 1.64189856,25.9269515 1.80238537,25.9036314 L3.08590393,25.7171252 C3.20804524,25.6993771 3.31363233,25.6226635 3.36825559,25.5119847 L3.94226254,24.3489196 C4.12250096,23.9837167 4.56466854,23.8337733 4.92987148,24.0140118 C5.0752972,24.0857836 5.19300747,24.2034939 5.26477935,24.3489196 L5.8387863,25.5119847 C5.89340956,25.6226635 5.99899665,25.6993771 6.12113796,25.7171252 L7.40465652,25.9036314 C7.80768188,25.9621944 8.08692379,26.3363857 8.02836078,26.7394111 C8.00504068,26.8998979 7.92946604,27.0482215 7.81333669,27.1614196 L6.88457394,28.0667396 C6.79619165,28.152891 6.75586097,28.2770161 6.7767252,28.3986638 L6.99597634,29.6769961 C7.0648213,30.078393 6.7952347,30.4595993 6.39383783,30.5284442 C6.2339995,30.5558587 6.06958153,30.5298174 5.92603776,30.454352 L4.77802387,29.8508054 C4.66877736,29.7933711 4.53826453,29.7933711 4.42901802,29.8508054 Z"
                          id="Star-Copy"
                          transform="translate(4.603569, 27.238453) rotate(19.000000) translate(-4.603569, -27.238453)"/>
                    <path d="M11.8254492,23.3738994 L10.6774353,23.9774461 C10.3169585,24.16696 9.87110287,24.0283671 9.68158897,23.6678903 C9.60612355,23.5243465 9.5800823,23.3599285 9.60749672,23.2000902 L9.82674787,21.9217579 C9.84761209,21.8001101 9.80728141,21.6759851 9.71889913,21.5898336 L8.79013638,20.6845137 C8.49850448,20.4002429 8.49253717,19.9333815 8.77680801,19.6417496 C8.89000615,19.5256202 9.03832974,19.4500456 9.19881655,19.4267255 L10.4823351,19.2402193 C10.6044764,19.2224711 10.7100635,19.1457576 10.7646868,19.0350788 L11.3386937,17.8720137 C11.5189321,17.5068108 11.9610997,17.3568674 12.3263027,17.5371058 C12.4717284,17.6088777 12.5894386,17.726588 12.6612105,17.8720137 L13.2352175,19.0350788 C13.2898407,19.1457576 13.3954278,19.2224711 13.5175691,19.2402193 L14.8010877,19.4267255 C15.2041131,19.4852885 15.483355,19.8594798 15.424792,20.2625052 C15.4014719,20.422992 15.3258972,20.5713156 15.2097679,20.6845137 L14.2810051,21.5898336 C14.1926228,21.6759851 14.1522921,21.8001101 14.1731564,21.9217579 L14.3924075,23.2000902 C14.4612525,23.6014871 14.1916659,23.9826934 13.790269,24.0515383 C13.6304307,24.0789527 13.4660127,24.0529115 13.3224689,23.9774461 L12.174455,23.3738994 C12.0652085,23.3164652 11.9346957,23.3164652 11.8254492,23.3738994 Z"
                          id="Star-Copy"/>
                </g>
                <path d="M7.61221573,21.2038703 L5.06107374,22.545085 C4.26001408,22.966227 3.26922388,22.6582428 2.8480819,21.8571832 C2.68038095,21.538197 2.62251151,21.1728238 2.68343245,20.8176275 L3.17065721,17.9768891 C3.21702216,17.7065607 3.12739842,17.4307272 2.93099335,17.2392796 L0.867076128,15.2274575 C0.21900525,14.5957445 0.205744552,13.5582747 0.837457531,12.9102039 C1.08900895,12.6521386 1.41861692,12.484195 1.77525429,12.4323725 L4.62751774,12.0179144 C4.89894288,11.978474 5.13358086,11.8079995 5.25496587,11.5620466 L6.53053687,8.97745751 C6.9310667,8.16589544 7.91366133,7.83268796 8.72522341,8.23321779 C9.04839169,8.39271087 9.30997005,8.65428924 9.46946313,8.97745751 L10.7450341,11.5620466 C10.8664191,11.8079995 11.1010571,11.978474 11.3724823,12.0179144 L14.2247457,12.4323725 C15.1203576,12.5625126 15.7408952,13.3940488 15.6107552,14.2896608 C15.5589327,14.6462981 15.3909891,14.9759061 15.1329239,15.2274575 L13.0690066,17.2392796 C12.8726016,17.4307272 12.7829778,17.7065607 12.8293428,17.9768891 L13.3165676,20.8176275 C13.4695563,21.7096205 12.870475,22.5567456 11.978482,22.7097344 C11.6232857,22.7706554 11.2579124,22.7127859 10.9389263,22.545085 L8.38778427,21.2038703 C8.14501425,21.0762385 7.85498575,21.0762385 7.61221573,21.2038703 Z"
                      id="Star"/>
            </g>
        </g>
    </g>
</svg>