<?xml version="1.0" encoding="UTF-8"?>
<!DOCTYPE svg PUBLIC "-//W3C//DTD SVG 1.1//EN" "http://www.w3.org/Graphics/SVG/1.1/DTD/svg11.dtd">
<svg xmlns="http://www.w3.org/2000/svg" version="1.1" width="78px" height="62px" style="shape-rendering:geometricPrecision; text-rendering:geometricPrecision; image-rendering:optimizeQuality; fill-rule:evenodd; clip-rule:evenodd" xmlns:xlink="http://www.w3.org/1999/xlink">
<g><path style="opacity:0.95" fill="#fdfdfd" d="M 7.5,-0.5 C 28.1667,-0.5 48.8333,-0.5 69.5,-0.5C 72.5,1.83333 75.1667,4.5 77.5,7.5C 77.5,22.8333 77.5,38.1667 77.5,53.5C 75.0967,56.907 72.0967,59.5737 68.5,61.5C 48.5,61.5 28.5,61.5 8.5,61.5C 4.90326,59.5737 1.90326,56.907 -0.5,53.5C -0.5,38.1667 -0.5,22.8333 -0.5,7.5C 1.83333,4.5 4.5,1.83333 7.5,-0.5 Z"/></g>
<g><path style="opacity:1" fill="#4e4c4b" d="M 42.5,57.5 C 39.9387,55.3226 39.9387,53.1559 42.5,51C 49.2042,51.2513 55.5375,49.9179 61.5,47C 70.8333,37.3333 70.8333,27.6667 61.5,18C 56.6083,14.9412 51.2749,13.7745 45.5,14.5C 45.762,13.0222 45.4287,11.6888 44.5,10.5C 42.5866,11.373 40.7533,12.373 39,13.5C 38.7811,12.062 38.2811,10.7287 37.5,9.5C 31.5,13.8333 25.5,18.1667 19.5,22.5C 15.1843,26.7094 14.5176,31.3761 17.5,36.5C 23.4779,35.8725 29.4779,35.2058 35.5,34.5C 35.1667,33.8333 34.8333,33.1667 34.5,32.5C 37.0865,31.52 39.7531,31.1866 42.5,31.5C 42.5,30.5 42.5,29.5 42.5,28.5C 45.8499,28.335 49.1832,28.5017 52.5,29C 55.1667,31.3333 55.1667,33.6667 52.5,36C 35.9968,34.0204 27.3302,41.1871 26.5,57.5C 20.8236,57.6661 15.1569,57.4994 9.5,57C 7.4299,56.0524 5.9299,54.5524 5,52.5C 3.38512,38.2354 3.05178,23.9021 4,9.5C 5.16667,7 7,5.16667 9.5,4C 28.1667,3.33333 46.8333,3.33333 65.5,4C 69.0202,4.50405 71.5202,6.33738 73,9.5C 73.6667,22.8333 73.6667,36.1667 73,49.5C 72.573,53.5271 70.4064,56.0271 66.5,57C 58.5069,57.4997 50.5069,57.6664 42.5,57.5 Z"/></g>
<g><path style="opacity:1" fill="#fc4b4a" d="M 42.5,57.5 C 37.1667,57.5 31.8333,57.5 26.5,57.5C 27.3302,41.1871 35.9968,34.0204 52.5,36C 55.1667,33.6667 55.1667,31.3333 52.5,29C 49.1832,28.5017 45.8499,28.335 42.5,28.5C 42.5,29.5 42.5,30.5 42.5,31.5C 39.7531,31.1866 37.0865,31.52 34.5,32.5C 34.8333,33.1667 35.1667,33.8333 35.5,34.5C 29.4779,35.2058 23.4779,35.8725 17.5,36.5C 14.5176,31.3761 15.1843,26.7094 19.5,22.5C 25.5,18.1667 31.5,13.8333 37.5,9.5C 38.2811,10.7287 38.7811,12.062 39,13.5C 40.7533,12.373 42.5866,11.373 44.5,10.5C 45.4287,11.6888 45.762,13.0222 45.5,14.5C 51.2749,13.7745 56.6083,14.9412 61.5,18C 70.8333,27.6667 70.8333,37.3333 61.5,47C 55.5375,49.9179 49.2042,51.2513 42.5,51C 39.9387,53.1559 39.9387,55.3226 42.5,57.5 Z"/></g>
<g><path style="opacity:1" fill="#ffb40d" d="M 26.5,21.5 C 27.5,21.5 28.5,21.5 29.5,21.5C 29.1667,25.1667 27.1667,27.1667 23.5,27.5C 23.615,25.0532 24.615,23.0532 26.5,21.5 Z"/></g>
<g><path style="opacity:1" fill="#f7bc06" d="M 15.5,44.5 C 12.9722,42.4954 13.3055,40.8287 16.5,39.5C 18.0443,39.2969 19.3777,38.6302 20.5,37.5C 22.3753,42.2974 20.7086,44.6307 15.5,44.5 Z"/></g>
<g><path style="opacity:1" fill="#e38c13" d="M 16.5,39.5 C 13.3055,40.8287 12.9722,42.4954 15.5,44.5C 9.00823,45.8781 8.00823,44.0447 12.5,39C 13.9285,38.4209 15.2618,38.5876 16.5,39.5 Z"/></g>
<g><path style="opacity:1" fill="#ebb60c" d="M 13.5,46.5 C 17.3985,48.1337 17.2319,49.8003 13,51.5C 11.7202,51.3865 10.8869,50.7199 10.5,49.5C 11.3398,48.265 12.3398,47.265 13.5,46.5 Z"/></g>
</svg>
