<?xml version="1.0" encoding="UTF-8"?>
<!DOCTYPE svg PUBLIC "-//W3C//DTD SVG 1.1//EN" "http://www.w3.org/Graphics/SVG/1.1/DTD/svg11.dtd">
<svg xmlns="http://www.w3.org/2000/svg" version="1.1" width="78px" height="62px" style="shape-rendering:geometricPrecision; text-rendering:geometricPrecision; image-rendering:optimizeQuality; fill-rule:evenodd; clip-rule:evenodd" xmlns:xlink="http://www.w3.org/1999/xlink">
<g><path style="opacity:0.95" fill="#fefefe" d="M 7.5,-0.5 C 28.1667,-0.5 48.8333,-0.5 69.5,-0.5C 72.5,1.83333 75.1667,4.5 77.5,7.5C 77.5,22.8333 77.5,38.1667 77.5,53.5C 75.0967,56.907 72.0967,59.5737 68.5,61.5C 48.5,61.5 28.5,61.5 8.5,61.5C 4.90326,59.5737 1.90326,56.907 -0.5,53.5C -0.5,38.1667 -0.5,22.8333 -0.5,7.5C 1.83333,4.5 4.5,1.83333 7.5,-0.5 Z"/></g>
<g><path style="opacity:1" fill="#eeeded" d="M 11.5,3.5 C 29.5031,3.33339 47.5031,3.50006 65.5,4C 69.5271,4.42696 72.0271,6.59363 73,10.5C 73.6667,23.8333 73.6667,37.1667 73,50.5C 72.1667,54 70,56.1667 66.5,57C 47.8333,57.6667 29.1667,57.6667 10.5,57C 6.59363,56.0271 4.42696,53.5271 4,49.5C 3.33333,36.8333 3.33333,24.1667 4,11.5C 4.68042,6.98947 7.18042,4.3228 11.5,3.5 Z"/></g>
<g><path style="opacity:1" fill="#fe4d4d" d="M 34.5,16.5 C 49.7502,16.8992 54.9169,24.2326 50,38.5C 42.2998,46.4127 34.6331,46.4127 27,38.5C 22.3993,28.7085 24.8993,21.3752 34.5,16.5 Z"/></g>
</svg>
