<svg xmlns="http://www.w3.org/2000/svg" x="0" y="2508" width="82px"
     height="66px" viewBox="0 0 82 66" version="1.1">
    <title>duolingo</title>
    <g id="duolingo" stroke="none" stroke-width="1" fill="none" fill-rule="evenodd">
        <g id="Group-5-Copy-2" transform="translate(6.000000, 6.000000)">
            <path d="M57.4369625,-2 L12.5630375,-2 C7.62820119,-2 5.86681923,-1.41548743 4.07025832,-0.45467615 C2.11952904,0.588585286 0.588585286,2.11952904 -0.45467615,4.07025832 C-1.41548743,5.86681923 -2,7.62820119 -2,12.5630375 L-2,41.4369625 C-2,46.3717988 -1.41548743,48.1331808 -0.45467615,49.9297417 C0.588585286,51.880471 2.11952904,53.4114147 4.07025832,54.4546762 C5.86681923,55.4154874 7.62820119,56 12.5630375,56 L57.4369625,56 C62.3717988,56 64.1331808,55.4154874 65.9297417,54.4546762 C67.880471,53.4114147 69.4114147,51.880471 70.4546762,49.9297417 C71.4154874,48.1331808 72,46.3717988 72,41.4369625 L72,12.5630375 C72,7.62820119 71.4154874,5.86681923 70.4546762,4.07025832 C69.4114147,2.11952904 67.880471,0.588585286 65.9297417,-0.45467615 C64.1331808,-1.41548743 62.3717988,-2 57.4369625,-2 Z"
                  id="Rectangle-3" stroke="#FFFFFF" stroke-width="4" fill="#78C800" fill-rule="nonzero"/>
            <g id="Icon" transform="translate(4.000000, 0.000000)">
                <g id="Glyph-Copy-3" transform="translate(0.867188, 5.550781)">
                    <g id="Group" transform="translate(0.035890, 0.000000)">
                        <path d="M23.2178139,5.33884478 C24.4533909,5.338331 25.3297433,6.53746524 24.947367,7.70715487 C23.6779086,11.5904303 19.9958964,14.2387115 15.8302534,14.2404451 C11.6642945,14.2421771 7.98393311,11.5965459 6.71756678,7.71380167 C6.3367892,6.54631804 7.06695263,5.50633848 8.30065598,5.5036965 L23.2178139,5.33884478 Z"
                              id="Combined-Shape-Copy-57" fill="#8EE000" fill-rule="nonzero"
                              transform="translate(15.827157, 9.789645) rotate(-314.000000) translate(-15.827157, -9.789645)"/>
                        <path d="M22.9696484,10.8399547 C26.6338689,14.5379786 33.0953291,14.5379786 37.1766818,10.8399547 C41.2580345,7.14193082 36.563252,32.3763367 36.563252,32.3114863 C36.563252,32.2804668 34.3817921,32.2716067 30.0188721,32.2847806 C28.8492913,32.2883122 26.7421957,32.2972141 23.6975851,32.3114863 C20.7694803,15.5317826 20.5268348,8.37460546 22.9696484,10.8399547 Z"
                              id="Path-12" fill="#8EE000"/>
                        <path d="M2.32806955,9.3496252 L17.0978982,9.34348143 C18.3334752,9.34296765 19.2098276,10.5421019 18.8274513,11.7117915 C17.5579929,15.5950669 13.8759807,18.2433482 9.71033773,18.2450818 C5.54437886,18.2468138 1.86401743,15.6011825 0.597651101,11.7184383 C0.216283885,10.5491468 1.09301853,9.35013893 2.32806955,9.3496252 Z"
                              id="Combined-Shape-Copy-58" fill="#8EE000" fill-rule="nonzero"
                              transform="translate(9.712770, 13.794282) rotate(-312.000000) translate(-9.712770, -13.794282)"/>
                        <g id="Group-4"
                           transform="translate(47.352758, 11.848706) scale(-1, 1) translate(-47.352758, -11.848706) translate(34.738341, 0.039135)"
                           fill="#8EE000" fill-rule="nonzero">
                            <path d="M22.987081,5.29970943 C24.222658,5.29919565 25.0990104,6.49832989 24.7166342,7.66801952 C23.4471757,11.5512949 19.7651635,14.1995762 15.5995205,14.2013098 C11.4335617,14.2030418 7.75320024,11.5574105 6.48683392,7.67466632 C6.10605633,6.50718269 6.83621976,5.46720313 8.06992311,5.46456115 L22.987081,5.29970943 Z"
                                  id="Combined-Shape-Copy-57"
                                  transform="translate(15.596424, 9.750510) rotate(-314.000000) translate(-15.596424, -9.750510)"/>
                            <path d="M2.09733668,9.31048985 L16.8671654,9.30434608 C18.1027423,9.3038323 18.9790948,10.5029665 18.5967185,11.6726562 C17.3272601,15.5559316 13.6452478,18.2042128 9.47960486,18.2059464 C5.31364599,18.2076784 1.63328456,15.5620472 0.366918233,11.679303 C-0.0144489827,10.5100115 0.862285661,9.31100358 2.09733668,9.31048985 Z"
                                  id="Combined-Shape-Copy-58"
                                  transform="translate(9.482037, 13.755146) rotate(-312.000000) translate(-9.482037, -13.755146)"/>
                        </g>
                        <path d="M13.1481846,6.99118035 L13.7237859,6.99118035 C20.9853278,6.99118035 26.8719705,12.8778231 26.8719705,20.1393649 L26.8719705,26.9175625 C26.8719705,34.1791044 20.9853278,40.0657471 13.7237859,40.0657471 L13.1481846,40.0657471 C5.88664274,40.0657471 2.33769793e-15,34.1791044 0,26.9175625 L0,20.1393649 C-2.66563923e-15,12.8778231 5.88664274,6.99118035 13.1481846,6.99118035 Z"
                              id="Rectangle-130-Copy-36" fill="#8EE000"/>
                        <path d="M46.4725842,6.99118035 L46.9338997,6.99118035 C54.1946013,6.99118035 60.0805629,12.8771419 60.0805629,20.1378435 L60.0805629,26.919084 C60.0805629,34.1797855 54.1946013,40.0657471 46.9338997,40.0657471 L46.5262485,40.0657471 C39.3061421,40.0657471 33.4371324,34.2429988 33.3799969,27.0231185 L33.3263327,20.2418781 C33.268876,12.9814039 39.1080754,7.04904872 46.3685496,6.99159199 C46.4032271,6.99131757 46.4379056,6.99118035 46.4725842,6.99118035 Z"
                              id="Rectangle-130-Copy-37" fill="#8EE000"/>
                        <path d="M13.9640371,11.6660308 C19.0190432,11.6660308 23.1169353,15.7639229 23.1169353,20.818929 L23.1169353,26.2379984 C23.1169353,31.2930046 19.0190432,35.3908967 13.9640371,35.3908967 C8.90903096,35.3908967 4.81113883,31.2930046 4.81113883,26.2379984 L4.81113883,20.818929 C4.81113883,15.7639229 8.90903096,11.6660308 13.9640371,11.6660308 Z"
                              id="Rectangle-130-Copy-38" fill="#FFFFFF"/>
                        <path d="M46.1165258,11.6660308 C51.171532,11.6660308 55.2694241,15.7639229 55.2694241,20.818929 L55.2694241,26.2379984 C55.2694241,31.2930046 51.171532,35.3908967 46.1165258,35.3908967 C41.0615197,35.3908967 36.9636276,31.2930046 36.9636276,26.2379984 L36.9636276,20.818929 C36.9636276,15.7639229 41.0615197,11.6660308 46.1165258,11.6660308 Z"
                              id="Rectangle-130-Copy-39" fill="#FFFFFF"/>
                        <path d="M15.3721753,16.9252375 C17.7700628,16.9252375 19.7139347,18.8691094 19.7139347,21.2669969 L19.7139347,25.9068018 C19.7139347,28.3046893 17.7700628,30.2485612 15.3721753,30.2485612 C12.9742878,30.2485612 11.0304158,28.3046893 11.0304158,25.9068018 L11.0304158,21.2669969 C11.0304158,18.8691094 12.9742878,16.9252375 15.3721753,16.9252375 Z"
                              id="Rectangle-130-Copy-40" fill="#4B4B4B"/>
                        <g id="Group-3" transform="translate(23.234280, 27.443651)">
                            <g id="Group-2">
                                <path d="M6.86467369,0.0100534418 C9.61246372,0.0100534418 11.8399877,2.23757738 11.8399877,4.9853674 L11.8399877,6.7118121 C11.8399877,9.45960213 9.61246372,11.6871261 6.86467369,11.6871261 C4.11688367,11.6871261 1.88935973,9.45960213 1.88935973,6.7118121 L1.88935973,4.9853674 C1.88935973,2.23757738 4.11688367,0.0100534418 6.86467369,0.0100534418 Z"
                                      id="Rectangle-2-Copy-9" fill="#F48000"/>
                                <path d="M0,5.4577622 C0.593373698,2.29069971 3.53371693,0 7.05360967,0 C10.2550776,0 13.1462624,2.34489945 13.7293474,5.4577622 L13.7293474,5.4577622 L13.7293474,5.71161161 C13.7293474,5.90730606 13.6588622,5.99079586 13.4774328,5.96546101 L7.05360967,7.10778333 C6.87551352,7.10865901 6.85383387,7.10865901 6.67573772,7.10778333 L0.251914631,5.96546101 C0.0704851414,5.99079586 0,5.90730606 0,5.71161161 L0,5.4577622 L0,5.4577622 Z"
                                      id="Combined-Shape-Copy-61" fill="#FFC200" fill-rule="nonzero"/>
                                <path d="M5.81174593,1.09864316 C6.14836128,1.01673614 6.48922873,0.975782629 6.83434827,0.975782629 C7.20524747,0.975782629 7.57532293,1.02308292 7.94457465,1.1176835 C8.69245203,1.30927508 9.21549666,1.98321383 9.21549666,2.75524226 C9.21549666,3.37566371 8.7125457,3.87861466 8.09212426,3.87861466 L5.63326629,3.87861466 C5.01284485,3.87861466 4.50989389,3.37566371 4.50989389,2.75524226 C4.50989389,1.96889696 5.04769188,1.28454731 5.81174593,1.09864316 Z"
                                      id="Rectangle" fill="#FFE747"/>
                            </g>
                        </g>
                        <path d="M44.7083876,16.9252375 C47.1062752,16.9252375 49.0501471,18.8691094 49.0501471,21.2669969 L49.0501471,25.9068018 C49.0501471,28.3046893 47.1062752,30.2485612 44.7083876,30.2485612 C42.3105001,30.2485612 40.3666282,28.3046893 40.3666282,25.9068018 L40.3666282,21.2669969 C40.3666282,18.8691094 42.3105001,16.9252375 44.7083876,16.9252375 Z"
                              id="Rectangle-130-Copy-41" fill="#4B4B4B"/>
                        <ellipse id="Oval-10-Copy-4" fill="#FFFFFF" cx="11.7041755" cy="19.399635" rx="2.8053544"
                                 ry="2.79271786"/>
                        <ellipse id="Oval-10-Copy-5" fill="#FFFFFF" cx="40.6118241" cy="19.399635" rx="2.8053544"
                                 ry="2.79271786"/>
                    </g>
                </g>
            </g>
        </g>
    </g>
</svg>