<?xml version="1.0" encoding="UTF-8"?>
<!DOCTYPE svg PUBLIC "-//W3C//DTD SVG 1.1//EN" "http://www.w3.org/Graphics/SVG/1.1/DTD/svg11.dtd">
<svg xmlns="http://www.w3.org/2000/svg" version="1.1" width="78px" height="62px" style="shape-rendering:geometricPrecision; text-rendering:geometricPrecision; image-rendering:optimizeQuality; fill-rule:evenodd; clip-rule:evenodd" xmlns:xlink="http://www.w3.org/1999/xlink">
<g><path style="opacity:0.949" fill="#fefefe" d="M 7.5,-0.5 C 28.1667,-0.5 48.8333,-0.5 69.5,-0.5C 72.5,1.83333 75.1667,4.5 77.5,7.5C 77.5,22.8333 77.5,38.1667 77.5,53.5C 75.0967,56.907 72.0967,59.5737 68.5,61.5C 48.5,61.5 28.5,61.5 8.5,61.5C 4.90326,59.5737 1.90326,56.907 -0.5,53.5C -0.5,38.1667 -0.5,22.8333 -0.5,7.5C 1.83333,4.5 4.5,1.83333 7.5,-0.5 Z"/></g>
<g><path style="opacity:1" fill="#eeeded" d="M 73.5,30.5 C 70.1667,30.5 66.8333,30.5 63.5,30.5C 60.5,22.5 57.5,22.5 54.5,30.5C 53.5,30.5 52.5,30.5 51.5,30.5C 53.2893,27.087 54.9559,23.587 56.5,20C 56.3552,19.228 56.0219,18.5613 55.5,18C 49.8333,17.3333 44.1667,17.3333 38.5,18C 36.7215,20.1354 36.0548,22.6354 36.5,25.5C 35.5,25.5 34.5,25.5 33.5,25.5C 32.9228,21.9202 33.9228,18.9202 36.5,16.5C 32.5411,15.3401 28.5411,15.1735 24.5,16C 22.9913,17.9239 20.9913,19.0906 18.5,19.5C 17.5853,20.3279 16.9186,21.3279 16.5,22.5C 21.1399,23.2869 23.4732,25.9536 23.5,30.5C 16.8333,30.5 10.1667,30.5 3.5,30.5C 3.33379,24.1579 3.50046,17.8246 4,11.5C 4.5,7 7,4.5 11.5,4C 29.5,3.33333 47.5,3.33333 65.5,4C 69.5271,4.42696 72.0271,6.59363 73,10.5C 73.4996,17.1583 73.6663,23.825 73.5,30.5 Z"/></g>
<g><path style="opacity:1" fill="#fd4e4b" d="M 51.5,30.5 C 50.7101,31.7942 49.7101,32.9609 48.5,34C 51.0991,34.769 53.5991,34.6023 56,33.5C 56.2387,32.212 55.7387,31.212 54.5,30.5C 57.5,22.5 60.5,22.5 63.5,30.5C 61.6716,36.3205 57.6716,39.6538 51.5,40.5C 52.7472,42.323 53.4139,44.323 53.5,46.5C 49.5,46.5 45.5,46.5 41.5,46.5C 41.5952,43.7277 42.9285,41.7277 45.5,40.5C 42.5719,39.5159 39.5719,39.1826 36.5,39.5C 36.5,41.8333 36.5,44.1667 36.5,46.5C 32.8333,46.5 29.1667,46.5 25.5,46.5C 25.7797,42.8867 27.7797,40.8867 31.5,40.5C 30,40.1667 28.5,39.8333 27,39.5C 23.4279,39.8592 19.9279,40.5259 16.5,41.5C 16.5,38.1667 16.5,34.8333 16.5,31.5C 18.9288,31.585 20.9288,32.585 22.5,34.5C 23.4287,33.3112 23.762,31.9778 23.5,30.5C 23.4732,25.9536 21.1399,23.2869 16.5,22.5C 16.9186,21.3279 17.5853,20.3279 18.5,19.5C 20.9913,19.0906 22.9913,17.9239 24.5,16C 28.5411,15.1735 32.5411,15.3401 36.5,16.5C 33.9228,18.9202 32.9228,21.9202 33.5,25.5C 34.5,25.5 35.5,25.5 36.5,25.5C 36.0548,22.6354 36.7215,20.1354 38.5,18C 44.1667,17.3333 49.8333,17.3333 55.5,18C 56.0219,18.5613 56.3552,19.228 56.5,20C 54.9559,23.587 53.2893,27.087 51.5,30.5 Z"/></g>
<g><path style="opacity:1" fill="#7ac60e" d="M 3.5,30.5 C 10.1667,30.5 16.8333,30.5 23.5,30.5C 23.762,31.9778 23.4287,33.3112 22.5,34.5C 20.9288,32.585 18.9288,31.585 16.5,31.5C 16.5,34.8333 16.5,38.1667 16.5,41.5C 19.9279,40.5259 23.4279,39.8592 27,39.5C 28.5,39.8333 30,40.1667 31.5,40.5C 27.7797,40.8867 25.7797,42.8867 25.5,46.5C 29.1667,46.5 32.8333,46.5 36.5,46.5C 36.5,44.1667 36.5,41.8333 36.5,39.5C 39.5719,39.1826 42.5719,39.5159 45.5,40.5C 42.9285,41.7277 41.5952,43.7277 41.5,46.5C 45.5,46.5 49.5,46.5 53.5,46.5C 53.4139,44.323 52.7472,42.323 51.5,40.5C 57.6716,39.6538 61.6716,36.3205 63.5,30.5C 66.8333,30.5 70.1667,30.5 73.5,30.5C 73.6663,37.175 73.4996,43.8417 73,50.5C 72.0271,54.4064 69.5271,56.573 65.5,57C 46.8333,57.6667 28.1667,57.6667 9.5,57C 6.61931,55.7494 4.78597,53.5827 4,50.5C 3.50042,43.8417 3.33375,37.175 3.5,30.5 Z"/></g>
<g><path style="opacity:1" fill="#89bb14" d="M 51.5,30.5 C 52.5,30.5 53.5,30.5 54.5,30.5C 55.7387,31.212 56.2387,32.212 56,33.5C 53.5991,34.6023 51.0991,34.769 48.5,34C 49.7101,32.9609 50.7101,31.7942 51.5,30.5 Z"/></g>
</svg>
