<svg xmlns="http://www.w3.org/2000/svg" x="0" y="2178" width="82px"
     height="66px" viewBox="0 0 82 66" version="1.1">
    <title>ar</title>
    <g id="ar" stroke="none" stroke-width="1" fill="none" fill-rule="evenodd">
        <g id="Group" transform="translate(6.000000, 6.000000)" fill="#7AC70C" fill-rule="nonzero" stroke="#FFFFFF"
           stroke-width="4">
            <path d="M57.4369625,-2 L12.5630375,-2 C7.62820119,-2 5.86681923,-1.41548743 4.07025832,-0.45467615 C2.11952904,0.588585286 0.588585286,2.11952904 -0.45467615,4.07025832 C-1.41548743,5.86681923 -2,7.62820119 -2,12.5630375 L-2,41.4369625 C-2,46.3717988 -1.41548743,48.1331808 -0.45467615,49.9297417 C0.588585286,51.880471 2.11952904,53.4114147 4.07025832,54.4546762 C5.86681923,55.4154874 7.62820119,56 12.5630375,56 L57.4369625,56 C62.3717988,56 64.1331808,55.4154874 65.9297417,54.4546762 C67.880471,53.4114147 69.4114147,51.880471 70.4546762,49.9297417 C71.4154874,48.1331808 72,46.3717988 72,41.4369625 L72,12.5630375 C72,7.62820119 71.4154874,5.86681923 70.4546762,4.07025832 C69.4114147,2.11952904 67.880471,0.588585286 65.9297417,-0.45467615 C64.1331808,-1.41548743 62.3717988,-2 57.4369625,-2 Z"
                  id="Rectangle-3"/>
        </g>
        <g id="Group-3" transform="translate(27.000000, 12.000000)">
            <g id="Group" transform="translate(0.000000, 5.000000)">
                <path d="M14.5,30.0552516 C22.5081289,30.0552516 29,23.7872381 29,16.0552516 C29,8.32326513 22.5081289,2.05525163 14.5,2.05525163 C6.49187113,2.05525163 0,8.32326513 0,16.0552516 C0,23.7872381 6.49187113,30.0552516 14.5,30.0552516 Z"
                      id="Oval" stroke="#FFFFFF" stroke-width="3.2"/>
                <path d="M15.3414268,2.66274401 C17.5155517,2.66274401 19.4430798,2.71549144 20,2.27373675e-13"
                      id="Path-6-Copy" stroke="#7AC70C" stroke-width="6.4" stroke-linecap="round"
                      stroke-linejoin="round"/>
                <path d="M7.77892917,26.3628146 L12.06698,34.6538521 C12.5744056,35.6349704 12.1904019,36.8416736 11.2092836,37.3490992 C10.8382655,37.5409865 10.4164788,37.6118937 10.0031117,37.5518706 L7.49581821,37.1877982 C6.62133359,37.0608184 6.01536122,36.2489711 6.14234103,35.3744865 C6.14506658,35.3557161 6.1481257,35.3369957 6.15151691,35.3183341 L7.77892917,26.3628146 L7.77892917,26.3628146 Z"
                      id="Triangle" fill="#FFFFFF"
                      transform="translate(9.855089, 32.237006) rotate(102.000000) translate(-9.855089, -32.237006)"/>
                <path d="M17.068752,26.3628146 L21.3568029,34.6538521 C21.8642285,35.6349704 21.4802248,36.8416736 20.4991065,37.3490992 C20.1280884,37.5409865 19.7063017,37.6118937 19.2929345,37.5518706 L16.7856411,37.1877982 C15.9111565,37.0608184 15.3051841,36.2489711 15.4321639,35.3744865 C15.4348894,35.3557161 15.4379486,35.3369957 15.4413398,35.3183341 L17.068752,26.3628146 L17.068752,26.3628146 Z"
                      id="Triangle-Copy" fill="#FFFFFF"
                      transform="translate(19.144911, 32.237006) scale(-1, 1) rotate(102.000000) translate(-19.144911, -32.237006)"/>
                <path d="M15.0709212,1.86831529 L11.184887,2.64936692 L10.8015558,3.58391989 C11.9198694,3.40917517 13.2373561,3.26895479 14.7541129,3.16393818 C16.1351887,3.06831581 17.2807074,2.54605727 18.1921349,1.59971548 L15.0709212,1.86831529 Z"
                      id="Path-8" stroke="#FFFFFF"/>
            </g>
            <g id="Group-2" transform="translate(5.000000, 9.000000)">
                <circle id="Oval" fill="#FFFFFF" cx="9.5" cy="11.5" r="9.5"/>
                <circle id="Oval-Copy" fill="#7AC70C" cx="9.5" cy="7.5" r="7.5"/>
            </g>
            <path d="M16.9329021,0.999864143 C18.1895802,1.93192262 19,3.39996287 19,5.05131415 C19,6.64284992 18.2472272,8.06411398 17.0676871,8.9993877 C15.8104198,8.06807738 15,6.60003713 15,4.94868585 C15,3.35980854 15.75026,1.94063459 16.9264057,1.00530315 Z"
                  id="Combined-Shape" stroke="#FFFFFF" stroke-width="0.758738534" fill="#FFFFFF" stroke-linecap="round"
                  stroke-linejoin="round"
                  transform="translate(17.000000, 5.000000) rotate(-134.000000) translate(-17.000000, -5.000000)"/>
            <path d="M11.9329021,0.999864143 C13.1895802,1.93192262 14,3.39996287 14,5.05131415 C14,6.64284992 13.2472272,8.06411398 12.0676871,8.9993877 C10.8104198,8.06807738 10,6.60003713 10,4.94868585 C10,3.35980854 10.75026,1.94063459 11.9264057,1.00530315 Z"
                  id="Combined-Shape-Copy" stroke="#FFFFFF" stroke-width="0.758738534" fill="#FFFFFF"
                  stroke-linecap="round" stroke-linejoin="round"
                  transform="translate(12.000000, 5.000000) scale(-1, 1) rotate(-134.000000) translate(-12.000000, -5.000000)"/>
        </g>
    </g>
</svg>