<svg xmlns="http://www.w3.org/2000/svg" x="0" y="1650" width="82px"
     height="66px" viewBox="0 0 82 66" version="1.1">
    <title>cy</title>
    <g id="cy" stroke="none" stroke-width="1" fill="none" fill-rule="evenodd">
        <g id="Group" transform="translate(6.000000, 6.000000)" fill-rule="nonzero">
            <path d="M57.4369625,-2 L12.5630375,-2 C7.62820119,-2 5.86681923,-1.41548743 4.07025832,-0.45467615 C2.11952904,0.588585286 0.588585286,2.11952904 -0.45467615,4.07025832 C-1.41548743,5.86681923 -2,7.62820119 -2,12.5630375 L-2,41.4369625 C-2,46.3717988 -1.41548743,48.1331808 -0.45467615,49.9297417 C0.588585286,51.880471 2.11952904,53.4114147 4.07025832,54.4546762 C5.86681923,55.4154874 7.62820119,56 12.5630375,56 L57.4369625,56 C62.3717988,56 64.1331808,55.4154874 65.9297417,54.4546762 C67.880471,53.4114147 69.4114147,51.880471 70.4546762,49.9297417 C71.4154874,48.1331808 72,46.3717988 72,41.4369625 L72,12.5630375 C72,7.62820119 71.4154874,5.86681923 70.4546762,4.07025832 C69.4114147,2.11952904 67.880471,0.588585286 65.9297417,-0.45467615 C64.1331808,-1.41548743 62.3717988,-2 57.4369625,-2 Z"
                  id="Rectangle-3" stroke="#FFFFFF" stroke-width="4" fill="#EEEEEE"/>
            <path d="M70,27 L70,41.4369625 C70,45.8054044 69.5451545,47.3895069 68.6910498,48.986544 C67.836945,50.583581 66.583581,51.836945 64.986544,52.6910498 C63.3895069,53.5451545 61.8054044,54 57.4369625,54 L12.5630375,54 C8.19459564,54 6.61049308,53.5451545 5.01345604,52.6910498 C3.41641901,51.836945 2.163055,50.583581 1.30895025,48.986544 C0.454845494,47.3895069 -8.57188171e-16,45.8054044 1.47529378e-15,41.4369625 L0,27 L70,27 Z"
                  id="Combined-Shape" fill="#7AC70C"/>
            <path d="M37.178807,14 L50.9492389,14 C52.0538084,14 52.9492389,14.8954305 52.9492389,16 C52.9492389,16.2744487 52.8927535,16.5459607 52.7832981,16.7976383 L49.2160645,25 C46.3110752,31.6796221 39.7208547,36 32.4368782,36 L27,36 C23.1340068,36 20,32.8659932 20,29 L20,24 L20,24 L30,20 L30,20.4105965 C30,21.2883998 30.7116002,22 31.5894035,22 C32.4672068,22 33.178807,21.2883998 33.178807,20.4105965 L33.178807,18 C33.178807,15.790861 34.969668,14 37.178807,14 Z"
                  id="Rectangle" fill="#FF4B4B"/>
            <path d="M23,12 L27,12 C28.6568542,12 30,13.3431458 30,15 L30,24 L30,24 L20,24 L20,15 C20,13.3431458 21.3431458,12 23,12 Z"
                  id="Rectangle-Copy" fill="#FF4B4B"/>
            <path d="M18,15 L23,15 L23,15 L23,20 L13,20 C13,17.2385763 15.2385763,15 18,15 Z" id="Rectangle-Copy-2"
                  fill="#FF4B4B"/>
            <path d="M23,12 L33,12 C33,14.209139 31.209139,16 29,16 L23,16 L23,16 L23,12 Z" id="Rectangle-Copy-4"
                  fill="#FF4B4B"/>
            <path d="M19,22 C17.3431458,22 16,20.209139 16,18 L26,18 L26,22 L19,22 Z" id="Rectangle-Copy-3"
                  fill="#FF4B4B"/>
            <path d="M31,35.90817 L31,30.90817 L50.5,30.90817 C51.8807119,30.90817 53,29.7888818 53,28.40817 L53,25 L58,25 L58,28.40817 C58,32.5503056 54.6421356,35.90817 50.5,35.90817 L31,35.90817 Z"
                  id="Path" fill="#FF4B4B"/>
            <path d="M56.3213054,21.0535511 L60.2838813,26.7600613 C60.5988873,27.2137018 60.4865018,27.8368129 60.0328613,28.1518189 C59.7774477,28.329177 59.4540635,28.3776268 59.1578871,28.2829087 L55.4999166,27.113079 L55.4999166,27.113079 L51.8419461,28.2829087 C51.3159067,28.4511377 50.753091,28.161075 50.5848621,27.6350356 C50.490144,27.3388591 50.5385938,27.0154749 50.7159519,26.7600613 L54.6785279,21.0535511 C54.9935339,20.5999107 55.6166449,20.4875252 56.0702854,20.8025312 C56.1682598,20.8705642 56.2532724,20.9555767 56.3213054,21.0535511 Z"
                  id="Triangle" fill="#FF4B4B"/>
            <path d="M26,38 L29,38 C31.209139,38 33,39.790861 33,42 C33,42.5522847 32.5522847,43 32,43 L23,43 C22.4477153,43 22,42.5522847 22,42 C22,39.790861 23.790861,38 26,38 Z"
                  id="Path" fill="#FF4B4B"/>
            <rect id="Rectangle" fill="#FF4B4B" x="28" y="32" width="5" height="10"/>
            <path d="M17.9658896,31.8586726 L17.9658896,33.8586726 C17.9658896,36.0678116 16.1750286,37.8586726 13.9658896,37.8586726 C13.4136049,37.8586726 12.9658896,37.4109574 12.9658896,36.8586726 L12.9658896,28.8586726 C12.9658896,28.3063879 13.4136049,27.8586726 13.9658896,27.8586726 C16.1750286,27.8586726 17.9658896,29.6495336 17.9658896,31.8586726 Z"
                  id="Path" fill="#FF4B4B"/>
            <rect id="Rectangle" fill="#FF4B4B"
                  transform="translate(21.017638, 33.431852) rotate(-285.000000) translate(-21.017638, -33.431852)"
                  x="18.5176381" y="25.9318517" width="5" height="15"/>
            <path d="M42,38 L46,38 C48.209139,38 50,39.790861 50,42 C50,42.5522847 49.5522847,43 49,43 L39,43 C38.4477153,43 38,42.5522847 38,42 C38,39.790861 39.790861,38 42,38 Z"
                  id="Path" fill="#FF4B4B"/>
            <rect id="Rectangle-Copy-7" fill="#FF4B4B"
                  transform="translate(44.665064, 36.580127) rotate(-30.000000) translate(-44.665064, -36.580127)"
                  x="42.1650635" y="31.580127" width="5" height="10"/>
        </g>
    </g>
</svg>