<svg xmlns="http://www.w3.org/2000/svg" x="0" y="1320" width="82px"
     height="66px" viewBox="0 0 82 66" version="1.1">
    <title>hv</title>
    <g id="hv" stroke="none" stroke-width="1" fill="none" fill-rule="evenodd">
        <g id="Group" transform="translate(6.000000, 6.000000)" fill-rule="nonzero">
            <path d="M57.4369625,-2 L12.5630375,-2 C7.62820119,-2 5.86681923,-1.41548743 4.07025832,-0.45467615 C2.11952904,0.588585286 0.588585286,2.11952904 -0.45467615,4.07025832 C-1.41548743,5.86681923 -2,7.62820119 -2,12.5630375 L-2,41.4369625 C-2,46.3717988 -1.41548743,48.1331808 -0.45467615,49.9297417 C0.588585286,51.880471 2.11952904,53.4114147 4.07025832,54.4546762 C5.86681923,55.4154874 7.62820119,56 12.5630375,56 L57.4369625,56 C62.3717988,56 64.1331808,55.4154874 65.9297417,54.4546762 C67.880471,53.4114147 69.4114147,51.880471 70.4546762,49.9297417 C71.4154874,48.1331808 72,46.3717988 72,41.4369625 L72,12.5630375 C72,7.62820119 71.4154874,5.86681923 70.4546762,4.07025832 C69.4114147,2.11952904 67.880471,0.588585286 65.9297417,-0.45467615 C64.1331808,-1.41548743 62.3717988,-2 57.4369625,-2 Z"
                  id="Rectangle-3" stroke="#FFFFFF" stroke-width="4" fill="#4B4B4B"/>
            <path d="M35.1008938,9.98021652 L40.7595652,7.19282774 C41.4032193,6.87577197 42.1409308,7.40252017 42.0500068,8.11424194 L41.681345,11 L47,11 C56.9411255,11 65,19.0588745 65,29 C65,38.9411255 56.9411255,47 47,47 L40.4761905,47 C38.5599053,47 37,48.5634505 37,50.5 C37,52.4365495 38.5599053,54 40.4761905,54 L50,54 L23.3496488,54 C23.1203591,52.8690431 23,51.6985481 23,50.5 C23,40.8385697 30.8207952,33 40.4761905,33 L47,33 C49.209139,33 51,31.209139 51,29 C51,26.790861 49.209139,25 47,25 L38.2644809,25 L38.8238788,27.0909685 C38.972665,27.6471149 38.5682495,28.1980327 37.9930748,28.222737 L30.8669239,28.5288116 L32.1734151,30.4903668 C32.5590092,31.0692945 32.1701435,31.8481371 31.4756897,31.8878113 L20.9232302,32.490674 C19.5310459,32.5702096 18.1934671,32.2513201 17.0341126,31.6234129 L14.2642648,33.045047 C13.8099785,33.278211 13.2529246,33.0871359 13.0374007,32.6242202 C10.6787178,27.5580924 12.2717478,21.5302551 16.8253918,18.2909093 L33.5973587,6.35976135 C34.1837955,5.94258522 34.9983979,6.34834406 35.0187001,7.06774093 L35.1008938,9.98021652 Z"
                  id="Path" fill="#FF4B4B"/>
            <path d="M6.63327327,35.6571975 L12.6332733,35.6571975 C13.185558,35.6571975 13.6332733,36.1049128 13.6332733,36.6571975 C13.6332733,38.8663365 11.8424123,40.6571975 9.63327327,40.6571975 C7.42413427,40.6571975 5.63327327,38.8663365 5.63327327,36.6571975 C5.63327327,36.1049128 6.08098852,35.6571975 6.63327327,35.6571975 Z"
                  id="Rectangle-Copy-4" fill="#FF9600"
                  transform="translate(9.633273, 38.157198) rotate(-210.000000) translate(-9.633273, -38.157198)"/>
            <path d="M11.268969,35.8900316 L18.268969,35.8900316 C18.8212537,35.8900316 19.268969,36.3377468 19.268969,36.8900316 C19.268969,39.0991706 17.478108,40.8900316 15.268969,40.8900316 L14.268969,40.8900316 C12.05983,40.8900316 10.268969,39.0991706 10.268969,36.8900316 C10.268969,36.3377468 10.7166842,35.8900316 11.268969,35.8900316 Z"
                  id="Rectangle" fill="#FFC300"
                  transform="translate(14.768969, 38.390032) rotate(-30.000000) translate(-14.768969, -38.390032)"/>
            <path d="M8.23205081,43.8660254 L12.2320508,43.8660254 C12.7843356,43.8660254 13.2320508,44.3137407 13.2320508,44.8660254 C13.2320508,46.5228797 11.8889051,47.8660254 10.2320508,47.8660254 C8.57519656,47.8660254 7.23205081,46.5228797 7.23205081,44.8660254 C7.23205081,44.3137407 7.67976606,43.8660254 8.23205081,43.8660254 Z"
                  id="Rectangle-Copy-5" fill="#FFC300"
                  transform="translate(10.232051, 45.866025) rotate(-30.000000) translate(-10.232051, -45.866025)"/>
            <path d="M20.4072106,19.3770782 L25.811436,19.3728525 C26.3090418,19.3724638 26.7125284,19.7759504 26.7121397,20.2735562 C26.710973,21.7654086 25.5018788,22.9745028 24.0100264,22.9756692 L22.208618,22.9770785 C20.718226,22.9782429 19.5090799,21.7709861 19.5079146,20.2805941 L19.5079146,20.2763742 C19.5083028,19.7798676 19.910704,19.3774664 20.4072106,19.3770782 Z"
                  id="Rectangle" fill="#FFC300"
                  transform="translate(23.110027, 21.174966) rotate(-45.000000) translate(-23.110027, -21.174966)"/>
        </g>
    </g>
</svg>