<?xml version="1.0" encoding="UTF-8"?>
<!DOCTYPE svg PUBLIC "-//W3C//DTD SVG 1.1//EN" "http://www.w3.org/Graphics/SVG/1.1/DTD/svg11.dtd">
<svg xmlns="http://www.w3.org/2000/svg" version="1.1" width="83px" height="62px" style="shape-rendering:geometricPrecision; text-rendering:geometricPrecision; image-rendering:optimizeQuality; fill-rule:evenodd; clip-rule:evenodd" xmlns:xlink="http://www.w3.org/1999/xlink">
<g><path style="opacity:0.95" fill="#fefefe" d="M 12.5,-0.5 C 33.1667,-0.5 53.8333,-0.5 74.5,-0.5C 77.5,1.83333 80.1667,4.5 82.5,7.5C 82.5,22.8333 82.5,38.1667 82.5,53.5C 80.0967,56.907 77.0967,59.5737 73.5,61.5C 53.5,61.5 33.5,61.5 13.5,61.5C 9.93154,59.7695 7.09821,57.1028 5,53.5C 4.33333,38.1667 4.33333,22.8333 5,7.5C 7.02821,4.30777 9.52821,1.64111 12.5,-0.5 Z"/></g>
<g><path style="opacity:1" fill="#eeeeee" d="M 76.5,7.5 C 54.5,7.5 32.5,7.5 10.5,7.5C 11.9746,5.59047 13.9746,4.42381 16.5,4C 34.5,3.33333 52.5,3.33333 70.5,4C 73.0254,4.42381 75.0254,5.59047 76.5,7.5 Z"/></g>
<g><path style="opacity:1" fill="#1eb0f5" d="M 10.5,7.5 C 32.5,7.5 54.5,7.5 76.5,7.5C 78.2261,9.82007 78.8928,12.4867 78.5,15.5C 55.1667,15.5 31.8333,15.5 8.5,15.5C 8.1072,12.4867 8.77386,9.82007 10.5,7.5 Z"/></g>
<g><path style="opacity:0.008" fill="#fefffe" d="M -0.5,8.5 C 0.833333,10.5 0.833333,12.5 -0.5,14.5C -0.5,12.5 -0.5,10.5 -0.5,8.5 Z"/></g>
<g><path style="opacity:1" fill="#ededee" d="M 8.5,15.5 C 31.8333,15.5 55.1667,15.5 78.5,15.5C 78.5,25.5 78.5,35.5 78.5,45.5C 55.1667,45.5 31.8333,45.5 8.5,45.5C 8.5,35.5 8.5,25.5 8.5,15.5 Z"/></g>
<g><path style="opacity:1" fill="#3fb6f5" d="M 42.5,17.5 C 43.552,17.3505 44.552,17.5172 45.5,18C 47.2226,21.8079 50.2226,23.4746 54.5,23C 55.7292,25.619 55.3959,28.119 53.5,30.5C 57.2669,37.0888 55.2669,40.0888 47.5,39.5C 45.1667,43.5 42.8333,43.5 40.5,39.5C 32.7331,40.0888 30.7331,37.0888 34.5,30.5C 30.72,24.4483 32.3867,21.615 39.5,22C 40.8825,20.7292 41.8825,19.2292 42.5,17.5 Z"/></g>
<g><path style="opacity:1" fill="#d7e7ee" d="M 35.5,25.5 C 38.0009,25.5109 38.1676,26.1776 36,27.5C 35.5357,26.9056 35.369,26.2389 35.5,25.5 Z"/></g>
<g><path style="opacity:1" fill="#e7ebee" d="M 40.5,25.5 C 45.0953,24.6404 48.0953,26.3071 49.5,30.5C 48.0444,35.0222 45.0444,36.3556 40.5,34.5C 39.3887,33.3887 38.722,32.0554 38.5,30.5C 39.1869,28.8228 39.8535,27.1561 40.5,25.5 Z"/></g>
<g><path style="opacity:1" fill="#dbe8ee" d="M 50.5,26.5 C 51.0768,25.2267 51.7435,25.2267 52.5,26.5C 52.0302,27.463 51.3635,27.463 50.5,26.5 Z"/></g>
<g><path style="opacity:1" fill="#c5e1ef" d="M 35.5,33.5 C 37.337,33.6395 37.6704,34.3061 36.5,35.5C 35.7025,35.0431 35.3691,34.3764 35.5,33.5 Z"/></g>
<g><path style="opacity:1" fill="#c6e1ef" d="M 50.5,33.5 C 52.337,33.6395 52.6704,34.3061 51.5,35.5C 50.7025,35.0431 50.3691,34.3764 50.5,33.5 Z"/></g>
<g><path style="opacity:1" fill="#1db0f5" d="M 8.5,45.5 C 31.8333,45.5 55.1667,45.5 78.5,45.5C 78.7174,48.4206 78.0507,51.0872 76.5,53.5C 54.5,53.5 32.5,53.5 10.5,53.5C 8.94929,51.0872 8.28262,48.4206 8.5,45.5 Z"/></g>
<g><path style="opacity:1" fill="#eeeeee" d="M 10.5,53.5 C 32.5,53.5 54.5,53.5 76.5,53.5C 75.2511,55.1361 73.5844,56.3028 71.5,57C 52.8333,57.6667 34.1667,57.6667 15.5,57C 13.4156,56.3028 11.7489,55.1361 10.5,53.5 Z"/></g>
</svg>
