<svg xmlns="http://www.w3.org/2000/svg" x="0" y="2112" width="82px"
     height="66px" viewBox="0 0 82 66" version="1.1">
    <title>nv</title>
    <g id="nv" stroke="none" stroke-width="1" fill="none" fill-rule="evenodd">
        <g id="Group" transform="translate(6.000000, 6.000000)" fill-rule="nonzero">
            <path d="M57.4369625,-2 L12.5630375,-2 C7.62820119,-2 5.86681923,-1.41548743 4.07025832,-0.45467615 C2.11952904,0.588585286 0.588585286,2.11952904 -0.45467615,4.07025832 C-1.41548743,5.86681923 -2,7.62820119 -2,12.5630375 L-2,41.4369625 C-2,46.3717988 -1.41548743,48.1331808 -0.45467615,49.9297417 C0.588585286,51.880471 2.11952904,53.4114147 4.07025832,54.4546762 C5.86681923,55.4154874 7.62820119,56 12.5630375,56 L57.4369625,56 C62.3717988,56 64.1331808,55.4154874 65.9297417,54.4546762 C67.880471,53.4114147 69.4114147,51.880471 70.4546762,49.9297417 C71.4154874,48.1331808 72,46.3717988 72,41.4369625 L72,12.5630375 C72,7.62820119 71.4154874,5.86681923 70.4546762,4.07025832 C69.4114147,2.11952904 67.880471,0.588585286 65.9297417,-0.45467615 C64.1331808,-1.41548743 62.3717988,-2 57.4369625,-2 Z"
                  id="Rectangle-3" stroke="#FFFFFF" stroke-width="4" fill="#FFCE8E"/>
            <path d="M33.9614086,12.9788861 L33.3972851,21.6615389 C33.3574994,22.2738975 32.8288319,22.7380595 32.2164733,22.6982738 C32.2102975,22.6978725 32.2041252,22.6974197 32.1979571,22.6969153 L30.2989764,22.5416333 C29.687368,22.4916213 29.1510188,22.9468851 29.1010068,23.5584935 C29.0784501,23.8343446 29.1596578,24.1086837 29.3287336,24.3278094 L30.5097698,25.8584559 C30.8504431,26.2999753 30.8110589,26.9256223 30.4177073,27.3209351 L29.0313731,28.7141813 C28.5985376,29.1491749 28.600287,29.8526893 29.0352806,30.2855249 C29.2354009,30.4846523 29.5038157,30.6001368 29.7860029,30.6085204 L31.8403211,30.6695527 C32.2537484,30.6818354 32.6261355,30.9227411 32.8068153,31.2948 L34.0184323,33.789782 C34.2864969,34.341785 34.9512931,34.5719626 35.5032961,34.3038981 C35.7225791,34.1974095 35.9007564,34.0217621 36.0103696,33.8040242 L37.2704229,31.3010292 C37.4591721,30.926094 37.8431052,30.6895341 38.2628702,30.6895341 L40.0139875,30.6895341 C40.6276372,30.6895341 41.1250986,30.1920727 41.1250986,29.578423 C41.1250986,29.3171569 41.0330315,29.0642468 40.8650715,28.8641234 L39.5085302,27.2478121 C39.1993231,26.8793937 39.1622702,26.3538557 39.4167248,25.9456964 L40.4820295,24.2368891 C40.8066713,23.7161457 40.6476996,23.0308256 40.1269562,22.7061838 C39.920978,22.5777728 39.6786168,22.5203434 39.4369191,22.542674 L37.8793876,22.6865757 C37.2683403,22.7430308 36.7272226,22.2934451 36.6707675,21.6823978 L36.6705706,21.6802444 L35.8861409,13.0056556 C35.8559164,12.6714191 35.9783797,12.3414289 36.2193346,12.1078303 L39.3410349,9.08143495 C40.0019189,8.44072765 41.057067,8.45708407 41.6977743,9.11796804 C41.8596992,9.28499215 41.9848656,9.48406424 42.06522,9.70237568 L43.3806648,13.2762498 C43.6131287,13.9078209 44.2026211,14.3376092 44.8750264,14.365762 L49.0834113,14.5419622 C50.0030802,14.5804677 50.7174042,15.3572215 50.6788987,16.2768903 C50.6735824,16.4038667 50.6537602,16.5298183 50.6198187,16.6522897 L49.4752197,20.7823521 C49.2969896,21.4254609 49.5195597,22.1128822 50.0408992,22.5294876 L53.3706588,25.1903175 C54.0897423,25.7649412 54.2068501,26.8136981 53.6322264,27.5327815 C53.555013,27.6294063 53.4672836,27.7171357 53.3706588,27.7943491 L50.0408992,30.455179 C49.5195597,30.8717843 49.2969896,31.5592057 49.4752197,32.2023145 L50.6198187,36.3323769 C50.8656515,37.2194167 50.3458505,38.1377915 49.4588107,38.3836243 C49.3363393,38.4175658 49.2103877,38.437388 49.0834113,38.4427043 L44.8750264,38.6189045 C44.2026211,38.6470574 43.6131287,39.0768457 43.3806648,39.7084167 L41.9126584,43.6967789 C41.5947106,44.5605975 40.6366995,45.0031132 39.7728809,44.6851653 C39.6484687,44.6393726 39.5299646,44.5788994 39.4198811,44.5050279 L35.9286954,42.1622694 C35.3669444,41.7853066 34.6330556,41.7853066 34.0713046,42.1622694 L30.5801189,44.5050279 C29.8157874,45.0179322 28.7803832,44.8141102 28.2674789,44.0497787 C28.1936075,43.9396952 28.1331343,43.821191 28.0873416,43.6967789 L26.6193352,39.7084167 C26.3868713,39.0768457 25.7973789,38.6470574 25.1249736,38.6189045 L20.9165887,38.4427043 C19.9969198,38.4041989 19.2825958,37.6274451 19.3211013,36.7077763 C19.3264176,36.5807999 19.3462398,36.4548483 19.3801813,36.3323769 L20.5247803,32.2023145 C20.7030104,31.5592057 20.4804403,30.8717843 19.9591008,30.455179 L16.6293412,27.7943491 C15.9102577,27.2197254 15.7931499,26.1709685 16.3677736,25.451885 C16.444987,25.3552603 16.5327164,25.2675309 16.6293412,25.1903175 L19.9591008,22.5294876 C20.4804403,22.1128822 20.7030104,21.4254609 20.5247803,20.7823521 L19.3801813,16.6522897 C19.1343485,15.7652498 19.6541495,14.8468751 20.5411893,14.6010423 C20.6636607,14.5671007 20.7896123,14.5472786 20.9165887,14.5419622 L25.1249736,14.365762 C25.7973789,14.3376092 26.3868713,13.9078209 26.6193352,13.2762498 L27.9191598,9.7448135 C28.2371076,8.88099488 29.1951187,8.43847921 30.0589373,8.75642707 C30.2856539,8.83987522 30.491519,8.97161363 30.6622712,9.14251616 L33.6386549,12.121519 C33.8645313,12.3475941 33.9821283,12.6599804 33.9614086,12.9788861 L33.9614086,12.9788861 Z"
                  id="Star" fill="#4B4B4B"/>
            <path d="M21.5,27.0606061 C21.5,20.8532393 25.667935,15.4325581 31.596128,13.8813668 C32.0570228,13.7607675 32.5063645,14.1116171 32.5011307,14.5880001 L32.4623253,18.1200388 C32.4590374,18.4193017 32.2715165,18.6855329 31.9908446,18.7894193 C28.5730974,20.0544471 26.2777778,23.3601131 26.2777778,27.0606061 C26.2777778,31.9266305 30.1843201,35.8686869 35,35.8686869 C39.8156799,35.8686869 43.7222222,31.9266305 43.7222222,27.0606061 C43.7222222,23.3500068 41.4144774,20.0375096 37.9835276,18.7799695 C37.7009199,18.6763858 37.5121842,18.4083931 37.5098723,18.1074091 L37.4827889,14.5814166 C37.4791402,14.1064023 37.9271813,13.7572856 38.3868953,13.8769306 C44.323405,15.4219642 48.5,20.846687 48.5,27.0606061 C48.5,34.5791487 42.4573145,40.6767677 35,40.6767677 C27.5426855,40.6767677 21.5,34.5791487 21.5,27.0606061 Z"
                  id="Path" fill="#FF4B4B"/>
        </g>
    </g>
</svg>