<?xml version="1.0" encoding="UTF-8"?>
<!DOCTYPE svg PUBLIC "-//W3C//DTD SVG 1.1//EN" "http://www.w3.org/Graphics/SVG/1.1/DTD/svg11.dtd">
<svg xmlns="http://www.w3.org/2000/svg" version="1.1" width="78px" height="62px" style="shape-rendering:geometricPrecision; text-rendering:geometricPrecision; image-rendering:optimizeQuality; fill-rule:evenodd; clip-rule:evenodd" xmlns:xlink="http://www.w3.org/1999/xlink">
<g><path style="opacity:0.969" fill="#fffefe" d="M 7.5,-0.5 C 28.1667,-0.5 48.8333,-0.5 69.5,-0.5C 72.5,1.83333 75.1667,4.5 77.5,7.5C 77.5,22.8333 77.5,38.1667 77.5,53.5C 75.0967,56.907 72.0967,59.5737 68.5,61.5C 48.5,61.5 28.5,61.5 8.5,61.5C 4.90326,59.5737 1.90326,56.907 -0.5,53.5C -0.5,38.1667 -0.5,22.8333 -0.5,7.5C 1.83333,4.5 4.5,1.83333 7.5,-0.5 Z"/></g>
<g><path style="opacity:1" fill="#ff4d4c" d="M 9.5,3.5 C 12.5,3.5 15.5,3.5 18.5,3.5C 18.5,10.1667 18.5,16.8333 18.5,23.5C 13.5,23.5 8.5,23.5 3.5,23.5C 3.33418,18.8215 3.50085,14.1548 4,9.5C 5.35968,6.97739 7.19301,4.97739 9.5,3.5 Z"/></g>
<g><path style="opacity:1" fill="#1cb0f6" d="M 21.5,3.5 C 24.1667,3.5 26.8333,3.5 29.5,3.5C 29.5,11.1667 29.5,18.8333 29.5,26.5C 44.1667,26.5 58.8333,26.5 73.5,26.5C 73.5,29.1667 73.5,31.8333 73.5,34.5C 58.8333,34.5 44.1667,34.5 29.5,34.5C 29.5,42.1667 29.5,49.8333 29.5,57.5C 26.8333,57.5 24.1667,57.5 21.5,57.5C 21.5,49.8333 21.5,42.1667 21.5,34.5C 15.5,34.5 9.5,34.5 3.5,34.5C 3.5,31.8333 3.5,29.1667 3.5,26.5C 9.5,26.5 15.5,26.5 21.5,26.5C 21.5,18.8333 21.5,11.1667 21.5,3.5 Z"/></g>
<g><path style="opacity:1" fill="#ff4b4b" d="M 32.5,3.5 C 43.8382,3.33348 55.1716,3.50014 66.5,4C 69.5827,4.78597 71.7494,6.61931 73,9.5C 73.4992,14.1548 73.6658,18.8215 73.5,23.5C 59.8333,23.5 46.1667,23.5 32.5,23.5C 32.5,16.8333 32.5,10.1667 32.5,3.5 Z"/></g>
<g><path style="opacity:1" fill="#ff4d4c" d="M 3.5,37.5 C 8.5,37.5 13.5,37.5 18.5,37.5C 18.5,44.1667 18.5,50.8333 18.5,57.5C 11.555,59.2253 6.72171,56.892 4,50.5C 3.50098,46.1794 3.33432,41.8461 3.5,37.5 Z"/></g>
<g><path style="opacity:1" fill="#ff4b4b" d="M 32.5,37.5 C 46.1667,37.5 59.8333,37.5 73.5,37.5C 73.8254,42.5988 73.3254,47.5988 72,52.5C 70.8906,54.8147 69.0573,56.3147 66.5,57C 55.1716,57.4999 43.8382,57.6665 32.5,57.5C 32.5,50.8333 32.5,44.1667 32.5,37.5 Z"/></g>
</svg>
