<svg xmlns="http://www.w3.org/2000/svg" x="0" y="2244" width="82px"
     height="66px" viewBox="0 0 82 66" version="1.1">
    <title>ca</title>
    <g id="ca" stroke="none" stroke-width="1" fill="none" fill-rule="evenodd">
        <g id="Group" transform="translate(6.000000, 6.000000)">
            <path d="M57.4369625,-2 L12.5630375,-2 C7.62820119,-2 5.86681923,-1.41548743 4.07025832,-0.45467615 C2.11952904,0.588585286 0.588585286,2.11952904 -0.45467615,4.07025832 C-1.41548743,5.86681923 -2,7.62820119 -2,12.5630375 L-2,41.4369625 C-2,46.3717988 -1.41548743,48.1331808 -0.45467615,49.9297417 C0.588585286,51.880471 2.11952904,53.4114147 4.07025832,54.4546762 C5.86681923,55.4154874 7.62820119,56 12.5630375,56 L57.4369625,56 C62.3717988,56 64.1331808,55.4154874 65.9297417,54.4546762 C67.880471,53.4114147 69.4114147,51.880471 70.4546762,49.9297417 C71.4154874,48.1331808 72,46.3717988 72,41.4369625 L72,12.5630375 C72,7.62820119 71.4154874,5.86681923 70.4546762,4.07025832 C69.4114147,2.11952904 67.880471,0.588585286 65.9297417,-0.45467615 C64.1331808,-1.41548743 62.3717988,-2 57.4369625,-2 Z"
                  id="Rectangle-3" stroke="#FFFFFF" stroke-width="4" fill="#FF4B4B"/>
            <path d="M12.5630375,-1.33226763e-15 L57.4369625,-1.33226763e-15 C61.8054044,-1.33226763e-15 63.3895069,0.454845494 64.986544,1.30895025 C66.583581,2.163055 67.836945,3.41641901 68.6910498,5.01345604 C68.8631227,5.33520441 69.0189902,5.65642778 69.158198,6 L0.841802033,6 C0.981009754,5.65642778 1.13687734,5.33520441 1.30895025,5.01345604 C2.163055,3.41641901 3.41641901,2.163055 5.01345604,1.30895025 C6.61049308,0.454845494 8.19459564,-1.33226763e-15 12.5630375,-1.33226763e-15 Z"
                  id="Path" fill="#FFD300"/>
            <path d="M69.9973404,12 C69.9991119,12.1824033 70,12.370002 70,12.5630375 L70,18 L-7.10542736e-15,18 L-7.10542736e-15,12.5630375 C-7.10542736e-15,12.370002 0.000888147597,12.1824033 0.00265964657,12 L69.9973404,12 Z"
                  id="Path" fill="#FFD300"/>
            <polygon id="Path" fill="#FFD300" points="70 24 70 30 -4.69576973e-15 30 -7.10542736e-15 24"/>
            <path d="M70,41.4369625 C70,41.629998 69.9991119,41.8175967 69.9973404,42 L0.00265964657,42 C0.000888147597,41.8175967 -7.10542736e-15,41.629998 -7.10542736e-15,41.4369625 L-7.10542736e-15,36 L70,36 L70,41.4369625 Z"
                  id="Path" fill="#FFD300"/>
            <path d="M69.158198,48 C69.0189902,48.3435722 68.8631227,48.6647956 68.6910498,48.986544 C67.836945,50.583581 66.583581,51.836945 64.986544,52.6910498 C63.3895069,53.5451545 61.8054044,54 57.4369625,54 L12.5630375,54 C8.19459564,54 6.61049308,53.5451545 5.01345604,52.6910498 C3.41641901,51.836945 2.163055,50.583581 1.30895025,48.986544 C1.13687734,48.6647956 0.981009754,48.3435722 0.841802033,48 L69.158198,48 Z"
                  id="Path" fill="#FFD300"/>
        </g>
    </g>
</svg>