<svg xmlns="http://www.w3.org/2000/svg" x="0" y="1452" width="82px"
     height="66px" viewBox="0 0 82 66" version="1.1">
    <title>sw</title>
    <g id="sw" stroke="none" stroke-width="1" fill="none" fill-rule="evenodd">
        <g id="Group" transform="translate(6.000000, 6.000000)" fill-rule="nonzero">
            <path d="M57.4369625,-2 L12.5630375,-2 C7.62820119,-2 5.86681923,-1.41548743 4.07025832,-0.45467615 C2.11952904,0.588585286 0.588585286,2.11952904 -0.45467615,4.07025832 C-1.41548743,5.86681923 -2,7.62820119 -2,12.5630375 L-2,41.4369625 C-2,46.3717988 -1.41548743,48.1331808 -0.45467615,49.9297417 C0.588585286,51.880471 2.11952904,53.4114147 4.07025832,54.4546762 C5.86681923,55.4154874 7.62820119,56 12.5630375,56 L57.4369625,56 C62.3717988,56 64.1331808,55.4154874 65.9297417,54.4546762 C67.880471,53.4114147 69.4114147,51.880471 70.4546762,49.9297417 C71.4154874,48.1331808 72,46.3717988 72,41.4369625 L72,12.5630375 C72,7.62820119 71.4154874,5.86681923 70.4546762,4.07025832 C69.4114147,2.11952904 67.880471,0.588585286 65.9297417,-0.45467615 C64.1331808,-1.41548743 62.3717988,-2 57.4369625,-2 Z"
                  id="Rectangle-3" stroke="#FFFFFF" stroke-width="4" fill="#1CB0F6"/>
            <path d="M65.4382734,1.56673279 L0.513817823,47.027326 C0.175721879,45.7917514 -4.97379915e-14,44.1521982 -4.97379915e-14,41.4369625 L-4.97379915e-14,12.5630375 C-4.97379915e-14,8.19459564 0.454845494,6.61049308 1.30895025,5.01345604 C2.163055,3.41641901 3.41641901,2.163055 5.01345604,1.30895025 C6.61049308,0.454845494 8.19459564,0 12.5630375,0 L57.4369625,0 C61.8054044,0 63.3895069,0.454845494 64.986544,1.30895025 C65.1403235,1.39119243 65.2909165,1.47713648 65.4382734,1.56673279 Z"
                  id="Path" fill="#7AC70C"/>
            <path d="M56.1928591,-3.55271368e-15 L57.4369625,-3.55271368e-15 C61.8054044,-3.55271368e-15 63.3895069,0.454845494 64.986544,1.30895025 C66.583581,2.163055 67.836945,3.41641901 68.6910498,5.01345604 C69.5451545,6.61049308 70,8.19459564 70,12.5630375 L70,15.0833142 L14.4212127,54 L12.5630375,54 C8.19459564,54 6.61049308,53.5451545 5.01345604,52.6910498 C3.41641901,51.836945 2.163055,50.583581 1.30895025,48.986544 C0.454845494,47.3895069 0,45.8054044 0,41.4369625 L0,39.3466635 L56.1928591,-3.55271368e-15 L56.1928591,-3.55271368e-15 Z"
                  id="Path" fill="#FFC300"/>
            <path d="M62.5046402,0.386116527 C63.5132292,0.604802981 64.2485054,0.914242902 64.986544,1.30895025 C66.583581,2.163055 67.836945,3.41641901 68.6910498,5.01345604 C69.3667137,6.27683785 69.7925192,7.5321252 69.9409474,10.1641398 L7.80016419,53.6755846 C6.63092505,53.4550556 5.82385583,53.1244563 5.01345604,52.6910498 C3.41641901,51.836945 2.163055,50.583581 1.30895025,48.986544 C0.65626802,47.7661343 0.236736262,46.5532778 0.07515997,44.0997092 L62.5046402,0.386116527 L62.5046402,0.386116527 Z"
                  id="Path" fill="#4B4B4B"/>
        </g>
    </g>
</svg>