<?xml version="1.0" encoding="UTF-8"?>
<!DOCTYPE svg PUBLIC "-//W3C//DTD SVG 1.1//EN" "http://www.w3.org/Graphics/SVG/1.1/DTD/svg11.dtd">
<svg xmlns="http://www.w3.org/2000/svg" version="1.1" width="78px" height="62px" style="shape-rendering:geometricPrecision; text-rendering:geometricPrecision; image-rendering:optimizeQuality; fill-rule:evenodd; clip-rule:evenodd" xmlns:xlink="http://www.w3.org/1999/xlink">
<g><path style="opacity:0.949" fill="#fefefd" d="M 7.5,-0.5 C 28.1667,-0.5 48.8333,-0.5 69.5,-0.5C 72.5,1.83333 75.1667,4.5 77.5,7.5C 77.5,22.8333 77.5,38.1667 77.5,53.5C 75.0967,56.907 72.0967,59.5737 68.5,61.5C 48.5,61.5 28.5,61.5 8.5,61.5C 4.90326,59.5737 1.90326,56.907 -0.5,53.5C -0.5,38.1667 -0.5,22.8333 -0.5,7.5C 1.83333,4.5 4.5,1.83333 7.5,-0.5 Z"/></g>
<g><path style="opacity:1" fill="#79c802" d="M 9.5,3.5 C 28.5029,3.33338 47.5029,3.50005 66.5,4C 69.5827,4.78597 71.7494,6.61931 73,9.5C 73.6667,23.1667 73.6667,36.8333 73,50.5C 72.1667,54 70,56.1667 66.5,57C 47.5,57.6667 28.5,57.6667 9.5,57C 6.61931,55.7494 4.78597,53.5827 4,50.5C 3.33333,36.8333 3.33333,23.1667 4,9.5C 5.35968,6.97739 7.19301,4.97739 9.5,3.5 Z"/></g>
<g><path style="opacity:1" fill="#fbc704" d="M 36.5,9.5 C 37.8734,9.34332 39.2068,9.50999 40.5,10C 50.0522,16.9358 59.3855,24.1024 68.5,31.5C 58.8933,39.31 48.8933,46.6433 38.5,53.5C 28.1067,46.6433 18.1067,39.31 8.5,31.5C 17.8636,24.1581 27.1969,16.8247 36.5,9.5 Z"/></g>
<g><path style="opacity:1" fill="#30b2f1" d="M 50.5,31.5 C 43.4153,30.4794 36.4153,28.9794 29.5,27C 28.944,26.6174 28.6107,26.1174 28.5,25.5C 35.1758,17.6065 42.0091,17.6065 49,25.5C 50.128,27.3453 50.628,29.3453 50.5,31.5 Z"/></g>
<g><path style="opacity:1" fill="#f3fafa" d="M 28.5,25.5 C 28.6107,26.1174 28.944,26.6174 29.5,27C 36.4153,28.9794 43.4153,30.4794 50.5,31.5C 50.7406,33.8984 50.0739,35.8984 48.5,37.5C 48.2089,36.3509 47.3756,35.6842 46,35.5C 39.4354,34.0213 32.9354,32.3546 26.5,30.5C 26.4021,28.4471 27.0687,26.7804 28.5,25.5 Z"/></g>
<g><path style="opacity:1" fill="#31b2f1" d="M 26.5,30.5 C 32.9354,32.3546 39.4354,34.0213 46,35.5C 47.3756,35.6842 48.2089,36.3509 48.5,37.5C 41.7551,45.4323 34.9218,45.4323 28,37.5C 27.023,35.26 26.523,32.9267 26.5,30.5 Z"/></g>
</svg>
