<svg xmlns="http://www.w3.org/2000/svg" x="0" y="396" width="82px"
     height="66px" viewBox="0 0 82 66" version="1.1">
    <title>ko</title>
    <g id="ko" stroke="none" stroke-width="1" fill="none" fill-rule="evenodd">
        <g id="Group" transform="translate(6.000000, 6.000000)">
            <path d="M57.4369627,-2 L12.5630373,-2 C7.62820107,-2 5.86681913,-1.41548744 4.07025825,-0.45467617 C2.11952899,0.588585254 0.588585254,2.11952899 -0.45467617,4.07025825 C-1.41548744,5.86681913 -2,7.62820107 -2,12.5630373 L-2,41.4369627 C-2,46.3717989 -1.41548744,48.1331809 -0.45467617,49.9297418 C0.588585254,51.880471 2.11952899,53.4114147 4.07025825,54.4546762 C5.86681913,55.4154874 7.62820107,56 12.5630373,56 L57.4369627,56 C62.3717989,56 64.1331809,55.4154874 65.9297418,54.4546762 C67.880471,53.4114147 69.4114147,51.880471 70.4546762,49.9297418 C71.4154874,48.1331809 72,46.3717989 72,41.4369627 L72,12.5630373 C72,7.62820107 71.4154874,5.86681913 70.4546762,4.07025825 C69.4114147,2.11952899 67.880471,0.588585254 65.9297418,-0.45467617 C64.1331809,-1.41548744 62.3717989,-2 57.4369627,-2 Z"
                  id="Rectangle-3" stroke="#FFFFFF" stroke-width="4" fill="#EEEEEE"/>
            <circle id="Oval-19" fill="#FF4B4B" fill-rule="nonzero" cx="35" cy="27" r="13"/>
            <path d="M22.0095143,27.5020022 C24.233325,29.8234187 26.4233502,30.984127 28.5795898,30.984127 C30.7389045,30.984127 32.888522,29.8201058 35.0284424,27.4920635 C36.9850227,25.1640212 39.0922005,24 41.3499756,24 C43.5266391,24 45.7425557,25.0818875 47.9977253,27.2456626 C47.8667649,34.3119988 42.0976344,40 35,40 C27.9883966,40 22.2732864,34.4490525 22.0095143,27.5020022 Z"
                  id="Path" fill="#1CB0F6" fill-rule="nonzero"/>
            <path d="M17.0541176,47.6354797 L8.26047638,38.8617788 C7.74733178,38.3497977 7.74638851,37.5187693 8.25836951,37.0056247 C8.77035052,36.4924801 9.60137902,36.4915368 10.1145236,37.0035178 L18.9081648,45.7772187 C19.4213094,46.2891997 19.4222527,47.1202282 18.9102717,47.6333728 C18.3982907,48.1465174 17.5672622,48.1474607 17.0541176,47.6354797 Z"
                  id="Path" fill="#4C4C4C" fill-rule="nonzero"/>
            <path d="M56.5087856,20.4433135 L53.3225597,17.2527111 C52.8103485,16.7397963 52.8109188,15.9087674 53.3238336,15.3965562 C53.8367484,14.884345 54.6677773,14.8849153 55.1799885,15.3978301 L58.3662144,18.5884325 C58.8784256,19.1013473 58.8778553,19.9323762 58.3649405,20.4445874 C57.8520257,20.9567986 57.0209968,20.9562283 56.5087856,20.4433135 Z"
                  id="Path" fill="#4C4C4C" fill-rule="nonzero"/>
            <path d="M9.23952362,17.0799241 C8.72637902,17.5919051 7.89535052,17.5909619 7.38336951,17.0778173 C6.87138851,16.5646727 6.87233178,15.7336442 7.38547638,15.2216632 L16.1791176,6.44796222 C16.6922622,5.93598122 17.5232907,5.9369245 18.0352717,6.4500691 C18.5472527,6.96321369 18.5463094,7.79424219 18.0331648,8.3062232 L9.23952362,17.0799241 Z"
                  id="Path" fill="#4C4C4C" fill-rule="nonzero"/>
            <path d="M50.6911649,14.6388877 L47.7168352,11.6713026 C47.2036906,11.1593216 47.2027473,10.3282931 47.7147283,9.81514846 C48.2267094,9.30200386 49.0577379,9.30106058 49.5708825,9.81304159 L52.5452121,12.7806268 C53.0583567,13.2926078 53.0593,14.1236363 52.547319,14.6367809 C52.035338,15.1499255 51.2043095,15.1508688 50.6911649,14.6388877 Z"
                  id="Path" fill="#4C4C4C" fill-rule="nonzero"/>
            <path d="M14.6911649,38.3373004 L11.7168352,35.3697153 C11.2036906,34.8577343 11.2027473,34.0267058 11.7147283,33.5135612 C12.2267094,33.0004166 13.0577379,32.9994733 13.5708825,33.5114543 L16.5452121,36.4790395 C17.0583567,36.9910205 17.0593,37.822049 16.547319,38.3351936 C16.035338,38.8483382 15.2043095,38.8492815 14.6911649,38.3373004 Z"
                  id="Path" fill="#4C4C4C" fill-rule="nonzero"/>
            <path d="M49.4895236,44.1434162 C48.976379,44.6553972 48.1453505,44.6544539 47.6333695,44.1413093 C47.1213885,43.6281647 47.1223318,42.7971362 47.6354764,42.2851552 L56.4291176,33.5114543 C56.9422622,32.9994733 57.7732907,33.0004166 58.2852717,33.5135612 C58.7972527,34.0267058 58.7963094,34.8577343 58.2831648,35.3697153 L49.4895236,44.1434162 Z"
                  id="Path" fill="#4C4C4C" fill-rule="nonzero"/>
            <path d="M60.0087856,16.95125 L56.8225597,13.7606476 C56.3103485,13.2477328 56.3109188,12.416704 56.8238336,11.9044927 C57.3367484,11.3922815 58.1677773,11.3928518 58.6799885,11.9057666 L61.8662144,15.096369 C62.3784256,15.6092838 62.3778553,16.4403127 61.8649405,16.9525239 C61.3520257,17.4647351 60.5209968,17.4641648 60.0087856,16.95125 Z"
                  id="Path" fill="#4C4C4C" fill-rule="nonzero"/>
            <path d="M12.7395236,20.5719876 C12.226379,21.0839686 11.3953505,21.0830254 10.8833695,20.5698808 C10.3713885,20.0567362 10.3723318,19.2257077 10.8854764,18.7137267 L19.6791176,9.94002572 C20.1922622,9.42804471 21.0232907,9.42898799 21.5352717,9.94213259 C22.0472527,10.4552772 22.0463094,11.2863057 21.5331648,11.7982867 L12.7395236,20.5719876 Z"
                  id="Path" fill="#4C4C4C" fill-rule="nonzero"/>
            <path d="M52.9895236,47.6354797 C52.476379,48.1474607 51.6453505,48.1465174 51.1333695,47.6333728 C50.6213885,47.1202282 50.6223318,46.2891997 51.1354764,45.7772187 L59.9291176,37.0035178 C60.4422622,36.4915368 61.2732907,36.4924801 61.7852717,37.0056247 C62.2972527,37.5187693 62.2963094,38.3497977 61.7831648,38.8617788 L52.9895236,47.6354797 Z"
                  id="Path" fill="#4C4C4C" fill-rule="nonzero"/>
            <path d="M54.1911649,11.1468243 L51.2168352,8.17923907 C50.7036906,7.66725807 50.7027473,6.83622957 51.2147283,6.32308497 C51.7267094,5.80994037 52.5577379,5.80899709 53.0708825,6.3209781 L56.0452121,9.28856328 C56.5583567,9.80054429 56.5593,10.6315728 56.047319,11.1447174 C55.535338,11.657862 54.7043095,11.6588053 54.1911649,11.1468243 Z"
                  id="Path" fill="#4C4C4C" fill-rule="nonzero"/>
            <path d="M20.5087856,44.1417262 L17.3225597,40.9511238 C16.8103485,40.438209 16.8109188,39.6071801 17.3238336,39.0949689 C17.8367484,38.5827577 18.6677773,38.583328 19.1799885,39.0962428 L22.3662144,42.2868452 C22.8784256,42.79976 22.8778553,43.6307889 22.3649405,44.1430001 C21.8520257,44.6552113 21.0209968,44.654641 20.5087856,44.1417262 Z"
                  id="Path" fill="#4C4C4C" fill-rule="nonzero"/>
        </g>
    </g>
</svg>