<svg viewBox="0 0 152 174" fill="none" xmlns="http://www.w3.org/2000/svg"><g clip-path="url(#clip0)"><path opacity="0.3" d="M36.487 173.962C34.1821 173.962 32.3711 172.143 32.3711 169.829C32.3711 167.515 34.1821 165.696 36.487 165.696H124.733C127.038 165.696 128.849 167.515 128.849 169.829C128.849 172.143 127.038 173.962 124.733 173.962H36.487Z" fill="#AFAFAF"/><path d="M50.8103 153.132C49.8225 149.495 51.7981 145.858 55.4202 144.701C59.0422 143.709 62.6643 145.693 63.8167 149.33C64.3106 150.818 65.6277 151.975 67.1095 152.471C70.5669 153.959 72.2133 157.761 70.7315 161.233C69.2498 164.704 65.4631 166.358 62.0057 164.87C56.5726 163.217 52.4567 158.753 50.8103 153.132Z" fill="#F49000"/><path d="M119.958 153.132C118.312 158.588 114.196 163.051 108.763 165.035C105.306 166.523 101.354 165.035 99.8725 161.729C98.3907 158.257 99.8725 154.289 103.165 152.802C103.33 152.636 103.495 152.636 103.824 152.636C105.306 152.14 106.623 150.983 107.117 149.495C108.104 145.858 111.891 143.875 115.513 144.867C119.135 145.858 120.946 149.661 119.958 153.132Z" fill="#F49000"/><path d="M4.05314 143.544L38.4625 72.6241C39.9443 69.4831 43.5663 68.1606 46.6944 69.6484C47.353 69.9791 47.8469 70.3097 48.3408 70.8056C67.1096 89.4862 67.2742 119.739 48.6701 138.585C38.2979 149.165 23.4804 154.29 8.82765 152.471C5.37024 151.975 3.06531 148.834 3.55922 145.363C3.55922 144.867 3.8885 144.205 4.05314 143.544Z" fill="#58CC02"/><path d="M143.172 113.126C145.313 115.937 144.654 119.739 142.02 121.888C141.526 122.218 141.032 122.549 140.373 122.714C115.348 130.98 88.3477 117.259 80.1158 92.1312C75.5059 77.9141 77.6462 62.5398 86.0428 50.1412C88.0184 47.3308 91.8051 46.6696 94.604 48.488C95.0979 48.8187 95.5918 49.3146 96.0857 49.9759L143.172 113.126Z" fill="#43C000"/><path fill-rule="evenodd" clip-rule="evenodd" d="M16.4011 45.8428C38.9565 43.1977 53.1154 40.718 59.0423 38.073C62.829 36.2545 65.9571 32.9482 67.9328 29.146C72.5427 20.5496 83.2442 17.5739 91.8053 22.2027C95.2627 24.1865 97.897 27.1622 99.5433 30.7991L120.123 79.4017C131.977 105.852 120.288 137.097 93.9456 148.999C67.6035 160.902 36.4869 149.165 24.633 122.714C24.3037 121.888 23.9744 121.226 23.6451 120.4L2.40681 70.1441C-1.37987 61.217 2.73609 50.8022 11.7912 47C13.1083 46.504 14.7547 46.0081 16.4011 45.8428Z" fill="#58CC02"/><path d="M87.8541 109.82L75.6709 114.945C75.5063 114.945 75.5063 115.11 75.3416 115.11C74.8477 115.44 74.8477 116.102 75.177 116.432C76.6587 117.92 78.799 118.747 80.9393 118.747C85.5492 118.747 89.1712 115.11 89.1712 110.481C89.1712 110.316 89.1712 110.316 89.0066 110.15C89.0066 109.654 88.5127 109.489 87.8541 109.82ZM109.257 101.719C109.092 101.223 108.434 101.058 107.94 101.223L95.9214 106.348C95.7568 106.348 95.7568 106.513 95.5921 106.513C95.0982 106.844 95.0982 107.505 95.5921 108.001C97.0739 109.489 99.2142 110.316 101.354 110.316C105.964 110.316 109.586 106.679 109.586 102.05C109.422 101.885 109.257 101.885 109.257 101.719ZM102.836 115.44L90.653 120.565C90.4883 120.565 90.4883 120.731 90.3237 120.731C89.9944 121.061 89.8298 121.722 90.3237 122.053C91.8054 123.541 93.9457 124.367 96.086 124.367C100.696 124.367 104.318 120.731 104.318 116.102C104.318 115.936 104.318 115.936 104.153 115.771C103.824 115.44 103.33 115.11 102.836 115.44Z" fill="#89E219"/><path fill-rule="evenodd" clip-rule="evenodd" d="M84.7257 74.9383L74.5182 79.2364C76.1645 88.1634 71.39 97.0905 62.9935 100.727L61.3471 101.389C51.4688 105.522 40.1088 101.058 35.8282 91.1391L31.2183 80.2283C28.2548 73.2851 29.5719 65.35 34.5111 59.7293C33.8525 57.9108 33.6879 55.7617 33.8525 53.9433C34.0172 52.9514 34.8404 52.2901 35.8282 52.2901C35.9928 52.2901 36.1575 52.2901 36.3221 52.4554L40.7673 54.6045C39.6149 52.2901 39.121 49.6451 39.4502 47C39.4502 46.1735 40.1088 45.5122 40.932 45.5122C41.2613 45.5122 41.4259 45.5122 41.7552 45.6775L62.8288 55.2658C68.0973 56.423 73.2011 53.4473 75.1767 48.4879C75.3414 47.9919 75.6706 47.496 75.8353 47V46.8347L80.939 28.4848C81.2683 27.4929 82.2562 27.1623 83.244 27.8235C84.8904 28.8154 86.5368 30.1379 87.6892 31.7911L88.3478 29.3114C88.677 28.4848 89.8295 27.9888 90.6527 28.3195C90.8173 28.3195 90.8173 28.4848 90.982 28.4848C94.1101 30.1379 96.5797 33.2789 97.4029 36.7505C100.86 38.4037 103.494 41.214 104.976 44.6856L112.714 63.0356C116.172 70.8054 112.714 80.063 104.976 83.5346C97.2382 87.0062 88.0185 83.5346 84.5611 75.7648C84.8904 75.2689 84.7257 75.1036 84.7257 74.9383Z" fill="#89E219"/><path fill-rule="evenodd" clip-rule="evenodd" d="M68.9205 83.8652C59.7008 81.0548 49.6578 81.8814 40.932 86.1796L38.1332 79.4017C35.3343 71.9625 39.2856 63.5315 46.6943 60.8864C53.6091 58.4067 61.3471 61.5477 64.6399 68.1603L67.9327 76.0954C68.9205 78.5751 69.2498 81.2201 68.9205 83.8652Z" fill="white"/><path fill-rule="evenodd" clip-rule="evenodd" d="M49.3286 83.2039C51.6336 81.3854 52.4568 78.2445 51.3043 75.2688L48.3408 68.3256C47.1883 65.5152 44.3895 63.8621 41.426 64.1927C41.2614 64.358 41.2614 64.358 41.0967 64.5233C40.9321 64.6886 40.9321 64.6886 40.7675 64.854C40.6028 65.0193 40.4382 65.1846 40.2735 65.3499C41.426 66.1765 41.9199 67.499 42.0846 68.9868C42.2492 71.7972 39.9443 73.9463 37.3101 74.1116C37.3101 74.6075 37.3101 75.1035 37.3101 75.5994C37.3101 75.7647 37.3101 75.7647 37.3101 75.9301C37.3101 76.2607 37.4747 76.5913 37.4747 76.9219C37.4747 77.0873 37.4747 77.2526 37.6393 77.4179L38.9564 80.5589C39.9443 82.8733 42.0846 84.3611 44.3895 84.6917C45.8712 84.0305 47.6823 83.6999 49.3286 83.2039Z" fill="#122431"/><path fill-rule="evenodd" clip-rule="evenodd" d="M106.787 62.0436C99.5431 64.6887 93.2869 69.4828 88.677 75.9301C87.5246 74.7729 86.5367 73.4504 85.8782 71.9625L80.4451 59.068C77.6463 53.2819 79.9512 46.3387 85.7135 43.5284C91.4759 40.718 98.3907 43.0324 101.19 48.8184C101.354 49.1491 101.519 49.645 101.683 49.9757L106.787 62.0436Z" fill="white"/><path fill-rule="evenodd" clip-rule="evenodd" d="M82.2562 63.5315L80.4452 58.9026C80.4452 58.7373 80.2805 58.572 80.2805 58.4067C82.4208 57.2495 83.4086 54.6045 82.4208 52.29C82.0915 51.4635 81.433 50.6369 80.6098 50.141C81.1037 49.8103 81.5976 49.4797 82.0915 49.1491C84.8904 47.9919 88.1831 49.3144 89.3356 52.1247L93.2869 61.3824C94.4394 64.1927 93.1223 67.499 90.3234 68.6562C87.5246 69.8134 84.2318 68.4909 83.0794 65.6805L82.2562 63.5315Z" fill="#122431"/><path d="M92.6283 81.3855L91.8051 79.567C91.4758 78.5751 90.6526 77.9139 89.8294 77.4179V76.7567C88.3477 72.9544 84.0671 71.136 80.2804 72.6238L78.7987 73.2851C75.012 74.7729 73.201 79.0711 74.6827 82.8733L75.9998 86.0143C77.4816 89.8165 81.7622 91.635 85.5488 90.1472L87.0306 89.6512C88.3477 89.1553 89.3355 88.3287 90.1587 87.3368H90.3233C92.4636 86.1796 93.6161 83.5346 92.6283 81.3855Z" fill="#F49000"/><path d="M91.6403 81.8815L90.8171 80.063C90.3232 78.5752 88.6768 77.9139 87.1951 78.5752C85.8779 79.2364 85.2194 80.7243 85.7133 82.2121L86.3719 84.0306C86.8658 85.5184 88.5122 86.1796 89.9939 85.5184C91.4756 85.0224 92.1342 83.3693 91.6403 81.8815Z" fill="#B66E28"/><path d="M72.707 83.6999C71.5545 78.0792 75.1766 72.4585 80.7743 71.3013C85.0549 70.4747 89.3355 72.2931 91.6404 75.9301L91.805 76.2607L87.6891 79.7323L72.707 84.0305V83.6999Z" fill="#FFC200"/><path d="M79.1278 76.7566C78.4692 77.2525 77.646 77.0872 77.1521 76.4259C76.6582 75.7647 76.6582 74.9381 77.3168 74.4421C78.7985 73.2849 80.6095 72.6237 82.5852 72.4584C83.4084 72.293 84.0669 72.9543 84.2316 73.7809C84.3962 74.6075 83.7376 75.2687 82.9145 75.434C82.7498 75.434 82.7498 75.434 82.5852 75.434C81.2681 75.434 80.1156 75.93 79.1278 76.7566Z" fill="#FFDE00"/><path fill-rule="evenodd" clip-rule="evenodd" d="M145.313 49.9757L146.63 43.859L136.587 41.7099L134.447 52.4554C133.953 55.1004 131.318 56.9189 128.684 56.2576C126.05 55.7617 124.239 53.1167 124.898 50.4716C125.392 47.8266 128.026 46.0081 130.66 46.6694C131.154 46.8347 131.648 47 132.142 47.3306L134.611 35.7586C134.776 35.0973 135.27 34.7667 135.928 34.932L150.252 38.073C150.91 38.2383 151.24 38.7343 151.075 39.3955L147.782 55.4311C147.288 58.0761 144.654 59.8946 142.02 59.2333C139.386 58.7374 137.575 56.0923 138.233 53.4473C138.892 50.8022 141.361 48.9838 143.996 49.645C144.49 49.4797 144.983 49.645 145.313 49.9757Z" fill="#92D5FF"/><path fill-rule="evenodd" clip-rule="evenodd" d="M117.654 13.9371L113.538 4.67945C113.373 4.18351 113.538 3.52225 114.031 3.35693L119.958 0.711895C120.452 0.546581 121.111 0.711895 121.276 1.20784L122.757 4.34882C122.922 4.84477 122.757 5.50603 122.263 5.67134L118.147 7.48981L121.934 16.0862C121.934 16.0862 121.934 16.2515 122.099 16.2515C123.087 18.4006 122.099 20.8803 119.958 21.8722C117.818 22.8641 115.349 21.8722 114.361 19.7231C113.373 17.574 114.361 15.0943 116.501 14.1024C116.83 14.1024 117.324 13.9371 117.654 13.9371Z" fill="#B1E1FF"/></g><defs><clipPath id="clip0"><rect width="150.15" height="173.25" fill="white" transform="translate(0.925049 0.711914)"/></clipPath></defs></svg>